<?xml version="1.0" encoding="UTF-8"?>
<svg width="22px" height="22px" viewBox="0 0 22 22" version="1.1" xmlns="http://www.w3.org/2000/svg" xmlns:xlink="http://www.w3.org/1999/xlink">
    <title>jiqun备份 4</title>
    <g id="页面-1" stroke="none" stroke-width="1" fill="none" fill-rule="evenodd" stroke-linejoin="round">
        <g id="浅色" transform="translate(-1031.000000, -48.000000)" fill="currentColor" stroke="currentColor" stroke-width="0.2">
            <path d="M1041.87341,59.6329114 L1037.31646,56.9746645 L1037.31646,51.6582469 L1041.87341,49 L1046.43038,51.6582469 L1046.43038,56.9746645 L1041.87341,59.6329114 Z M1038.32911,56.3418038 L1041.87335,58.3670886 L1045.41772,56.3418038 L1045.41772,52.2911075 L1041.87335,50.2658228 L1038.32911,52.2911075 L1038.32911,56.3418038 Z M1047.44303,69 L1042.88608,66.3417467 L1042.88608,61.0253419 L1047.44303,58.3670886 L1052,61.0253419 L1052,66.3417467 L1047.44303,69 Z M1043.89873,65.7088861 L1047.43002,67.7341772 L1050.98734,65.7088861 L1050.98734,61.6582025 L1047.45615,59.6329114 L1043.92497,61.6582025 L1043.92497,65.7088861 L1043.89873,65.7088861 Z M1036.54402,69 L1032,66.3417467 L1032,61.0253419 L1036.54402,58.3670886 L1041.11392,61.0253419 L1041.11392,66.3417467 L1036.54402,69 Z M1033.01266,65.7088861 L1036.54386,67.7341772 L1040.10127,65.7088861 L1040.10127,61.6582025 L1036.56999,59.6329114 L1033.01266,61.6582025 L1033.01266,65.7088861 Z" id="jiqun备份-4"></path>
        </g>
    </g>
</svg>