<?xml version="1.0" encoding="UTF-8"?>
<svg width="18px" height="20px" viewBox="0 0 18 20" version="1.1" xmlns="http://www.w3.org/2000/svg" xmlns:xlink="http://www.w3.org/1999/xlink">
    <title>chakan备份</title>
    <g id="页面-1" stroke="none" stroke-width="1" fill="none" fill-rule="evenodd">
        <g id="icon" transform="translate(-663.000000, -149.000000)" fill="currentColor">
            <g id="chakan备份" transform="translate(663.000000, 149.000000)">
                <path d="M14.6790651,4.61979233 C14.6790651,4.21907623 14.350846,3.88888889 13.9474099,3.88888889 L4.62054409,3.88888889 C4.21941583,3.88888889 3.88888889,4.21674234 3.88888889,4.61979233 C3.88888889,5.02059382 4.21707955,5.35066731 4.62054409,5.35066731 L13.9474099,5.35066731 C14.350846,5.35066731 14.6790651,5.02059382 14.6790651,4.61979233 Z M4.62054409,8.25834236 C4.21941583,8.25834236 3.88888889,8.58622428 3.88888889,8.9892458 C3.88888889,9.39004729 4.21707955,9.72014924 4.62054409,9.72014924 L8.9762288,9.72014924 C9.37969334,9.72014924 9.71022028,9.39226732 9.70789631,8.9892458 C9.70789631,8.58855816 9.37969334,8.25834236 8.9762288,8.25834236 L4.62054409,8.25834236 Z M15.1098812,15.744951 C15.0620159,15.6971634 15.0095921,15.656235 14.9526096,15.6265492 C15.3651913,15.0392079 15.6067971,14.3264348 15.6067971,13.5568515 C15.6067971,11.5486032 13.9565271,9.92282694 11.921198,9.92282694 C9.88572636,9.92282694 8.23545641,11.5486032 8.23545641,13.5568515 C8.23545641,15.5650713 9.88572636,17.1908476 11.921198,17.1908476 C12.666529,17.1908476 13.3616584,16.9722882 13.9428513,16.5965901 C13.9771263,16.6626504 14.0204045,16.7241282 14.0750507,16.7787183 L15.9737358,18.6754241 C16.2586483,18.9600438 16.7236254,18.9600438 17.0085379,18.6754241 C17.2934503,18.3908044 17.2934503,17.926305 17.0085379,17.6416853 L15.1098812,15.744951 Z M11.921198,15.7586412 C10.6880398,15.7586412 9.6873988,14.77269 9.6873988,13.5568515 C9.6873988,12.3409845 10.6880398,11.3550334 11.921198,11.3550334 C13.1542136,11.3550334 14.1548547,12.3409845 14.1548547,13.5568515 C14.1548547,14.77269 13.1565499,15.7586412 11.921198,15.7586412 Z" id="Fill-1"></path>
                <path d="M10.6773307,18.5666463 L2.7592824,18.5666463 C1.97725569,18.5666463 1.33744342,17.9235628 1.33744342,17.1376742 L1.33744342,2.88007524 C1.33744342,2.09418663 1.97725569,1.45121476 2.7592824,1.45121476 L14.9184648,1.45121476 C15.7004915,1.45121476 16.3403038,2.09418663 16.3403038,2.88007524 L16.3403038,9.98887867 L16.3470521,9.98887867 L16.3470521,9.99105549 C16.3470521,10.3862324 16.6669444,10.7077323 17.0623455,10.7077323 C17.4578855,10.7077323 17.7777778,10.3862324 17.7777778,9.99105549 C17.7777778,9.96423593 17.7755006,9.93970482 17.7733344,9.91288525 L17.7733344,2.85772095 C17.7733344,1.28594373 17.1602099,0 15.5961565,0 L2.84367797,0 C1.27962454,0 0,1.28594373 0,2.85772095 L0,17.1421395 C0,18.7139446 1.27962454,20 2.84367797,20 L10.668444,20 C11.0638451,20 11.3838763,19.6785001 11.3838763,19.2833232 C11.3838763,18.890323 11.0683163,18.5711116 10.6773307,18.5666463 Z" id="Fill-2"></path>
                <path d="M16.1111111,12.4999189 C16.1111111,12.7976863 16.2699522,13.0727706 16.5278506,13.2217192 C16.7856519,13.370538 17.103334,13.370538 17.3611354,13.2217192 C17.6190661,13.0727706 17.7777778,12.7976863 17.7777778,12.4999189 C17.7777778,12.2023137 17.6190661,11.9270996 17.3611354,11.7782808 C17.103334,11.629462 16.7856519,11.629462 16.5278506,11.7782808 C16.2699522,11.9270996 16.1111111,12.2023137 16.1111111,12.4999189 Z" id="Fill-3"></path>
            </g>
        </g>
    </g>
</svg>