<svg id="图层_1" data-name="图层 1" xmlns="http://www.w3.org/2000/svg" xmlns:xlink="http://www.w3.org/1999/xlink" viewBox="0 0 453.54 240.94"><defs><style>.cls-1{fill:url(#未命名的渐变_43);}.cls-2{fill:url(#未命名的渐变_43-2);}.cls-3{fill:url(#未命名的渐变_43-3);}.cls-4{fill:url(#未命名的渐变_43-4);}.cls-5{fill:url(#未命名的渐变_43-5);}.cls-6{fill:url(#未命名的渐变_43-6);}.cls-7{fill:url(#未命名的渐变_43-7);}.cls-8{fill:url(#未命名的渐变_43-8);}.cls-9{fill:url(#未命名的渐变_43-9);}</style><radialGradient id="未命名的渐变_43" cx="48.66" cy="82.16" r="82.28" gradientUnits="userSpaceOnUse"><stop offset="0" stop-color="#00a0cd"/><stop offset="0.42" stop-color="#009199"/><stop offset="1" stop-color="#1e247e"/></radialGradient><radialGradient id="未命名的渐变_43-2" cx="1241.29" cy="206.48" r="1039.59" xlink:href="#未命名的渐变_43"/><radialGradient id="未命名的渐变_43-3" cx="1239.57" cy="206.48" r="1039.58" xlink:href="#未命名的渐变_43"/><radialGradient id="未命名的渐变_43-4" cx="1240.47" cy="206.31" r="1039.59" xlink:href="#未命名的渐变_43"/><radialGradient id="未命名的渐变_43-5" cx="1240.63" cy="206.48" r="1039.58" xlink:href="#未命名的渐变_43"/><radialGradient id="未命名的渐变_43-6" cx="1238.65" cy="206.48" r="1039.58" xlink:href="#未命名的渐变_43"/><radialGradient id="未命名的渐变_43-7" cx="1234.45" cy="206.48" r="1039.59" xlink:href="#未命名的渐变_43"/><radialGradient id="未命名的渐变_43-8" cx="1231.64" cy="206.21" r="1039.61" gradientTransform="matrix(1.02, 0, -0.05, 1, -36.48, 0)" xlink:href="#未命名的渐变_43"/><radialGradient id="未命名的渐变_43-9" cx="1231.14" cy="206.21" r="1039.61" gradientTransform="matrix(1.02, 0, -0.05, 1, -36.48, 0)" xlink:href="#未命名的渐变_43"/></defs><path class="cls-1" d="M88.19,84.05H55.83L28.6,166.35H61a31.09,31.09,0,0,0,16-4.92,22.72,22.72,0,0,0,5.2-5.7c3.92-6.49,1.38-14.3-.15-16.55a22.53,22.53,0,0,0-11.47-8.54.13.13,0,0,0-.19.13,53,53,0,0,0,.9,6.54c.07.27.12.63,0,.53-1-.58-4.7-3.11-6.08-9.31-1.61-7.2-10.89-9.16-11.37-9.24s-4.82-.85-4.47-1.81c0,0,.45-1.74,3.86-1.58s2.66-3.27,7.83-3.5,15.41,3.51,21,6.78,12-.11,14.87,2.46-5.93.9-6,4.59,2.62,8.07,2,15.27c0,.29,0,.58-.08.87.09-.26.19-.52.27-.78L104,108.8C108.55,95.13,101.46,84.05,88.19,84.05Z"/><path class="cls-2" d="M127.57,113.89l1.11.17,1.28-.17q11.32,0,13.81,9.27a19.9,19.9,0,0,1,.25,4.9q-.42,3.69-7.24,23.44a29.34,29.34,0,0,1-7.63,9.73,22.72,22.72,0,0,1-14,5.12h-4.78q-8.17,0-11.63-7a15.71,15.71,0,0,1-.92-7.5q.33-2.9,7-22.48,4.13-8.72,11.12-12.45A25.79,25.79,0,0,1,127.57,113.89ZM108.06,151.5q-.56,5,5.69,4.95h2.69q9,0,12-10.36,5-14.81,5.24-16.9l.11-1q.48-4.27-6.57-4.28h-1.09q-7,0-10.24,4.61-2,2.61-7.2,20.09C108.49,148.65,108.27,149.6,108.06,151.5Z"/><path class="cls-3" d="M165.55,90.82q5.44,0,6.51,4.41L172,97.16l0,.16L155.48,149l-.38,1.93q-.45,4,3,5.19,7.92,0,8.6,2.94a5.69,5.69,0,0,1,.55,3.73c-.58,2.38-1,3.57-1.36,3.57H159.2q-13.29,0-14.51-10.86v-3.11l.22-2q.24-2.1,6.91-22.39l12.06-37,.19-.17Z"/><path class="cls-4" d="M191.51,113.76q4.32,0,5.91,2.31h.13a18.92,18.92,0,0,1,9.35-2.31h.46q9.94,0,12,2.65,4.77,4.19,4,11.36-.36,3.2-7.14,22.6-7.19,14-22.49,14h-10l-6.55,20H175c-3.05,0-4.82-1.5-5.33-4.49v-1.38l.08-.76q.87-3.69,20.65-63.95Zm-4.57,40.93h.17l4.76.13h4.74q7.75,0,11.26-8.43,4.69-14.22,5.49-17.57l.07-.63c.26-2.32-.6-3.84-2.55-4.57a13.78,13.78,0,0,0-3.36-.34h-.3q-8.55,0-11.7,5.71Q193.84,132.68,186.94,154.69Z"/><path class="cls-5" d="M245.21,90.82q4.9,0,5.84,4.41l.1,2.09-5.47,17.07.15.13a23.75,23.75,0,0,1,8.59-1.43h.17q13.71,0,15.92,8.77a19.06,19.06,0,0,1,.21,5.2l-.08.79q-.36,3.15-6.16,20.13l-6,18.37h-2.77c-3.43,0-5.15-2.06-5.14-6.17l.15-1.3q8.85-27,9.56-30.36.6-5.37-6.4-5.36-8.06,0-10.63,3.56-2.7,2-7.07,16.73l-7.41,22.73-.19.17H226q-5.11,0-5.14-6.17l.11-1,22.12-68.4Z"/><path class="cls-6" d="M284.92,113.8q4.27,0,5.6,2.86a5.51,5.51,0,0,1,.47,2.89l-.08.75q-.14,1.1-14.69,45.88l-.19.17h-1.09q-7.38,0-6.66-6.42,2.36-8.34,14.88-46.13Zm6-22.93h2.43q5.82.75,5.25,5.91l-.11,1c-1.43,5.09-2.31,7.64-2.61,7.64h-1c-3.72,0-5.92-1.28-6.61-3.82L288.12,99C289.63,93.59,290.56,90.87,290.93,90.87Z"/><path class="cls-7" d="M302.79,114.06h1.26a5.73,5.73,0,0,1,4.38,2,20.08,20.08,0,0,1,9-2h4.94q9.27,0,12.35,8.13a17.55,17.55,0,0,1,.34,5.58q-.4,3.55-9.52,30.78c-1.44,4.83-2.37,7.43-2.81,7.8h-1.09c-3.43,0-5.58-1.33-6.43-4l-.13-1.42.14-1.3,9.1-28.85.42-2.23q.31-2.85-1.8-3.81a15,15,0,0,0-6.1-1q-8.13,0-11.77,8.14L293.9,166.18l-.18.17h-1.26q-5.2,0-6.39-4l-.18-1.42.09-.8q.64-2.76,14.68-45.75A5.46,5.46,0,0,1,302.79,114.06Z"/><path class="cls-8" d="M404.11,90.3H425.2q13.43,0,14.82,11.13a11,11,0,0,1-.36,4.74l-4.21,13.08q-1.35,4.19-7.76,9,3.48,4.28,2,9l-3.84,11.93q-3,9.19-14.38,15.07a25,25,0,0,1-9.91,2.12H379.61l-.24-.34,24.28-75.37Zm-3.84,43.5-7.21,22.39h11.39q6.62,0,10.48-6.05l3.2-9.95q1.62-5-5.53-6.22l-2.11-.17ZM411,100.46l-7.47,23.19h9.4c6.06-.26,10.11-1.93,12.15-5l.7-1.65q4.13-12.78,3.12-12.78c-.64-2.48-3.09-3.72-7.33-3.72Z"/><path class="cls-9" d="M363,90.3h12.9q14.11,0,15.28,10.79a26.24,26.24,0,0,1-1.43,9.14L378.52,145.1q-4.83,15-16.09,19.3a27.59,27.59,0,0,1-10.2,1.95H330.84l-.24-.34,24.23-75.2.23-.17.05-.17Zm-.77,10.16-17.95,55.73h11.22q6.4,0,9.63-4.91a19.47,19.47,0,0,0,2.66-5.71l10.75-33.35q2.68-8.34,0-10.45-1.87-1.3-8.8-1.31Z"/></svg>