<?xml version="1.0" encoding="UTF-8"?><svg id="_图层_1" xmlns="http://www.w3.org/2000/svg" xmlns:xlink="http://www.w3.org/1999/xlink" viewBox="0 0 85.33 87.59"><defs><style>.cls-1{fill:url(#_未命名的渐变_43);}</style><radialGradient id="_未命名的渐变_43" cx="24.65" cy=".43" fx="24.65" fy=".43" r="82.28" gradientUnits="userSpaceOnUse"><stop offset="0" stop-color="#00a0cd"/><stop offset=".42" stop-color="#009199"/><stop offset="1" stop-color="#1e247e"/></radialGradient></defs><path class="cls-1" d="M64.18,2.31H31.81L4.59,84.61h32.37c5.39,0,10.97-1.83,16-4.92,2.79-2.21,4.49-4.51,5.2-5.7,3.92-6.49,1.38-14.31-.15-16.55-2.29-3.38-5.88-6.53-11.47-8.54-.07-.02-.2,0-.19.13.08.92.41,4.7.89,6.54.07.27.13.63-.04.53-1-.59-4.7-3.12-6.08-9.31-1.61-7.2-10.89-9.16-11.37-9.24-.48-.08-4.82-.86-4.47-1.81,0,0,.45-1.74,3.86-1.58,3.45.17,2.66-3.27,7.82-3.5,5.16-.23,15.42,3.51,21.03,6.78,5.62,3.27,11.99-.11,14.87,2.46,2.89,2.57-5.93.9-5.95,4.59-.02,3.69,2.62,8.07,2.05,15.27-.02.29-.05.58-.08.87.09-.26.18-.52.27-.78l10.85-32.79c4.52-13.67-2.57-24.75-15.84-24.75Z"/></svg>