<svg t="1661399324191" class="icon" viewBox="0 0 1024 1024" version="1.1" xmlns="http://www.w3.org/2000/svg" p-id="2160" width="200" height="200"><path d="M896 628.48l-34.133333-28.16a85.333333 85.333333 0 0 1-30.72-69.973333V512v-18.346667a85.333333 85.333333 0 0 1 30.72-69.973333l34.133333-28.16A42.666667 42.666667 0 0 0 906.24 341.333333l-49.493333-85.333333a42.666667 42.666667 0 0 0-51.626667-18.346667l-42.666667 15.36a85.333333 85.333333 0 0 1-75.946666-8.106666 233.813333 233.813333 0 0 0-31.573334-18.346667 85.333333 85.333333 0 0 1-45.226666-61.866667l-7.253334-42.666666a42.666667 42.666667 0 0 0-42.666666-35.84h-98.133334a42.666667 42.666667 0 0 0-42.666666 35.84l-7.253334 42.666666a85.333333 85.333333 0 0 1-43.52 61.866667 233.813333 233.813333 0 0 0-31.573333 18.346667 85.333333 85.333333 0 0 1-75.946667 8.106666l-42.666666-15.36A42.666667 42.666667 0 0 0 167.253333 256L117.76 341.333333A42.666667 42.666667 0 0 0 128 395.52l34.133333 28.16a85.333333 85.333333 0 0 1 30.72 69.973333v36.693334a85.333333 85.333333 0 0 1-30.72 69.973333l-34.133333 28.16A42.666667 42.666667 0 0 0 117.76 682.666667l49.493333 85.333333a42.666667 42.666667 0 0 0 51.626667 18.346667l42.666667-15.36a85.333333 85.333333 0 0 1 75.946666 8.106666 233.813333 233.813333 0 0 0 31.573334 18.346667 85.333333 85.333333 0 0 1 45.226666 61.866667l7.253334 42.666666a42.666667 42.666667 0 0 0 42.666666 35.84h98.133334a42.666667 42.666667 0 0 0 42.666666-35.84l7.253334-42.666666a85.333333 85.333333 0 0 1 45.226666-61.866667 233.813333 233.813333 0 0 0 31.573334-18.346667 85.333333 85.333333 0 0 1 75.946666-8.106666l42.666667 15.36a42.666667 42.666667 0 0 0 49.066667-18.346667l49.493333-85.333333a42.666667 42.666667 0 0 0-10.24-54.186667zM512 640a128 128 0 1 1 128-128 128 128 0 0 1-128 128z" p-id="2161" fill="#707070"></path></svg>