<?xml version="1.0" standalone="no"?><!DOCTYPE svg PUBLIC "-//W3C//DTD SVG 1.1//EN" "http://www.w3.org/Graphics/SVG/1.1/DTD/svg11.dtd"><svg t="1702360961252" class="icon" viewBox="0 0 1024 1024" version="1.1" xmlns="http://www.w3.org/2000/svg" p-id="4548" xmlns:xlink="http://www.w3.org/1999/xlink" width="128" height="128"><path d="M512 938.666667a32.032 32.032 0 0 1-15.648-4.085334l-352-197.333333A32 32 0 0 1 128 709.333333v-394.666666a32 32 0 0 1 16.352-27.914667l352-197.333333a32 32 0 0 1 31.296 0l352 197.333333A32 32 0 0 1 896 314.666667v394.666666a32 32 0 0 1-16.352 27.914667l-352 197.333333A32 32 0 0 1 512 938.666667zM192 690.581333L512 869.973333l320-179.392V333.408L512 154.016 192 333.408v357.173333z" p-id="4549"></path><path d="M512 682.666667c-94.101333 0-170.666667-76.565333-170.666667-170.666667S417.898667 341.333333 512 341.333333s170.666667 76.565333 170.666667 170.666667-76.565333 170.666667-170.666667 170.666667z m0-277.333334c-58.816 0-106.666667 47.850667-106.666667 106.666667s47.850667 106.666667 106.666667 106.666667 106.666667-47.850667 106.666667-106.666667S570.816 405.333333 512 405.333333z" p-id="4550"></path></svg>