<?xml version="1.0" standalone="no"?><!DOCTYPE svg PUBLIC "-//W3C//DTD SVG 1.1//EN" "http://www.w3.org/Graphics/SVG/1.1/DTD/svg11.dtd"><svg t="1702363612816" class="icon" viewBox="0 0 1024 1024" version="1.1" xmlns="http://www.w3.org/2000/svg" p-id="23958" xmlns:xlink="http://www.w3.org/1999/xlink" width="128" height="128"><path d="M244.9408 488.0384c-36.0448-0.6144-65.536 27.5456-66.8672 63.5904v104.8576h-34.0992c-26.8288-0.6144-49.152 20.2752-49.7664 47.8208v139.5712c0.6144 26.8288 22.9376 47.8208 49.7664 47.2064h135.68c26.8288 0.6144 49.152-20.2752 49.7664-47.8208V704.3072c-0.6144-26.8288-22.9376-48.5376-49.7664-47.8208h-44.544V543.0272h247.7056v114.0736h-39.3216c-26.8288-0.6144-49.152 20.2752-50.4832 47.8208v139.5712c0.6144 26.8288 22.9376 47.8208 50.4832 47.2064h136.2944c26.8288 0.6144 49.152-20.2752 49.7664-47.8208V704.3072c-0.6144-26.8288-22.9376-48.5376-49.7664-47.8208h-39.3216V543.0272h247.7056v114.0736h-44.544c-26.8288-0.6144-49.152 20.2752-49.7664 47.8208v139.5712c0.6144 26.8288 22.9376 47.8208 49.7664 47.2064h136.2944c26.8288 0.6144 49.152-20.2752 49.7664-47.8208V704.3072c-0.6144-26.8288-22.9376-48.5376-50.4832-47.8208h-34.0992V551.6288c-0.6144-36.0448-30.8224-64.2048-66.8672-63.5904H244.9408z m16.9984 223.4368c5.9392 0 10.4448 4.608 10.4448 9.8304v105.472c0 5.9392-4.608 9.8304-10.4448 9.8304h-100.2496c-5.9392 0-10.4448-4.608-10.4448-9.8304v-105.472c0-5.9392 4.608-9.8304 10.4448-9.8304h100.2496z m300.2368 0c5.9392 0 10.4448 4.608 10.4448 9.8304v105.472c0 5.9392-4.608 9.8304-10.4448 9.8304h-100.9664c-5.9392 0-10.4448-4.608-10.4448-9.8304v-105.472c0-5.9392 4.608-9.8304 10.4448-9.8304H562.176z m309.9648 115.4048c0 5.9392-4.608 9.8304-10.4448 9.8304h-100.2496c-5.9392 0-10.4448-4.608-10.4448-9.8304v-105.472c0-5.9392 4.608-9.8304 10.4448-9.8304h100.2496c5.9392 0 10.4448 4.608 10.4448 9.8304v105.472zM642.048 301.8752c-3.8912-5.2224-3.8912-12.4928 0-17.7152l30.8224-37.376-3.2768-8.4992-3.8912-8.4992c-2.6624-6.5536-5.2224-12.4928-7.8848-16.384-3.8912-8.4992-9.216-16.384-15.7696-22.9376l-5.9392-5.9392-47.2064 6.5536c-7.168 0.6144-13.7216-3.8912-16.384-10.4448l-15.0528-43.2128-9.216-1.3312c-23.552-5.2224-47.2064-5.2224-70.7584 0l-7.8848 1.3312-16.384 44.544c-2.6624 5.9392-8.4992 9.216-15.0528 9.216h-1.3312l-46.4896-7.8848-6.5536 6.5536c-12.4928 15.0528-22.3232 32.1536-28.8768 50.4832l-3.2768 7.8848 30.8224 37.376c3.8912 4.608 3.8912 11.776 0 16.9984l-32.1536 36.0448 3.2768 7.8848c2.6624 10.4448 7.168 20.2752 12.4928 28.8768 3.8912 7.8848 9.216 15.0528 15.0528 21.6064l5.9392 5.9392 48.5376-7.8848c6.5536-0.6144 12.4928 2.6624 15.0528 9.216l15.7696 44.544 9.216 1.3312c23.552 5.2224 48.5376 5.2224 72.0896 0l7.8848-1.9456 16.384-45.8752c2.6624-5.9392 8.4992-9.8304 15.0528-9.216l47.2064 7.8848 6.5536-5.9392c12.4928-14.4384 21.6064-30.8224 28.16-49.152l3.2768-7.8848-30.208-36.1472z m-129.024 58.368c-37.376 0-67.4816-30.1056-67.4816-67.4816 0-37.376 30.1056-67.4816 67.4816-67.4816 37.376 0 67.4816 30.1056 67.4816 67.4816 0 37.2736-30.208 66.7648-67.4816 67.4816z m0 0" p-id="23959"></path></svg>