<?xml version="1.0" encoding="utf-8"?>
<!-- Generator: Adobe Illustrator 26.0.3, SVG Export Plug-In . SVG Version: 6.00 Build 0)  -->
<svg version="1.1" id="图层_1" xmlns="http://www.w3.org/2000/svg" xmlns:xlink="http://www.w3.org/1999/xlink" x="0px" y="0px"
	 viewBox="0 0 200 200" style="enable-background:new 0 0 200 200;" xml:space="preserve">
<style type="text/css">
	.st0{fill:currentColor;}
</style>
<path class="st0" d="M176.9,148.7c-4.6,0-8.9,1.9-12.1,5.2l-22.1-12.8V95.6l-39.1-22.7V51.1c8.6-1.6,14.7-9.3,14.1-18.1
	c-0.5-8.7-7.4-15.7-16.1-16.4c-8.7-0.6-16.5,5.4-18.2,14c-1.7,8.6,3.3,17.1,11.5,19.8v22.2L55.9,95.6v44.9v-0.5l-20.6,12
	c-5.5-6.2-14.6-7.5-21.6-3.2c-7,4.3-10,13.1-7,20.8c2.9,7.7,11,12.2,19.1,10.7c8.1-1.6,14-8.7,13.9-17c0-1.2-0.1-2.4-0.4-3.6
	l20.2-11.7l40.2,23.3l39.1-22.6l22.1,12.8c-0.5,1.5-0.7,3.1-0.7,4.7c0,7,4.2,13.3,10.6,16c6.4,2.7,13.9,1.2,18.8-3.8
	c4.9-5,6.4-12.4,3.7-18.9c-2.7-6.5-9-10.6-16-10.6H176.9L176.9,148.7z M68.8,98.3l30.5-17.7l30.8,17.7l-30.5,17.7
	C99.6,116.1,68.8,98.3,68.8,98.3z M134.2,141.3L103.6,159v-35.5l30.6-17.8V141.3z"/>
</svg>
