<svg width="187" height="178" viewBox="0 0 187 178" fill="none" xmlns="http://www.w3.org/2000/svg">
<path d="M34.6581 22.5678C32.7633 21.8301 30.6986 21.4253 28.5371 21.4253C26.3755 21.4253 24.3108 21.8301 22.416 22.5678L22.416 6.02695C22.416 2.69863 25.1568 0 28.5371 0C31.9192 0 34.6581 2.69863 34.6581 6.02695L34.6581 22.5678ZM34.6581 77.3752L34.6581 171.973C34.6581 175.301 31.9192 178 28.5371 178C25.1568 178 22.416 175.301 22.416 171.973V77.3752C24.3108 78.1128 26.3755 78.5176 28.5371 78.5176C30.6986 78.5176 32.7651 78.1128 34.6581 77.3752ZM98.5454 100.132C96.6451 99.387 94.9185 99.0218 92.7496 99.0218C90.5972 99.0218 88.1908 99.3978 86.3033 100.132V6.02695C86.3033 2.69863 89.0441 0 92.4244 0C95.8047 0 98.5454 2.69863 98.5454 6.02695V100.132ZM98.5454 155.195V171.971C98.5454 175.3 95.8047 177.998 92.4244 177.998C89.0441 177.998 86.3033 175.3 86.3033 171.971V155.211C88.1908 155.945 90.25 156.348 92.4025 156.348C94.5059 156.352 96.5908 155.96 98.5454 155.195ZM164.143 45.1355C162.215 44.3673 160.107 43.9427 157.898 43.9427C155.784 43.9427 153.761 44.3313 151.901 45.0384V6.02695C151.901 2.69863 154.642 0 158.022 0C161.402 0 164.143 2.69863 164.143 6.02695V45.1355ZM164.143 100.132V171.973C164.143 175.301 161.402 178 158.022 178C154.642 178 151.901 175.301 151.901 171.973V100.229C153.761 100.936 155.784 101.325 157.898 101.325C160.107 101.325 162.215 100.9 164.143 100.132Z" fill="#412A9F" fill-opacity="0.03"/>
<path d="M28.787 78.1722C12.8914 78.1722 0 65.4762 0 49.8091C0 34.1402 12.8914 21.4459 28.787 21.4459C44.6826 21.4459 57.574 34.1402 57.574 49.8091C57.574 65.4762 44.6826 78.1722 28.787 78.1722ZM92.466 155.839C76.5668 155.839 63.6772 143.131 63.6772 127.455C63.6772 111.781 76.5668 99.0719 92.466 99.0719C108.363 99.0719 121.253 111.781 121.253 127.455C121.253 143.131 108.363 155.839 92.466 155.839ZM157.77 100.839C141.876 100.839 128.983 88.1433 128.983 72.4745C128.983 56.8056 141.874 44.1113 157.77 44.1113C173.666 44.1113 186.559 56.8074 186.559 72.4745C186.559 88.1416 173.666 100.839 157.77 100.839ZM28.787 66.1372C37.9436 66.1372 45.3676 58.8264 45.3676 49.8091C45.3676 40.7918 37.9436 33.481 28.787 33.481C19.6304 33.481 12.2064 40.7918 12.2064 49.8091C12.2064 58.8264 19.6304 66.1372 28.787 66.1372ZM92.466 143.804C101.623 143.804 109.047 136.485 109.047 127.455C109.047 118.427 101.623 111.107 92.466 111.107C83.3076 111.107 75.8836 118.427 75.8836 127.455C75.8836 136.485 83.3076 143.804 92.466 143.804ZM157.77 88.8044C166.929 88.8044 174.353 81.4935 174.353 72.4763C174.353 63.459 166.929 56.1481 157.77 56.1481C148.614 56.1481 141.189 63.459 141.189 72.4763C141.189 81.4935 148.614 88.8044 157.77 88.8044Z" fill="#412A9F" fill-opacity="0.03"/>
</svg>
