<svg width="20" height="20" viewBox="0 0 20 20" fill="none" xmlns="http://www.w3.org/2000/svg">
<g clip-path="url(#clip0_1150_2905)">
<path d="M12.7396 13.6668H7.26125C7.14014 13.6691 7.0198 13.6471 6.90742 13.6018C6.79504 13.5566 6.69293 13.4892 6.6072 13.4037C6.52147 13.3181 6.45388 13.2161 6.40847 13.1038C6.36306 12.9915 6.34076 12.8712 6.34292 12.7501V7.28092C6.34292 6.76092 6.74042 6.36426 7.26125 6.36426H12.7396C13.2596 6.36426 13.6579 6.76092 13.6579 7.28092V12.7501C13.6579 13.2393 13.2604 13.6668 12.7396 13.6668ZM8.17958 11.8334H11.8212V8.19759H8.17958V11.8334Z" fill="#6A7B97"/>
<path d="M16.9015 17.8225H3.09816C2.97706 17.8249 2.85671 17.8028 2.74433 17.7576C2.63195 17.7124 2.52984 17.645 2.44411 17.5594C2.35838 17.4739 2.29079 17.3719 2.24538 17.2596C2.19997 17.1473 2.17768 17.027 2.17983 16.9059V3.12504C2.17983 2.60587 2.57733 2.20837 3.09816 2.20837H16.9015C17.4215 2.20837 17.8198 2.60587 17.8198 3.12504V16.9059C17.8198 17.3942 17.4215 17.8225 16.9015 17.8225ZM4.0165 15.9892H15.9832V4.04171H4.0165V15.9892Z" fill="#6A7B97"/>
<path d="M7.29134 19.1667C7.05611 19.1669 6.8304 19.0737 6.66383 18.9076C6.49726 18.7415 6.40345 18.5161 6.40301 18.2808V16.9667C6.40301 16.7313 6.49651 16.5055 6.66295 16.3391C6.82939 16.1727 7.05513 16.0792 7.29051 16.0792C7.52589 16.0792 7.75163 16.1727 7.91807 16.3391C8.0845 16.5055 8.17801 16.7313 8.17801 16.9667V18.2808C8.17801 18.7692 7.78051 19.1667 7.29134 19.1667ZM12.7388 19.1667C12.5038 19.1667 12.2783 19.0734 12.1119 18.9073C11.9455 18.7412 11.8518 18.5159 11.8513 18.2808V16.9667C11.8513 16.7313 11.9448 16.5055 12.1113 16.3391C12.2777 16.1727 12.5035 16.0792 12.7388 16.0792C12.9742 16.0792 13.2 16.1727 13.3664 16.3391C13.5328 16.5055 13.6263 16.7313 13.6263 16.9667V18.2808C13.6263 18.7692 13.2288 19.1667 12.7388 19.1667ZM7.29134 3.88917C7.17479 3.88927 7.05936 3.86643 6.95165 3.82193C6.84393 3.77743 6.74603 3.71215 6.66354 3.62981C6.58105 3.54748 6.51559 3.4497 6.47088 3.34207C6.42618 3.23443 6.40312 3.11905 6.40301 3.0025V1.71917C6.40301 1.48379 6.49651 1.25805 6.66295 1.09161C6.82939 0.925169 7.05513 0.831665 7.29051 0.831665C7.52589 0.831665 7.75163 0.925169 7.91807 1.09161C8.0845 1.25805 8.17801 1.48379 8.17801 1.71917V3.03333C8.17801 3.49167 7.78051 3.88917 7.29134 3.88917ZM12.7388 3.88917C12.5036 3.88917 12.278 3.79578 12.1116 3.62952C11.9452 3.46326 11.8516 3.23773 11.8513 3.0025V1.71917C11.8513 1.48379 11.9448 1.25805 12.1113 1.09161C12.2777 0.925169 12.5035 0.831665 12.7388 0.831665C12.9742 0.831665 13.2 0.925169 13.3664 1.09161C13.5328 1.25805 13.6263 1.48379 13.6263 1.71917V3.03333C13.6263 3.49167 13.2288 3.88917 12.7388 3.88917ZM18.2788 8.1975H16.9622C16.7269 8.1975 16.5013 8.10411 16.3349 7.93785C16.1685 7.77159 16.0749 7.54607 16.0747 7.31083C16.0747 6.8225 16.473 6.425 16.963 6.425H18.2788C18.7688 6.425 19.1663 6.8225 19.1663 7.31083C19.1663 7.8 18.7688 8.1975 18.2788 8.1975ZM18.2788 13.5442H16.9622C16.7271 13.5442 16.5016 13.4509 16.3352 13.2848C16.1688 13.1187 16.0751 12.8934 16.0747 12.6583C16.0747 12.1692 16.473 11.7725 16.963 11.7725H18.2788C18.7688 11.7725 19.1663 12.1692 19.1663 12.6583C19.1663 13.1475 18.7688 13.5442 18.2788 13.5442ZM3.00634 8.1975H1.72051C1.48527 8.1975 1.25966 8.10411 1.09324 7.93785C0.92683 7.77159 0.833229 7.54607 0.833008 7.31083C0.833008 6.8225 1.23051 6.425 1.72051 6.425H3.03717C3.52634 6.425 3.92467 6.8225 3.92467 7.31083C3.92467 7.8 3.49551 8.1975 3.00634 8.1975ZM3.00634 13.5442H1.72051C1.48542 13.5442 1.25993 13.4509 1.09354 13.2848C0.927148 13.1187 0.833449 12.8934 0.833008 12.6583C0.833008 12.1692 1.23051 11.7725 1.72051 11.7725H3.03717C3.52634 11.7725 3.92467 12.1692 3.92467 12.6583C3.92467 13.1475 3.49551 13.5442 3.00634 13.5442Z" fill="#6A7B97"/>
</g>
<defs>
<clipPath id="clip0_1150_2905">
<rect width="20" height="20" fill="white"/>
</clipPath>
</defs>
</svg>
