<svg width="20" height="20" viewBox="0 0 20 20" fill="none" xmlns="http://www.w3.org/2000/svg">
<path d="M18.9525 14.9947L16.4036 4.21033C16.3348 3.87511 16.152 3.5728 15.8854 3.35291C15.6188 3.13302 15.284 3.00859 14.936 3H5.06564C4.71712 3.00842 4.38181 3.13271 4.11452 3.35255C3.84722 3.5724 3.66374 3.8748 3.59406 4.21033L1.04646 14.9947C0.989487 15.232 0.984855 15.4785 1.03288 15.7177C1.08091 15.9568 1.18048 16.1832 1.3249 16.3814C1.4617 16.5722 1.64311 16.728 1.85389 16.8356C2.06468 16.9432 2.29868 16.9996 2.53625 17H17.4627C17.7 16.9984 17.9336 16.9414 18.144 16.8336C18.3544 16.7258 18.5357 16.5704 18.6728 16.3801C18.8184 16.1825 18.9189 15.9562 18.9671 15.7169C19.0154 15.4775 19.0104 15.2307 18.9525 14.9934V14.9947ZM4.77418 4.52346C4.78856 4.45688 4.82543 4.39703 4.87882 4.35364C4.9322 4.31024 4.99896 4.28587 5.06824 4.28446H14.936C15.0051 4.28632 15.0716 4.31086 15.1249 4.35417C15.1782 4.39749 15.2152 4.45709 15.23 4.52346L16.7133 10.8026H13.0337C12.9339 10.8033 12.836 10.8288 12.749 10.8769C12.6621 10.9249 12.589 10.994 12.5367 11.0774L11.4542 12.7197H8.22346L6.9887 11.048C6.93464 10.9724 6.86299 10.9106 6.77971 10.8677C6.69643 10.8248 6.60392 10.8021 6.50988 10.8014H3.2909L4.77418 4.52346ZM17.7178 15.5954C17.6879 15.6355 17.6487 15.6681 17.6034 15.6903C17.5582 15.7125 17.5081 15.7238 17.4575 15.7232H2.53625C2.49233 15.7217 2.44914 15.7117 2.40914 15.6939C2.36915 15.676 2.33314 15.6505 2.30317 15.6189C2.2732 15.5873 2.24986 15.5503 2.23449 15.5098C2.21911 15.4694 2.21201 15.4264 2.21357 15.3832C2.21403 15.3558 2.21708 15.3284 2.22268 15.3014L2.98514 12.0743H6.21843L7.4532 13.746C7.50747 13.8213 7.5792 13.8828 7.66246 13.9255C7.74571 13.9681 7.83811 13.9907 7.93201 13.9914H11.7755C11.8753 13.9908 11.9733 13.9652 12.0602 13.9172C12.1472 13.8691 12.2202 13.8001 12.2726 13.7166L13.3564 12.0743H17.0165L17.7724 15.304C17.7862 15.3535 17.7884 15.4054 17.779 15.4558C17.7695 15.5063 17.7486 15.554 17.7178 15.5954Z" fill="#6A7B97" stroke="#6A7B97" stroke-width="0.2" stroke-miterlimit="10"/>
</svg>
