<svg width="20" height="20" viewBox="0 0 20 20" fill="none" xmlns="http://www.w3.org/2000/svg">
<path d="M16.2468 1.24878H3.74901C2.36831 1.24878 1.24902 2.36807 1.24902 3.74877V16.2465C1.24902 17.6272 2.36831 18.7465 3.74901 18.7465H16.2468C17.6275 18.7465 18.7468 17.6272 18.7468 16.2465V3.74877C18.7468 2.36807 17.6275 1.24878 16.2468 1.24878ZM17.4979 16.2499C17.4981 16.414 17.4658 16.5764 17.4031 16.728C17.3403 16.8795 17.2482 17.0172 17.1322 17.1331C17.0161 17.249 16.8783 17.3409 16.7267 17.4035C16.575 17.466 16.4125 17.4981 16.2485 17.4977H3.75191C3.41769 17.4977 3.10209 17.3693 2.86573 17.1329C2.62937 16.8966 2.49785 16.5841 2.49785 16.2499V3.74997C2.49845 3.41771 2.63082 3.09926 2.86592 2.86448C3.10102 2.6297 3.41965 2.49776 3.75191 2.49761H16.2485C16.4128 2.49778 16.5754 2.53031 16.7271 2.59334C16.8788 2.65637 17.0166 2.74867 17.1326 2.86497C17.2487 2.98126 17.3406 3.11928 17.4033 3.27113C17.466 3.42298 17.4982 3.58569 17.4979 3.74997V16.2499Z" fill="#6A7B97" stroke="#6A7B97" stroke-width="0.4"/>
<path d="M15.4691 6.87216H10.4691C10.3035 6.87216 10.1447 6.93795 10.0276 7.05505C9.91049 7.17215 9.8447 7.33097 9.8447 7.49658C9.8447 7.66218 9.91049 7.821 10.0276 7.9381C10.1447 8.0552 10.3035 8.12099 10.4691 8.12099H15.4691C15.6347 8.12099 15.7935 8.0552 15.9106 7.9381C16.0277 7.821 16.0935 7.66218 16.0935 7.49658C16.0935 7.33097 16.0277 7.17215 15.9106 7.05505C15.7935 6.93795 15.6347 6.87216 15.4691 6.87216ZM15.4691 11.8745H10.4691C10.3035 11.8745 10.1447 11.9403 10.0276 12.0574C9.91049 12.1745 9.8447 12.3334 9.8447 12.499C9.8447 12.6646 9.91049 12.8234 10.0276 12.9405C10.1447 13.0576 10.3035 13.1234 10.4691 13.1234H15.4691C15.6347 13.1234 15.7935 13.0576 15.9106 12.9405C16.0277 12.8234 16.0935 12.6646 16.0935 12.499C16.0935 12.3334 16.0277 12.1745 15.9106 12.0574C15.7935 11.9403 15.6347 11.8745 15.4691 11.8745ZM6.71916 10.3125C5.51104 10.3125 4.53194 11.2919 4.53194 12.4997C4.53194 13.7076 5.51132 14.687 6.71916 14.687C7.927 14.687 8.90638 13.7076 8.90638 12.4997C8.90638 11.2919 7.92728 10.3125 6.71916 10.3125ZM7.38288 13.1637C7.2293 13.3172 7.02728 13.4126 6.81123 13.4338C6.59517 13.455 6.37846 13.4006 6.19801 13.2799C6.01755 13.1592 5.88452 12.9797 5.82158 12.7719C5.75864 12.5642 5.76968 12.341 5.85281 12.1405C5.93595 11.94 6.08605 11.7744 6.27753 11.6722C6.46902 11.5699 6.69004 11.5372 6.90294 11.5796C7.11585 11.622 7.30747 11.7369 7.44516 11.9047C7.58284 12.0725 7.65808 12.2829 7.65805 12.5C7.65836 12.6234 7.6342 12.7455 7.58696 12.8595C7.53973 12.9734 7.47036 13.0769 7.38288 13.1638V13.1637ZM8.15264 5.80854L6.09411 7.86699L5.28569 7.0585C5.16859 6.94139 5.00976 6.87561 4.84415 6.87561C4.67854 6.87561 4.51972 6.94139 4.40262 7.0585C4.28551 7.1756 4.21973 7.33442 4.21973 7.50003C4.21973 7.66564 4.28551 7.82447 4.40262 7.94157L5.65258 9.1916C5.71056 9.24958 5.7794 9.29558 5.85515 9.32696C5.93091 9.35834 6.01211 9.37449 6.09411 9.37449C6.17611 9.37449 6.25731 9.35834 6.33307 9.32696C6.40883 9.29558 6.47767 9.24958 6.53565 9.1916L9.03564 6.69161C9.15143 6.57424 9.2161 6.41585 9.21555 6.25098C9.21499 6.08611 9.14926 5.92815 9.03268 5.81157C8.9161 5.69498 8.75815 5.62923 8.59328 5.62867C8.42842 5.6281 8.27001 5.69276 8.15264 5.80854Z" fill="#6A7B97" stroke="#6A7B97" stroke-width="0.2"/>
</svg>
