<?xml version="1.0" encoding="UTF-8"?>
<svg xmlns="http://www.w3.org/2000/svg" version="1.1" viewBox="0 0 12 12">
  <defs>
    <style>
      .cls-1, .cls-2 {
        fill: #000;
      }

      .cls-1, .cls-2, .cls-3 {
        stroke-width: 0px;
      }

      .cls-4 {
        opacity: .4;
      }

      .cls-5, .cls-6 {
        display: none;
      }

      .cls-6 {
        opacity: .5;
      }

      .cls-2 {
        isolation: isolate;
        opacity: .2;
      }

      .cls-3 {
        fill: #3760f0;
      }
    </style>
  </defs>
  <g id="_图层_1" data-name="图层 1" class="cls-5">
    <g id="_图层_1-2" data-name=" 图层 1" class="cls-5">
      <g id="_图层_1-2" data-name=" 图层 1-2" class="cls-6">
        <g>
          <path class="cls-1" d="M6,1l1.8,1.8-3.8,3.8,1.4,1.4,3.8-3.8,1.8,1.8V1h-5Z"/>
          <path class="cls-1" d="M9,9H3V3h2V1H1v10h10v-4h-2v2Z"/>
        </g>
      </g>
    </g>
    <g id="_图层_2" data-name=" 图层 2" class="cls-5">
      <rect class="cls-2" width="12" height="12"/>
    </g>
    <g id="_图层_3" data-name=" 图层 3" class="cls-4">
      <path class="cls-3" d="M11,1v1.5H1v-1.5h10M12,0H0v3.5h12V0h0Z"/>
      <path class="cls-3" d="M11,5.2v1.5H1v-1.5h10M12,4.2H0v3.5h12v-3.5h0Z"/>
      <path class="cls-3" d="M11,9.5v1.5H1v-1.5h10M12,8.5H0v3.5h12v-3.5h0Z"/>
    </g>
  </g>
  <g id="_图层_2-2" data-name="图层 2">
    <path class="cls-3" d="M11.2,9.3v1.9H.8v-1.9h10.4M12,8.5H0v3.5h12v-3.5h0Z"/>
    <path class="cls-3" d="M11.2,5v1.9H.8v-1.9h10.4M12,4.2H0v3.5h12v-3.5h0Z"/>
    <path class="cls-3" d="M11.2.8v1.9H.8V.8h10.4M12,0H0v3.5h12V0h0Z"/>
    <rect class="cls-3" x="1.7" y="10" width="2.5" height=".5"/>
    <rect class="cls-3" x="1.7" y="5.8" width="2.5" height=".5"/>
    <rect class="cls-3" x="1.7" y="1.5" width="2.5" height=".5"/>
  </g>
</svg>