<svg width="14" height="14" viewBox="0 0 14 14" xmlns="http://www.w3.org/2000/svg"><path d="M13.125 3.063a.438.438 0 01-.438.437h-1.312v1.313a.438.438 0 01-.875 0V3.5H9.187a.438.438 0 010-.875H10.5V1.312a.438.438 0 01.875 0v1.313h1.313c.24 0 .437.196.437.438zm-1.75 3.5v5.687a.874.874 0 01-.875.875H1.75a.874.874 0 01-.875-.875V2.625c0-.484.391-.875.875-.875h5.688a.438.438 0 010 .875h-.875V7H10.5v-.438a.438.438 0 01.875 0zM1.75 7h3.938V2.625H1.75V7zm0 5.25h3.938V7.875H1.75v4.375zm8.75-4.375H6.562v4.375H10.5V7.875z" fill="#3760F0"/></svg>