<svg width="16" height="16" viewBox="0 0 16 16" fill="none" xmlns="http://www.w3.org/2000/svg">
<path d="M8.50002 1.38056L13.5042 4.26973C13.6562 4.3575 13.7825 4.48373 13.8702 4.63575C13.958 4.78776 14.0042 4.9602 14.0042 5.13573V10.9141C14.0042 11.0896 13.958 11.262 13.8702 11.4141C13.7825 11.5661 13.6562 11.6923 13.5042 11.7801L8.50002 14.6693C8.34801 14.757 8.17556 14.8032 8.00002 14.8032C7.82449 14.8032 7.65204 14.757 7.50002 14.6693L2.49585 11.7801C2.34383 11.6923 2.2176 11.5661 2.12983 11.4141C2.04206 11.2621 1.99585 11.0896 1.99585 10.9141V5.13573C1.99585 4.9602 2.04206 4.78775 2.12982 4.63573C2.21759 4.48371 2.34383 4.35748 2.49585 4.26971L7.50002 1.38056C7.65204 1.29279 7.82449 1.24658 8.00002 1.24658C8.17556 1.24658 8.34801 1.29279 8.50002 1.38056ZM2.74585 5.40876V10.9141C2.74585 10.9579 2.7574 11.001 2.77934 11.0391C2.80129 11.0771 2.83285 11.1086 2.87085 11.1306L7.62502 13.8754V8.22573L2.74587 5.40873L2.74585 5.40876ZM13.2542 5.40383L8.37502 8.22083V13.8754L13.1292 11.1306C13.1672 11.1086 13.1988 11.0771 13.2207 11.0391C13.2427 11.001 13.2542 10.9579 13.2542 10.9141V5.40381L13.2542 5.40383ZM7.87502 2.03008L3.1344 4.76708L7.99577 7.57378L12.8614 4.76461L8.12502 2.03011C8.08702 2.00816 8.04391 1.99661 8.00002 1.99661C7.95614 1.99661 7.91303 2.00816 7.87502 2.03011V2.03008Z" fill="#3760F0"/>
</svg>
