<svg width="14" height="13" viewBox="0 0 14 13" fill="none" xmlns="http://www.w3.org/2000/svg">
<path d="M0.62003 3.5392H13.4414C13.5137 3.54244 13.5858 3.52953 13.6535 3.50122C13.7212 3.47292 13.783 3.42981 13.8351 3.3745C13.8873 3.31918 13.9288 3.25279 13.9571 3.17933C13.9855 3.10587 14 3.02684 14 2.94701V0.583055C13.9989 0.504033 13.9834 0.426055 13.9546 0.353715C13.9258 0.281376 13.8841 0.216138 13.832 0.161847C13.78 0.107556 13.7186 0.0653104 13.6515 0.0375987C13.5844 0.00988714 13.513 -0.00272968 13.4414 0.000492376H0.62003C0.47767 0.000492376 0.341141 0.0628838 0.240477 0.173941C0.139814 0.284999 0.0832613 0.435625 0.0832613 0.592684V2.95664C0.0832613 3.1137 0.139814 3.26432 0.240477 3.37538C0.341141 3.48644 0.47767 3.54883 0.62003 3.54883M1.15244 1.18488H12.909V2.36444H1.15244V1.18488ZM0.585119 6.78903H6.47649V7.41011C6.47649 7.56717 6.53304 7.7178 6.6337 7.82885C6.73437 7.93991 6.8709 8.0023 7.01326 8.0023C7.15562 8.0023 7.29214 7.93991 7.39281 7.82885C7.49347 7.7178 7.55002 7.56717 7.55002 7.41011V6.7794H13.3497C13.424 6.78681 13.4989 6.77707 13.5695 6.7508C13.6402 6.72453 13.7051 6.6823 13.7602 6.62681C13.8152 6.57133 13.8592 6.50379 13.8893 6.42852C13.9193 6.35324 13.9349 6.27188 13.9349 6.18962C13.9349 6.10735 13.9193 6.02599 13.8893 5.95072C13.8592 5.87544 13.8152 5.80791 13.7602 5.75242C13.7051 5.69693 13.6402 5.65471 13.5695 5.62844C13.4989 5.60217 13.424 5.59242 13.3497 5.59983H7.55002V5.04134C7.55002 4.88429 7.49347 4.73366 7.39281 4.6226C7.29214 4.51154 7.15562 4.44915 7.01326 4.44915C6.8709 4.44915 6.73437 4.51154 6.6337 4.6226C6.53304 4.73366 6.47649 4.88429 6.47649 5.04134V5.59983H0.585119C0.510856 5.59242 0.436009 5.60217 0.365348 5.62844C0.294687 5.65471 0.229763 5.69693 0.174714 5.75242C0.119664 5.80791 0.0756978 5.87544 0.0456167 5.95072C0.0155357 6.02599 0 6.10735 0 6.18962C0 6.27188 0.0155357 6.35324 0.0456167 6.42852C0.0756978 6.50379 0.119664 6.57133 0.174714 6.62681C0.229763 6.6823 0.294687 6.72453 0.365348 6.7508C0.436009 6.77707 0.510856 6.78681 0.585119 6.7794M3.25587 8.8593H0.611303C0.54102 8.85866 0.471318 8.87338 0.40622 8.90262C0.341121 8.93185 0.281912 8.97502 0.232011 9.02962C0.182109 9.08423 0.142502 9.1492 0.115474 9.22078C0.0884454 9.29236 0.0745308 9.36913 0.0745332 9.44667V12.4028C0.0739571 12.481 0.087416 12.5585 0.114133 12.6309C0.14085 12.7033 0.180297 12.7692 0.230198 12.8247C0.280099 12.8802 0.339467 12.9242 0.404877 12.9543C0.470287 12.9843 0.540444 12.9998 0.611303 12.9998H3.25587C3.39747 12.9986 3.53289 12.9356 3.63261 12.8247C3.73233 12.7138 3.78828 12.5639 3.78828 12.4076V9.44667C3.78828 9.29089 3.73218 9.14149 3.63234 9.03133C3.53249 8.92118 3.39707 8.8593 3.25587 8.8593ZM2.7191 11.8106H1.14371V10.0389H2.7191V11.8106ZM8.353 8.8593H5.70843C5.63814 8.85866 5.56844 8.87338 5.50334 8.90262C5.43824 8.93185 5.37904 8.97502 5.32914 9.02962C5.27923 9.08423 5.23963 9.1492 5.2126 9.22078C5.18557 9.29236 5.17166 9.36913 5.17166 9.44667V12.4028C5.17108 12.481 5.18454 12.5585 5.21126 12.6309C5.23797 12.7033 5.27742 12.7692 5.32732 12.8247C5.37722 12.8802 5.43659 12.9242 5.502 12.9543C5.56741 12.9843 5.63757 12.9998 5.70843 12.9998H8.353C8.49536 12.9998 8.63189 12.9374 8.73255 12.8264C8.83321 12.7153 8.88977 12.5647 8.88977 12.4076V9.44667C8.88977 9.36913 8.87585 9.29236 8.84882 9.22078C8.8218 9.1492 8.78219 9.08423 8.73229 9.02962C8.68239 8.97502 8.62318 8.93185 8.55808 8.90262C8.49298 8.87338 8.42328 8.85866 8.353 8.8593ZM7.81623 11.8106H6.2452V10.0389H7.81623V11.8106ZM13.4501 8.8593H10.8056C10.6639 8.85929 10.5281 8.92102 10.4275 9.03104C10.327 9.14106 10.2699 9.29045 10.2688 9.44667V12.4028C10.2688 12.5603 10.3252 12.7114 10.4257 12.8233C10.5263 12.9351 10.6628 12.9986 10.8056 12.9998H13.4501C13.5221 13.0018 13.5936 12.9877 13.6606 12.9585C13.7275 12.9293 13.7884 12.8856 13.8397 12.8299C13.891 12.7742 13.9317 12.7077 13.9592 12.6343C13.9867 12.5609 14.0006 12.4822 14 12.4028V9.44667C14 9.36913 13.9861 9.29236 13.959 9.22078C13.932 9.1492 13.8924 9.08423 13.8425 9.02962C13.7926 8.97502 13.7334 8.93185 13.6683 8.90262C13.6032 8.87338 13.5335 8.85866 13.4632 8.8593M12.9308 11.8106H11.3423V10.0389H12.9177L12.9308 11.8106Z" fill="#3760F0"/>
</svg>
