<?xml version="1.0" standalone="no"?><!DOCTYPE svg PUBLIC "-//W3C//DTD SVG 1.1//EN" "http://www.w3.org/Graphics/SVG/1.1/DTD/svg11.dtd"><svg t="1741830731573" class="icon" viewBox="0 0 1024 1024" version="1.1" xmlns="http://www.w3.org/2000/svg" p-id="4557" xmlns:xlink="http://www.w3.org/1999/xlink" width="200" height="200"><path d="M149.851429 763.355429h331.282285v65.152h-67.291428c-31.268571 0-43.282286 30.427429-23.552 54.418285l98.998857 121.289143c12.854857 15.853714 34.285714 15.853714 47.561143 0l98.139428-121.289143c18.432-23.570286 6.875429-54.418286-23.131428-54.418285h-68.150857v-65.152h330.422857c65.590857 0 98.578286-31.707429 98.578285-97.718858v-150.418285c0-65.572571-32.987429-97.28-98.56-97.28h-330.422857v-68.150857h330.422857c65.572571 0 98.56-32.146286 98.56-97.718858v-150.857142c0-65.572571-32.987429-97.28-98.56-97.28H149.833143c-65.572571 0-98.56 31.707429-98.56 97.28v150.857142c0 65.572571 32.987429 97.718857 98.56 97.718858h331.282286v68.132571H149.851429c-65.572571 0-98.56 31.725714-98.56 97.28v150.436571c0 66.011429 32.987429 97.718857 98.56 97.718858z m5.138285-478.281143c-25.270857 0-38.985143-13.293714-38.985143-39.862857V108.507429c0-27.008 13.714286-39.862857 38.985143-39.862858h714.002286c25.289143 0 39.003429 12.854857 39.003429 39.862858v136.704c0 26.569143-13.714286 39.862857-39.003429 39.862857z m0 413.988571c-25.270857 0-38.985143-13.275429-38.985143-39.862857v-136.704c0-26.989714 13.714286-39.862857 38.985143-39.862857h714.002286c25.289143 0 39.003429 12.873143 39.003429 39.862857v136.722286c0 26.569143-13.714286 39.862857-39.003429 39.862857z" p-id="4558"></path></svg>