<svg id="图层_1" data-name="图层 1" xmlns="http://www.w3.org/2000/svg" viewBox="0 0 12.5 12.5"><defs><style>.cls-1{fill:currentColor;fill-rule:evenodd;}.cls-2,.cls-3{fill:none;stroke:currentColor;}.cls-2{stroke-linecap:round;}</style></defs><path class="cls-1" d="M13,10a3,3,0,1,1-3-3A3,3,0,0,1,13,10ZM7.86,10a.43.43,0,0,1,.43-.43H9.57V8.29a.43.43,0,1,1,.86,0V9.57h1.28a.43.43,0,0,1,0,.86H10.43v1.28a.43.43,0,0,1-.86,0V10.43H8.29A.43.43,0,0,1,7.86,10Z" transform="translate(-0.5 -0.5)"/><path class="cls-2" d="M12,8.33V2.5A1.5,1.5,0,0,0,10.5,1h-8A1.5,1.5,0,0,0,1,2.5v8A1.5,1.5,0,0,0,2.5,12H7.88" transform="translate(-0.5 -0.5)"/><line class="cls-3" x1="0.5" y1="4" x2="11.5" y2="4"/><line class="cls-3" x1="4" y1="0.5" x2="4" y2="11.5"/></svg>