<svg viewBox="0 0 16 16" xmlns="http://www.w3.org/2000/svg">
<path fill-rule="evenodd" clip-rule="evenodd" d="M7.30212 1.78205L7.18525 1.78125L6.95238 1.78401C6.5052 1.79384 6.05876 1.83692 5.61507 1.91306L5.40412 1.95264L5.19696 1.99699L5.09324 2.02151L4.8893 2.07417C3.1745 2.54401 1.97306 3.54903 1.92748 4.86994L1.92603 4.9479V13.2604L1.92748 13.3372C1.97481 14.7365 3.31942 15.7811 5.19696 16.2113L5.40412 16.2557L5.61507 16.2953C6.11178 16.3816 6.63917 16.4271 7.18525 16.4271C7.73133 16.4271 8.25871 16.3816 8.75541 16.2953L8.96637 16.2557L9.17352 16.2114L9.27725 16.1868L9.48119 16.1342C10.1323 15.9558 10.7094 15.7003 11.1773 15.3796C11.1553 15.3805 11.1333 15.381 11.1111 15.381C10.6322 15.381 10.1886 15.165 9.82577 14.7978L9.67694 14.8505C9.50076 14.9102 9.31493 14.9645 9.12093 15.012L8.924 15.0575L8.72211 15.0983C8.58299 15.1245 8.44349 15.1469 8.30371 15.1656L8.08749 15.1917L7.86748 15.2123L7.64338 15.2273C7.33807 15.2437 7.03241 15.2437 6.72711 15.2273L6.503 15.2123L6.28299 15.1917L6.06707 15.1656C5.92719 15.1469 5.7876 15.1245 5.64838 15.0983L5.44649 15.0575L5.24955 15.012C5.06298 14.9663 4.87755 14.9124 4.69354 14.8505L4.52027 14.7891C4.2655 14.6945 4.03322 14.588 3.82723 14.4732L3.6937 14.3957C3.13359 14.0541 2.80256 13.6491 2.80256 13.2604V10.7196C3.38341 11.2413 4.21787 11.6327 5.19696 11.8572L5.40412 11.9015L5.61507 11.9411C6.11178 12.0274 6.63917 12.0729 7.18525 12.0729C7.73133 12.0729 8.25871 12.0274 8.75541 11.9411L8.89876 11.9142C8.92907 11.4547 9.02827 11.0238 9.1815 10.6426C9.1613 10.6478 9.14102 10.6528 9.12064 10.6578L8.92371 10.7033L8.72182 10.7441C8.58269 10.7703 8.4432 10.7927 8.30341 10.8114L8.08721 10.8375L7.86719 10.8581L7.64309 10.8731C7.33779 10.8895 7.03212 10.8895 6.72682 10.8731L6.50271 10.8581L6.2827 10.8375L6.06677 10.8114C5.92689 10.7928 5.7873 10.7703 5.64809 10.7441L5.4462 10.7033L5.24927 10.6578C5.06269 10.6121 4.87725 10.5582 4.69324 10.4963L4.51999 10.435C4.26522 10.3404 4.03293 10.2339 3.82695 10.1191L3.69341 10.0415C3.1333 9.69989 2.80226 9.29497 2.80226 8.90625V6.76125C3.38312 7.28296 4.21758 7.67444 5.19667 7.89886L5.40382 7.94321L5.61478 7.98278L5.82925 8.0172C6.26254 8.08133 6.71688 8.11458 7.18495 8.11458C7.73103 8.11458 8.25842 8.06906 8.75513 7.98276L8.96607 7.94319L9.17293 7.89886L9.31903 7.86401C10.2356 7.63483 11.016 7.25681 11.5679 6.76083L11.5676 8.90625L11.5662 8.95098C11.5628 9.00261 11.5538 9.05445 11.5392 9.10632C11.8739 9.1994 12.1818 9.39955 12.4445 9.68072V4.94792L12.443 4.86994C12.3974 3.54905 11.196 2.54401 9.48119 2.07417L9.27724 2.02151L9.17352 1.99697L8.96637 1.95225L8.75541 1.91267L8.55615 1.881C8.13963 1.81948 7.72109 1.78646 7.30212 1.78205ZM7.06955 2.96955L7.18525 2.96875L7.33952 2.96994C7.44177 2.97192 7.54316 2.97547 7.64338 2.98103L7.86748 2.99606L8.08749 3.01664L8.30341 3.04276L8.44512 3.06256C8.5376 3.07673 8.62994 3.09257 8.72211 3.11006L8.924 3.15083L9.12093 3.19636L9.26497 3.23317C9.40303 3.27013 9.5404 3.31171 9.67694 3.35786L9.84992 3.4192L9.97555 3.4675C10.1681 3.54337 10.3575 3.63268 10.5432 3.73508L10.6768 3.81267L10.7484 3.85739C11.2649 4.1895 11.5679 4.57583 11.5679 4.94792C11.5679 5.33662 11.2369 5.74156 10.6768 6.08317L10.5433 6.16075L10.4381 6.21736C10.2593 6.31037 10.0623 6.39745 9.85021 6.47662L9.67694 6.53837L9.54313 6.58192C9.4031 6.62562 9.26233 6.66482 9.12093 6.69948L8.924 6.745L8.72182 6.78576L8.58449 6.81031C8.49217 6.82616 8.39866 6.84039 8.30371 6.85306L8.08749 6.87919L7.86748 6.89978L7.64339 6.91481L7.49232 6.92155C7.23727 6.93072 6.98206 6.92847 6.72711 6.91481L6.503 6.89978L6.28299 6.87919L6.06707 6.85306L5.92536 6.83326C5.83157 6.81862 5.73925 6.80319 5.64838 6.78576L5.44649 6.745L5.24955 6.69948L5.10551 6.66267C4.96321 6.62426 4.82561 6.5827 4.69354 6.53798L4.52058 6.47662L4.39493 6.42833C4.18866 6.34639 3.99873 6.25655 3.82723 6.16075L3.6937 6.08315L3.62212 6.03844C3.10554 5.70633 2.80256 5.32 2.80256 4.94792C2.80256 4.5592 3.13359 4.15426 3.6937 3.81267L3.82723 3.73508L3.93242 3.67849C4.11123 3.58545 4.30815 3.49837 4.52029 3.4192L4.69354 3.35745L4.82736 3.31392C4.96739 3.27022 5.10816 3.23103 5.24955 3.19636L5.44649 3.15083L5.64868 3.11006L5.78599 3.08551C5.87833 3.06969 5.97182 3.05544 6.06679 3.04276L6.28299 3.01666L6.503 2.99606L6.72711 2.98101L6.89715 2.9735L7.06955 2.96955Z" />
<path fill-rule="evenodd" clip-rule="evenodd" d="M14.0578 10.8272C13.8509 10.395 13.5497 10.0166 13.1773 9.721C12.5992 9.26017 11.8794 9.02247 11.1456 9.05C10.4118 9.07753 9.71124 9.36851 9.16801 9.87141C8.76851 10.2403 8.4702 10.7086 8.30241 11.2303C8.13462 11.7521 8.10312 12.3093 8.21101 12.8472C8.3189 13.3851 8.56246 13.8852 8.91775 14.2982C9.27305 14.7113 9.72784 15.0231 10.2374 15.2031C10.5563 15.3179 10.9024 15.3812 11.2601 15.3812C12.979 15.3812 14.3711 13.9642 14.3711 12.2146C14.3719 11.7339 14.2647 11.2593 14.0578 10.8272ZM13.593 12.0649C13.6814 12.1549 13.7311 12.2769 13.7311 12.4042C13.7311 12.5314 13.6814 12.6534 13.593 12.7434C13.5046 12.8334 13.3847 12.8839 13.2597 12.884L11.731 12.884L11.731 14.44C11.731 14.5672 11.6813 14.6893 11.5929 14.7792C11.5045 14.8692 11.3846 14.9198 11.2596 14.9198C11.1977 14.92 11.1363 14.9077 11.079 14.8836C11.0218 14.8596 10.9697 14.8243 10.9259 14.7797C10.8821 14.7351 10.8474 14.6821 10.8238 14.6238C10.8002 14.5655 10.7881 14.5031 10.7883 14.44L10.7883 12.884L9.25951 12.884C9.19692 12.8851 9.13474 12.8735 9.0766 12.8499C9.01846 12.8262 8.96552 12.7911 8.92087 12.7464C8.87622 12.7018 8.84076 12.6485 8.81655 12.5897C8.79235 12.531 8.77988 12.4679 8.77988 12.4042C8.77988 12.3405 8.79235 12.2774 8.81655 12.2186C8.84076 12.1599 8.87622 12.1066 8.92087 12.0619C8.96552 12.0173 9.01846 11.9821 9.0766 11.9585C9.13474 11.9349 9.19692 11.9233 9.25951 11.9244L10.7883 11.9244L10.7883 10.3683C10.7872 10.3046 10.7986 10.2413 10.8218 10.1822C10.845 10.123 10.8795 10.0691 10.9234 10.0237C10.9673 9.97821 11.0196 9.94212 11.0773 9.91748C11.1351 9.89284 11.197 9.88015 11.2596 9.88015C11.3222 9.88015 11.3842 9.89284 11.4419 9.91748C11.4997 9.94212 11.552 9.97821 11.5959 10.0237C11.6397 10.0691 11.6743 10.123 11.6975 10.1822C11.7207 10.2413 11.7321 10.3046 11.731 10.3683L11.731 11.9244L13.2597 11.9244C13.3847 11.9244 13.5046 11.975 13.593 12.0649Z" />
</svg>
