<?xml version="1.0" encoding="utf-8"?>
<!-- Generator: Adobe Illustrator 26.0.3, SVG Export Plug-In . SVG Version: 6.00 Build 0)  -->
<svg version="1.1" id="图层_1" xmlns="http://www.w3.org/2000/svg" xmlns:xlink="http://www.w3.org/1999/xlink" x="0px" y="0px"
	 viewBox="0 0 12 12" style="enable-background:new 0 0 12 12;" xml:space="preserve">
<style type="text/css">
	.st0{display:none;}
	.st1{opacity:0.5;}
	.st2{display:inline;}
	.st3{display:inline;opacity:0.2;enable-background:new    ;}
	.st4{display:inline;opacity:0.5;}
	.st5{display:inline;opacity:0.5;enable-background:new    ;}
</style>
<g id="_图层_1" class="st0">
	<g id="_图层_1-2">
		<g id="_图层_1-2-2" class="st1">
			<g class="st2">
				<path d="M6,1l1.8,1.8L4,6.6L5.4,8l3.8-3.8L11,6V1H6z"/>
				<path d="M9,9H3V3h2V1H1v10h10V7H9V9z"/>
			</g>
		</g>
	</g>
	<g id="_图层_2">
		<rect y="0" class="st3" width="12" height="12"/>
	</g>
	<g id="_图层_3" class="st4">
		<path d="M11,1v1.5H1V1H11 M12,0H0v3.5h12V0L12,0z"/>
	</g>
	<path class="st5" d="M9.5,7.1C8.1,7.1,7,8.2,7,9.6s1.1,2.5,2.5,2.5S12,11,12,9.6S10.9,7.1,9.5,7.1z M11.1,10.1H10v1.1
		c0,0.2-0.2,0.4-0.4,0.4H9.5c-0.2,0-0.4-0.2-0.4-0.4v-1.1H8c-0.2,0-0.4-0.2-0.4-0.4l0,0c0-0.4,0.2-0.6,0.4-0.6h1.1V8
		c0-0.2,0.2-0.4,0.4-0.4h0.1C9.8,7.6,10,7.8,10,8v1.1h1.1c0.2,0,0.4,0.2,0.4,0.4l0,0C11.5,9.9,11.3,10.1,11.1,10.1z"/>
	<path class="st5" d="M8.6,6.7H1V5.2h10v1.5h-0.6c0.6,0.2,1.1,0.5,1.5,1H12V4.2H0v3.5h7.2C7.6,7.2,8.1,6.9,8.6,6.7L8.6,6.7L8.6,6.7z
		"/>
	<path class="st5" d="M6.9,11H1V9.5h5.5c0-0.4,0-0.7,0.2-1H0V12h7.8C7.4,11.7,7.1,11.4,6.9,11z"/>
</g>
<g id="_图层_2-2">
	<path d="M10.5,2.4V4H1.6V2.4H10.5 M11.2,1.7H1v3h10.3V1.7L11.2,1.7z"/>
	<rect x="2.4" y="10.3" width="2.1" height="0.4"/>
	<rect x="2.4" y="6.7" width="2.1" height="0.4"/>
	<rect x="2.4" y="3" width="2.1" height="0.4"/>
	<path d="M6.9,11.3H1.6V9.7h4.9c0-0.3,0-0.4,0.2-0.7H1v3h6.7C7.4,11.8,7.1,11.5,6.9,11.3z"/>
	<path d="M9.1,7.7c-1.2,0-2.1,0.9-2.1,2.1S7.9,12,9.1,12s2.1-0.9,2.1-2.1S10.3,7.7,9.1,7.7z M10.4,10.2h-1v1c0,0.2-0.2,0.3-0.3,0.3
		s-0.3-0.2-0.3-0.3v-1h-1c-0.2,0-0.3-0.2-0.3-0.3s0.2-0.3,0.3-0.3h1v-1c0-0.2,0.2-0.3,0.3-0.3s0.3,0.2,0.3,0.3v1h1
		c0.2,0,0.3,0.2,0.3,0.3S10.6,10.2,10.4,10.2z"/>
	<path d="M7.8,7.6H1.6V6h8.9v1.6h-0.2C10.7,7.8,11,8,11.1,8.3h0.1v-3H1v3H7C7.2,8,7.5,7.8,7.8,7.6z"/>
</g>
</svg>
