<?xml version="1.0" standalone="no"?><!DOCTYPE svg PUBLIC "-//W3C//DTD SVG 1.1//EN" "http://www.w3.org/Graphics/SVG/1.1/DTD/svg11.dtd"><svg t="1703125971279" class="icon" viewBox="0 0 1024 1024" version="1.1" xmlns="http://www.w3.org/2000/svg" p-id="2313" xmlns:xlink="http://www.w3.org/1999/xlink" width="16" height="16"><path d="M713.142857 283.428571v-54.857142c0-5.028571-4.114286-9.142857-9.142857-9.142858H265.142857c-5.028571 0-9.142857 4.114286-9.142857 9.142858v54.857142c0 5.028571 4.114286 9.142857 9.142857 9.142858h438.857143c5.028571 0 9.142857-4.114286 9.142857-9.142858z m-448 100.571429c-5.028571 0-9.142857 4.114286-9.142857 9.142857v54.857143c0 5.028571 4.114286 9.142857 9.142857 9.142857h210.285714c5.028571 0 9.142857-4.114286 9.142858-9.142857v-54.857143c0-5.028571-4.114286-9.142857-9.142858-9.142857H265.142857z m164.571429 516.571429H164.571429V96h640v393.142857c0 5.028571 4.114286 9.142857 9.142857 9.142857h64c5.028571 0 9.142857-4.114286 9.142857-9.142857V50.285714c0-20.228571-16.342857-36.571429-36.571429-36.571428H118.857143c-20.228571 0-36.571429 16.342857-36.571429 36.571428v896c0 20.228571 16.342857 36.571429 36.571429 36.571429h310.857143c5.028571 0 9.142857-4.114286 9.142857-9.142857v-64c0-5.028571-4.114286-9.142857-9.142857-9.142857z m509.371428 58.857142l-106.628571-106.628571C857.942857 819.085714 873.142857 777.028571 873.142857 731.428571c0-111.085714-90.057143-201.142857-201.142857-201.142857s-201.142857 90.057143-201.142857 201.142857 90.057143 201.142857 201.142857 201.142858c40.914286 0 78.857143-12.228571 110.628571-33.142858l108.228572 108.228572c1.828571 1.828571 4.114286 2.628571 6.4 2.628571s4.685714-0.914286 6.4-2.628571l35.428571-35.428572a9.028571 9.028571 0 0 0 0-12.8zM672 859.428571c-70.742857 0-128-57.257143-128-128s57.257143-128 128-128 128 57.257143 128 128-57.257143 128-128 128z" p-id="2314"></path></svg>