<?xml version="1.0" standalone="no"?>
<!DOCTYPE svg PUBLIC "-//W3C//DTD SVG 1.1//EN" "http://www.w3.org/Graphics/SVG/1.1/DTD/svg11.dtd">
<svg t="1730182400536" class="icon" viewBox="0 0 1024 1024" version="1.1" xmlns="http://www.w3.org/2000/svg" p-id="3264" xmlns:xlink="http://www.w3.org/1999/xlink" width="200" height="200">
    <path d="M763.245956 671.939007c78.878643 0 140.230024 61.350387 140.230024 140.230024 0 26.291888-5.844408 49.663558-20.451454 70.115012l84.722058 84.721064-46.743341 49.664552-84.722058-84.722058c-20.449467 11.686829-46.743341 20.451453-73.035229 20.451453-78.879637 0-140.230024-61.35138-140.230024-140.230023s64.271598-140.230024 140.230024-140.230024zM214.011696 87.647241h58.429177v87.643269h-58.429177v730.363217h350.57506v87.644261h-350.57506c-49.665545 0-87.643268-37.978716-87.643268-87.644261v-730.362224c0-49.665545 40.899927-87.644261 87.643268-87.644262z m549.23426 671.935034c-29.216078 0-52.586756 23.371671-52.586756 52.585762s23.371671 52.586756 52.586756 52.586756 52.585762-23.371671 52.585762-52.586756-23.371671-52.585762-52.585762-52.585762z m35.057506-671.935034c49.663558 0 87.643268 37.978716 87.643268 87.643269v467.433412h-87.643268v-467.433412h-58.43017V87.647241h58.43017z m-233.716706 467.43242v87.643268H301.654964v-87.643268h262.930798z m146.072444-175.28753v87.644261H301.654964v-87.644261h409.004236zM593.800847 0.003973c49.664552 0 87.643268 37.977723 87.643268 87.643268v58.429177c0 49.663558-37.978716 87.644261-87.644261 87.644261H418.513317c-49.663558 0-87.644261-37.97971-87.644261-87.644261V87.647241c0-49.665545 37.97971-87.643268 87.644261-87.643268h175.286537z m0 87.643268H418.513317v58.429177h175.286537V87.647241z" fill="currentColor" p-id="3265"/>
</svg>