<?xml version="1.0" standalone="no"?><!DOCTYPE svg PUBLIC "-//W3C//DTD SVG 1.1//EN" "http://www.w3.org/Graphics/SVG/1.1/DTD/svg11.dtd"><svg t="1724636439227" class="icon" viewBox="0 0 1024 1024" version="1.1" xmlns="http://www.w3.org/2000/svg" p-id="4299" xmlns:xlink="http://www.w3.org/1999/xlink" width="200" height="200"><path d="M726.552381 633.904762a117.028571 117.028571 0 0 1 101.13219 175.957333l70.217143 70.217143-41.374476 41.374476-70.022095-69.997714A117.028571 117.028571 0 1 1 726.552381 633.904762zM268.190476 146.285714h48.761905v73.118476L268.190476 219.428571v609.52381h292.571429v73.142857H268.190476a73.142857 73.142857 0 0 1-73.142857-73.142857V219.428571a73.142857 73.142857 0 0 1 73.142857-73.142857z m458.361905 560.761905a43.885714 43.885714 0 1 0 0 87.771429 43.885714 43.885714 0 0 0 0-87.771429zM755.809524 146.285714a73.142857 73.142857 0 0 1 73.142857 73.142857l-0.024381 390.095239h-73.142857L755.809524 219.428571h-48.761905V146.285714h48.761905z m-195.047619 390.095238v73.142858h-219.428572v-73.142858h219.428572z m121.904762-146.285714v73.142857H341.333333v-73.142857h341.333334zM585.142857 73.142857a73.142857 73.142857 0 0 1 73.142857 73.142857v48.761905a73.142857 73.142857 0 0 1-73.142857 73.142857h-146.285714a73.142857 73.142857 0 0 1-73.142857-73.142857V146.285714a73.142857 73.142857 0 0 1 73.142857-73.142857h146.285714z m0 73.142857h-146.285714v48.761905h146.285714V146.285714z" p-id="4300"></path></svg>