<svg width="20" height="20" viewBox="0 0 20 20" fill="none" xmlns="http://www.w3.org/2000/svg">
<path d="M14.941 3.46024L14.9411 3.4601C15.1199 3.23733 15.3562 3.10453 15.6151 3.10453C15.8707 3.10453 16.1098 3.23414 16.2893 3.46047C16.2893 3.46051 16.2893 3.46055 16.2894 3.46059L18.2914 5.96504L14.941 3.46024ZM14.941 3.46024L12.9359 5.96788L12.9356 5.96824M14.941 3.46024L12.9356 5.96824M12.9356 5.96824C12.8534 6.07202 12.8023 6.16498 12.7751 6.24244C12.7615 6.28109 12.7533 6.31771 12.7509 6.35107C12.7489 6.38044 12.7508 6.4153 12.765 6.44746C12.78 6.48584 12.8094 6.51376 12.8359 6.53278C12.866 6.55443 12.9036 6.57282 12.9468 6.58784C13.0335 6.61797 13.1524 6.63789 13.3044 6.63789H13.3459M12.9356 5.96824L13.3459 6.63789M13.3459 6.63789L13.3459 6.63787M13.3459 6.63789L13.3459 6.63787M13.3459 6.63787H15.0353V12.7273C15.0353 13.0787 15.2791 13.3954 15.6125 13.3954C15.9466 13.3954 16.1873 13.0779 16.1873 12.7273V6.63785H17.9181C18.0702 6.63785 18.1885 6.61791 18.2758 6.58745C18.3571 6.5591 18.4303 6.51485 18.4621 6.45127C18.479 6.41738 18.4814 6.37978 18.4791 6.34834C18.4767 6.31488 18.4683 6.2782 18.4545 6.23947C18.4269 6.16194 18.3751 6.06901 18.2917 5.96531L13.3459 6.63787ZM10.2782 7.91162L10.2782 7.91067C10.275 7.57541 9.95885 7.33433 9.60746 7.33433H2.1908C1.83943 7.33433 1.52262 7.57818 1.52262 7.91162C1.52262 8.24504 1.83943 8.48888 2.19078 8.48888H9.61C9.96137 8.48888 10.2782 8.24504 10.2782 7.91162ZM10.2782 12.1313L10.2782 12.1303C10.275 11.7979 9.95922 11.554 9.60746 11.554H2.1908C1.83943 11.554 1.52262 11.7979 1.52262 12.1313C1.52262 12.4647 1.83943 12.7086 2.19078 12.7086H9.61C9.96137 12.7086 10.2782 12.4647 10.2782 12.1313ZM9.59736 15.7788H2.1984C1.84381 15.7788 1.52012 16.0211 1.52012 16.3561C1.52012 16.6908 1.84098 16.9333 2.1984 16.9333H9.59738C9.9548 16.9333 10.2757 16.6908 10.2757 16.3561C10.2757 16.0213 9.95479 15.7788 9.59738 15.7788H9.59736Z" fill="black" stroke="black" stroke-width="0.2"/>
<path d="M10.2786 3.68436L10.2786 3.6834C10.2754 3.351 9.95965 3.10709 9.60789 3.10709H2.19123C1.83986 3.10709 1.52305 3.35093 1.52305 3.68436C1.52305 4.0178 1.83986 4.26164 2.19121 4.26164H9.61043C9.9618 4.26164 10.2786 4.0178 10.2786 3.68436ZM2.20133 16.9308H17.2013C17.5559 16.9308 17.8796 16.6885 17.8796 16.3536C17.8796 16.0189 17.5587 15.7763 17.2013 15.7763H2.20133C1.84676 15.7763 1.52305 16.0186 1.52305 16.3536C1.52305 16.6911 1.84429 16.9308 2.20133 16.9308Z" fill="black" stroke="black" stroke-width="0.2"/>
</svg>
