<svg width="151" height="154" viewBox="0 0 151 154" fill="none" xmlns="http://www.w3.org/2000/svg">
<path d="M129.429 111.517C124.474 111.518 119.67 113.198 115.826 116.275C111.981 119.352 109.329 123.639 108.316 128.415L54.6728 128.404C53.2652 127.48 52.4078 121.166 51.9009 116.828H67.47C69.9292 120.035 73.8012 122.138 78.1964 122.138C80.7473 122.137 83.2457 121.424 85.4015 120.081C87.5572 118.739 89.2819 116.821 90.375 114.551C91.4682 112.282 91.8851 109.754 91.5773 107.26C91.2695 104.767 90.2496 102.41 88.636 100.465C87.0225 98.5191 84.8815 97.0642 82.4619 96.269C80.0422 95.4738 77.443 95.3709 74.9663 95.9722C72.4895 96.5735 70.2369 97.8544 68.4699 99.666C66.7029 101.478 65.4941 103.746 64.9839 106.207H50.4502C48.4926 95.7296 43.9895 84.9655 29.8656 84.9655H5.39286C3.96258 84.9655 2.59089 85.525 1.57953 86.5209C0.568174 87.5168 0 88.8675 0 90.2759C0 91.6842 0.568174 93.035 1.57953 94.0308C2.59089 95.0267 3.96258 95.5862 5.39286 95.5862H29.871C35.3178 95.5862 37.8147 98.868 39.4272 106.207H5.39286C3.96258 106.207 2.59089 106.766 1.57953 107.762C0.568174 108.758 0 110.109 0 111.517C0 112.926 0.568174 114.276 1.57953 115.272C2.59089 116.268 3.96258 116.828 5.39286 116.828H41.045C42.1775 126.795 43.6714 139.035 54.9047 139.035H108.526C108.661 139.035 108.769 138.972 108.898 138.961C111.611 147.644 119.721 154 129.429 154C135.15 154 140.636 151.762 144.682 147.779C148.727 143.795 151 138.392 151 132.759C151 127.125 148.727 121.722 144.682 117.739C140.636 113.755 135.15 111.517 129.429 111.517ZM129.429 143.379C128.012 143.379 126.609 143.104 125.3 142.57C123.991 142.035 122.802 141.253 121.801 140.266C120.799 139.279 120.005 138.108 119.463 136.819C118.921 135.53 118.643 134.148 118.643 132.753C118.643 131.358 118.923 129.977 119.465 128.688C120.008 127.399 120.803 126.228 121.805 125.242C122.807 124.256 123.996 123.474 125.305 122.94C126.614 122.407 128.017 122.132 129.434 122.133C132.295 122.133 135.039 123.253 137.062 125.246C139.084 127.239 140.22 129.941 140.22 132.759C140.219 135.576 139.082 138.278 137.058 140.27C135.034 142.261 132.29 143.38 129.429 143.379ZM5.39286 74.3448H70.1934C70.4199 74.3448 70.6141 74.2439 70.8298 74.2174C71.9925 78.7981 74.6749 82.8655 78.4518 85.7745C82.2286 88.6836 86.8836 90.2677 91.6786 90.2759C97.3997 90.2759 102.886 88.0379 106.932 84.0544C110.977 80.0709 113.25 74.668 113.25 69.0345C113.25 63.4009 110.977 57.9981 106.932 54.0146C102.886 50.031 97.3997 47.7931 91.6786 47.7931C86.8836 47.8012 82.2286 49.3854 78.4518 52.2944C74.6749 55.2035 71.9925 59.2709 70.8298 63.8516C70.6141 63.825 70.4199 63.7241 70.1934 63.7241H5.39286C3.96258 63.7241 2.59089 64.2836 1.57953 65.2795C0.568174 66.2754 0 67.6261 0 69.0345C0 70.4429 0.568174 71.7936 1.57953 72.7895C2.59089 73.7853 3.96258 74.3448 5.39286 74.3448ZM91.6786 58.4138C93.0953 58.4141 94.4981 58.6893 95.8069 59.2235C97.1157 59.7577 98.3048 60.5405 99.3063 61.5272C100.308 62.5139 101.102 63.6852 101.644 64.9742C102.186 66.2632 102.465 67.6447 102.464 69.0398C102.464 70.4349 102.185 71.8162 101.642 73.105C101.1 74.3937 100.305 75.5646 99.3025 76.5508C98.3005 77.5371 97.111 78.3193 95.8019 78.8528C94.4929 79.3864 93.0899 79.6608 91.6732 79.6605C88.8119 79.6598 86.0681 78.5399 84.0454 76.5471C82.0227 74.5543 80.8867 71.852 80.8875 69.0345C80.8882 66.217 82.0255 63.5152 84.0492 61.5234C86.073 59.5317 88.8173 58.4131 91.6786 58.4138ZM5.39286 54.0646H29.871C48.1097 54.0646 50.3639 39.0841 51.7121 30.1362C52.8392 22.5849 53.5295 21.2414 54.9047 21.2414H105.22C107.679 24.4488 111.551 26.5517 115.946 26.5517C118.497 26.5512 120.996 25.8381 123.151 24.4952C125.307 23.1523 127.032 21.2347 128.125 18.9652C129.218 16.6957 129.635 14.1673 129.327 11.6738C129.019 9.18031 128 6.82395 126.386 4.87842C124.772 2.9329 122.632 1.47804 120.212 0.682833C117.792 -0.112375 115.193 -0.215305 112.716 0.385998C110.24 0.987301 107.987 2.26816 106.22 4.07981C104.453 5.89147 103.244 8.15957 102.734 10.6207H54.9047C43.7361 10.6207 42.1128 21.4272 41.0396 28.5803C39.4541 39.1426 37.9981 43.4439 29.871 43.4439H5.39286C3.96258 43.4439 2.59089 44.0034 1.57953 44.9993C0.568174 45.9952 0 47.3459 0 48.7543C0 50.1627 0.568174 51.5134 1.57953 52.5093C2.59089 53.5051 3.96258 54.0646 5.39286 54.0646Z" fill="#FFCE51" fill-opacity="0.09"/>
</svg>
