<svg width="168" height="162" viewBox="0 0 168 162" fill="none" xmlns="http://www.w3.org/2000/svg">
<path d="M25.8303 51.84C30.9709 51.8378 35.9937 50.2945 40.2543 47.408C44.5148 44.5216 47.8189 40.4237 49.7426 35.64H161.471C163.184 35.64 164.827 34.9573 166.038 33.7421C167.249 32.5268 167.929 30.8786 167.929 29.16C167.929 27.4414 167.249 25.7932 166.038 24.5779C164.827 23.3627 163.184 22.68 161.471 22.68H51.3376C49.7297 9.9144 38.9908 0 25.8303 0C18.9796 0 12.4096 2.73085 7.56551 7.59179C2.72139 12.4527 0 19.0456 0 25.92C0 32.7944 2.72139 39.3873 7.56551 44.2482C12.4096 49.1092 18.9796 51.84 25.8303 51.84ZM25.8303 12.96C27.5267 12.9604 29.2065 13.2961 30.7737 13.948C32.3408 14.5999 33.7647 15.5551 34.964 16.7591C36.1633 17.9632 37.1145 19.3925 37.7633 20.9654C38.4121 22.5384 38.7458 24.2241 38.7454 25.9265C38.745 27.6288 38.4104 29.3144 37.7608 30.8871C37.1112 32.4597 36.1593 33.8885 34.9594 35.0919C33.7595 36.2954 32.3352 37.2499 30.7677 37.901C29.2002 38.552 27.5203 38.8869 25.8238 38.8865C22.3976 38.8856 19.1121 37.519 16.6901 35.0873C14.268 32.6557 12.9078 29.3581 12.9087 25.92C12.9095 22.4819 14.2714 19.185 16.6947 16.7546C19.1179 14.3241 22.4041 12.9591 25.8303 12.96ZM161.542 110.16H51.6605C51.357 110.16 51.0922 110.296 50.8017 110.335C49.4128 104.741 46.2014 99.7722 41.6773 96.2185C37.1531 92.6648 31.5756 90.7295 25.8303 90.72C18.9796 90.72 12.4096 93.4509 7.56551 98.3118C2.72139 103.173 0 109.766 0 116.64C0 123.514 2.72139 130.107 7.56551 134.968C12.4096 139.829 18.9796 142.56 25.8303 142.56C31.5756 142.55 37.1531 140.615 41.6773 137.062C46.2014 133.508 49.4128 128.539 50.8017 122.945C51.0922 122.984 51.357 123.12 51.6605 123.12H161.542C163.255 123.12 164.898 122.437 166.109 121.222C167.32 120.007 168 118.359 168 116.64C168 114.921 167.32 113.273 166.109 112.058C164.898 110.843 163.255 110.16 161.542 110.16ZM25.8303 129.6C24.1338 129.6 22.454 129.264 20.8869 128.612C19.3197 127.96 17.8958 127.005 16.6965 125.801C15.4973 124.597 14.5461 123.168 13.8972 121.595C13.2484 120.022 12.9147 118.336 12.9151 116.634C12.9156 114.931 13.2501 113.246 13.8997 111.673C14.5493 110.1 15.5012 108.672 16.7011 107.468C17.901 106.265 19.3253 105.31 20.8928 104.659C22.4603 104.008 24.1403 103.673 25.8367 103.674C29.2629 103.674 32.5484 105.041 34.9704 107.473C37.3925 109.904 38.7527 113.202 38.7518 116.64C38.751 120.078 37.3891 123.375 34.9659 125.805C32.5426 128.236 29.2564 129.601 25.8303 129.6ZM161.542 64.8H103.321C101.608 64.8 99.9659 65.4827 98.7548 66.698C97.5438 67.9132 96.8635 69.5614 96.8635 71.28C96.8635 72.9986 97.5438 74.6468 98.7548 75.8621C99.9659 77.0773 101.608 77.76 103.321 77.76H161.542C163.255 77.76 164.898 77.0773 166.109 75.8621C167.32 74.6468 168 72.9986 168 71.28C168 69.5614 167.32 67.9132 166.109 66.698C164.898 65.4827 163.255 64.8 161.542 64.8ZM161.542 149.04H103.321C101.608 149.04 99.9659 149.723 98.7548 150.938C97.5438 152.153 96.8635 153.801 96.8635 155.52C96.8635 157.239 97.5438 158.887 98.7548 160.102C99.9659 161.317 101.608 162 103.321 162H161.542C163.255 162 164.898 161.317 166.109 160.102C167.32 158.887 168 157.239 168 155.52C168 153.801 167.32 152.153 166.109 150.938C164.898 149.723 163.255 149.04 161.542 149.04Z" fill="#003D8D" fill-opacity="0.03"/>
</svg>
