<svg width="20" height="20" viewBox="0 0 20 20" fill="none" xmlns="http://www.w3.org/2000/svg">
<path d="M10.2782 7.91161L10.2782 7.91066C10.275 7.5754 9.95885 7.33433 9.60746 7.33433H2.1908C1.83943 7.33433 1.52262 7.57817 1.52262 7.91161C1.52262 8.24503 1.83943 8.48888 2.19078 8.48888H9.61C9.96137 8.48888 10.2782 8.24503 10.2782 7.91161ZM10.2782 12.1313L10.2782 12.1303C10.275 11.7979 9.95922 11.554 9.60746 11.554H2.1908C1.83943 11.554 1.52262 11.7979 1.52262 12.1313C1.52262 12.4647 1.83943 12.7086 2.19078 12.7086H9.61C9.96137 12.7086 10.2782 12.4647 10.2782 12.1313ZM9.59736 15.7788H2.1984C1.84381 15.7788 1.52012 16.0211 1.52012 16.356C1.52012 16.6908 1.84098 16.9333 2.1984 16.9333H9.59738C9.9548 16.9333 10.2757 16.6908 10.2757 16.356C10.2757 16.0213 9.95477 15.7788 9.59736 15.7788Z" fill="black" stroke="black" stroke-width="0.2"/>
<path d="M10.2786 3.68436L10.2786 3.6834C10.2754 3.351 9.95965 3.10709 9.60789 3.10709H2.19123C1.83986 3.10709 1.52305 3.35093 1.52305 3.68436C1.52305 4.0178 1.83986 4.26164 2.19121 4.26164H9.61043C9.9618 4.26164 10.2786 4.0178 10.2786 3.68436ZM2.20133 16.9308H17.2013C17.5559 16.9308 17.8796 16.6885 17.8796 16.3536C17.8796 16.0189 17.5587 15.7763 17.2013 15.7763H2.20133C1.84676 15.7763 1.52305 16.0186 1.52305 16.3536C1.52305 16.6911 1.84429 16.9308 2.20133 16.9308Z" fill="black" stroke="black" stroke-width="0.2"/>
<path d="M17.0751 9.6576L15.3443 9.6576L15.3443 3.56821C15.3443 3.21682 15.1004 2.90002 14.767 2.90002C14.4329 2.90002 14.1922 3.21755 14.1922 3.56819L14.1922 9.65762L12.4614 9.65762C12.3093 9.65762 12.191 9.67756 12.1037 9.70802C12.0224 9.73637 11.9493 9.78062 11.9175 9.84419C11.9005 9.87809 11.8981 9.91569 11.9004 9.94713C11.9028 9.98059 11.9112 10.0173 11.925 10.056C11.9526 10.1336 12.0045 10.2265 12.088 10.3303C12.088 10.3303 12.088 10.3304 12.0881 10.3304L14.0901 12.8349C14.0902 12.8349 14.0902 12.835 14.0903 12.835C14.2697 13.0613 14.5089 13.1909 14.7645 13.1909C15.0233 13.1909 15.2596 13.0581 15.4384 12.8354L15.4385 12.8352L17.4436 10.3276L17.4439 10.3272C17.5261 10.2234 17.5772 10.1305 17.6044 10.053C17.618 10.0144 17.6263 9.97776 17.6286 9.9444C17.6307 9.91502 17.6287 9.88016 17.6145 9.84801C17.5996 9.80962 17.5701 9.78171 17.5436 9.76269C17.5135 9.74105 17.4759 9.72265 17.4327 9.70764C17.346 9.67751 17.2271 9.6576 17.0751 9.6576Z" fill="black" stroke="black" stroke-width="0.2"/>
</svg>
