<?xml version="1.0" encoding="utf-8"?>
<!-- Generator: Adobe Illustrator 26.0.3, SVG Export Plug-In . SVG Version: 6.00 Build 0)  -->
<svg version="1.1" id="图层_1" xmlns="http://www.w3.org/2000/svg" xmlns:xlink="http://www.w3.org/1999/xlink" x="0px" y="0px"
	 viewBox="0 0 200 200" style="enable-background:new 0 0 200 200;" xml:space="preserve">
<style type="text/css">
	.st0{fill:#707070;stroke:#707070;stroke-width:4;stroke-miterlimit:10;}
</style>
<path class="st0" d="M179.5,74.8c-1.3,0-2.6-0.8-3-2.1c-2.9-8.2-7.2-15.9-12.7-22.8c-1.1-1.4-0.9-3.4,0.5-4.5s3.4-0.9,4.5,0.5
	c5.9,7.5,10.5,15.7,13.7,24.6c0.6,1.7-0.3,3.5-1.9,4.1C180.2,74.7,179.8,74.8,179.5,74.8z M31.9,153c-1,0-2-0.4-2.6-1.3
	c-5.4-7.4-9.6-15.5-12.5-24.2c-0.6-1.7,0.4-3.5,2-4.1c1.7-0.6,3.5,0.4,4.1,2c2.7,8,6.5,15.6,11.6,22.4c1.1,1.4,0.7,3.4-0.7,4.5
	C33.2,152.8,32.6,153,31.9,153z M100,187.6c-21.5,0-42.1-7.9-58.2-22.1c-1.3-1.2-1.4-3.2-0.3-4.5s3.2-1.4,4.5-0.3
	c14.9,13.2,34,20.5,53.9,20.5c42,0,76.6-32.1,80.7-73l-11.5,11.4c-1.3,1.3-3.3,1.3-4.6,0c-1.2-1.2-1.2-3.3,0-4.6l22.9-22.8v7.8
	C187.6,148.3,148.3,187.6,100,187.6L100,187.6z M12.4,107.8V100c0-48.3,39.3-87.6,87.6-87.6c20.2,0,39.8,7,55.4,19.7
	c1.4,1.1,1.6,3.1,0.4,4.5c-1.1,1.4-3.1,1.6-4.5,0.4c-14.4-11.8-32.7-18.3-51.3-18.3c-42,0-76.6,32-80.7,72.9l12.2-12.3
	c1.2-1.3,3.3-1.3,4.6,0c1.2,1.2,1.3,3.3,0,4.6L12.4,107.8z"/>
<path class="st0" d="M100.3,95.4L65,60.1c-1.2-1.2-1.2-3.3,0-4.6c1.2-1.3,3.3-1.2,4.6,0l30.8,30.8l30.5-30.5c1.2-1.2,3.3-1.2,4.6,0
	s1.2,3.3,0,4.6L100.3,95.4z"/>
<path class="st0" d="M133,94.1H67.2c-1.8,0-3.2-1.4-3.2-3.2s1.4-3.2,3.2-3.2H133c1.8,0,3.2,1.4,3.2,3.2S134.8,94.1,133,94.1z
	 M133,119.1H67.2c-1.8,0-3.2-1.4-3.2-3.2s1.4-3.2,3.2-3.2H133c1.8,0,3.2,1.4,3.2,3.2S134.8,119.1,133,119.1z"/>
<path class="st0" d="M100.3,152.7c-1.8,0-3.2-1.4-3.2-3.2V90.9c0-1.8,1.4-3.2,3.2-3.2c1.8,0,3.2,1.4,3.2,3.2v58.6
	C103.5,151.3,102,152.7,100.3,152.7L100.3,152.7z"/>
</svg>
