<svg t="1714118651544" class="icon" viewBox="0 0 1024 1024" version="1.1" xmlns="http://www.w3.org/2000/svg" p-id="6906" width="200" height="200"><path d="M918.8 382.9c-6.8 0-13.1-4.2-15.5-10.9-15.1-42.2-36.9-81.6-64.8-116.9-5.6-7.1-4.4-17.5 2.7-23.1 7.1-5.6 17.5-4.4 23.1 2.7 30.1 38.2 53.6 80.6 69.9 126.2 3.1 8.6-1.4 18-9.9 21-1.8 0.7-3.7 1-5.5 1zM163.4 783.5c-5.1 0-10.1-2.3-13.3-6.7-27.7-37.8-49.2-79.5-63.9-123.9-2.9-8.6 1.8-17.9 10.4-20.8 8.6-2.9 17.9 1.8 20.8 10.4 13.6 41.1 33.5 79.7 59.2 114.8 5.4 7.3 3.8 17.6-3.5 23-2.9 2.1-6.4 3.2-9.7 3.2zM512 960.4c-110 0-215.8-40.2-297.9-113.2-6.8-6-7.4-16.4-1.4-23.2 6-6.8 16.4-7.4 23.2-1.4 76.1 67.7 174.1 104.9 276 104.9 215 0 392.4-164.2 413.4-373.8l-58.8 58.6c-6.4 6.4-16.9 6.4-23.3 0-6.4-6.4-6.4-16.8 0-23.3l117-116.7V512c0.2 247.2-201 448.4-448.2 448.4zM63.6 552v-40C63.6 264.8 264.8 63.6 512 63.6c103.2 0 203.9 35.9 283.7 101.1 7 5.8 8.1 16.1 2.3 23.1-5.7 7-16.1 8.1-23.1 2.3C701 129.8 607.6 96.5 512 96.5c-214.9 0-392.2 164-413.4 373.4l62.7-63.2c6.4-6.5 16.8-6.5 23.3-0.1 6.4 6.4 6.5 16.8 0.1 23.3L63.6 552z" fill="#8a8a8a" p-id="6907"></path><path d="M513.4 488.4L332.6 307.7c-6.4-6.4-6.4-16.8 0-23.3s16.8-6.4 23.3 0l157.5 157.5 156.1-156.1c6.4-6.4 16.8-6.4 23.3 0s6.4 16.8 0 23.3L513.4 488.4z" fill="#8a8a8a" p-id="6908"></path><path d="M681.1 481.6H344.2c-9.1 0-16.4-7.4-16.4-16.4s7.4-16.4 16.4-16.4h336.9c9.1 0 16.4 7.4 16.4 16.4s-7.3 16.4-16.4 16.4zM681.1 609.8H344.2c-9.1 0-16.4-7.4-16.4-16.4s7.4-16.4 16.4-16.4h336.9c9.1 0 16.4 7.4 16.4 16.4s-7.3 16.4-16.4 16.4z" fill="#8a8a8a" p-id="6909"></path><path d="M513.4 781.7c-9.1 0-16.4-7.4-16.4-16.4V465.2c0-9.1 7.4-16.4 16.4-16.4 9.1 0 16.4 7.4 16.4 16.4v300.1c0 9.1-7.4 16.4-16.4 16.4z" fill="#707070" p-id="6910"></path></svg>