<?xml version="1.0" encoding="utf-8"?>
<!-- Generator: Adobe Illustrator 26.0.3, SVG Export Plug-In . SVG Version: 6.00 Build 0)  -->
<svg version="1.1" id="图层_1" xmlns="http://www.w3.org/2000/svg" xmlns:xlink="http://www.w3.org/1999/xlink" x="0px" y="0px"
	 viewBox="0 0 200 200" style="enable-background:new 0 0 200 200;" xml:space="preserve">
<style type="text/css">
	.st0{fill:#707070;stroke:#707070;stroke-width:1.958;stroke-miterlimit:10;}
</style>
<path class="st0" d="M154.6,87.7C154.2,39.9,115,1.4,67.2,1.9C43.9,2.1,21.6,11.7,5.5,28.5l6.2,5.7C41,2.9,90.3,1.2,121.6,30.6
	s33,78.6,3.6,109.9c-14.8,15.8-35.4,24.8-57.1,24.7c-21.6,0-42.3-8.9-57.2-24.7l-6.2,5.7c32.7,34.9,87.5,36.6,122.4,3.9
	C144.5,133.9,154.4,111.4,154.6,87.7z M162.6,2.6l-6.3,5.5c21.6,24.6,31.7,49.8,31.7,79.7c0,42.2-21,78.8-59,103l4.5,7
	c40.5-25.8,63-64.9,63-110C196.5,56.1,185.3,28.3,162.6,2.6L162.6,2.6z M28.2,28.6v17.6C16.3,56.7,9.9,71.9,10.5,87.7
	c-0.1,15.5,6.2,30.3,17.4,41l0.2-0.5v16.6h75.3v-12.2c13.4-11.2,21.4-27.5,22.1-45c0.1-17.6-8.1-34.3-22.1-44.9l0.1,0.1V28.6H28.2z
	 M18.4,87.7c0-10.5,5.6-20.7,9.8-29v58C24,108.4,18.4,98.3,18.4,87.7z M95.1,136.6H36.5V37h58.5V136.6z M117.4,87.7
	c-0.2,12.6-5.2,24.7-13.9,33.9V53.9C112.2,63,117.2,75,117.4,87.7L117.4,87.7z M86.7,41.1H44.9v29.1h41.8V41.1z M78.4,61.8H53.3
	V49.4h25.1L78.4,61.8L78.4,61.8z M64.6,78.7c-6.9,0.1-12.4,5.7-12.3,12.5c0.1,6.9,5.7,12.4,12.5,12.3c6.9-0.1,12.3-5.6,12.3-12.4
	S71.6,78.7,64.6,78.7L64.6,78.7z M64.6,95.3c-2.3,0-4.2-1.9-4.2-4.2s1.9-4.2,4.2-4.2c2.3,0,4.2,1.9,4.2,4.2S67,95.3,64.6,95.3
	L64.6,95.3L64.6,95.3z M64.6,107.7c-6.9,0.1-12.4,5.7-12.3,12.5c0.1,6.9,5.7,12.4,12.5,12.3c6.9-0.1,12.3-5.6,12.3-12.4
	C77.1,113.3,71.6,107.7,64.6,107.7L64.6,107.7L64.6,107.7z M64.6,124.4c-2.3,0-4.2-1.9-4.2-4.2s1.9-4.2,4.2-4.2
	c2.3,0,4.2,1.9,4.2,4.2l0,0C68.8,122.5,67,124.4,64.6,124.4C64.7,124.4,64.6,124.4,64.6,124.4L64.6,124.4z"/>
</svg>
