<svg t="1714118143528" class="icon" viewBox="0 0 1024 1024" version="1.1" xmlns="http://www.w3.org/2000/svg" p-id="4333" width="200" height="200"><path d="M794.180044 448.686544A452.917463 452.917463 0 0 0 14.74981 139.036445l31.677425 29.978086A406.904587 406.904587 0 1 1 342.046892 853.935364a411.196507 411.196507 0 0 1-298.974763-129.19335L10.893617 754.327945a452.917463 452.917463 0 0 0 783.286427-305.641401zM836.097077 3.350748l-32.897463 28.627329c113.289278 128.321894 166.012365 260.739631 166.012365 416.730253 0 220.543724-109.672736 411.915459-308.822215 538.86481L684.093367 1024C896.140395 888.924322 1013.068002 684.52432 1013.068002 448.686544c0-164.8359-57.951823-310.499768-176.970925-445.335796zM132.897455 139.777183v92.396121a275.031509 275.031509 0 0 0-92.417907 216.51324 291.937756 291.937756 0 0 0 91.350374 214.639609l1.067533-2.374717v86.709871h393.919893v-63.790579a319.780774 319.780774 0 0 0 115.467918-235.293116 293.528163 293.528163 0 0 0-115.794714-234.857389l0.326796 0.392156V139.777183H132.897455zM81.939066 448.686544c0-54.967086 29.193776-108.104115 51.067321-151.589769v303.201324c-21.895332-43.485654-51.067321-95.947304-51.067321-151.611555z m401.131191 255.576254H176.753478V183.197478h306.316779v521.06532z m116.709743-255.576254a262.635048 262.635048 0 0 1-72.940866 176.905565V271.737406a262.765766 262.765766 0 0 1 72.91908 176.949138zM439.30138 204.831372H220.522355v151.981925h218.779025V204.831372z m-43.768877 108.56163H264.269445V248.404172h131.263058v65.141335z m-71.7644 88.169559a65.141335 65.141335 0 1 0 65.642422 65.119549 65.359199 65.359199 0 0 0-65.642422-65.032403z m0 86.84059a21.7864 21.7864 0 1 1 21.786399-21.7864 21.7864 21.7864 0 0 1-21.786399 21.873545z m0 65.141335a65.141335 65.141335 0 1 0 65.642422 65.141335 65.359199 65.359199 0 0 0-65.642422-65.075976z m0 86.840589a21.7864 21.7864 0 1 1 21.786399-21.7864 21.7864 21.7864 0 0 1-21.786399 21.960691z" p-id="4334" fill="#707070"></path></svg>