<svg t="1714376484454" class="icon" viewBox="0 0 1024 1024" version="1.1" xmlns="http://www.w3.org/2000/svg" p-id="5647" width="200" height="200"><path d="M947.7 94l-6.1-6.1c-12.4-12.4-32.5-12.4-44.9 0l-247 247c-3.2 3.2-5.7 6.8-7.7 10.9L609.8 414c-3.4 7.1 4 14.5 11.2 11.2l67.6-31.3c4.8-2.2 9.2-5.3 12.9-9l246.1-246.1c12.5-12.3 12.5-32.4 0.1-44.8z" p-id="5648" fill="#707070"></path><path d="M832.8 385.9c-19.9 0-36 16.1-36 36v420.8c0 25.2-20.4 45.7-45.7 45.7H181.3c-25.2 0-45.7-20.4-45.7-45.7V181.9c0-25.2 20.4-45.7 45.7-45.7h487.5c19.9 0 36-16.1 36-36s-16.1-36-36-36H164.4c-55.7 0-100.8 45.1-100.8 100.8v694.4c0 55.7 45.1 100.8 100.8 100.8h603.5c55.7 0 100.8-45.1 100.8-100.8V421.9c0.1-19.9-16.1-36-35.9-36z" p-id="5649" fill="#707070"></path><path d="M508.2 275.6H263.1c-19.9 0-36 16.1-36 36s16.1 36 36 36h245.2c19.9 0 36-16.1 36-36-0.1-19.9-16.2-36-36.1-36z m175.5 273.5c0-19.9-16.1-36-36-36H263.1c-19.9 0-36 16.1-36 36s16.1 36 36 36h384.7c19.8 0 35.9-16.1 35.9-36zM263.1 718.2c-19.9 0-36 16.1-36 36s16.1 36 36 36h167.2c19.9 0 36-16.1 36-36s-16.1-36-36-36H263.1z" p-id="5650" fill="#707070"></path></svg>