<svg width="14" height="14" viewBox="0 0 14 14" fill="none" xmlns="http://www.w3.org/2000/svg">
<path d="M12.6819 7.22716C12.6819 7.03081 12.786 6.84865 12.9563 6.75166C13.1266 6.6523 13.3372 6.6523 13.5051 6.75166C13.6755 6.85102 13.7796 7.03081 13.7796 7.22716V10.461C13.7796 12.2944 12.2939 13.7824 10.4582 13.7824H3.53624C1.70285 13.7824 0.214844 12.2968 0.214844 10.461V3.53672C0.214844 1.70333 1.70048 0.215332 3.53624 0.215332H6.54299C6.8458 0.215332 7.0942 0.461361 7.0942 0.764166C7.0942 1.06697 6.84817 1.313 6.54299 1.313H3.53624C2.94719 1.313 2.38179 1.5472 1.96543 1.96356C1.54893 2.38022 1.31493 2.94522 1.31488 3.53436V10.4587C1.31488 11.0477 1.54908 11.6131 1.96543 12.0295C2.38179 12.4458 2.94719 12.68 3.53624 12.68H10.4605C11.6859 12.68 12.6819 11.6864 12.6819 10.4587V7.22716Z" fill="currentColor"/>
<path d="M10.461 14H3.53667C1.58736 14 0 12.4126 0 10.4633V3.53667C0 1.58736 1.58736 0 3.53667 0H6.54343C6.96688 0 7.3099 0.343021 7.3099 0.766475C7.3099 1.18993 6.96688 1.53295 6.54343 1.53295H3.53667C3.00203 1.53295 2.49814 1.74113 2.11963 2.11964C1.74113 2.49814 1.53295 3.00203 1.53295 3.53667V10.461C1.53295 10.9956 1.74113 11.4995 2.11963 11.878C2.49814 12.2565 3.00203 12.4647 3.53667 12.4647H10.461C11.5657 12.4647 12.4647 11.5657 12.4647 10.461V7.2271C12.4647 6.95505 12.6114 6.69956 12.8479 6.56235C12.9638 6.49611 13.0963 6.46063 13.2312 6.46063C13.366 6.46063 13.4985 6.49611 13.6144 6.56235C13.851 6.69956 13.9976 6.95269 13.9976 7.2271V10.461C13.9976 12.4126 12.4126 14 10.461 14ZM3.53667 0.432917C1.82629 0.432917 0.432917 1.82629 0.432917 3.53667V10.461C0.432917 12.1713 1.82629 13.5647 3.53667 13.5647H10.461C12.1713 13.5647 13.5647 12.1713 13.5647 10.461V7.2271C13.5647 7.10882 13.5008 6.99763 13.3968 6.93849C13.295 6.87935 13.1649 6.87935 13.0632 6.93849C12.9615 6.99763 12.8976 7.10882 12.8976 7.2271V10.461C12.8976 11.8047 11.8047 12.8976 10.461 12.8976H3.53667C2.88611 12.8976 2.2734 12.6445 1.81446 12.1832C1.35316 11.7219 1.10003 11.1115 1.10003 10.461V3.53667C1.10003 2.88611 1.35316 2.2734 1.81446 1.81446C2.27577 1.35316 2.88611 1.10003 3.53667 1.10003H6.54343C6.72795 1.10003 6.87698 0.950997 6.87698 0.766475C6.87698 0.581953 6.72795 0.432917 6.54343 0.432917H3.53667ZM12.6823 1.31767H9.77019C9.46739 1.31767 9.22136 1.07165 9.22136 0.768841C9.22136 0.466036 9.46739 0.220007 9.77019 0.220007H13.2335C13.5363 0.220007 13.7847 0.466036 13.7847 0.768841V4.23217C13.7847 4.42852 13.6806 4.61068 13.5103 4.70767C13.34 4.80703 13.1294 4.80703 12.9615 4.70767C12.7911 4.60831 12.6871 4.42852 12.6871 4.23217V1.31767H12.6823Z" fill="currentColor"/>
<path d="M13.2314 4.96312C13.1037 4.96312 12.9759 4.93001 12.8648 4.86613C12.64 4.73602 12.4981 4.49236 12.4981 4.23213V1.49979H9.77047C9.36594 1.49979 9.03711 1.17097 9.03711 0.766437C9.03711 0.361908 9.36594 0.0330811 9.77047 0.0330811H13.2338C13.6383 0.0330811 13.9672 0.361908 13.9672 0.766437V4.22977C13.9672 4.48999 13.8276 4.73365 13.6005 4.86377C13.4869 4.92764 13.3592 4.96312 13.2314 4.96312ZM9.77047 0.399759C9.56702 0.399759 9.40379 0.565356 9.40379 0.766437C9.40379 0.969884 9.56938 1.13311 9.77047 1.13311H12.8648V4.2274C12.8648 4.35751 12.9357 4.48053 13.0493 4.54677C13.1605 4.61064 13.3048 4.61064 13.416 4.54677C13.5295 4.48053 13.6005 4.35988 13.6005 4.2274V0.766437C13.6005 0.56299 13.4349 0.399759 13.2338 0.399759H9.77047Z" fill="currentColor"/>
<path d="M7.38756 7.38793C7.16992 7.58901 6.834 7.58428 6.62345 7.37374C6.41291 7.16319 6.40818 6.82727 6.60926 6.60963L12.8428 0.376104C13.0604 0.175023 13.3963 0.179754 13.6069 0.390298C13.8174 0.600842 13.8222 0.936766 13.6211 1.15441L7.38756 7.38793Z" fill="currentColor"/>
<path d="M7.01182 7.71921C6.81547 7.71921 6.63331 7.64351 6.49374 7.50394C6.35918 7.36999 6.28198 7.18898 6.27845 6.99915C6.27492 6.80932 6.34533 6.62556 6.47481 6.4867L6.47954 6.48197L12.7154 0.246079L12.7178 0.243713C12.8526 0.115968 13.0301 0.0473633 13.217 0.0473633C13.4133 0.0473633 13.5955 0.123065 13.735 0.262639C13.8696 0.396585 13.9468 0.577601 13.9503 0.767427C13.9539 0.957254 13.8834 1.14102 13.754 1.27987L13.7492 1.28461L7.51334 7.5205L7.51097 7.52286C7.37613 7.64824 7.1987 7.71921 7.01182 7.71921ZM6.74213 6.73746C6.60965 6.88413 6.61202 7.10651 6.75396 7.24608C6.82256 7.31468 6.91482 7.3549 7.01418 7.3549C7.10644 7.3549 7.19397 7.31942 7.26258 7.25791L13.4914 1.02911C13.6238 0.882443 13.6215 0.660071 13.4795 0.520496C13.4109 0.451892 13.3187 0.411676 13.2193 0.411676C13.1271 0.411676 13.0395 0.447161 12.9709 0.508668L6.74213 6.73746Z" fill="currentColor"/>
</svg>
