<svg width="20" height="20" viewBox="0 0 20 20" fill="none" xmlns="http://www.w3.org/2000/svg">
<path d="M11.5797 13.053H11.5795C12.0708 13.053 12.3164 13.2986 12.3164 13.7899V16.7372C12.3164 17.2284 12.0708 17.4741 11.5795 17.4741H11.5797C11.0884 17.4741 10.8428 17.2284 10.8428 16.7372V13.7899C10.8428 13.2986 11.0884 13.053 11.5797 13.053Z" fill="#6A7B97"/>
<path d="M14.527 13.053H14.5268C15.018 13.053 15.2637 13.2986 15.2637 13.7899V16.7372C15.2637 17.2284 15.018 17.4741 14.5268 17.4741H14.527C14.0357 17.4741 13.79 17.2284 13.79 16.7372V13.7899C13.79 13.2986 14.0357 13.053 14.527 13.053Z" fill="#6A7B97"/>
<path d="M17.474 7.52656C17.4745 7.75447 17.5456 7.97663 17.6776 8.16244C17.8096 8.34825 17.9959 8.48857 18.2109 8.56406V16.7371C18.2109 17.128 18.0556 17.5028 17.7792 17.7791C17.5028 18.0555 17.128 18.2107 16.7371 18.2107H7.89492V14.5266H6.42129V18.2107H3.47383C3.08298 18.2107 2.70813 18.0555 2.43174 17.7791C2.15535 17.5028 2.00005 17.128 2 16.7371V8.56406C2.21526 8.4889 2.40182 8.34865 2.53383 8.16274C2.66583 7.97684 2.73675 7.75447 2.73675 7.52647C2.73675 7.29846 2.66583 7.0761 2.53383 6.89019C2.40182 6.70428 2.21526 6.56403 2 6.48887V3.47383C2.00005 3.08296 2.15535 2.70812 2.43173 2.43173C2.70812 2.15535 3.08296 2.00005 3.47383 2H16.7371C17.128 2.00005 17.5028 2.15535 17.7792 2.43173C18.0556 2.70812 18.2109 3.08296 18.2109 3.47383V6.48887C17.9959 6.56438 17.8095 6.70472 17.6775 6.89057C17.5455 7.07642 17.4744 7.29862 17.474 7.52656ZM16.7371 16.7371V9.32539C16.2649 8.84571 16.0002 8.19958 16.0002 7.52647C16.0002 6.85335 16.2649 6.20722 16.7371 5.72754V3.47383H3.47383V5.72754C3.94605 6.20722 4.21072 6.85335 4.21072 7.52647C4.21072 8.19958 3.94605 8.84571 3.47383 9.32539V16.7371H4.94746V14.5266C4.94746 14.333 4.98558 14.1414 5.05965 13.9626C5.13372 13.7838 5.24229 13.6213 5.37915 13.4845C5.51601 13.3476 5.67848 13.2391 5.85729 13.165C6.03611 13.091 6.22775 13.0529 6.42129 13.0529H7.89492C8.28575 13.0529 8.66058 13.2082 8.93694 13.4845C9.2133 13.7609 9.36855 14.1357 9.36855 14.5266V16.7371H16.7371Z" fill="#6A7B97"/>
<path d="M13.0531 10.8424H7.1582C6.76735 10.8424 6.39253 10.6871 6.11618 10.4107C5.83982 10.1343 5.68457 9.75945 5.68457 9.3686V7.15806C5.68467 6.76729 5.83998 6.39257 6.11632 6.11629C6.39267 5.84002 6.76744 5.68481 7.1582 5.68481H13.0531C13.444 5.68481 13.8188 5.84007 14.0951 6.11643C14.3715 6.39279 14.5268 6.76762 14.5268 7.15845V9.3686C14.5268 9.75945 14.3715 10.1343 14.0952 10.4107C13.8188 10.6871 13.444 10.8424 13.0531 10.8424ZM13.0531 9.3686V7.15806H7.1582V9.3686H13.0531Z" fill="#6A7B97"/>
</svg>
