<svg width="20" height="20" viewBox="0 0 20 20" fill="none" xmlns="http://www.w3.org/2000/svg">
<g clip-path="url(#clip0_1202_4844)">
<path d="M19.2138 6.10733C18.7101 4.91645 17.9892 3.84708 17.0711 2.92893C16.1529 2.01078 15.0836 1.28986 13.8927 0.786156C12.6594 0.26449 11.3497 0 10 0C8.65034 0 7.34066 0.26449 6.10733 0.786156C4.91645 1.28986 3.84708 2.01078 2.92893 2.92893C2.01078 3.84708 1.28986 4.91643 0.786157 6.10733C0.264491 7.34066 0 8.65034 0 10C0 11.3497 0.264491 12.6594 0.786157 13.8927C1.28986 15.0835 2.01078 16.1529 2.92893 17.0711C3.84708 17.9892 4.91643 18.7102 6.10733 19.2138C7.34066 19.7355 8.65034 20 10 20C11.3497 20 12.6594 19.7355 13.8927 19.2138C15.0835 18.7101 16.1529 17.9892 17.0711 17.0711C17.9892 16.1529 18.7102 15.0836 19.2138 13.8927C19.7355 12.6594 20 11.3497 20 10C20 8.65034 19.7355 7.34066 19.2138 6.10733ZM10.7408 6.86541C11.1475 6.85978 11.5531 6.8496 11.9569 6.83374C12.6609 6.80606 13.3643 6.76224 14.0664 6.70231C14.3015 7.49809 14.4516 8.35309 14.5152 9.25925H10.7408V6.86541ZM10.7408 5.38233V1.94366C11.1486 2.22551 11.6521 2.63451 12.1545 3.19821C12.6966 3.80655 13.1524 4.4977 13.5152 5.25884C12.5445 5.33168 11.6144 5.36955 10.7408 5.38233ZM9.25927 2.03134V5.38099C8.46064 5.36801 7.66247 5.33475 6.86552 5.28124C6.77922 5.27543 6.69293 5.26937 6.60666 5.26305C6.9584 4.52428 7.39775 3.85122 7.9186 3.25585C8.38814 2.71916 8.86124 2.31859 9.25927 2.03134ZM6.7336 6.75717C7.57444 6.81435 8.41661 6.8499 9.25927 6.86379V9.25925H5.60879C5.67226 8.35464 5.82194 7.50092 6.05636 6.70636C6.27518 6.72432 6.50103 6.74136 6.7336 6.75717ZM4.12409 9.25925H1.5137C1.60435 8.20006 1.88889 7.18106 2.35025 6.2436C2.81916 6.32643 3.57331 6.44636 4.55874 6.55937C4.32953 7.40888 4.18416 8.31126 4.12409 9.25925ZM4.10421 10.7407C4.14993 11.6468 4.32902 12.5519 4.63895 13.4444C3.61828 13.5596 2.8381 13.6833 2.35606 13.7683C1.89125 12.8276 1.60472 11.8044 1.5137 10.7407L4.10421 10.7407ZM5.58796 10.7407H9.25927V13.1492C8.41737 13.1632 7.57367 13.1986 6.7336 13.2557C6.53893 13.269 6.34907 13.2831 6.16395 13.2979C5.83242 12.4525 5.63944 11.5955 5.58796 10.7407ZM9.25927 14.632V17.6809C8.86635 17.3134 8.41265 16.8484 7.9621 16.2981C7.54395 15.7874 7.17756 15.2635 6.86536 14.7317C7.66236 14.6782 8.46059 14.645 9.25927 14.632ZM10.7408 17.7955V14.6306C11.5367 14.6423 12.3792 14.6747 13.2565 14.7354C12.9448 15.2658 12.5791 15.7885 12.1619 16.2981C11.6631 16.9074 11.1605 17.412 10.7408 17.7955ZM11.9569 13.1792C11.5516 13.1634 11.1462 13.1527 10.7408 13.1472V10.7407H14.5361C14.4845 11.5966 14.2911 12.4547 13.9588 13.3013C13.2924 13.2461 12.625 13.2054 11.9569 13.1792ZM16.0198 10.7407H18.4863C18.3954 11.8032 18.1094 12.8252 17.6455 13.7651C16.9271 13.6427 16.2056 13.539 15.4817 13.454C15.7937 12.5584 15.974 11.6501 16.0198 10.7407ZM16 9.25925C15.9397 8.30761 15.7934 7.40189 15.5627 6.54951C16.2613 6.46606 16.9578 6.36514 17.6514 6.24684C18.1118 7.18342 18.3958 8.20129 18.4863 9.25925H16ZM16.0235 3.9765C16.3069 4.25997 16.5702 4.56282 16.8116 4.88286C16.2337 4.97225 15.654 5.04927 15.0728 5.11388C14.6207 4.0309 14.012 3.05578 13.2605 2.21254C13.2194 2.16642 13.1778 2.12068 13.1358 2.07534C14.2049 2.4981 15.1861 3.13912 16.0235 3.9765ZM7.05694 2.00183C6.99144 2.07111 6.92697 2.14135 6.86353 2.21252C6.11002 3.05801 5.50002 4.03601 5.04759 5.12247C4.29858 5.04182 3.67074 4.95479 3.19051 4.88013C3.4313 4.56111 3.69394 4.25917 3.97652 3.9765C4.86398 3.08905 5.91296 2.42206 7.05694 2.00183ZM3.97652 16.0235C3.69731 15.7441 3.43756 15.446 3.19912 15.1312C3.72055 15.0502 4.41506 14.9549 5.25064 14.8689C5.67261 15.6917 6.20689 16.4975 6.84478 17.2719C7.10814 17.5913 7.38403 17.9001 7.6718 18.1977C6.28853 17.8071 5.02078 17.0678 3.97652 16.0235ZM12.5008 18.1472C12.7711 17.8652 13.0308 17.5733 13.2792 17.2719C13.9151 16.5 14.4479 15.6968 14.8693 14.8768C15.5157 14.9455 16.1604 15.0295 16.8028 15.1287C16.5638 15.4444 16.3035 15.7434 16.0235 16.0235C15.0228 17.0242 13.8169 17.745 12.5008 18.1472Z" fill="#6A7B97"/>
</g>
<defs>
<clipPath id="clip0_1202_4844">
<rect width="20" height="20" fill="white"/>
</clipPath>
</defs>
</svg>
