<svg width="22" height="20" viewBox="0 0 22 20" fill="none" xmlns="http://www.w3.org/2000/svg">
<path d="M19.2476 14.4828C18.6154 14.4828 18.0025 14.701 17.512 15.1007C17.0214 15.5003 16.683 16.057 16.5537 16.6772L9.7092 16.6759C9.52961 16.5559 9.4202 15.7359 9.35552 15.1724H11.3421C11.6558 15.589 12.1499 15.8621 12.7107 15.8621C13.0362 15.862 13.355 15.7694 13.63 15.595C13.9051 15.4206 14.1251 15.1716 14.2646 14.8768C14.4041 14.5821 14.4573 14.2537 14.418 13.9299C14.3787 13.606 14.2486 13.3 14.0427 13.0474C13.8368 12.7947 13.5637 12.6057 13.2549 12.5025C12.9462 12.3992 12.6146 12.3858 12.2985 12.4639C11.9825 12.542 11.6951 12.7084 11.4696 12.9436C11.2442 13.1789 11.0899 13.4735 11.0248 13.7931H9.17042C8.92064 12.4324 8.34608 11.0345 6.54395 11.0345H0.688098C0.505603 11.0345 0.330583 11.1071 0.201539 11.2365C0.072496 11.3658 3.57628e-07 11.5412 3.57628e-07 11.7241C3.57628e-07 11.907 0.072496 12.0825 0.201539 12.2118C0.330583 12.3411 0.505603 12.4138 0.688098 12.4138H6.54464C7.23962 12.4138 7.55821 12.84 7.76395 13.7931H0.688098C0.505603 13.7931 0.330583 13.8658 0.201539 13.9951C0.072496 14.1244 3.57628e-07 14.2999 3.57628e-07 14.4828C3.57628e-07 14.6657 0.072496 14.8411 0.201539 14.9704C0.330583 15.0998 0.505603 15.1724 0.688098 15.1724H7.97038C8.11488 16.4669 8.30548 18.0566 9.73879 18.0566H16.5806C16.5978 18.0566 16.6115 18.0483 16.628 18.0469C16.9741 19.1745 18.009 20 19.2476 20C19.9776 20 20.6777 19.7094 21.1938 19.192C21.71 18.6747 22 17.973 22 17.2414C22 16.5097 21.71 15.8081 21.1938 15.2907C20.6777 14.7734 19.9776 14.4828 19.2476 14.4828ZM19.2476 18.6207C19.0668 18.6206 18.8879 18.5849 18.7209 18.5155C18.5539 18.4462 18.4021 18.3445 18.2744 18.2164C18.1466 18.0882 18.0452 17.9361 17.9761 17.7687C17.9069 17.6013 17.8714 17.4219 17.8714 17.2407C17.8715 17.0595 17.9071 16.8801 17.9763 16.7127C18.0456 16.5454 18.147 16.3933 18.2748 16.2652C18.4027 16.1371 18.5545 16.0356 18.7215 15.9663C18.8885 15.897 19.0675 15.8613 19.2483 15.8614C19.6134 15.8615 19.9635 16.0069 20.2216 16.2657C20.4796 16.5245 20.6246 16.8755 20.6245 17.2414C20.6244 17.6073 20.4793 17.9582 20.2211 18.2168C19.9629 18.4755 19.6127 18.6208 19.2476 18.6207ZM0.688098 9.65517H11.6895C11.7184 9.65517 11.7432 9.64207 11.7707 9.63862C11.9191 10.2335 12.2614 10.7617 12.7433 11.1395C13.2252 11.5173 13.8191 11.7231 14.4309 11.7241C15.1609 11.7241 15.861 11.4335 16.3772 10.9162C16.8933 10.3988 17.1833 9.69715 17.1833 8.96552C17.1833 8.23389 16.8933 7.53222 16.3772 7.01488C15.861 6.49754 15.1609 6.2069 14.4309 6.2069C13.8191 6.20795 13.2252 6.41369 12.7433 6.79149C12.2614 7.16929 11.9191 7.69752 11.7707 8.29241C11.7432 8.28897 11.7184 8.27586 11.6895 8.27586H0.688098C0.505603 8.27586 0.330582 8.34852 0.201539 8.47786C0.0724956 8.60719 0 8.78261 0 8.96552C0 9.14842 0.0724956 9.32384 0.201539 9.45318C0.330582 9.58251 0.505603 9.65517 0.688098 9.65517ZM14.4309 7.58621C14.6117 7.58625 14.7907 7.62198 14.9577 7.69136C15.1247 7.76074 15.2764 7.8624 15.4042 7.99054C15.532 8.11869 15.6333 8.27081 15.7025 8.43821C15.7716 8.60562 15.8072 8.78503 15.8071 8.96621C15.8071 9.14739 15.7714 9.32678 15.7022 9.49415C15.633 9.66152 15.5316 9.81359 15.4037 9.94167C15.2759 10.0698 15.1241 10.1713 14.957 10.2406C14.79 10.3099 14.611 10.3456 14.4302 10.3455C14.0652 10.3454 13.7151 10.2 13.457 9.94118C13.1989 9.68238 13.054 9.33142 13.054 8.96552C13.0541 8.59961 13.1993 8.24873 13.4575 7.99005C13.7157 7.73138 14.0658 7.58612 14.4309 7.58621ZM0.688098 7.02138H6.54464C8.87179 7.02138 9.15941 5.07586 9.33144 3.91379C9.47525 2.9331 9.56333 2.75862 9.73879 2.75862H16.1587C16.4725 3.17517 16.9666 3.44828 17.5274 3.44828C17.8529 3.44821 18.1716 3.3556 18.4467 3.18119C18.7218 3.00679 18.9418 2.75776 19.0813 2.46301C19.2208 2.16827 19.274 1.83991 19.2347 1.51608C19.1954 1.19225 19.0653 0.886227 18.8594 0.633561C18.6535 0.380896 18.3804 0.191953 18.0716 0.0886796C17.7629 -0.0145942 17.4312 -0.0279616 17.1152 0.0501296C16.7992 0.128221 16.5118 0.294566 16.2863 0.529846C16.0609 0.765125 15.9066 1.05968 15.8415 1.37931H9.73879C8.31374 1.37931 8.10662 2.78276 7.96969 3.71172C7.76739 5.08345 7.5816 5.64207 6.54464 5.64207H0.688098C0.505603 5.64207 0.330583 5.71473 0.201539 5.84406C0.0724959 5.9734 0 6.14882 0 6.33172C0 6.51463 0.0724959 6.69005 0.201539 6.81938C0.330583 6.94872 0.505603 7.02138 0.688098 7.02138Z" fill="currentColor"/>
</svg>
