<svg width="18" height="18" viewBox="0 0 18 18" fill="none" xmlns="http://www.w3.org/2000/svg">
<path fill-rule="evenodd" clip-rule="evenodd" d="M6.80623 14.496C5.30478 14.9515 4.29053 14.738 3.77627 14.2237C3.26202 13.7095 3.04853 12.6952 3.504 11.1938C3.9468 9.73409 4.97103 8.0418 6.50646 6.50637C8.04189 4.97095 9.73418 3.94671 11.1939 3.50391C12.6953 3.04844 13.7095 3.26193 14.2238 3.77619C14.7381 4.29044 14.9516 5.30469 14.4961 6.80614C14.0533 8.26581 13.029 9.9581 11.4936 11.4935C9.95819 13.029 8.2659 14.0532 6.80623 14.496ZM12.1349 12.1348C8.89573 15.374 4.86632 16.5964 3.13497 14.865C1.40362 13.1337 2.62597 9.10426 5.86516 5.86507C9.10434 2.62588 13.1338 1.40353 14.8651 3.13488C16.5965 4.86623 15.3741 8.89565 12.1349 12.1348Z" fill="black"/>
<path fill-rule="evenodd" clip-rule="evenodd" d="M11.1938 14.496C12.6952 14.9515 13.7095 14.738 14.2237 14.2237C14.738 13.7095 14.9515 12.6952 14.496 11.1938C14.0532 9.73409 13.029 8.0418 11.4935 6.50637C9.95811 4.97095 8.26582 3.94671 6.80615 3.50391C5.3047 3.04844 4.29045 3.26193 3.7762 3.77619C3.26194 4.29044 3.04845 5.30469 3.50392 6.80614C3.94672 8.26581 4.97096 9.9581 6.50638 11.4935C8.04181 13.029 9.7341 14.0532 11.1938 14.496ZM5.86508 12.1348C9.10427 15.374 13.1337 16.5964 14.865 14.865C16.5964 13.1337 15.374 9.10426 12.1348 5.86507C8.89566 2.62588 4.86624 1.40353 3.13489 3.13488C1.40355 4.86623 2.62589 8.89565 5.86508 12.1348Z" fill="black"/>
<path fill-rule="evenodd" clip-rule="evenodd" d="M9.0695 9.7052C9.57039 9.7052 9.97644 9.29915 9.97644 8.79826C9.97644 8.29737 9.57039 7.89132 9.0695 7.89132C8.56861 7.89132 8.16256 8.29737 8.16256 8.79826C8.16256 9.29915 8.56861 9.7052 9.0695 9.7052ZM9.0695 10.6121C10.0713 10.6121 10.8834 9.80004 10.8834 8.79826C10.8834 7.79648 10.0713 6.98438 9.0695 6.98438C8.06772 6.98438 7.25562 7.79648 7.25562 8.79826C7.25562 9.80004 8.06772 10.6121 9.0695 10.6121Z" fill="black"/>
</svg>
