<?xml version="1.0" standalone="no"?><!DOCTYPE svg PUBLIC "-//W3C//DTD SVG 1.1//EN" "http://www.w3.org/Graphics/SVG/1.1/DTD/svg11.dtd"><svg t="1693470975531" class="icon" viewBox="0 0 1024 1024" version="1.1" xmlns="http://www.w3.org/2000/svg" p-id="1537" xmlns:xlink="http://www.w3.org/1999/xlink" width="128" height="128"><path d="M899.072 197.632L1024 72.192 951.808 0l-125.44 124.928a256 256 0 0 0-365.568 0L431.104 153.6 358.4 226.304l73.728 72.704 35.328 35.84L394.752 409.6l72.704 70.144L539.648 409.6l77.312 77.312-72.704 72.192 72.704 72.704 72.192-72.704 35.84 35.328L797.696 665.6l102.4-102.4a256 256 0 0 0 0-366.08z m-83.968 307.2l-17.408 16.896-35.84-35.84L689.152 409.6 614.4 334.848l-74.752-72.704-35.84-35.84 16.896-17.408a173.056 173.056 0 0 1 244.736 0l51.2 51.2a173.056 173.056 0 0 1-1.536 243.2zM592.384 724.48L299.52 431.616 226.304 358.4 153.6 431.104 124.928 460.8a259.072 259.072 0 0 0 0 366.08L0 951.808 72.192 1024l125.44-125.44a259.072 259.072 0 0 0 366.08 0l28.672-29.184 73.216-71.68-73.216-73.216z m-88.576 90.112a173.568 173.568 0 0 1-245.248 0l-51.2-51.2a173.568 173.568 0 0 1 0-245.248l16.896-16.896 294.4 294.4z" fill="currentColor" p-id="1538"></path></svg>