<svg width="13" height="15" viewBox="0 0 13 15" fill="none" xmlns="http://www.w3.org/2000/svg">
<path d="M11.7917 9.05527C11.5142 9.0553 11.2452 9.15255 11.0298 9.33068C10.8145 9.5088 10.666 9.75694 10.6092 10.0334L7.60473 10.0328C7.5259 9.97928 7.47787 9.6138 7.44948 9.36266H8.3215C8.45923 9.54832 8.6761 9.67005 8.92227 9.67005C9.06514 9.67002 9.20508 9.62874 9.32582 9.55101C9.44656 9.47327 9.54315 9.36227 9.60438 9.2309C9.66561 9.09953 9.68896 8.95318 9.67172 8.80884C9.65448 8.6645 9.59735 8.52811 9.50698 8.41549C9.41661 8.30287 9.2967 8.21866 9.16117 8.17263C9.02565 8.1266 8.88007 8.12064 8.74135 8.15545C8.60263 8.19025 8.47646 8.2644 8.3775 8.36926C8.27853 8.47413 8.21083 8.60542 8.18225 8.74788H7.36823C7.25859 8.1414 7.00638 7.51832 6.21531 7.51832H3.64482C3.56471 7.51832 3.48789 7.55071 3.43124 7.60836C3.3746 7.666 3.34277 7.74419 3.34277 7.82571C3.34277 7.90724 3.3746 7.98542 3.43124 8.04307C3.48789 8.10072 3.56471 8.1331 3.64482 8.1331H6.21562C6.52068 8.1331 6.66053 8.32307 6.75085 8.74788H3.64482C3.56471 8.74788 3.48789 8.78027 3.43124 8.83791C3.3746 8.89556 3.34277 8.97375 3.34277 9.05527C3.34277 9.13679 3.3746 9.21498 3.43124 9.27263C3.48789 9.33027 3.56471 9.36266 3.64482 9.36266H6.84146C6.90489 9.93963 6.98856 10.6482 7.61772 10.6482H10.621C10.6285 10.6482 10.6346 10.6445 10.6418 10.6439C10.7938 11.1464 11.248 11.5144 11.7917 11.5144C12.1122 11.5144 12.4195 11.3848 12.646 11.1543C12.8726 10.9237 12.9999 10.6109 12.9999 10.2848C12.9999 9.95873 12.8726 9.64599 12.646 9.4154C12.4195 9.18481 12.1122 9.05527 11.7917 9.05527ZM11.7917 10.8996C11.7124 10.8996 11.6338 10.8837 11.5605 10.8527C11.4872 10.8218 11.4206 10.7765 11.3645 10.7194C11.3084 10.6623 11.2639 10.5945 11.2336 10.5199C11.2032 10.4452 11.1876 10.3653 11.1876 10.2845C11.1877 10.2038 11.2033 10.1238 11.2337 10.0492C11.2641 9.97461 11.3086 9.90683 11.3647 9.84974C11.4208 9.79265 11.4875 9.74738 11.5608 9.71649C11.6341 9.68561 11.7127 9.66972 11.792 9.66974C11.9523 9.66978 12.106 9.73461 12.2193 9.84996C12.3325 9.96531 12.3962 10.1217 12.3961 10.2848C12.3961 10.4479 12.3324 10.6043 12.219 10.7196C12.1057 10.8349 11.952 10.8996 11.7917 10.8996ZM3.64482 6.90355H8.47403C8.48672 6.90355 8.49759 6.89771 8.50967 6.89617C8.57479 7.16132 8.72504 7.39676 8.93657 7.56515C9.14811 7.73354 9.40883 7.82524 9.67739 7.82571C9.99782 7.82571 10.3051 7.69617 10.5317 7.46558C10.7583 7.235 10.8856 6.92226 10.8856 6.59616C10.8856 6.27006 10.7583 5.95732 10.5317 5.72673C10.3051 5.49614 9.99782 5.3666 9.67739 5.3666C9.40883 5.36707 9.14811 5.45877 8.93657 5.62716C8.72504 5.79555 8.57479 6.03099 8.50967 6.29614C8.49759 6.29461 8.48672 6.28877 8.47403 6.28877H3.64482C3.56471 6.28877 3.48789 6.32115 3.43124 6.3788C3.3746 6.43645 3.34277 6.51463 3.34277 6.59616C3.34277 6.67768 3.3746 6.75587 3.43124 6.81351C3.48789 6.87116 3.56471 6.90355 3.64482 6.90355ZM9.67739 5.98138C9.75674 5.9814 9.83531 5.99732 9.90861 6.02825C9.98192 6.05917 10.0485 6.10448 10.1046 6.1616C10.1607 6.21871 10.2052 6.28651 10.2355 6.36113C10.2659 6.43574 10.2815 6.51571 10.2815 6.59646C10.2815 6.67722 10.2658 6.75718 10.2354 6.83178C10.205 6.90638 10.1605 6.97415 10.1044 7.03124C10.0483 7.08833 9.98165 7.13361 9.90833 7.16449C9.83502 7.19538 9.75644 7.21126 9.67709 7.21124C9.51683 7.2112 9.36315 7.14638 9.24986 7.03102C9.13657 6.91567 9.07295 6.75925 9.07299 6.59616C9.07303 6.43307 9.13673 6.27667 9.25008 6.16138C9.36342 6.04609 9.51713 5.98134 9.67739 5.98138ZM3.64482 5.72963H6.21562C7.23714 5.72963 7.3634 4.86248 7.43891 4.34453C7.50204 3.90742 7.5407 3.82965 7.61772 3.82965H10.4358C10.5736 4.01532 10.7904 4.13704 11.0366 4.13704C11.1795 4.13701 11.3194 4.09574 11.4402 4.018C11.5609 3.94027 11.6575 3.82927 11.7187 3.6979C11.7799 3.56653 11.8033 3.42017 11.7861 3.27584C11.7688 3.1315 11.7117 2.9951 11.6213 2.88248C11.5309 2.76987 11.411 2.68565 11.2755 2.63962C11.14 2.59359 10.9944 2.58763 10.8557 2.62244C10.717 2.65725 10.5908 2.73139 10.4918 2.83626C10.3929 2.94113 10.3252 3.07241 10.2966 3.21488H7.61772C6.99218 3.21488 6.90126 3.84041 6.84116 4.25447C6.75236 4.86586 6.6708 5.11485 6.21562 5.11485H3.64482C3.56471 5.11485 3.48789 5.14723 3.43124 5.20488C3.3746 5.26253 3.34277 5.34071 3.34277 5.42224C3.34277 5.50376 3.3746 5.58195 3.43124 5.63959C3.48789 5.69724 3.56471 5.72963 3.64482 5.72963Z" fill="black"/>
<path fill-rule="evenodd" clip-rule="evenodd" d="M1.11429 0.742857C0.909151 0.742857 0.742857 0.909151 0.742857 1.11429V12.8975C0.742857 13.2126 1.11053 13.3845 1.35238 13.1825L4.48573 10.5657C4.89928 10.2203 5.50072 10.2203 5.91427 10.5657L9.04762 13.1825C9.28947 13.3845 9.65714 13.2126 9.65714 12.8975V11.1252C9.65714 10.92 9.82344 10.7537 10.0286 10.7537C10.2337 10.7537 10.4 10.92 10.4 11.1252V12.8975C10.4 13.8427 9.29698 14.3586 8.57144 13.7527L5.43809 11.1358C5.30024 11.0207 5.09976 11.0207 4.96191 11.1358L1.82856 13.7527C1.10301 14.3586 0 13.8427 0 12.8975V1.11429C0 0.498882 0.498883 0 1.11429 0H9.28571C9.90112 0 10.4 0.498883 10.4 1.11429V2.6C10.4 2.80513 10.2337 2.97143 10.0286 2.97143C9.82344 2.97143 9.65714 2.80513 9.65714 2.6V1.11429C9.65714 0.909151 9.49085 0.742857 9.28571 0.742857H1.11429Z" fill="black"/>
</svg>
