<svg xmlns="http://www.w3.org/2000/svg" xmlns:xlink="http://www.w3.org/1999/xlink" width="1em" height="1em" viewBox="0 0 13 13" fill="#000" aria-hidden="true" focusable="false" class=""><defs><path id="table_icon_svg__a" d="M0 0h12v12H0z"></path></defs><g fill="none" fill-rule="evenodd" transform="translate(.486 .2)"><mask id="table_icon_svg__b" fill="#fff"><use xlink:href="#table_icon_svg__a"></use></mask><path fill="#000" d="M10.286 12H1.714C.768 12 0 11.14 0 10.08V1.92C0 .86.768 0 1.714 0h8.572C11.232 0 12 .86 12 1.92v8.16c0 1.06-.768 1.92-1.714 1.92ZM3.4 4.41H.964v5.67c0 .459.33.833.738.84h1.7V4.41Zm7.634.004h-6.67v6.506h5.92c.41 0 .743-.368.75-.826v-5.68ZM3.401 1.079H1.714c-.409 0-.742.368-.75.826v1.65H3.4V1.079Zm6.897 0H4.366v2.475h6.67V1.92c0-.458-.329-.832-.738-.84V1.08Z" mask="url(#table_icon_svg__b)"></path></g></svg>