<?xml version="1.0" standalone="no"?><!DOCTYPE svg PUBLIC "-//W3C//DTD SVG 1.1//EN" "http://www.w3.org/Graphics/SVG/1.1/DTD/svg11.dtd"><svg t="1720751622970" class="icon" viewBox="0 0 1024 1024" version="1.1" xmlns="http://www.w3.org/2000/svg" p-id="8026" xmlns:xlink="http://www.w3.org/1999/xlink" width="256" height="256"><path d="M860.416 760.896 960 760.896c-0.32 105.792-93.312 198.784-199.104 199.104l0-99.584C818.752 860.096 860.16 818.816 860.416 760.896zM661.312 960 362.688 960l0-99.584 298.688 0L661.376 960zM163.584 661.312 64 661.312 64 362.688l99.584 0L163.584 661.312zM163.584 263.104 64 263.104C64.32 157.312 157.376 64.32 263.104 64l0 99.584C205.312 163.904 163.84 205.248 163.584 263.104zM64 760.896l99.584 0c0.32 57.92 41.792 99.2 99.584 99.584L263.168 960C157.376 959.68 64.32 866.688 64 760.896zM362.688 64l298.688 0 0 99.584L362.688 163.584 362.688 64zM683.136 512 561.792 512l0 199.104c0 22.592-26.048 49.792-49.792 49.792-23.552 0-49.792-27.2-49.792-49.792L462.208 512 340.8 512C321.088 512 312.896 498.432 322.816 482.368l170.688-203.264c10.304-16.064 26.688-15.68 36.992 0l170.752 203.264C711.104 498.432 702.976 512 683.136 512zM760.896 163.584 760.896 64C866.688 64.32 959.68 157.312 960 263.104l-99.584 0C860.16 205.248 818.752 163.904 760.896 163.584zM860.416 661.312 860.416 362.688 960 362.688l0 298.688L860.416 661.376z" p-id="8027" fill="currentColor"></path></svg>