<svg width="20" height="20" viewBox="0 0 20 20" fill="none" xmlns="http://www.w3.org/2000/svg">
<g clip-path="url(#clip0_1606_402)">
<path d="M18.1658 0.951172H1.81457C0.811328 0.951172 0 1.92643 0 2.92566V13.4694C0 14.4726 0.815332 15.288 1.81857 15.288H7.18643V17.8779H2.79781C2.47809 17.8779 2.21824 18.1378 2.21824 18.4575C2.21824 18.7773 2.47811 19.037 2.79781 19.037H17.1826C17.5023 19.037 17.7621 18.7773 17.7621 18.4575C17.7621 18.1378 17.5023 17.8779 17.1826 17.8779H12.798V15.288H18.1658C19.169 15.288 19.9843 14.4726 19.9843 13.4694V2.92566C19.9844 1.92643 19.169 0.951172 18.1658 0.951172ZM11.6389 17.874H8.34549V15.284H11.6389V17.874ZM18.8213 13.4694C18.8213 13.8291 18.5295 14.1249 18.1658 14.1249H1.81457C1.45486 14.1249 1.15906 13.8331 1.15906 13.4694V2.92967C1.15906 2.5699 1.45084 2.27412 1.81457 2.27412H18.1658C18.5255 2.27412 18.8213 2.5659 18.8213 2.92967L18.8213 13.4694Z" fill="#999999"/>
<g clip-path="url(#clip1_1606_402)">
<path d="M14.5232 10.4134C14.2021 10.4134 13.8907 10.524 13.6415 10.7266C13.3922 10.9291 13.2203 11.2113 13.1547 11.5257L9.67742 11.525C9.58618 11.4642 9.53059 11.0485 9.49773 10.7629H10.507C10.6664 10.9741 10.9174 11.1125 11.2023 11.1125C11.3676 11.1125 11.5296 11.0655 11.6693 10.9771C11.8091 10.8887 11.9208 10.7625 11.9917 10.6131C12.0626 10.4637 12.0896 10.2973 12.0696 10.1331C12.0497 9.96897 11.9836 9.81385 11.879 9.68578C11.7744 9.55771 11.6356 9.46194 11.4788 9.40959C11.3219 9.35724 11.1534 9.35046 10.9929 9.39005C10.8323 9.42963 10.6863 9.51395 10.5718 9.63321C10.4572 9.75247 10.3789 9.90178 10.3458 10.0638H9.4037C9.2768 9.37408 8.98491 8.66549 8.06937 8.66549H4.07834C3.98562 8.66549 3.89671 8.70232 3.83115 8.76787C3.76559 8.83343 3.72876 8.92235 3.72876 9.01506C3.72876 9.10778 3.76559 9.19669 3.83115 9.26225C3.89671 9.32781 3.98562 9.36464 4.07834 9.36464H8.06972C8.42279 9.36464 8.58464 9.58068 8.68916 10.0638H4.07834C3.98562 10.0638 3.89671 10.1006 3.83115 10.1662C3.76559 10.2317 3.72876 10.3207 3.72876 10.4134C3.72876 10.5061 3.76559 10.595 3.83115 10.6606C3.89671 10.7261 3.98562 10.7629 4.07834 10.7629H8.79404C8.86745 11.4191 8.96428 12.2249 9.69245 12.2249H13.1683C13.177 12.2249 13.184 12.2207 13.1924 12.22C13.3682 12.7915 13.894 13.21 14.5232 13.21C14.8941 13.21 15.2498 13.0627 15.512 12.8004C15.7742 12.5382 15.9215 12.1825 15.9215 11.8117C15.9215 11.4408 15.7742 11.0852 15.512 10.8229C15.2498 10.5607 14.8941 10.4134 14.5232 10.4134ZM14.5232 12.5108C14.4314 12.5108 14.3405 12.4927 14.2556 12.4575C14.1708 12.4224 14.0937 12.3708 14.0288 12.3059C13.9639 12.2409 13.9124 12.1638 13.8773 12.079C13.8421 11.9941 13.8241 11.9032 13.8241 11.8113C13.8241 11.7195 13.8422 11.6286 13.8774 11.5437C13.9126 11.4589 13.9641 11.3818 14.029 11.3169C14.094 11.252 14.1711 11.2005 14.256 11.1653C14.3408 11.1302 14.4318 11.1121 14.5236 11.1122C14.7091 11.1122 14.8869 11.1859 15.018 11.3171C15.1492 11.4483 15.2228 11.6262 15.2227 11.8117C15.2227 11.9971 15.149 12.175 15.0178 12.3061C14.8866 12.4372 14.7087 12.5109 14.5232 12.5108ZM4.07834 7.96633H10.6835C10.6982 7.96633 10.7108 7.95969 10.7247 7.95794C10.8001 8.25949 10.974 8.52724 11.2188 8.71874C11.4636 8.91024 11.7654 9.01453 12.0762 9.01506C12.4471 9.01506 12.8027 8.86774 13.065 8.60551C13.3272 8.34327 13.4745 7.98761 13.4745 7.61676C13.4745 7.2459 13.3272 6.89024 13.065 6.62801C12.8027 6.36577 12.4471 6.21845 12.0762 6.21845C11.7654 6.21899 11.4636 6.32327 11.2188 6.51477C10.974 6.70627 10.8001 6.97403 10.7247 7.27557C10.7108 7.27382 10.6982 7.26718 10.6835 7.26718H4.07834C3.98562 7.26718 3.89671 7.30401 3.83115 7.36957C3.76559 7.43513 3.72876 7.52404 3.72876 7.61676C3.72876 7.70947 3.76559 7.79839 3.83115 7.86394C3.89671 7.9295 3.98562 7.96633 4.07834 7.96633ZM12.0762 6.9176C12.168 6.91763 12.259 6.93574 12.3438 6.9709C12.4287 7.00607 12.5057 7.0576 12.5707 7.12256C12.6356 7.18751 12.6871 7.26462 12.7222 7.34947C12.7573 7.43433 12.7754 7.52527 12.7754 7.61711C12.7753 7.70894 12.7572 7.79988 12.7221 7.88471C12.6869 7.96955 12.6354 8.04663 12.5704 8.11155C12.5055 8.17648 12.4283 8.22797 12.3435 8.26309C12.2586 8.29822 12.1677 8.31628 12.0759 8.31626C11.8904 8.31621 11.7125 8.24249 11.5814 8.11131C11.4503 7.98012 11.3767 7.80223 11.3767 7.61676C11.3768 7.43128 11.4505 7.25343 11.5817 7.12231C11.7128 6.99119 11.8907 6.91756 12.0762 6.9176ZM4.07834 6.6313H8.06972C9.25198 6.6313 9.3981 5.64515 9.4855 5.05611C9.55856 4.55901 9.60331 4.47057 9.69245 4.47057H12.954C13.1134 4.68171 13.3644 4.82015 13.6493 4.82015C13.8147 4.82011 13.9766 4.77317 14.1163 4.68477C14.2561 4.59637 14.3679 4.47013 14.4387 4.32073C14.5096 4.17133 14.5366 4.00489 14.5167 3.84075C14.4967 3.6766 14.4306 3.52148 14.326 3.39341C14.2214 3.26534 14.0826 3.16956 13.9258 3.11722C13.7689 3.06487 13.6005 3.05809 13.4399 3.09768C13.2794 3.13726 13.1333 3.22158 13.0188 3.34084C12.9043 3.4601 12.8259 3.6094 12.7928 3.77142H9.69245C8.96848 3.77142 8.86325 4.48281 8.79369 4.95369C8.69091 5.64899 8.59653 5.93215 8.06972 5.93215H4.07834C3.98562 5.93215 3.89671 5.96898 3.83115 6.03454C3.76559 6.1001 3.72876 6.18901 3.72876 6.28173C3.72876 6.37444 3.76559 6.46335 3.83115 6.52891C3.89671 6.59447 3.98562 6.6313 4.07834 6.6313Z" fill="#999999"/>
</g>
</g>
<defs>
<clipPath id="clip0_1606_402">
<rect width="20" height="20" fill="white"/>
</clipPath>
<clipPath id="clip1_1606_402">
<rect width="14.5763" height="11.1864" fill="white" transform="translate(3.38977 2.37305)"/>
</clipPath>
</defs>
</svg>
