<svg width="19" height="19" viewBox="0 0 19 19" fill="none" xmlns="http://www.w3.org/2000/svg">
<g clip-path="url(#clip0_796_8983)">
<mask id="mask0_796_8983" style="mask-type:luminance" maskUnits="userSpaceOnUse" x="0" y="0" width="19" height="19">
<path fill-rule="evenodd" clip-rule="evenodd" d="M0 0H19V19H0V0Z" fill="white"/>
</mask>
<g mask="url(#mask0_796_8983)">
<path fill-rule="evenodd" clip-rule="evenodd" d="M5.51153 15.5596H0.864C0.6346 15.5596 0.414624 15.4683 0.252521 15.3058C0.0904182 15.1433 -0.000352394 14.9229 1.0282e-06 14.6934V2.59275C1.0282e-06 2.11582 0.385967 1.72804 0.864 1.72804H8.63596V0.86471C8.63596 0.387227 9.02272 0 9.49996 0C9.97717 0 10.364 0.387227 10.364 0.86471V1.72804H18.1359C18.6139 1.72804 19 2.11582 19 2.59275V14.6934C19 14.9227 18.9089 15.1426 18.7469 15.3047C18.5849 15.467 18.365 15.5581 18.1359 15.5581H13.4885L14.5892 17.7645C14.7775 18.1871 14.6 18.683 14.1865 18.8899C13.773 19.0968 13.27 18.9414 13.0451 18.5372L11.5568 15.5581H7.44316L5.95481 18.5372C5.7361 18.9539 5.22461 19.119 4.80374 18.9087C4.38302 18.6983 4.2077 18.1898 4.40915 17.7645L5.51153 15.5581V15.5596ZM6.89126 13.83C6.90337 13.8298 6.91544 13.8298 6.9274 13.83H12.0725C12.0846 13.8298 12.0967 13.8298 12.1087 13.83H17.2734V3.45595H1.72662V13.8285H6.89126V13.83Z" fill="currentColor"/>
</g>
<path d="M13.5 7.5V11.5" stroke="currentColor" stroke-width="1.5" stroke-linecap="round"/>
<path d="M5.5 8.5V11.5" stroke="currentColor" stroke-width="1.5" stroke-linecap="round"/>
<path d="M9.5 5.5V11.5" stroke="currentColor" stroke-width="1.5" stroke-linecap="round"/>
</g>
<defs>
<clipPath id="clip0_796_8983">
<rect width="19" height="19" fill="white"/>
</clipPath>
</defs>
</svg>
