<?xml version="1.0" standalone="no"?>
<svg t="1662432207153" class="icon" viewBox="0 0 1024 1024" version="1.1" xmlns="http://www.w3.org/2000/svg" p-id="1623" xmlns:xlink="http://www.w3.org/1999/xlink" width="200" height="200">
    <path d="M469.333333 170.666667v170.666666a42.666667 42.666667 0 0 1-42.666666 42.666667H170.666667a42.666667 42.666667 0 0 1-42.666667-42.666667V170.666667a42.666667 42.666667 0 0 1 42.666667-42.666667h256a42.666667 42.666667 0 0 1 42.666666 42.666667z m-42.666666 298.666666H170.666667a42.666667 42.666667 0 0 0-42.666667 42.666667v341.333333a42.666667 42.666667 0 0 0 42.666667 42.666667h256a42.666667 42.666667 0 0 0 42.666666-42.666667v-341.333333a42.666667 42.666667 0 0 0-42.666666-42.666667z m426.666666 170.666667h-256a42.666667 42.666667 0 0 0-42.666666 42.666667v170.666666a42.666667 42.666667 0 0 0 42.666666 42.666667h256a42.666667 42.666667 0 0 0 42.666667-42.666667v-170.666666a42.666667 42.666667 0 0 0-42.666667-42.666667z m0-512h-256a42.666667 42.666667 0 0 0-42.666666 42.666667v341.333333a42.666667 42.666667 0 0 0 42.666666 42.666667h256a42.666667 42.666667 0 0 0 42.666667-42.666667V170.666667a42.666667 42.666667 0 0 0-42.666667-42.666667z" p-id="1624" fill="currentColor"></path>
</svg>