<?xml version="1.0" encoding="UTF-8"?>
<svg width="19px" height="20px" viewBox="0 0 19 20" version="1.1" xmlns="http://www.w3.org/2000/svg" xmlns:xlink="http://www.w3.org/1999/xlink">
    <title>xitongshiti</title>
    <g id="页面-1" stroke="none" stroke-width="1" fill="none" fill-rule="evenodd">
        <g id="浅色" transform="translate(-1355.000000, -49.000000)" fill="currentColor">
            <g id="xitongshiti" transform="translate(1355.000000, 49.000000)">
                <path d="M17.0820521,0 L1.66797079,0 C0.746070247,0 0,0.746070247 0,1.66797079 L0,3.33203532 C0,4.25386261 0.746070247,5.00003052 1.66797079,5.00003052 L17.0820521,5.00003052 C18.0039526,5.00003052 18.7500229,4.25386261 18.7500229,3.33203532 L18.7500229,1.66797079 C18.7500229,0.746070247 18.0039526,0 17.0820521,0 Z M17.5000458,3.33203532 C17.5000458,3.56255318 17.3125455,3.75005341 17.0820521,3.75005341 L1.66797079,3.75005341 C1.43747734,3.75005341 1.24997711,3.56255318 1.24997711,3.33203532 L1.24997711,1.66797079 C1.24997711,1.43747734 1.43747734,1.24997711 1.66797079,1.24997711 L17.0820521,1.24997711 C17.3125455,1.24997711 17.5000458,1.43747734 17.5000458,1.66797079 L17.5000458,3.33203532 Z" id="Fill-1"></path>
                <path d="M16.9922082,6.25000763 L1.75781465,6.25000763 C0.787061508,6.25000763 0,7.03706914 0,8.00782228 L0,10.7422006 C0,11.7129538 0.787061508,12.5000153 1.75781465,12.5000153 L16.9922082,12.5000153 C17.9629614,12.5000153 18.7500229,11.7129538 18.7500229,10.7422006 L18.7500229,8.00782228 C18.7500229,7.03706914 17.9629614,6.25000763 16.9922082,6.25000763 Z M17.5000458,10.7422006 C17.5000458,11.0215222 17.2715299,11.2500381 16.9922082,11.2500381 L1.75781465,11.2500381 C1.47849302,11.2500381 1.24997711,11.0215222 1.24997711,10.7422006 L1.24997711,8.00782228 C1.24997711,7.72850065 1.47849302,7.49998474 1.75781465,7.49998474 L16.9922082,7.49998474 C17.2715299,7.49998474 17.5000458,7.72850065 17.5000458,8.00782228 L17.5000458,10.7422006 Z" id="Fill-2"></path>
                <path d="M16.9922082,13.7499924 L1.75781465,13.7499924 C0.787061508,13.7499924 0,14.5371515 0,15.507807 L0,18.2421854 C0,19.2129385 0.787061508,20 1.75781465,20 L16.9922082,20 C17.9629614,20 18.7500229,19.2129385 18.7500229,18.2421854 L18.7500229,15.507807 C18.7500229,14.5371515 17.9629614,13.7499924 16.9922082,13.7499924 Z M17.5000458,18.2421854 C17.5000458,18.5215314 17.2715299,18.7500229 16.9922082,18.7500229 L1.75781465,18.7500229 C1.47849302,18.7500229 1.24997711,18.5215314 1.24997711,18.2421854 L1.24997711,15.507807 C1.24997711,15.228583 1.47849302,14.9999695 1.75781465,14.9999695 L16.9922082,14.9999695 C17.2715299,14.9999695 17.5000458,15.228583 17.5000458,15.507807 L17.5000458,18.2421854 Z" id="Fill-3"></path>
                <path d="M2.49995422,9.37501144 C2.49995422,10.0653687 3.0596717,10.6249886 3.75005341,10.6249886 C4.44041069,10.6249886 5.00003052,10.0653687 5.00003052,9.37501144 C5.00003052,8.68465416 4.44041069,8.12503433 3.75005341,8.12503433 C3.0596717,8.12503433 2.49995422,8.68465416 2.49995422,9.37501144 Z" id="Fill-4"></path>
                <path d="M2.49995422,16.8749962 C2.49995422,17.5653779 3.0596717,18.1249733 3.75005341,18.1249733 C4.44041069,18.1249733 5.00003052,17.5653779 5.00003052,16.8749962 C5.00003052,16.1846389 4.44041069,15.6250191 3.75005341,15.6250191 C3.0596717,15.6250191 2.49995422,16.1846389 2.49995422,16.8749962 Z" id="Fill-5"></path>
            </g>
        </g>
    </g>
</svg>