<svg width="20" height="20" viewBox="0 0 20 20" fill="none" xmlns="http://www.w3.org/2000/svg">
<path d="M2.32088 16.2038L2.32085 16.204C2.31189 16.2444 2.31119 16.2867 2.31884 16.3275C2.3265 16.3683 2.34217 16.4058 2.364 16.4374C2.38581 16.469 2.41294 16.4934 2.44265 16.5097C2.47227 16.5261 2.50404 16.5342 2.53568 16.5342C2.53569 16.5342 2.53569 16.5342 2.5357 16.5342H17.4638C17.5519 16.5342 17.6077 16.4774 17.6371 16.436C17.6626 16.4001 17.7036 16.3199 17.6761 16.2058L17.6756 16.2038L17.6756 16.2038L16.9315 12.825H13.4062L12.3528 14.5364C12.3528 14.5365 12.3527 14.5366 12.3526 14.5367C12.224 14.7483 12.0082 14.8789 11.7698 14.8789H7.92632C7.70274 14.8789 7.49704 14.7646 7.36462 14.5719L7.3647 14.5721L7.44702 14.5153L7.3646 14.5719L2.32088 16.2038ZM2.32088 16.2038L3.06502 12.825L2.32088 16.2038ZM5.06871 4.47608C4.98294 4.47608 4.89688 4.54254 4.87208 4.65445L3.41549 11.2592L6.5092 11.2592C6.50928 11.2592 6.50935 11.2592 6.50943 11.2592H6.50965V11.3592C6.60209 11.3588 6.69338 11.3823 6.77648 11.428C6.85958 11.4737 6.93227 11.5404 6.98895 11.6228L5.06871 4.47608ZM5.06871 4.47608H14.9369C15.0211 4.47608 15.1057 4.54094 15.1337 4.65541L16.5901 11.2592H13.0348C12.7965 11.2592 12.5807 11.3897 12.4521 11.6013C12.452 11.6014 12.4519 11.6016 12.4519 11.6017L11.3985 13.3131H8.27612L7.07135 11.5661L5.06871 4.47608ZM19.051 15.8288L19.051 15.8288L16.5028 4.27584C16.4169 3.88602 16.2174 3.5377 15.9338 3.28756C15.6499 3.03722 15.2979 2.89981 14.9338 2.9C14.9338 2.9 14.9338 2.9 14.9338 2.9L5.06567 2.9C4.31327 2.9 3.67504 3.47465 3.49678 4.27563L3.49674 4.27581L0.948571 15.8287C0.948565 15.8287 0.948556 15.8287 0.94855 15.8288C0.827474 16.3753 0.935526 16.9446 1.24283 17.3925C1.55136 17.8422 2.02415 18.1 2.53568 18.1H17.4638C17.976 18.1 18.4452 17.8382 18.7562 17.3932C19.0674 16.9479 19.1719 16.3781 19.051 15.8288ZM6.15985 12.825H6.21236V12.725L6.13004 12.7818L6.15985 12.825Z" fill="#6A7B97" stroke="#6A7B97" stroke-width="0.2"/>
</svg>
