<svg width="25" height="25" viewBox="0 0 25 25" fill="none" xmlns="http://www.w3.org/2000/svg">
<g clip-path="url(#clip0_1616_425)">
<path d="M14.273 22.0992C10.2988 22.8329 6.14121 21.0598 4.00126 17.3914C2.28931 14.4566 2.28931 10.9104 3.7567 8.09788C4.42925 8.2813 5.22409 8.22016 5.89664 7.85331C7.24175 7.11962 7.66974 5.40766 6.8749 4.12369C6.14121 2.77858 4.42925 2.3506 3.14528 3.14543C1.80018 3.87913 1.37219 5.59108 2.16702 6.87505C2.22817 6.93619 2.22817 6.99733 2.28931 7.05848C0.455068 10.4824 0.332785 14.7623 2.41159 18.3696C4.91838 22.7718 9.87083 24.8506 14.5787 23.9946C15.129 23.8723 15.4347 23.3832 15.3124 22.8329C15.1901 22.2827 14.7621 22.0381 14.273 22.0992ZM4.0624 4.67396C4.49039 4.4294 5.04067 4.55168 5.28523 4.97967C5.5298 5.40766 5.40751 5.95793 4.97952 6.2025C4.55153 6.44706 4.00126 6.32478 3.7567 5.89679C3.51213 5.4688 3.63442 4.91853 4.0624 4.67396ZM22.7105 18.0028C24.5447 14.5789 24.667 10.299 22.5882 6.69163C20.0203 2.28945 15.0678 0.210649 10.4211 1.06663C9.87083 1.18891 9.56512 1.67804 9.6874 2.22831C9.80969 2.6563 10.2377 2.96201 10.7268 2.90087C14.701 2.16717 18.8586 3.94027 20.9985 7.60875C22.7105 10.5435 22.7105 14.0897 21.2431 16.9022C20.5706 16.7188 19.7757 16.7799 19.1032 17.1468C17.7581 17.8805 17.3301 19.5924 18.1249 20.8764C18.8586 22.2215 20.5706 22.6495 21.8545 21.8547C23.1996 21.121 23.6276 19.409 22.8328 18.1251C22.7716 18.1251 22.7716 18.0639 22.7105 18.0028ZM20.9374 20.3261C20.5094 20.5707 19.9591 20.4484 19.7146 20.0204C19.47 19.5924 19.5923 19.0422 20.0203 18.7976C20.4483 18.553 20.9985 18.6753 21.2431 19.1033C21.4877 19.5313 21.3654 20.0816 20.9374 20.3261Z" fill="currentColor"/>
<g clip-path="url(#clip1_1616_425)">
<path d="M18.7082 14.9265C18.6518 14.6443 18.4825 14.3621 18.2003 14.1363C18.3132 13.6848 18.3696 13.1769 18.3696 12.6689C18.3696 12.0481 18.2567 11.3709 18.031 10.75C18.1438 10.6372 18.2003 10.4679 18.2567 10.2985C18.3132 9.95991 18.3132 9.67772 18.1438 9.39553C17.9745 9.11334 17.6923 8.88759 17.4101 8.83115C17.2408 8.77471 17.0715 8.77471 16.9022 8.83115C16.1685 7.98458 15.1526 7.30732 14.0803 7.02513C13.911 6.29143 13.2902 5.72705 12.5 5.72705C11.7099 5.72705 11.0891 6.29143 10.9198 7.02513C9.84743 7.30732 8.83155 7.98458 8.09785 8.83115H7.58991C7.25128 8.94402 7.02553 9.11334 6.85621 9.39553C6.6869 9.67772 6.63046 10.0163 6.6869 10.355C6.74334 10.5243 6.79977 10.6936 6.91265 10.8065C6.6869 11.4273 6.57402 12.0481 6.57402 12.7254C6.57402 13.2333 6.63046 13.6848 6.74334 14.1928C6.51758 14.4185 6.34827 14.6443 6.23539 14.9829C6.12252 15.378 6.17896 15.8295 6.40471 16.2245C6.74334 16.7325 7.30772 17.0147 7.8721 17.0147C8.15429 17.0147 8.49292 16.9018 8.38004 16.9018C9.22661 17.6919 10.2425 18.2563 11.3713 18.4821C11.5406 18.9336 11.9921 19.2722 12.5 19.2722C13.008 19.2722 13.4595 18.9336 13.6288 18.4821C14.7575 18.2563 15.7734 17.6919 16.62 16.9018C16.7893 16.9582 16.9586 17.0147 17.128 17.0147C17.2973 17.0147 17.4101 17.0147 17.5795 16.9582C17.9745 16.8454 18.3696 16.5632 18.5953 16.2245C18.7647 15.8295 18.8211 15.378 18.7082 14.9265ZM16.7893 9.95991C16.7893 9.84703 16.9022 9.7906 16.9586 9.73416C17.0151 9.67772 17.0715 9.67772 17.128 9.67772H17.2408C17.3537 9.67772 17.4101 9.7906 17.4666 9.84703C17.523 9.95991 17.523 10.0163 17.523 10.1292C17.523 10.2421 17.4101 10.2985 17.3537 10.355C17.1844 10.4679 16.9586 10.4114 16.8458 10.2421C16.7329 10.1292 16.7329 10.0163 16.7893 9.95991ZM12.5 6.85581C12.7822 6.85581 13.008 7.08157 13.008 7.36376C13.008 7.64595 12.7822 7.8717 12.5 7.8717C12.2178 7.8717 11.9921 7.64595 11.9921 7.36376C11.9921 7.08157 12.2178 6.85581 12.5 6.85581ZM7.53347 9.84703C7.58991 9.73416 7.70278 9.67772 7.75922 9.67772H8.04141C8.15429 9.73416 8.21073 9.7906 8.21073 9.90347C8.21073 10.0163 8.21073 10.1292 8.15429 10.1857C8.09785 10.4114 7.8721 10.4679 7.70278 10.355C7.58991 10.2985 7.53347 10.2421 7.53347 10.1292C7.47703 10.0163 7.47703 9.90347 7.53347 9.84703ZM8.38004 15.4908C8.3236 15.6037 8.26717 15.7166 8.15429 15.773C7.92854 15.8859 7.58991 15.8295 7.47703 15.6037C7.42059 15.4908 7.36416 15.378 7.42059 15.2087C7.47703 15.0393 7.53347 14.9829 7.64635 14.9265C7.75922 14.87 7.8721 14.8136 8.04141 14.87C8.15429 14.9265 8.26717 14.9829 8.3236 15.0958C8.38004 15.2651 8.38004 15.378 8.38004 15.4908ZM12.5 18.4256C12.2743 18.4256 12.105 18.2563 12.105 18.0306C12.105 17.8048 12.2743 17.6355 12.5 17.6355C12.7258 17.6355 12.8951 17.8048 12.8951 18.0306C12.8951 18.2563 12.7258 18.4256 12.5 18.4256ZM15.717 14.5314C15.4912 14.9265 15.4348 15.3215 15.5477 15.773C15.6041 15.9424 15.6606 16.0552 15.717 16.1681C15.0962 16.7325 14.306 17.1276 13.5159 17.2969C13.2902 16.9582 12.8951 16.7325 12.5 16.7325C12.105 16.7325 11.7099 16.9582 11.4841 17.2969C10.6376 17.1276 9.90387 16.7325 9.28305 16.1681C9.33949 16.0552 9.45237 15.8859 9.45237 15.773C9.56524 15.378 9.5088 14.9265 9.28305 14.5314C9.0573 14.1363 8.71867 13.9106 8.26717 13.7977C8.09785 13.7413 7.98498 13.7413 7.81566 13.7413C7.75922 13.4026 7.70278 13.064 7.70278 12.6689C7.70278 12.161 7.75922 11.7095 7.92854 11.2015C8.3236 11.2015 8.71867 10.9758 8.88799 10.5807C9.11374 10.355 9.11374 10.0163 9.0573 9.73416C9.0573 9.67772 9.00086 9.56484 9.00086 9.50841C9.56524 8.88759 10.2989 8.43608 11.0891 8.15389C11.3713 8.66183 11.8792 9.00046 12.5 9.00046C13.1208 9.00046 13.6288 8.66183 13.911 8.15389C14.7011 8.37964 15.4348 8.88759 15.9992 9.50841C15.8299 9.84703 15.8299 10.2985 16.0556 10.6372C16.2814 10.9758 16.62 11.2015 17.0151 11.258C17.1844 11.7095 17.2408 12.2174 17.2408 12.7254C17.2408 13.064 17.1844 13.4026 17.128 13.7977C16.9586 13.7977 16.8458 13.7977 16.6764 13.8541C16.2814 13.9106 15.9428 14.1928 15.717 14.5314ZM17.5795 15.6037C17.523 15.7166 17.4101 15.8295 17.2973 15.8295C17.1844 15.8859 17.0151 15.8295 16.9022 15.773C16.7893 15.7166 16.6764 15.6037 16.6764 15.4908C16.62 15.378 16.6764 15.2087 16.7329 15.0958C16.7893 14.9829 16.9022 14.87 17.0151 14.87H17.128C17.2408 14.87 17.2973 14.87 17.3537 14.9265C17.4666 14.9829 17.5795 15.0958 17.5795 15.2087C17.6359 15.378 17.6359 15.4908 17.5795 15.6037Z" fill="currentColor"/>
</g>
</g>
<defs>
<clipPath id="clip0_1616_425">
<rect width="25" height="25" fill="white"/>
</clipPath>
<clipPath id="clip1_1616_425">
<rect width="13.5452" height="13.5452" fill="white" transform="translate(5.72754 5.72705)"/>
</clipPath>
</defs>
</svg>
