<svg width="20" height="20" viewBox="0 0 20 20" fill="none" xmlns="http://www.w3.org/2000/svg">
<path d="M11.2083 16.5418C8.49992 17.0418 5.66658 15.8335 4.20825 13.3335C3.04159 11.3335 3.04159 8.91685 4.04159 7.00018C4.49992 7.12518 5.04159 7.08352 5.49992 6.83352C6.41659 6.33352 6.70825 5.16685 6.16659 4.29185C5.66659 3.37518 4.49992 3.08352 3.62492 3.62518C2.70825 4.12518 2.41659 5.29185 2.95825 6.16685C2.99992 6.20852 2.99992 6.25018 3.04159 6.29185C1.79159 8.62518 1.70825 11.5418 3.12492 14.0002C4.83325 17.0002 8.20825 18.4168 11.4166 17.8335C11.7916 17.7502 11.9999 17.4168 11.9166 17.0418C11.8333 16.6668 11.5416 16.5002 11.2083 16.5418ZM4.24992 4.66685C4.54159 4.50018 4.91659 4.58352 5.08325 4.87518C5.24992 5.16685 5.16659 5.54185 4.87492 5.70852C4.58325 5.87518 4.20825 5.79185 4.04159 5.50018C3.87492 5.20852 3.95825 4.83352 4.24992 4.66685ZM16.9583 13.7502C18.2083 11.4168 18.2916 8.50018 16.8749 6.04185C15.1249 3.04185 11.7499 1.62518 8.58325 2.20852C8.20825 2.29185 7.99992 2.62518 8.08325 3.00018C8.16659 3.29185 8.45825 3.50018 8.79159 3.45852C11.4999 2.95852 14.3333 4.16685 15.7916 6.66685C16.9583 8.66685 16.9583 11.0835 15.9583 13.0002C15.4999 12.8752 14.9583 12.9169 14.4999 13.1669C13.5833 13.6669 13.2916 14.8335 13.8333 15.7085C14.3333 16.6252 15.4999 16.9169 16.3749 16.3752C17.2916 15.8752 17.5833 14.7085 17.0416 13.8335C16.9999 13.8335 16.9999 13.7918 16.9583 13.7502ZM15.7499 15.3335C15.4583 15.5002 15.0833 15.4169 14.9166 15.1252C14.7499 14.8335 14.8333 14.4585 15.1249 14.2918C15.4166 14.1252 15.7916 14.2085 15.9583 14.5002C16.1249 14.7919 16.0416 15.1668 15.7499 15.3335Z" fill="currentColor"/>
<g clip-path="url(#clip0_1616_425)">
<path d="M14.2306 11.654C14.1921 11.4617 14.0768 11.2694 13.8844 11.1155C13.9614 10.8078 13.9998 10.4617 13.9998 10.1155C13.9998 9.69246 13.9229 9.23092 13.7691 8.80784C13.846 8.73092 13.8844 8.61553 13.9229 8.50015C13.9614 8.26938 13.9614 8.07707 13.846 7.88477C13.7306 7.69246 13.5383 7.53861 13.346 7.50015C13.2306 7.46169 13.1152 7.46169 12.9998 7.50015C12.4998 6.92323 11.8075 6.46169 11.0768 6.26938C10.9614 5.76938 10.5383 5.38477 9.99983 5.38477C9.46137 5.38477 9.03829 5.76938 8.92291 6.26938C8.19214 6.46169 7.49983 6.92323 6.99983 7.50015H6.65368C6.42291 7.57707 6.26906 7.69246 6.15368 7.88477C6.03829 8.07707 5.99983 8.30784 6.03829 8.53861C6.07675 8.654 6.11522 8.76938 6.19214 8.8463C6.03829 9.26938 5.96137 9.69246 5.96137 10.154C5.96137 10.5002 5.99983 10.8078 6.07675 11.154C5.92291 11.3078 5.80752 11.4617 5.7306 11.6925C5.65368 11.9617 5.69214 12.2694 5.84598 12.5386C6.07675 12.8848 6.46137 13.0771 6.84598 13.0771C7.03829 13.0771 7.26906 13.0002 7.19214 13.0002C7.76906 13.5386 8.46137 13.9232 9.2306 14.0771C9.34598 14.3848 9.65368 14.6155 9.99983 14.6155C10.346 14.6155 10.6537 14.3848 10.7691 14.0771C11.5383 13.9232 12.2306 13.5386 12.8075 13.0002C12.9229 13.0386 13.0383 13.0771 13.1537 13.0771C13.2691 13.0771 13.346 13.0771 13.4614 13.0386C13.7306 12.9617 13.9998 12.7694 14.1537 12.5386C14.2691 12.2694 14.3075 11.9617 14.2306 11.654ZM12.9229 8.26938C12.9229 8.19246 12.9998 8.154 13.0383 8.11553C13.0768 8.07707 13.1152 8.07707 13.1537 8.07707H13.2306C13.3075 8.07707 13.346 8.154 13.3844 8.19246C13.4229 8.26938 13.4229 8.30784 13.4229 8.38477C13.4229 8.46169 13.346 8.50015 13.3075 8.53861C13.1921 8.61553 13.0383 8.57707 12.9614 8.46169C12.8844 8.38477 12.8844 8.30784 12.9229 8.26938ZM9.99983 6.154C10.1921 6.154 10.346 6.30784 10.346 6.50015C10.346 6.69246 10.1921 6.8463 9.99983 6.8463C9.80752 6.8463 9.65368 6.69246 9.65368 6.50015C9.65368 6.30784 9.80752 6.154 9.99983 6.154ZM6.61522 8.19246C6.65368 8.11553 6.7306 8.07707 6.76906 8.07707H6.96137C7.03829 8.11553 7.07675 8.154 7.07675 8.23092C7.07675 8.30784 7.07675 8.38477 7.03829 8.42323C6.99983 8.57707 6.84598 8.61553 6.7306 8.53861C6.65368 8.50015 6.61522 8.46169 6.61522 8.38477C6.57675 8.30784 6.57675 8.23092 6.61522 8.19246ZM7.19214 12.0386C7.15368 12.1155 7.11522 12.1925 7.03829 12.2309C6.88445 12.3078 6.65368 12.2694 6.57675 12.1155C6.53829 12.0386 6.49983 11.9617 6.53829 11.8463C6.57675 11.7309 6.61522 11.6925 6.69214 11.654C6.76906 11.6155 6.84598 11.5771 6.96137 11.6155C7.03829 11.654 7.11522 11.6925 7.15368 11.7694C7.19214 11.8848 7.19214 11.9617 7.19214 12.0386ZM9.99983 14.0386C9.84598 14.0386 9.7306 13.9232 9.7306 13.7694C9.7306 13.6155 9.84598 13.5002 9.99983 13.5002C10.1537 13.5002 10.2691 13.6155 10.2691 13.7694C10.2691 13.9232 10.1537 14.0386 9.99983 14.0386ZM12.1921 11.3848C12.0383 11.654 11.9998 11.9232 12.0768 12.2309C12.1152 12.3463 12.1537 12.4232 12.1921 12.5002C11.7691 12.8848 11.2306 13.154 10.6921 13.2694C10.5383 13.0386 10.2691 12.8848 9.99983 12.8848C9.7306 12.8848 9.46137 13.0386 9.30752 13.2694C8.7306 13.154 8.2306 12.8848 7.80752 12.5002C7.84598 12.4232 7.92291 12.3078 7.92291 12.2309C7.99983 11.9617 7.96137 11.654 7.80752 11.3848C7.65368 11.1155 7.42291 10.9617 7.11522 10.8848C6.99983 10.8463 6.92291 10.8463 6.80752 10.8463C6.76906 10.6155 6.7306 10.3848 6.7306 10.1155C6.7306 9.76938 6.76906 9.46169 6.88445 9.11553C7.15368 9.11553 7.42291 8.96169 7.53829 8.69246C7.69214 8.53861 7.69214 8.30784 7.65368 8.11553C7.65368 8.07707 7.61522 8.00015 7.61522 7.96169C7.99983 7.53861 8.49983 7.23092 9.03829 7.03861C9.2306 7.38477 9.57675 7.61553 9.99983 7.61553C10.4229 7.61553 10.7691 7.38477 10.9614 7.03861C11.4998 7.19246 11.9998 7.53861 12.3844 7.96169C12.2691 8.19246 12.2691 8.50015 12.4229 8.73092C12.5768 8.96169 12.8075 9.11553 13.0768 9.154C13.1921 9.46169 13.2306 9.80784 13.2306 10.154C13.2306 10.3848 13.1921 10.6155 13.1537 10.8848C13.0383 10.8848 12.9614 10.8848 12.846 10.9232C12.5768 10.9617 12.346 11.154 12.1921 11.3848ZM13.4614 12.1155C13.4229 12.1925 13.346 12.2694 13.2691 12.2694C13.1921 12.3078 13.0768 12.2694 12.9998 12.2309C12.9229 12.1925 12.846 12.1155 12.846 12.0386C12.8075 11.9617 12.846 11.8463 12.8844 11.7694C12.9229 11.6925 12.9998 11.6155 13.0768 11.6155H13.1537C13.2306 11.6155 13.2691 11.6155 13.3075 11.654C13.3844 11.6925 13.4614 11.7694 13.4614 11.8463C13.4998 11.9617 13.4998 12.0386 13.4614 12.1155Z" fill="currentColor"/>
</g>
<defs>
<clipPath id="clip0_1616_425">
<rect width="9.23077" height="9.23077" fill="white" transform="translate(5.38452 5.38477)"/>
</clipPath>
</defs>
</svg>
