<?xml version="1.0" encoding="UTF-8"?>
<svg width="20px" height="20px" viewBox="0 0 20 20" version="1.1" xmlns="http://www.w3.org/2000/svg" xmlns:xlink="http://www.w3.org/1999/xlink">
    <title>zuoyeguanli</title>
    <g id="页面-1" stroke="none" stroke-width="1" fill="none" fill-rule="evenodd">
        <g id="浅色" transform="translate(-1249.000000, -49.000000)" fill="currentColor">
            <path d="M1260.87498,49 C1261.66991,48.9995608 1262.37871,49.5005375 1262.64378,50.2499517 L1265.25003,50.2499517 C1265.94041,50.2499517 1266.50001,50.8095953 1266.50001,51.4999396 L1266.50001,57.7499894 L1265.25003,57.7499894 L1265.25003,51.4999396 L1261.75872,51.4999396 L1261.46505,50.6662603 C1261.39024,50.4549566 1261.20797,50.3000493 1260.98755,50.2599858 L1260.87498,50.2499517 L1254.62507,50.2499517 C1254.40004,50.2498418 1254.19232,50.3706914 1254.08132,50.5662481 L1254.03496,50.6662603 L1253.7413,51.4999396 L1250.24999,51.4999396 L1250.24999,67.7500031 L1257.75003,67.7500031 L1257.75003,68.9999545 L1250.24999,68.9999545 C1249.55961,68.9999545 1249,68.4403475 1249,67.7500031 L1249,51.4999396 C1249,50.8095953 1249.55961,50.2499517 1250.24999,50.2499517 L1252.85624,50.2499517 C1253.1213,49.5005375 1253.82999,48.9995608 1254.62507,49 L1260.87498,49 Z M1261.49995,64.0000392 C1262.19033,64.0000392 1262.74994,64.5596462 1262.74994,65.2500272 L1262.74994,66.5000152 C1262.74994,67.1903595 1262.19033,67.7500031 1261.49995,67.7500031 L1260.24997,67.7500031 C1259.55962,67.7500031 1258.99998,67.1903595 1258.99998,66.5000152 L1258.99998,65.2500272 C1258.99998,64.5596462 1259.55962,64.0000392 1260.24997,64.0000392 L1261.49995,64.0000392 Z M1260.24997,66.5000152 L1261.49995,66.5000152 L1261.49995,65.2500272 L1260.24997,65.2500272 L1260.24997,66.5000152 Z M1268.37498,65.2500272 C1268.72017,65.2500272 1268.99999,65.529849 1268.99999,65.8750029 C1268.99999,66.2201933 1268.72017,66.5000152 1268.37498,66.5000152 L1264.62505,66.5000152 C1264.27986,66.5000152 1264.00008,66.2201933 1264.00008,65.8750029 C1264.00008,65.529849 1264.27986,65.2500272 1264.62505,65.2500272 L1268.37498,65.2500272 Z M1257.75003,61.4999534 L1257.75003,62.7499064 L1254.00006,62.7499064 C1253.67618,62.7506372 1253.4057,62.5038842 1253.37637,62.1814354 C1253.34718,61.8589866 1253.56892,61.5675925 1253.88749,61.5099509 L1254.00006,61.4999534 L1257.75003,61.4999534 Z M1261.49995,58.9999774 C1262.19033,58.9999774 1262.74994,59.5595844 1262.74994,60.2499654 L1262.74994,61.4999534 C1262.74994,62.1902977 1262.19033,62.7499047 1261.49995,62.7499047 L1260.24997,62.7499047 C1259.55962,62.7499047 1258.99998,62.1902977 1258.99998,61.4999534 L1258.99998,60.2499654 C1258.99998,59.5595844 1259.55962,58.9999774 1260.24997,58.9999774 L1261.49995,58.9999774 Z M1260.24997,61.4999534 L1261.49995,61.4999534 L1261.49995,60.2499654 L1260.24997,60.2499654 L1260.24997,61.4999534 Z M1268.37498,60.2499654 C1268.59829,60.2499654 1268.80458,60.3691304 1268.91631,60.5625265 C1269.0279,60.7559225 1269.0279,60.9941061 1268.91631,61.1875021 C1268.80458,61.3809348 1268.59829,61.4999534 1268.37498,61.4999534 L1264.62505,61.4999534 C1264.40174,61.4999534 1264.19534,61.3809348 1264.08375,61.1875021 C1263.97202,60.9941061 1263.97202,60.7559225 1264.08375,60.5625265 C1264.19534,60.3691304 1264.40174,60.2499654 1264.62505,60.2499654 L1268.37498,60.2499654 Z M1261.49995,55.8750247 C1261.82368,55.8744398 1262.09431,56.1210829 1262.12365,56.4434951 C1262.15283,56.7659439 1261.93109,57.0573379 1261.61253,57.1149796 L1261.49995,57.1250147 L1254.00006,57.1250147 C1253.67618,57.1255631 1253.4057,56.8788101 1253.37637,56.5565078 C1253.34718,56.2340956 1253.56892,55.9427015 1253.88749,55.8850233 L1254.00006,55.8750247 L1261.49995,55.8750247 Z" id="zuoyeguanli"></path>
        </g>
    </g>
</svg>