<svg width="18" height="18" viewBox="0 0 18 18" fill="none" xmlns="http://www.w3.org/2000/svg">
<path fill-rule="evenodd" clip-rule="evenodd" d="M17.3239 10.3349C17.3239 9.80654 16.8943 9.37701 16.366 9.37701C15.8592 9.37701 15.4452 9.76943 15.4081 10.2669L15.3957 10.2638C14.8643 13.9531 11.45 16.5238 7.75448 16.0049C4.05286 15.4857 1.47278 12.0621 1.99192 8.36045C2.51411 4.65879 5.93768 2.07871 9.63934 2.60105C10.6775 2.7462 11.6292 3.1232 12.448 3.66694L11.2553 5.53326C11.1967 5.62287 11.2769 5.73723 11.3821 5.71548L15.8624 4.73603C15.9273 4.72066 15.9674 4.65879 15.955 4.5939L14.9694 0.0950549C14.9478 -0.00996195 14.8087 -0.0346809 14.753 0.0549253L13.4861 2.03858C12.4418 1.34954 11.2306 0.873701 9.9082 0.688271C5.14968 0.0209754 0.752805 3.33323 0.0855099 8.09175C-0.58194 12.8501 2.73044 17.247 7.48883 17.9143C12.238 18.5818 16.6317 15.2787 17.3083 10.5327H17.3053C17.3177 10.4709 17.3239 10.403 17.3239 10.3349Z" fill="currentColor"/>
</svg>
