<?xml version="1.0" encoding="UTF-8"?>
<svg width="22px" height="19px" viewBox="0 0 22 19" version="1.1" xmlns="http://www.w3.org/2000/svg" xmlns:xlink="http://www.w3.org/1999/xlink">
    <title>jiaohu--备份 4</title>
    <defs>
        <polygon id="path-1" points="0 0 21 0 21 18.8235294 0 18.8235294"></polygon>
    </defs>
    <g id="页面-1" stroke="none" stroke-width="1" fill="none" fill-rule="evenodd">
        <g id="浅色" transform="translate(-1140.000000, -49.000000)">
            <g id="jiaohu--备份-4" transform="translate(1140.102564, 49.000000)">
                <g id="编组">
                    <mask id="mask-2" fill="white">
                        <use xlink:href="#path-1"></use>
                    </mask>
                    <g id="Clip-2"></g>
                    <path d="M11.8948454,16.2869856 C11.0144383,16.9094191 9.98454952,17.2206868 8.93040344,17.2063972 C8.7910942,17.204414 8.65382955,17.1982354 8.51648918,17.1861325 C8.46196699,17.1799794 8.4054507,17.1718176 8.34885869,17.1657662 C8.24188415,17.1514766 8.13283977,17.1372634 8.02980294,17.116897 C7.96520929,17.1046924 7.90061565,17.0883942 7.8380161,17.0721977 C7.73497926,17.0477631 7.6320434,17.023354 7.53304524,16.9928425 C7.48463156,16.9786547 7.43818673,16.9602716 7.38967208,16.9439734 C7.27462017,16.9053509 7.15944206,16.8647199 7.04645997,16.8179356 C7.02013282,16.8077143 6.99597646,16.7955097 6.97171914,16.7832797 C6.84046203,16.7243926 6.71119901,16.6653784 6.58597467,16.5961683 C6.57996714,16.5921001 6.57385863,16.5900914 6.56981995,16.5880065 C6.14583423,16.3541108 5.75804518,16.0612263 5.4188465,15.7194472 C5.412738,15.7133958 5.40869932,15.7073444 5.40266654,15.7011912 C5.29766085,15.5953928 5.19669384,15.4835683 5.1017596,15.3655653 C5.08164193,15.3411307 5.06142328,15.3147129 5.04120464,15.288295 C4.3485457,14.4156676 3.93253637,13.3111278 3.93253637,12.1110108 L5.26532616,12.1110108 L3.12883896,8.88905275 L0.998485495,12.1110108 L2.33127529,12.1110108 C2.33127529,13.5226738 2.76737705,14.8306233 3.51054474,15.9127373 C3.5186221,15.9269251 3.52669946,15.9432233 3.53677092,15.9595215 C3.61358158,16.0693627 3.69836863,16.1730508 3.78108585,16.2768405 C3.81145168,16.3154884 3.84174178,16.358179 3.87200664,16.3968268 C3.9931923,16.5453159 4.12245532,16.6856431 4.25565605,16.8220293 C4.26779733,16.8362171 4.27991337,16.8484471 4.29202941,16.8606517 C4.7383036,17.310187 5.24106884,17.6885035 5.78841101,17.9916348 C5.8024959,17.9997712 5.81660604,18.0078058 5.83278601,18.0159677 C5.99034503,18.101476 6.15184176,18.1787462 6.31740242,18.2519483 C6.35781447,18.2702297 6.39825176,18.2885874 6.4406579,18.3068689 C6.57996714,18.3658577 6.72530915,18.4167101 6.87075213,18.4654776 C6.93935921,18.4899122 7.00799154,18.5143467 7.07672483,18.5347131 C7.20391802,18.5733355 7.33318104,18.603847 7.46441291,18.636418 C7.55129503,18.6567843 7.63805093,18.679134 7.7269019,18.6954068 C7.76327527,18.7035686 7.79757881,18.7136882 7.83397742,18.7197396 C7.95713193,18.742191 8.08235627,18.754421 8.20551078,18.7686088 L8.33881248,18.7868902 C8.56096514,18.8093416 8.7829916,18.8235294 9.00317541,18.8235294 C10.3581527,18.8235294 11.6788012,18.4065905 12.8116258,17.6071397 C13.1730877,17.3507927 13.2599699,16.8504303 13.0075523,16.4863016 C12.7551348,16.1182319 12.2563073,16.0307149 11.8948454,16.2869856 L11.8948454,16.2869856 Z M19.6673364,6.7084504 C19.6673364,5.30085559 19.2330773,3.99499104 18.4940745,2.91488577 C18.4839273,2.89660433 18.4758247,2.87822118 18.4638096,2.85993974 C18.370819,2.72774889 18.2719218,2.60567767 18.1729237,2.48164864 C18.1609086,2.46733368 18.1507614,2.45103548 18.1386201,2.43684766 C17.4621159,1.61097904 16.6140687,0.972247295 15.6528123,0.555308356 C15.6265861,0.543078351 15.6003347,0.530873772 15.5720387,0.518643766 C15.4186193,0.455688478 15.2610603,0.398682922 15.1036023,0.345847265 C15.0470102,0.327464117 14.990494,0.307097726 14.9319331,0.288816283 C14.7945927,0.246125682 14.6552582,0.211546041 14.5139549,0.17897507 C14.4351754,0.160693627 14.3584657,0.140352661 14.2796862,0.126139412 C14.241344,0.118003026 14.2049454,0.107756264 14.1646343,0.099721583 C14.0596034,0.0813384355 13.9545977,0.0732020494 13.8475221,0.0589887998 C13.7748511,0.0508524136 13.704149,0.0386478343 13.6294082,0.0304860219 C13.4517315,0.0142132496 13.2760236,0.00605143722 13.1004167,0.00406819309 C13.0680821,0.00406819309 13.0378172,0 13.0054825,0 C12.9994497,0 12.995411,0.00198324413 12.9893025,0.00198324413 C11.6363951,0.00406819309 10.3177154,0.414955695 9.18685965,1.21232154 C8.82539775,1.46658361 8.73657202,1.96903088 8.99105937,2.33315959 C9.2434769,2.69716116 9.74217821,2.78676312 10.1036654,2.5304161 C10.9780397,1.91411027 11.9978822,1.60085941 13.0438247,1.61097904 C13.1933064,1.61306399 13.3426871,1.61914085 13.4881301,1.63332867 C13.5325051,1.63739686 13.5789247,1.64555868 13.6234006,1.65171182 C13.7425165,1.66592507 13.8637021,1.68418109 13.9808238,1.70663243 C14.0332762,1.71677748 14.0837597,1.73096531 14.1342432,1.74319531 C14.2494213,1.76971485 14.3644985,1.79811592 14.4775815,1.83068689 C14.5139549,1.84289147 14.5482837,1.85512147 14.5845561,1.86732605 C14.7138191,1.91004208 14.8390434,1.95474135 14.9642678,2.00767871 C14.9783779,2.01373015 14.990494,2.01988329 15.0026352,2.02397691 C15.7477465,2.34734741 16.3999934,2.84366697 16.910836,3.46610051 C16.9149,3.4701687 16.9169698,3.47426232 16.9210085,3.47833052 C17.6378238,4.35909432 18.0699878,5.48392428 18.0699878,6.7084504 L16.7372233,6.7084504 L18.8696465,9.92842523 L21,6.7084504 L19.6673364,6.7084504 Z" id="Fill-1" fill="currentColor" mask="url(#mask-2)"></path>
                    <path d="M6.52741381,7.76213784 L1.87081523,7.76213784 C1.3902375,7.76213784 0.998485495,7.36754853 0.998485495,6.88335728 L0.998485495,2.19270522 C0.998485495,1.70861567 1.3902375,1.31402637 1.87081523,1.31402637 L6.52741381,1.31402637 C7.00799154,1.31402637 7.39984451,1.70861567 7.39984451,2.19270522 L7.39984451,6.88335728 C7.39984451,7.36754853 7.00602268,7.76213784 6.52741381,7.76213784 Z" id="路径" stroke="currentColor" mask="url(#mask-2)"></path>
                </g>
                <path d="M20.1983975,17.6470588 L15.9192421,17.6470588 C15.4776202,17.6470588 15.1176471,17.2870909 15.1176471,16.8454754 L15.1176471,12.5663821 C15.1176471,12.1246738 15.4776202,11.7647059 15.9192421,11.7647059 L20.1983975,11.7647059 C20.6400194,11.7647059 21,12.1246738 21,12.5663821 L21,16.8454754 C21.0018946,17.2870909 20.6400194,17.6470588 20.1983975,17.6470588 Z" id="Fill-3" stroke="currentColor"></path>
            </g>
        </g>
    </g>
</svg>