<?xml version="1.0" encoding="UTF-8"?>
<svg width="20px" height="20px" viewBox="0 0 20 20" version="1.1" xmlns="http://www.w3.org/2000/svg" xmlns:xlink="http://www.w3.org/1999/xlink">
    <title>shujukaifajiaobenkaifa备份</title>
    <g id="页面-1" stroke="none" stroke-width="1" fill="none" fill-rule="evenodd">
        <g id="浅色" transform="translate(-1441.000000, -49.000000)" fill="currentColor">
            <path d="M1459.57387,55.424089 L1442.44758,55.424089 L1442.44758,53.9980677 L1459.57387,53.9980677 L1459.57387,51.1982896 C1459.57387,50.7734434 1459.22953,50.4290972 1458.80479,50.4290972 L1443.21677,50.4290972 C1442.79193,50.4290972 1442.44758,50.7734434 1442.44758,51.1982896 L1442.42757,66.7847534 C1442.42676,66.9890266 1442.50757,67.185071 1442.65196,67.3295607 C1442.79634,67.4739453 1442.99249,67.5547607 1443.19676,67.5539457 L1457.36951,67.5539457 C1457.62452,67.5538406 1457.86019,67.6899175 1457.98775,67.910806 C1458.11531,68.1316155 1458.11531,68.4037432 1457.98775,68.6246579 C1457.86019,68.8455463 1457.62452,68.9815181 1457.36951,68.9815181 L1442.53683,68.9815181 C1441.68775,68.980598 1441,68.2921159 1441,67.4431335 L1441.02003,50.5383847 C1441.02003,50.1303641 1441.18208,49.7390903 1441.47054,49.4505315 C1441.75902,49.1620515 1442.1504,49 1442.55829,49 L1459.46162,49 C1459.86964,49 1460.26091,49.1620515 1460.54936,49.4505315 C1460.83784,49.7390903 1461,50.1303641 1461,50.5383847 L1461,65.3294713 C1460.98223,65.7103606 1460.6683,66.010119 1460.28688,66.010119 C1459.90557,66.010119 1459.59165,65.7103606 1459.57387,65.3294713 L1459.57387,55.424089 Z M1444.589,53.1181682 C1444.32629,53.1302879 1444.07819,52.997208 1443.94324,52.7714822 C1443.8083,52.5458616 1443.8083,52.2643747 1443.94324,52.0386489 C1444.07819,51.8130283 1444.32629,51.6799221 1444.589,51.6920418 C1444.96989,51.7098138 1445.26965,52.0237688 1445.26965,52.4050524 C1445.26965,52.7864675 1444.96989,53.1004225 1444.589,53.1181682 Z M1448.87014,53.1181682 C1448.60745,53.1302879 1448.35946,52.997208 1448.22441,52.7714822 C1448.08946,52.5458616 1448.08946,52.2643747 1448.22441,52.0386489 C1448.35946,51.8130283 1448.60745,51.6799221 1448.87014,51.6920418 C1449.25106,51.7098138 1449.55082,52.0237688 1449.55082,52.4050524 C1449.55082,52.7864675 1449.25106,53.1004225 1448.87014,53.1181682 Z M1446.72875,53.1181682 C1446.46616,53.1302879 1446.21804,52.997208 1446.08312,52.7714822 C1445.94817,52.5458616 1445.94817,52.2643747 1446.08312,52.0386489 C1446.21804,51.8130283 1446.46616,51.6799221 1446.72875,51.6920418 C1447.10974,51.7098138 1447.40942,52.0237688 1447.40942,52.4050524 C1447.40942,52.7864675 1447.10974,53.1004225 1446.72875,53.1181682 Z M1447.4626,58.3792672 C1447.61338,58.2300452 1448.01172,58.2300452 1448.16247,58.3792672 C1448.31324,58.5284629 1448.31324,58.9992376 1448.16247,59.1607633 L1445.83499,61.4236473 L1448.10405,63.5726695 C1448.2548,63.7218651 1448.27483,64.148052 1448.10405,64.3156507 C1447.89794,64.5203445 1447.47638,64.4879815 1447.33486,64.3495385 L1444.6843,61.7036094 C1444.53437,61.5524419 1444.53437,61.3086286 1444.6843,61.1574612 L1447.4626,58.3792672 Z M1454.68662,58.3792672 L1457.46481,61.1574612 C1457.61587,61.308839 1457.61587,61.5537827 1457.46481,61.7051342 L1454.8127,64.3495385 C1454.67274,64.4879815 1454.27429,64.5756849 1454.04364,64.3495385 C1453.82665,64.1341972 1453.89432,63.6911584 1454.04364,63.5419628 L1456.32335,61.4236473 L1453.96969,59.1376544 C1453.81894,58.9761287 1453.76975,58.5776777 1453.96969,58.3792672 C1454.16513,58.1870085 1454.53585,58.2300452 1454.68662,58.3792672 Z M1451.83302,57.8254161 C1451.90992,57.6254808 1452.28374,57.4993677 1452.52219,57.5885171 C1452.74989,57.6731182 1452.88368,57.9884929 1452.82063,58.1884545 L1450.30079,65.1279849 C1450.22389,65.3279202 1449.86548,65.4063958 1449.66389,65.3325473 C1449.45007,65.2571739 1449.21778,64.963357 1449.2947,64.7634217 L1451.83302,57.8254161 Z" id="shujukaifajiaobenkaifa备份"></path>
        </g>
    </g>
</svg>