<?xml version="1.0" encoding="UTF-8"?><svg id="_图层_1" xmlns="http://www.w3.org/2000/svg" viewBox="0 0 283.46 141.73"><defs><style>.cls-1{fill:#fff;}</style></defs><path class="cls-1" d="M24.31,47.23c4.23,0,7.92.84,11.08,2.51,3.16,1.68,5.6,4.04,7.31,7.08,1.75,3.01,2.63,6.49,2.63,10.45s-.88,7.4-2.63,10.45c-1.71,3.05-4.17,5.41-7.37,7.08-3.16,1.68-6.83,2.51-11.02,2.51h-15.02v-40.09h15.02ZM23.68,78.86c3.69,0,6.57-1.01,8.62-3.03,2.06-2.02,3.08-4.87,3.08-8.57s-1.03-6.57-3.08-8.62c-2.06-2.06-4.93-3.08-8.62-3.08h-4.63v23.3h4.63ZM65.86,87.77c-3.12,0-5.94-.67-8.45-2-2.47-1.33-4.44-3.24-5.88-5.71-1.41-2.47-2.11-5.37-2.11-8.68s.72-6.15,2.17-8.62c1.45-2.51,3.43-4.44,5.94-5.77,2.51-1.33,5.33-2,8.45-2s5.94.67,8.45,2c2.51,1.33,4.49,3.25,5.94,5.77,1.45,2.47,2.17,5.35,2.17,8.62s-.74,6.17-2.23,8.68c-1.45,2.47-3.45,4.38-6,5.71-2.51,1.33-5.33,2-8.45,2ZM65.86,79.32c1.87,0,3.45-.69,4.74-2.06,1.33-1.37,2-3.33,2-5.88s-.65-4.51-1.94-5.88c-1.26-1.37-2.82-2.06-4.68-2.06s-3.48.69-4.74,2.06c-1.26,1.33-1.88,3.29-1.88,5.88s.61,4.51,1.83,5.88c1.26,1.37,2.82,2.06,4.68,2.06ZM98.05,45.06v42.26h-9.76v-42.26h9.76ZM115.46,59.96c.95-1.48,2.27-2.68,3.94-3.6,1.68-.91,3.64-1.37,5.88-1.37,2.63,0,5.01.67,7.14,2s3.81,3.24,5.03,5.71c1.26,2.47,1.88,5.35,1.88,8.62s-.63,6.17-1.88,8.68c-1.22,2.47-2.89,4.4-5.03,5.77-2.13,1.33-4.51,2-7.14,2-2.21,0-4.17-.46-5.88-1.37-1.68-.91-2.99-2.09-3.94-3.54v19.64h-9.76v-47.05h9.76v4.51ZM129.39,71.32c0-2.44-.69-4.34-2.06-5.71-1.33-1.41-2.99-2.11-4.97-2.11s-3.6.7-4.97,2.11c-1.33,1.41-2,3.33-2,5.77s.67,4.36,2,5.77c1.37,1.41,3.03,2.11,4.97,2.11s3.6-.7,4.97-2.11c1.37-1.45,2.06-3.39,2.06-5.82ZM164.61,55.11c3.65,0,6.59,1.22,8.79,3.65,2.21,2.4,3.31,5.71,3.31,9.94v18.62h-9.71v-17.3c0-2.13-.55-3.79-1.66-4.97-1.1-1.18-2.59-1.77-4.45-1.77s-3.35.59-4.45,1.77c-1.1,1.18-1.66,2.84-1.66,4.97v17.3h-9.76v-42.26h9.76v14.68c.99-1.41,2.34-2.53,4.05-3.37,1.71-.84,3.64-1.26,5.77-1.26ZM188.98,52.14c-1.71,0-3.12-.49-4.23-1.48-1.07-1.03-1.6-2.28-1.6-3.77s.53-2.78,1.6-3.77c1.1-1.03,2.51-1.54,4.23-1.54s3.05.51,4.11,1.54c1.1.99,1.66,2.25,1.66,3.77s-.55,2.74-1.66,3.77c-1.07.99-2.44,1.48-4.11,1.48ZM193.84,55.45v31.86h-9.76v-31.86h9.76ZM220.9,55.11c3.73,0,6.7,1.22,8.91,3.65,2.25,2.4,3.37,5.71,3.37,9.94v18.62h-9.71v-17.3c0-2.13-.55-3.79-1.66-4.97-1.1-1.18-2.59-1.77-4.45-1.77s-3.35.59-4.45,1.77c-1.1,1.18-1.66,2.84-1.66,4.97v17.3h-9.76v-31.86h9.76v4.23c.99-1.41,2.32-2.51,4-3.31,1.68-.84,3.56-1.26,5.65-1.26ZM265.09,87.31l-8.17-12.28-7.2,12.28h-11.08l12.85-20.39-13.13-19.7h11.36l8.05,12.11,7.08-12.11h11.08l-12.73,20.21,13.25,19.87h-11.36Z"/></svg>