<?xml version="1.0" encoding="UTF-8"?>
<svg id="_图层_1" xmlns="http://www.w3.org/2000/svg" version="1.1" viewBox="0 0 1280.4 292">
  <!-- Generator: Adobe Illustrator 29.7.1, SVG Export Plug-In . SVG Version: 2.1.1 Build 8)  -->
  <defs>
    <style>
      .st0 {
        fill: #fff;
      }
    </style>
  </defs>
  <path class="st0" d="M72,27.1c20.3,0,38,4,53.1,12,15.1,8.1,26.8,19.4,35,33.9,8.4,14.4,12.6,31.1,12.6,50.1s-4.2,35.5-12.6,50.1c-8.2,14.6-20,25.9-35.3,33.9-15.1,8.1-32.7,12-52.8,12H0V27h72,0ZM69,178.7c17.7,0,31.5-4.8,41.3-14.5,9.9-9.7,14.8-23.3,14.8-41.1s-4.9-31.5-14.8-41.3c-9.9-9.9-23.6-14.8-41.3-14.8h-22.2v111.7h22.2ZM271.1,221.4c-15,0-28.5-3.2-40.5-9.6-11.8-6.4-21.3-15.5-28.2-27.4-6.8-11.8-10.1-25.7-10.1-41.6s3.5-29.5,10.4-41.3c6.9-12,16.4-21.3,28.5-27.7s25.5-9.6,40.5-9.6,28.5,3.2,40.5,9.6c12,6.4,21.5,15.6,28.5,27.7,6.9,11.8,10.4,25.6,10.4,41.3s-3.5,29.6-10.7,41.6c-6.9,11.8-16.5,21-28.8,27.4-12,6.4-25.5,9.6-40.5,9.6ZM271.1,180.9c9,0,16.5-3.3,22.7-9.9,6.4-6.6,9.6-16,9.6-28.2s-3.1-21.6-9.3-28.2c-6-6.6-13.5-9.9-22.4-9.9s-16.7,3.3-22.7,9.9c-6,6.4-9,15.8-9,28.2s2.9,21.6,8.8,28.2c6,6.6,13.5,9.9,22.4,9.9h0ZM425.4,16.7v202.5h-46.8V16.7h46.8ZM508.8,88.1c4.6-7.1,10.9-12.8,18.9-17.3,8.1-4.4,17.4-6.6,28.2-6.6s24,3.2,34.2,9.6c10.2,6.4,18.3,15.5,24.1,27.4,6,11.8,9,25.6,9,41.3s-3,29.6-9,41.6c-5.8,11.8-13.9,21.1-24.1,27.7-10.2,6.4-21.6,9.6-34.2,9.6s-20-2.2-28.2-6.6c-8.1-4.4-14.3-10-18.9-17v94.1h-46.8V66.5h46.8v21.6ZM575.6,142.5c0-11.7-3.3-20.8-9.9-27.4-6.4-6.8-14.3-10.1-23.8-10.1s-17.3,3.4-23.8,10.1c-6.4,6.8-9.6,16-9.6,27.7s3.2,20.9,9.6,27.7c6.6,6.8,14.5,10.1,23.8,10.1s17.3-3.4,23.8-10.1c6.6-6.9,9.9-16.2,9.9-27.9h0ZM744.4,64.8c17.5,0,31.6,5.8,42.1,17.5,10.6,11.5,15.9,27.4,15.9,47.6v89.2h-46.5v-82.9c0-10.2-2.6-18.2-8-23.8-5.3-5.7-12.4-8.5-21.3-8.5s-16.1,2.8-21.3,8.5c-5.3,5.7-8,13.6-8,23.8v82.9h-46.8V16.7h46.8v70.4c4.7-6.8,11.2-12.1,19.4-16.2s17.4-6,27.7-6h0ZM861.2,50.6c-8.2,0-15-2.3-20.3-7.1-5.1-4.9-7.7-10.9-7.7-18.1s2.5-13.3,7.7-18.1c5.3-4.9,12-7.4,20.3-7.4s14.6,2.4,19.7,7.4c5.3,4.7,8,10.8,8,18.1s-2.6,13.1-8,18.1c-5.1,4.7-11.7,7.1-19.7,7.1ZM884.5,66.5v152.7h-46.8V66.5s46.8,0,46.8,0ZM1014.2,64.8c17.9,0,32.1,5.8,42.7,17.5,10.8,11.5,16.2,27.4,16.2,47.6v89.2h-46.5v-82.9c0-10.2-2.6-18.2-8-23.8-5.3-5.7-12.4-8.5-21.3-8.5s-16.1,2.8-21.3,8.5c-5.3,5.7-8,13.6-8,23.8v82.9h-46.8V66.5h46.8v20.3c4.7-6.8,11.1-12,19.2-15.9,8.1-4,17.1-6,27.1-6h0ZM1226,219.2l-39.2-58.9-34.5,58.9h-53.1l61.6-97.7-62.9-94.4h54.4l38.6,58,33.9-58h53.1l-61,96.9,63.5,95.2h-54.4,0Z"/>
</svg>