<svg id="图层_1" data-name="图层 1" xmlns="http://www.w3.org/2000/svg" xmlns:xlink="http://www.w3.org/1999/xlink" viewBox="0 0 1197.99 291.97"><defs><style>.cls-1{fill:url(#未命名的渐变_43);}.cls-2{fill:url(#未命名的渐变_43-2);}.cls-3{fill:url(#未命名的渐变_43-3);}.cls-4{fill:url(#未命名的渐变_43-4);}.cls-5{fill:url(#未命名的渐变_43-5);}.cls-6{fill:url(#未命名的渐变_43-6);}.cls-7{fill:url(#未命名的渐变_43-7);}.cls-8{fill:url(#未命名的渐变_43-8);}.cls-9{fill:url(#未命名的渐变_43-9);}</style><radialGradient id="未命名的渐变_43" cx="65.01" cy="-3.83" r="237.14" gradientUnits="userSpaceOnUse"><stop offset="0" stop-color="#00a0cd"/><stop offset="0.42" stop-color="#009199"/><stop offset="1" stop-color="#1e247e"/></radialGradient><radialGradient id="未命名的渐变_43-2" cx="3502.25" cy="354.46" r="2996.16" xlink:href="#未命名的渐变_43"/><radialGradient id="未命名的渐变_43-3" cx="3497.3" cy="354.46" r="2996.15" xlink:href="#未命名的渐变_43"/><radialGradient id="未命名的渐变_43-4" cx="3499.87" cy="353.99" r="2996.16" xlink:href="#未命名的渐变_43"/><radialGradient id="未命名的渐变_43-5" cx="3500.34" cy="354.46" r="2996.15" xlink:href="#未命名的渐变_43"/><radialGradient id="未命名的渐变_43-6" cx="3494.64" cy="354.46" r="2996.16" xlink:href="#未命名的渐变_43"/><radialGradient id="未命名的渐变_43-7" cx="3482.54" cy="354.46" r="2996.16" xlink:href="#未命名的渐变_43"/><radialGradient id="未命名的渐变_43-8" cx="3376.49" cy="353.69" r="2996.23" gradientTransform="matrix(1.02, 0, -0.05, 1, -14.74, 0)" xlink:href="#未命名的渐变_43"/><radialGradient id="未命名的渐变_43-9" cx="3375.08" cy="353.69" r="2996.24" gradientTransform="matrix(1.02, 0, -0.05, 1, -14.74, 0)" xlink:href="#未命名的渐变_43"/></defs><path class="cls-1" d="M178.93,1.6H85.65L7.18,238.8h93.28c15.53,0,31.62-5.27,46.11-14.17a65.67,65.67,0,0,0,15-16.41c11.29-18.71,4-41.24-.43-47.72-6.61-9.74-16.95-18.83-33.06-24.61a.39.39,0,0,0-.54.38c.23,2.65,1.19,13.54,2.58,18.85.2.78.36,1.81-.11,1.54-2.89-1.69-13.54-9-17.52-26.84-4.63-20.75-31.38-26.41-32.76-26.63s-13.9-2.47-12.9-5.23c0,0,1.31-5,11.14-4.55S85.63,84,100.51,83.32s44.43,10.13,60.63,19.55,34.54-.31,42.86,7.09-17.1,2.59-17.15,13.23,7.56,23.24,5.91,44c-.06.83-.14,1.67-.23,2.51q.41-1.12.78-2.25l31.27-94.52C237.61,33.55,217.17,1.6,178.93,1.6Z"/><path class="cls-2" d="M292.42,87.61l3.21.48,3.68-.48q32.63,0,39.79,26.71a57.06,57.06,0,0,1,.72,14.14Q338.64,139.1,319,196q-6.86,14.86-22,28-19.29,14.76-40.32,14.75H242.89q-23.58,0-33.52-20.18A45.13,45.13,0,0,1,206.71,197q.93-8.34,20-64.77,11.88-25.14,32.06-35.9Q276.1,87.61,292.42,87.61ZM236.19,196q-1.6,14.25,16.41,14.26h7.73q25.88,0,34.64-29.85,14.44-42.66,15.12-48.71l.31-2.78q1.38-12.31-18.93-12.32h-3.14q-20.31,0-29.53,13.29-5.79,7.5-20.73,57.89Q237.11,187.8,236.19,196Z"/><path class="cls-3" d="M401.86,21.14q15.72,0,18.77,12.69l-.14,5.56-.06.48-47.58,148.9-1.1,5.56q-1.31,11.6,8.59,15,22.85,0,24.8,8.46,2.37,3.63,1.58,10.76c-1.66,6.85-3,10.27-3.93,10.27H383.57q-38.31,0-41.82-31.3l0-8.94.64-5.68q.68-6,19.9-64.54L397.1,21.62l.53-.48Z"/><path class="cls-4" d="M476.71,87.26q12.45,0,17,6.64h.37a54.6,54.6,0,0,1,27-6.64h1.33q28.65,0,34.56,7.61Q570.7,107,568.4,127.62q-1,9.18-20.58,65.14-20.7,40.37-64.82,40.37H454.24l-18.88,57.52H429.2q-13.18,0-15.36-12.93l0-4,.25-2.17q2.52-10.63,59.52-184.3Zm-13.19,118H464l13.73.36H491.4q22.37,0,32.45-24.29,13.51-41,15.81-50.64l.2-1.81q1.13-10-7.35-13.17a38.74,38.74,0,0,0-9.68-1H522q-24.64,0-33.74,16.43Q483.42,141.77,463.52,205.21Z"/><path class="cls-5" d="M631.47,21.14q14.14,0,16.83,12.69l.29,6L632.82,89.06l.44.36q10.62-4.11,24.75-4.11h.49q39.51,0,45.88,25.26a56,56,0,0,1,.62,15l-.26,2.3q-1,9.06-17.72,58L669.86,238.8h-8Q647,238.8,647.07,221l.42-3.74q25.51-78,27.55-87.5,1.73-15.46-18.46-15.47-23.21,0-30.63,10.27-7.77,5.68-20.38,48.22l-21.34,65.51-.54.48H576.2q-14.75,0-14.82-17.77l.31-2.78L625.43,21.14Z"/><path class="cls-6" d="M745.92,87.37q12.33,0,16.12,8.22a15.82,15.82,0,0,1,1.37,8.34l-.25,2.17q-.35,3.15-42.33,132.22l-.54.48h-3.14q-21.27,0-19.21-18.49,6.81-24,42.91-132.94Zm17.3-66.11h7q16.8,2.18,15.14,17l-.31,2.78q-6.21,22-7.54,22h-2.78q-16.08,0-19.07-11l-.52-7.25Q761.65,21.27,763.22,21.26Z"/><path class="cls-7" d="M797.42,88.09H801q7.26,0,12.64,5.93a57.81,57.81,0,0,1,25.92-5.93h14.26q26.7,0,35.57,23.45a49.6,49.6,0,0,1,1,16.07q-1.15,10.28-27.44,88.71-6.21,20.91-8.07,22.48h-3.15q-14.87,0-18.53-11.48l-.39-4.11.42-3.75,26.21-83.15,1.2-6.4q.93-8.22-5.17-11t-17.58-2.78q-23.45,0-33.92,23.45L771.8,238.32l-.54.48h-3.62q-15,0-18.42-11.48l-.5-4.11.25-2.3q1.86-8,42.3-131.85A15.6,15.6,0,0,1,797.42,88.09Z"/><path class="cls-8" d="M1089.42,19.63h60.79q38.68,0,42.7,32.08a32,32,0,0,1-1,13.66l-12.14,37.68q-3.88,12.08-22.35,26,10,12.33,5.65,25.86L1152,189.28q-8.52,26.47-41.45,43.42a71.7,71.7,0,0,1-28.55,6.1h-63.15l-.68-1,70-217.21ZM1078.36,145l-20.79,64.52h32.83q19.1,0,30.2-17.44l9.24-28.67q4.67-14.5-15.94-17.92l-6.09-.49Zm31-96.11-21.53,66.84h27.08q26.19-1.09,35-14.52l2-4.75q11.86-36.84,9-36.83-2.79-10.74-21.13-10.74Z"/><path class="cls-9" d="M971,19.63h37.19q40.7,0,44,31.1.57,11.84-4.12,26.35l-32.37,100.49q-13.92,43.19-46.38,55.62a79.72,79.72,0,0,1-29.39,5.61H878.26l-.69-1L947.4,21.1l.65-.49.16-.49ZM968.77,48.9,917,209.53h32.32q18.48,0,27.78-14.15,4.13-5.49,7.67-16.47l31-96.1q7.75-24,.1-30.13-5.4-3.78-25.37-3.78Z"/></svg>