<?xml version="1.0" encoding="UTF-8"?>
<svg id="_图层_1" data-name="图层 1" xmlns="http://www.w3.org/2000/svg" viewBox="0 0 1197.99 291.97">
  <defs>
    <style>
      .cls-1 {
        fill: #fff;
      }
    </style>
  </defs>
  <path class="cls-1" d="M172.1,1.47h-93.47L0,239.15h93.47c15.57,0,31.68-5.28,46.21-14.2,8.05-6.38,12.97-13.04,15.03-16.45,11.32-18.75,3.98-41.32-.43-47.81-6.63-9.77-16.98-18.87-33.13-24.67-.2-.07-.57,0-.54.38.22,2.66,1.19,13.57,2.58,18.89.2.78.37,1.81-.11,1.53-2.9-1.69-13.57-9-17.56-26.89-4.64-20.8-31.44-26.47-32.83-26.69-1.39-.22-13.92-2.48-12.92-5.24,0,0,1.31-5.04,11.16-4.56,9.97.48,7.68-9.44,22.59-10.11,14.91-.67,44.52,10.15,60.75,19.59,16.23,9.44,34.61-.32,42.95,7.1,8.33,7.42-17.14,2.6-17.18,13.25-.05,10.65,7.57,23.29,5.93,44.1-.07.84-.15,1.67-.24,2.51.27-.75.53-1.5.78-2.25l31.33-94.71C230.9,33.48,210.42,1.47,172.1,1.47Z"/>
  <path class="cls-1" d="M287.1,88.03l3.21.48,3.69-.48c21.8,0,35.09,8.92,39.88,26.76.75,3.39.99,8.11.72,14.17-.79,7.1-7.76,29.67-20.89,67.7-4.58,9.93-11.93,19.3-22.03,28.09-12.89,9.85-26.36,14.77-40.4,14.77h-13.81c-15.74,0-26.94-6.74-33.59-20.22-2.63-6.78-3.52-14.01-2.66-21.68.62-5.57,7.32-27.2,20.09-64.91,7.93-16.79,18.64-28.78,32.12-35.97,11.55-5.81,22.77-8.72,33.67-8.72ZM230.75,196.66c-1.06,9.53,4.42,14.29,16.45,14.29h7.75c17.28,0,28.85-9.97,34.71-29.91,9.64-28.5,14.69-44.77,15.14-48.81l.31-2.79c.92-8.23-5.4-12.35-18.96-12.35h-3.15c-13.56,0-23.43,4.44-29.59,13.32-3.87,5.01-10.8,24.34-20.78,58.01-.65,0-1.27,2.75-1.89,8.24Z"/>
  <path class="cls-1" d="M397.4,21.43c10.49,0,16.76,4.24,18.8,12.72l-.14,5.57-.05.49-47.68,149.2-1.11,5.57c-.87,7.75,2,12.76,8.61,15.02,15.26,0,23.54,2.83,24.85,8.48,1.58,2.42,2.11,6.02,1.58,10.78-1.66,6.86-2.97,10.29-3.94,10.29h-19.25c-25.59,0-39.56-10.45-41.91-31.36l.03-8.96.64-5.69c.45-4.04,7.1-25.59,19.95-64.67l34.84-106.93.54-.48h4.24Z"/>
  <path class="cls-1" d="M463.34,88.15c8.31,0,14,2.22,17.06,6.66h.36c8-4.44,17.01-6.66,27.02-6.66h1.33c19.14,0,30.68,2.54,34.63,7.63,9.19,8.08,13.01,19.01,11.47,32.82-.69,6.14-7.56,27.9-20.62,65.27-13.83,26.97-35.48,40.45-64.95,40.45h-28.82l-18.92,57.64h-6.18c-8.8,0-13.93-4.32-15.38-12.96l-.04-4,.24-2.18c1.68-7.11,21.56-68.67,59.64-184.68h3.15ZM450.12,206.35h.49l13.77.36h13.68c14.94,0,25.77-8.11,32.51-24.34,9.03-27.37,14.31-44.28,15.85-50.74l.2-1.82c.75-6.7-1.71-11.1-7.36-13.2-2.43-.64-5.67-.97-9.7-.97h-.85c-16.47,0-27.74,5.49-33.81,16.47-3.22,7.11-11.47,31.85-24.77,74.23Z"/>
  <path class="cls-1" d="M617.94,21.43c9.45,0,15.07,4.24,16.86,12.72l.29,6.06-15.8,49.29.44.36c7.09-2.75,15.36-4.12,24.8-4.12h.49c26.4,0,41.72,8.44,45.97,25.31.91,5.57,1.12,10.58.62,15.02l-.26,2.3c-.68,6.05-6.6,25.43-17.76,58.13l-17.19,53.04h-7.99c-9.93,0-14.88-5.93-14.84-17.8l.42-3.75c17.04-52.08,26.25-81.3,27.6-87.68,1.16-10.33-5.01-15.5-18.49-15.5-15.5,0-25.74,3.43-30.7,10.29-5.19,3.8-11.99,19.9-20.42,48.32l-21.39,65.64-.54.48h-7.51c-9.85,0-14.8-5.93-14.84-17.8l.31-2.79,63.86-197.52h6.06Z"/>
  <path class="cls-1" d="M738.35,87.79c8.24,0,13.62,2.75,16.16,8.24,1.22,2.74,1.68,5.53,1.37,8.36l-.24,2.18c-.24,2.1-14.38,46.26-42.42,132.49l-.54.48h-3.15c-14.21,0-20.62-6.18-19.24-18.53,4.54-16.07,18.87-60.47,42.99-133.21h5.08ZM755.68,21.55h7.02c11.22,1.45,16.28,7.15,15.17,17.08l-.31,2.78c-4.15,14.69-6.66,22.04-7.55,22.04h-2.79c-10.74,0-17.11-3.67-19.11-11.02l-.52-7.27c4.34-15.74,7.04-23.62,8.09-23.62Z"/>
  <path class="cls-1" d="M796.31,88.52h3.63c4.84,0,9.06,1.98,12.66,5.93,8.03-3.96,16.69-5.93,25.97-5.93h14.29c17.84,0,29.72,7.83,35.64,23.49,1.22,5.65,1.55,11.02.98,16.11-.77,6.86-9.93,36.49-27.5,88.89-4.15,13.97-6.84,21.48-8.09,22.52h-3.15c-9.93,0-16.12-3.83-18.58-11.5l-.39-4.12.42-3.75,26.27-83.32,1.2-6.42c.62-5.49-1.11-9.16-5.19-11.02-3.99-1.86-9.86-2.79-17.61-2.79-15.66,0-26.99,7.83-33.99,23.49l-32.25,98.94-.54.48h-3.63c-10.01,0-16.16-3.83-18.45-11.5l-.51-4.12.26-2.3c1.24-5.33,15.37-49.37,42.38-132.12,1.44-.65,3.5-.97,6.16-.97Z"/>
  <path class="cls-1" d="M1094,20.68h60.91c25.85,0,40.11,10.71,42.8,32.14.6,5.13.25,9.7-1.03,13.69l-12.17,37.76c-2.6,8.07-10.07,16.74-22.39,26.03,6.69,8.23,8.57,16.87,5.66,25.91l-11.1,34.46c-5.7,17.68-19.54,32.18-41.53,43.51-9.48,4.08-19.02,6.11-28.61,6.11h-63.28l-.69-.98,70.13-217.66,1.32-.98ZM1082.91,146.32l-20.83,64.65h32.89c12.76,0,22.84-5.82,30.27-17.47l9.25-28.72c3.12-9.69-2.2-15.68-15.97-17.96l-6.1-.49h-29.52ZM1113.94,50.02l-21.58,66.97h27.14c17.5-.73,29.19-5.58,35.08-14.54l2.04-4.77c7.93-24.6,10.93-36.91,9.02-36.91-1.86-7.17-8.92-10.75-21.17-10.75h-30.52Z"/>
  <path class="cls-1" d="M973.86,20.68h37.27c27.18,0,41.88,10.39,44.11,31.16.37,7.9-1.01,16.7-4.13,26.4l-32.44,100.7c-9.29,28.84-24.78,47.42-46.47,55.73-9.55,3.75-19.36,5.62-29.45,5.62h-61.78l-.69-.98,69.97-217.17.66-.49.16-.49,22.79-.49ZM971.67,50.02l-51.86,160.95h32.39c12.34,0,21.61-4.72,27.83-14.18,2.76-3.67,5.33-9.17,7.69-16.5l31.03-96.3c5.17-16.05,5.2-26.11.1-30.19-3.61-2.52-12.08-3.79-25.42-3.79h-21.76Z"/>
</svg>