<?xml version="1.0" encoding="UTF-8"?>
<svg id="_图层_1" data-name="图层 1" xmlns="http://www.w3.org/2000/svg" viewBox="0 0 1959 457">
  <defs>
    <style>
      .cls-1 {
        fill: #158ec7;
      }

      .cls-2 {
        fill: #fff;
      }
    </style>
  </defs>
  <g>
    <path class="cls-2" d="M275.17,60.85h-117.25L59.28,359h117.25c19.53,0,39.74-6.62,57.96-17.81,10.1-8,16.27-16.36,18.85-20.63,14.19-23.52,4.99-51.83-.54-59.97-8.31-12.25-21.3-23.67-41.55-30.94-.25-.09-.72,0-.68.48.28,3.33,1.5,17.02,3.23,23.7.25.98.46,2.27-.13,1.92-3.64-2.12-17.02-11.29-22.03-33.73-5.82-26.09-39.44-33.2-41.18-33.48-1.74-.28-17.47-3.11-16.21-6.57,0,0,1.65-6.32,14-5.73,12.5.6,9.63-11.84,28.34-12.68,18.71-.84,55.85,12.73,76.2,24.58,20.35,11.84,43.42-.4,53.88,8.91,10.45,9.31-21.5,3.26-21.56,16.62-.06,13.37,9.5,29.22,7.43,55.32-.08,1.05-.18,2.1-.3,3.15.34-.94.67-1.88.98-2.83l39.3-118.8c16.38-49.52-9.31-89.67-57.38-89.67Z"/>
    <path class="cls-2" d="M419.42,169.43l4.03.61,4.63-.61c27.34,0,44.02,11.19,50.03,33.57.94,4.26,1.24,10.18.9,17.77-1,8.91-9.73,37.22-26.2,84.92-5.75,12.45-14.96,24.21-27.64,35.24-16.17,12.36-33.06,18.53-50.68,18.53h-17.32c-19.75,0-33.79-8.45-42.13-25.37-3.3-8.51-4.42-17.57-3.34-27.19.78-6.99,9.18-34.13,25.2-81.43,9.95-21.06,23.38-36.1,40.29-45.12,14.49-7.29,28.57-10.94,42.24-10.94ZM348.74,305.7c-1.34,11.95,5.54,17.92,20.63,17.92h9.72c21.67,0,36.19-12.51,43.54-37.52,12.1-35.75,18.43-56.16,19-61.22l.39-3.49c1.15-10.33-6.78-15.49-23.79-15.49h-3.95c-17.01,0-29.39,5.57-37.11,16.71-4.86,6.28-13.54,30.53-26.06,72.76-.81,0-1.6,3.44-2.37,10.33Z"/>
    <path class="cls-2" d="M557.79,85.88c13.16,0,21.03,5.32,23.59,15.95l-.18,6.99-.07.61-59.81,187.15-1.39,6.99c-1.09,9.72,2.51,16,10.81,18.84,19.14,0,29.53,3.54,31.17,10.63,1.99,3.04,2.65,7.55,1.98,13.52-2.08,8.61-3.72,12.91-4.94,12.91h-24.15c-32.11,0-49.63-13.11-52.57-39.34l.04-11.24.8-7.14c.57-5.06,8.91-32.1,25.02-81.12l43.71-134.14.68-.61h5.32Z"/>
    <path class="cls-2" d="M640.5,169.58c10.43,0,17.56,2.79,21.4,8.35h.46c10.04-5.57,21.34-8.35,33.9-8.35h1.67c24,0,38.48,3.19,43.44,9.57,11.53,10.13,16.32,23.85,14.39,41.17-.86,7.7-9.48,34.99-25.87,81.88-17.35,33.83-44.51,50.74-81.48,50.74h-36.16l-23.73,72.31h-7.75c-11.04,0-17.47-5.42-19.3-16.25l-.05-5.01.31-2.73c2.11-8.92,27.05-86.14,74.81-231.67h3.95ZM623.93,317.85h.61l17.27.46h17.16c18.74,0,32.33-10.18,40.78-30.53,11.33-34.33,17.96-55.55,19.88-63.65l.25-2.28c.94-8.4-2.14-13.92-9.24-16.56-3.05-.81-7.11-1.21-12.17-1.21h-1.06c-20.66,0-34.8,6.89-42.41,20.66-4.03,8.91-14.39,39.95-31.07,93.12Z"/>
    <path class="cls-2" d="M834.43,85.88c11.85,0,18.9,5.32,21.15,15.95l.37,7.6-19.83,61.83.56.46c8.89-3.44,19.26-5.17,31.11-5.17h.61c33.12,0,52.34,10.59,57.67,31.75,1.14,6.99,1.4,13.27.78,18.84l-.32,2.89c-.85,7.59-8.28,31.9-22.28,72.92l-21.56,66.54h-10.03c-12.46,0-18.67-7.44-18.62-22.33l.53-4.71c21.38-65.32,32.92-101.98,34.63-109.98,1.45-12.96-6.28-19.45-23.19-19.45-19.44,0-32.28,4.31-38.51,12.91-6.51,4.76-15.05,24.97-25.61,60.61l-26.83,82.34-.68.6h-9.42c-12.36,0-18.56-7.44-18.62-22.33l.39-3.5,80.11-247.77h7.6Z"/>
    <path class="cls-2" d="M985.48,169.13c10.33,0,17.09,3.44,20.27,10.33,1.54,3.44,2.11,6.94,1.71,10.48l-.31,2.73c-.3,2.63-18.03,58.03-53.21,166.19l-.68.6h-3.95c-17.83,0-25.87-7.75-24.14-23.24,5.7-20.15,23.67-75.85,53.93-167.1h6.38ZM1007.22,86.03h8.81c14.08,1.82,20.42,8.96,19.03,21.42l-.39,3.49c-5.2,18.43-8.36,27.65-9.47,27.65h-3.49c-13.47,0-21.46-4.61-23.97-13.82l-.65-9.11c5.45-19.75,8.83-29.62,10.15-29.62Z"/>
    <path class="cls-2" d="M1058.19,170.04h4.56c6.08,0,11.37,2.48,15.88,7.44,10.07-4.96,20.93-7.44,32.58-7.44h17.93c22.38,0,37.28,9.82,44.71,29.47,1.53,7.09,1.95,13.82,1.23,20.2-.96,8.61-12.46,45.78-34.49,111.5-5.2,17.52-8.58,26.94-10.15,28.25h-3.95c-12.46,0-20.22-4.8-23.3-14.43l-.49-5.16.53-4.71,32.95-104.52,1.51-8.05c.77-6.89-1.4-11.49-6.5-13.82-5.01-2.33-12.37-3.5-22.09-3.5-19.65,0-33.86,9.82-42.64,29.47l-40.46,124.11-.68.6h-4.56c-12.56,0-20.28-4.8-23.15-14.43l-.64-5.16.32-2.89c1.56-6.69,19.28-61.93,53.16-165.74,1.81-.81,4.39-1.22,7.73-1.22Z"/>
    <path class="cls-2" d="M1431.61,84.95h76.4c32.42,0,50.32,13.44,53.69,40.32.75,6.44.32,12.16-1.3,17.17l-15.26,47.37c-3.26,10.12-12.63,21-28.09,32.65,8.39,10.33,10.75,21.16,7.1,32.5l-13.93,43.23c-7.15,22.18-24.51,40.37-52.1,54.58-11.9,5.11-23.86,7.67-35.89,7.67h-79.38l-.86-1.23,87.97-273.03,1.65-1.23ZM1417.7,242.54l-26.13,81.1h41.26c16,0,28.66-7.31,37.97-21.92l11.61-36.03c3.92-12.16-2.76-19.67-20.04-22.54l-7.65-.61h-37.02ZM1456.63,121.74l-27.07,84.01h34.04c21.95-.92,36.61-7,44-18.24l2.55-5.98c9.94-30.86,13.71-46.3,11.31-46.3-2.33-8.99-11.19-13.49-26.56-13.49h-38.28Z"/>
    <path class="cls-2" d="M1280.91,84.95h46.75c34.09,0,52.54,13.03,55.33,39.09.47,9.91-1.26,20.95-5.18,33.11l-40.7,126.32c-11.66,36.18-31.09,59.48-58.29,69.91-11.97,4.7-24.29,7.05-36.94,7.05h-77.5l-.86-1.23,87.77-272.42.82-.61.2-.62,28.59-.61ZM1278.15,121.74l-65.05,201.9h40.63c15.48,0,27.11-5.92,34.91-17.78,3.47-4.6,6.68-11.5,9.65-20.7l38.92-120.8c6.49-20.13,6.53-32.76.12-37.87-4.53-3.17-15.15-4.75-31.89-4.75h-27.3Z"/>
  </g>
  <rect class="cls-1" x="1584.14" y="87.85" width="358.8" height="91.9"/>
  <g>
    <path class="cls-2" d="M1612.42,110.82h9.93v49.5h-9.93v-49.5Z"/>
    <path class="cls-2" d="M1648.87,160.96c-11.35,0-19.93-7.94-19.93-20.28s8.87-20.28,20.21-20.28,20.21,7.87,20.21,20.28-9.08,20.28-20.5,20.28ZM1648.87,152.31c5.25,0,10.29-3.83,10.29-11.63s-4.89-11.63-10.14-11.63-10,3.76-10,11.63,4.54,11.63,9.86,11.63Z"/>
    <path class="cls-2" d="M1673.34,110.82h36.31v8.01h-13.19v41.49h-9.93v-41.49h-13.19v-8.01Z"/>
    <path class="cls-2" d="M1753.69,160.32h-21.35v-49.5h20.43c10.36,0,16.1,5.39,16.1,12.77,0,6.03-3.62,9.79-8.44,11.35,5.6.99,9.57,6.17,9.57,11.99,0,7.87-6.03,13.4-16.31,13.4ZM1751.35,118.83h-9.08v12.41h9.08c4.68,0,7.38-2.13,7.38-6.17s-2.7-6.24-7.38-6.24ZM1752.06,138.9h-9.79v13.33h10c4.82,0,7.66-2.34,7.66-6.53s-3.05-6.81-7.87-6.81Z"/>
    <path class="cls-2" d="M1792.62,120.39c6.31,0,10.64,2.98,12.98,6.24v-5.6h10v39.29h-10v-5.75c-2.34,3.4-6.81,6.38-13.05,6.38-9.93,0-17.87-8.16-17.87-20.43s7.94-20.14,17.94-20.14ZM1795.18,129.12c-5.32,0-10.36,3.97-10.36,11.42s5.04,11.7,10.36,11.7,10.43-4.11,10.43-11.56-4.96-11.56-10.43-11.56Z"/>
    <path class="cls-2" d="M1839.64,160.96c-9.86,0-16.74-5.74-17.16-13.05h10c.35,2.98,3.12,5.25,7.09,5.25s6.03-1.77,6.03-4.04c0-7.02-22.2-2.55-22.2-16.95,0-6.52,5.81-11.77,15.53-11.77s15.25,5.18,15.82,12.98h-9.5c-.28-3.05-2.7-5.11-6.6-5.11-3.69,0-5.6,1.49-5.6,3.76,0,7.16,21.77,2.7,22.06,17.09,0,6.74-5.89,11.84-15.46,11.84Z"/>
    <path class="cls-2" d="M1861.48,110.53c0-3.26,2.55-5.82,6.1-5.82s6.1,2.55,6.1,5.82-2.62,5.82-6.1,5.82-6.1-2.55-6.1-5.82ZM1862.55,121.03h9.93v39.29h-9.93v-39.29Z"/>
    <path class="cls-2" d="M1898.44,120.39c9.79,0,16.38,5.11,18.51,13.9h-10.71c-1.13-3.33-3.76-5.46-7.87-5.46-5.53,0-9.22,4.18-9.22,11.84s3.69,11.77,9.22,11.77c4.12,0,6.67-1.84,7.87-5.39h10.71c-2.13,8.37-8.72,13.9-18.51,13.9-11.35,0-19.43-7.94-19.43-20.28s8.09-20.28,19.43-20.28Z"/>
  </g>
</svg>