<?xml version="1.0" encoding="UTF-8"?>
<svg id="_图层_1" data-name="图层 1" xmlns="http://www.w3.org/2000/svg" viewBox="0 0 1582 291.97">
  <defs>
    <style>
      .cls-1 {
        fill: #fff;
      }
    </style>
  </defs>
  <path class="cls-1" d="M.65,31.66h51.54v256.99H.65V31.66Z"/>
  <path class="cls-1" d="M189.9,291.97c-58.91,0-103.46-41.24-103.46-105.3s46.02-105.3,104.93-105.3,104.93,40.87,104.93,105.3-47.13,105.3-106.4,105.3ZM189.9,247.05c27.25,0,53.39-19.88,53.39-60.38s-25.4-60.38-52.65-60.38-51.91,19.51-51.91,60.38,23.56,60.38,51.18,60.38Z"/>
  <path class="cls-1" d="M316.91,31.66h188.51v41.6h-68.48v215.39h-51.55V73.27h-68.48V31.66Z"/>
  <path class="cls-1" d="M734.06,288.65h-110.82V31.66h106.04c53.75,0,83.58,27.98,83.58,66.27,0,31.3-18.78,50.81-43.81,58.91,29.09,5.15,49.7,32.03,49.7,62.22,0,40.87-31.29,69.59-84.68,69.59ZM721.91,73.27h-47.13v64.43h47.13c24.3,0,38.29-11.05,38.29-32.03s-13.99-32.4-38.29-32.4ZM725.59,177.46h-50.81v69.22h51.91c25.04,0,39.76-12.15,39.76-33.87s-15.83-35.35-40.87-35.35Z"/>
  <path class="cls-1" d="M936.19,81.37c32.77,0,55.23,15.46,67.38,32.4v-29.09h51.91v203.97h-51.91v-29.82c-12.15,17.67-35.34,33.14-67.74,33.14-51.55,0-92.78-42.34-92.78-106.04s41.24-104.56,93.15-104.56ZM949.44,126.65c-27.61,0-53.75,20.62-53.75,59.28s26.14,60.75,53.75,60.75,54.12-21.35,54.12-60.01-25.77-60.01-54.12-60.01Z"/>
  <path class="cls-1" d="M1180.29,291.97c-51.18,0-86.89-29.82-89.1-67.75h51.91c1.84,15.46,16.2,27.25,36.82,27.25s31.3-9.2,31.3-20.99c0-36.45-115.24-13.25-115.24-88,0-33.87,30.19-61.12,80.63-61.12s79.16,26.88,82.1,67.38h-49.34c-1.47-15.83-13.99-26.51-34.24-26.51-19.15,0-29.09,7.73-29.09,19.51,0,37.19,113.03,13.99,114.5,88.73,0,34.98-30.56,61.49-80.26,61.49Z"/>
  <path class="cls-1" d="M1293.69,30.19c0-16.94,13.25-30.19,31.66-30.19s31.66,13.25,31.66,30.19-13.62,30.19-31.66,30.19-31.66-13.25-31.66-30.19ZM1299.21,84.68h51.54v203.97h-51.54V84.68Z"/>
  <path class="cls-1" d="M1485.51,81.37c50.81,0,85.05,26.51,96.1,72.16h-55.6c-5.89-17.3-19.51-28.35-40.87-28.35-28.72,0-47.86,21.72-47.86,61.49s19.15,61.12,47.86,61.12c21.35,0,34.61-9.57,40.87-27.98h55.6c-11.05,43.45-45.29,72.16-96.1,72.16-58.91,0-100.88-41.24-100.88-105.3s41.97-105.3,100.88-105.3Z"/>
</svg>