<?xml version="1.0" encoding="UTF-8"?>
<svg id="_图层_1" data-name="图层 1" xmlns="http://www.w3.org/2000/svg" viewBox="0 0 1329 291.97">
  <defs>
    <style>
      .cls-1 {
        fill: #fff;
      }
    </style>
  </defs>
  <path class="cls-1" d="M.16,0h57.81v288.25H.16V0Z"/>
  <path class="cls-1" d="M212.42,291.97c-66.08,0-116.04-46.25-116.04-118.11s51.62-118.11,117.7-118.11,117.7,45.84,117.7,118.11-52.86,118.11-119.35,118.11ZM212.42,241.59c30.56,0,59.88-22.3,59.88-67.73s-28.49-67.73-59.05-67.73-58.23,21.89-58.23,67.73,26.43,67.73,57.4,67.73Z"/>
  <path class="cls-1" d="M354.89,0h211.44v46.67h-76.81v241.59h-57.82V46.67h-76.81V0Z"/>
  <path class="cls-1" d="M804.62,177.58h-48.32v110.68h-57.81V0h106.13c69.38,0,104.07,39.23,104.07,89.2,0,43.77-29.73,88.38-104.07,88.38ZM802.14,130.91c32.62,0,47.08-16.11,47.08-41.71s-14.45-42.12-47.08-42.12h-45.84v83.83h45.84Z"/>
  <path class="cls-1" d="M1003.25,288.25h-57.81V59.47h57.81v35.52c14.45-23.54,38.41-38.82,70.2-38.82v60.71h-15.28c-34.28,0-54.92,13.21-54.92,57.4v113.98Z"/>
  <path class="cls-1" d="M1209.73,291.97c-66.08,0-116.04-46.25-116.04-118.11s51.62-118.11,117.7-118.11,117.7,45.84,117.7,118.11-52.86,118.11-119.35,118.11ZM1209.73,241.59c30.56,0,59.88-22.3,59.88-67.73s-28.49-67.73-59.05-67.73-58.23,21.89-58.23,67.73,26.43,67.73,57.4,67.73Z"/>
</svg>