<?xml version="1.0" encoding="UTF-8"?>
<svg id="_图层_1" data-name="图层 1" xmlns="http://www.w3.org/2000/svg" viewBox="0 0 1248.5 291.97">
  <defs>
    <style>
      .cls-1 {
        fill: #fff;
      }
    </style>
  </defs>
  <path class="cls-1" d="M107.81,214.8C48.63,214.8.26,170.33.26,107.25S48.63,0,107.81,0s107.25,44.46,107.25,107.25-47.77,107.55-107.25,107.55ZM107.81,177.24c37.85,0,63.99-27.34,63.99-70s-26.14-69.4-63.99-69.4-64.29,26.74-64.29,69.4,26.14,70,64.29,70Z"/>
  <path class="cls-1" d="M314.79,43.56c41.46,0,69.4,21.63,78.41,58.88h-45.36c-4.81-14.12-15.92-23.13-33.35-23.13-23.43,0-39.05,17.72-39.05,50.17s15.62,49.87,39.05,49.87c17.42,0,28.24-7.81,33.35-22.83h45.36c-9.01,35.45-36.95,58.88-78.41,58.88-48.07,0-82.31-33.65-82.31-85.92s34.25-85.92,82.31-85.92Z"/>
  <path class="cls-1" d="M427.73,80.81h-19.83v-34.55h19.83V5.11h42.36v41.16h37.25v34.55h-37.25v80.51c0,11.11,4.51,15.92,17.72,15.92h19.53v35.45h-26.44c-31.84,0-53.17-13.52-53.17-51.67v-80.21Z"/>
  <path class="cls-1" d="M608.58,215.4c-48.07,0-84.42-33.65-84.42-85.92s37.55-85.92,85.62-85.92,85.62,33.34,85.62,85.92-38.45,85.92-86.82,85.92ZM608.58,178.74c22.23,0,43.56-16.22,43.56-49.27s-20.73-49.27-42.96-49.27-42.36,15.92-42.36,49.27,19.23,49.27,41.76,49.27Z"/>
  <path class="cls-1" d="M820.36,43.56c42.66,0,76,33.34,76,85.32s-33.35,86.52-76,86.52c-26.14,0-44.76-12.92-54.98-26.44v103.04h-42.06V46.26h42.06v24.03c9.91-14.12,29.14-26.74,54.98-26.74ZM809.24,80.51c-22.53,0-43.86,17.42-43.86,48.97s21.33,48.97,43.86,48.97,44.16-18.03,44.16-49.57-21.33-48.37-44.16-48.37Z"/>
  <path class="cls-1" d="M1081.11,212.69h-42.36v-21.03c-10.51,14.12-28.84,23.13-49.57,23.13-38.75,0-66.69-25.24-66.69-70.9V46.26h42.06v91.63c0,26.74,14.72,41.16,36.95,41.16s37.25-14.42,37.25-41.16V46.26h42.36v166.43Z"/>
  <path class="cls-1" d="M1183.25,215.4c-41.76,0-70.9-24.33-72.7-55.28h42.36c1.5,12.62,13.22,22.23,30.04,22.23s25.54-7.51,25.54-17.12c0-29.74-94.03-10.81-94.03-71.8,0-27.64,24.63-49.87,65.79-49.87s64.59,21.93,66.99,54.98h-40.26c-1.2-12.92-11.42-21.63-27.94-21.63-15.62,0-23.73,6.31-23.73,15.92,0,30.34,92.23,11.42,93.43,72.4,0,28.54-24.93,50.17-65.49,50.17Z"/>
</svg>