<?xml version="1.0" encoding="UTF-8"?>
<svg id="_图层_1" data-name="图层 1" xmlns="http://www.w3.org/2000/svg" viewBox="0 0 1316 320.5">
  <defs>
    <style>
      .cls-1 {
        fill: #fff;
      }
    </style>
  </defs>
  <path class="cls-1" d="M188.1,222.3c-52.63,0-95.65-39.54-95.65-95.65S135.46,31.28,188.1,31.28s95.38,39.54,95.38,95.38-42.48,95.65-95.38,95.65ZM188.1,188.91c33.66,0,56.91-24.31,56.91-62.25s-23.24-61.71-56.91-61.71-57.17,23.78-57.17,61.71,23.24,62.25,57.17,62.25Z"/>
  <path class="cls-1" d="M372.17,70.02c36.87,0,61.71,19.24,69.73,52.36h-40.34c-4.28-12.56-14.16-20.57-29.66-20.57-20.84,0-34.73,15.76-34.73,44.62s13.89,44.35,34.73,44.35c15.5,0,25.11-6.95,29.66-20.3h40.34c-8.02,31.53-32.86,52.36-69.73,52.36-42.75,0-73.2-29.92-73.2-76.41s30.46-76.41,73.2-76.41Z"/>
  <path class="cls-1" d="M472.62,103.14h-17.63v-30.72h17.63v-36.6h37.67v36.6h33.13v30.72h-33.13v71.6c0,9.89,4.01,14.16,15.76,14.16h17.37v31.53h-23.51c-28.32,0-47.29-12.02-47.29-45.95v-71.33Z"/>
  <path class="cls-1" d="M633.46,222.83c-42.75,0-75.07-29.92-75.07-76.41s33.39-76.41,76.14-76.41,76.14,29.66,76.14,76.41-34.2,76.41-77.21,76.41ZM633.46,190.24c19.77,0,38.74-14.43,38.74-43.82s-18.44-43.82-38.21-43.82-37.67,14.16-37.67,43.82,17.1,43.82,37.13,43.82Z"/>
  <path class="cls-1" d="M821.8,70.02c37.94,0,67.59,29.66,67.59,75.88s-29.66,76.94-67.59,76.94c-23.24,0-39.81-11.49-48.89-23.51v91.64h-37.4V72.42h37.4v21.37c8.82-12.56,25.91-23.78,48.89-23.78ZM811.92,102.88c-20.04,0-39.01,15.5-39.01,43.55s18.97,43.55,39.01,43.55,39.27-16.03,39.27-44.08-18.97-43.01-39.27-43.01Z"/>
  <path class="cls-1" d="M1053.71,220.43h-37.67v-18.7c-9.35,12.56-25.65,20.57-44.08,20.57-34.46,0-59.31-22.44-59.31-63.05v-86.83h37.4v81.49c0,23.78,13.09,36.6,32.86,36.6s33.13-12.82,33.13-36.6v-81.49h37.67v148.01Z"/>
  <path class="cls-1" d="M1144.54,222.83c-37.13,0-63.05-21.64-64.65-49.16h37.67c1.34,11.22,11.76,19.77,26.72,19.77s22.71-6.68,22.71-15.23c0-26.45-83.62-9.62-83.62-63.85,0-24.58,21.91-44.35,58.51-44.35s57.44,19.5,59.58,48.89h-35.8c-1.07-11.49-10.15-19.24-24.85-19.24-13.89,0-21.11,5.61-21.11,14.16,0,26.98,82.02,10.15,83.09,64.39,0,25.38-22.17,44.62-58.24,44.62Z"/>
</svg>