<?xml version="1.0" encoding="UTF-8"?><svg id="_图层_1" xmlns="http://www.w3.org/2000/svg" viewBox="0 0 283.46 141.73"><defs><style>.cls-1{fill:#fff;}</style></defs><path class="cls-1" d="M56.49,26.29c5.81,0,11.16.96,16.07,2.87,4.94,1.88,9.2,4.54,12.78,7.98,3.58,3.41,6.38,7.51,8.4,12.31,2.02,4.8,3.03,10.1,3.03,15.91,0,3.3-.38,6.56-1.15,9.76-.77,3.2-1.9,6.23-3.39,9.08-1.46,2.85-3.27,5.5-5.43,7.93-2.16,2.4-4.63,4.49-7.41,6.26-2.75,1.74-5.79,3.1-9.13,4.07-3.34,1.01-6.94,1.51-10.8,1.51-5.81,0-11.18-.92-16.12-2.77-4.9-1.88-9.15-4.52-12.73-7.93-3.58-3.41-6.38-7.5-8.4-12.26-2.02-4.8-3.03-10.12-3.03-15.96,0-3.3.38-6.56,1.15-9.76.77-3.2,1.88-6.24,3.34-9.13,1.5-2.89,3.3-5.53,5.43-7.93,2.16-2.43,4.61-4.54,7.36-6.31,2.78-1.77,5.84-3.15,9.18-4.12,3.37-1.01,6.99-1.51,10.85-1.51ZM59.47,99.28c3.86,0,7.39-.7,10.59-2.09,3.2-1.39,5.95-3.41,8.24-6.05,2.33-2.64,4.14-5.86,5.43-9.65,1.29-3.83,1.93-8.16,1.93-12.99,0-5.36-.63-10.31-1.88-14.87-1.22-4.59-3.04-8.56-5.48-11.9-2.43-3.37-5.48-6-9.13-7.88-3.62-1.91-7.84-2.87-12.68-2.87-3.86,0-7.39.7-10.59,2.09-3.2,1.36-5.96,3.34-8.3,5.95-2.3,2.61-4.09,5.81-5.37,9.6-1.29,3.79-1.93,8.1-1.93,12.94,0,5.32.61,10.3,1.83,14.92,1.22,4.59,3.04,8.57,5.48,11.95,2.43,3.37,5.48,6.03,9.13,7.98,3.65,1.91,7.9,2.87,12.73,2.87ZM113.41,69.34c0-2.96-.05-5.53-.16-7.72-.07-2.23-.17-4.14-.31-5.74-.1-1.6-.26-2.94-.47-4.02-.17-1.08-.37-1.98-.57-2.71v-.21h12.05v.21c-.28.8-.52,1.77-.73,2.92-.17,1.15-.31,2.63-.42,4.43,1.29-1.08,2.63-2.14,4.02-3.18,1.39-1.04,2.82-1.97,4.28-2.77,1.46-.8,2.94-1.44,4.43-1.93,1.53-.49,3.06-.73,4.59-.73.94,0,1.76.05,2.45.16.7.07,1.32.19,1.88.37.56.14,1.06.31,1.51.52.45.17.89.35,1.3.52l-2.56,9.96-.89-.21c-.42-1.53-1.2-2.75-2.35-3.65-1.15-.94-2.71-1.41-4.7-1.41-1.08,0-2.21.19-3.39.57-1.18.38-2.38.92-3.6,1.62-1.22.66-2.44,1.44-3.65,2.35-1.22.87-2.4,1.79-3.55,2.77-.07,1.01-.1,2.1-.1,3.29v17.22c0,2.96.03,5.55.1,7.77.07,2.19.17,4.09.31,5.69.14,1.6.3,2.94.47,4.02.17,1.08.37,1.98.57,2.71v.21h-12.05v-.21c.21-.73.4-1.63.57-2.71.21-1.08.37-2.42.47-4.02.14-1.6.24-3.5.31-5.69.1-2.23.16-4.82.16-7.77v-12.63ZM202.98,91.25l-3.86,9.29c-.94.42-2.02.8-3.23,1.15-1.22.35-2.49.64-3.81.89-1.29.24-2.59.42-3.91.52-1.32.14-2.57.21-3.76.21-4.21,0-8.1-.61-11.69-1.83-3.55-1.25-6.63-3.06-9.23-5.43-2.57-2.37-4.59-5.27-6.05-8.71-1.46-3.44-2.19-7.37-2.19-11.79,0-3.93.75-7.56,2.24-10.9,1.53-3.37,3.63-6.3,6.31-8.76,2.71-2.47,5.9-4.4,9.55-5.79,3.65-1.39,7.62-2.09,11.89-2.09,1.95,0,4.03.17,6.26.52,2.23.31,4.21.73,5.95,1.25l3.7,8.87-.63.37c-.87-1.08-1.91-2.05-3.13-2.92-1.18-.9-2.5-1.67-3.97-2.3-1.43-.63-2.94-1.11-4.54-1.46-1.6-.35-3.23-.52-4.9-.52-2.71,0-5.18.49-7.41,1.46-2.23.94-4.14,2.31-5.74,4.12-1.6,1.81-2.85,4.03-3.76,6.68-.87,2.61-1.3,5.58-1.3,8.92,0,3.76.42,7.25,1.25,10.49.87,3.23,2.14,6.05,3.81,8.45,1.7,2.37,3.83,4.23,6.37,5.58,2.57,1.32,5.58,1.98,9.03,1.98,1.6,0,3.18-.19,4.75-.57,1.6-.42,3.1-.99,4.49-1.72,1.43-.77,2.73-1.67,3.91-2.71,1.18-1.04,2.17-2.23,2.97-3.55l.63.31ZM213.67,86.97c0-2.75.56-5.13,1.67-7.15,1.15-2.02,2.66-3.74,4.54-5.16,1.88-1.43,4.02-2.57,6.42-3.44,2.4-.9,4.89-1.6,7.46-2.09,2.57-.52,5.11-.87,7.62-1.04,2.5-.21,4.8-.33,6.89-.37v-2.66c0-2.3-.3-4.28-.89-5.95s-1.43-3.04-2.5-4.12c-1.08-1.11-2.38-1.93-3.91-2.45-1.5-.56-3.15-.83-4.96-.83-1.25,0-2.49.1-3.7.31-1.22.21-2.49.56-3.81,1.04-1.29.49-2.66,1.15-4.12,1.98-1.43.83-2.97,1.9-4.64,3.18l-.52-.31,3.55-7.36c1.15-.52,2.28-.94,3.39-1.25,1.11-.35,2.24-.63,3.39-.83,1.15-.21,2.31-.35,3.49-.42,1.22-.1,2.49-.16,3.81-.16,3.65,0,6.76.45,9.34,1.36,2.61.87,4.73,2.09,6.36,3.65,1.67,1.53,2.89,3.34,3.65,5.43.76,2.05,1.15,4.26,1.15,6.63v17.01c0,2.96.03,5.55.1,7.77.1,2.19.21,4.09.31,5.69.14,1.6.3,2.94.47,4.02.21,1.08.42,1.98.63,2.71v.21h-11.53v-.21c.17-.56.3-1.18.37-1.88.1-.7.19-1.53.26-2.5-.73.63-1.6,1.27-2.61,1.93-.97.66-2.1,1.27-3.39,1.83-1.25.52-2.66.94-4.23,1.25-1.53.35-3.22.52-5.06.52-6.05,0-10.73-1.41-14.03-4.23-3.3-2.85-4.96-6.89-4.96-12.1ZM248.26,71.79c-3.17.03-6.21.23-9.13.57-2.92.31-5.51.99-7.77,2.03-2.23,1.04-4.02,2.54-5.37,4.49-1.32,1.91-1.98,4.47-1.98,7.67,0,4.1,1.03,7.23,3.08,9.39,2.05,2.16,4.89,3.23,8.5,3.23,1.67,0,3.18-.23,4.54-.68,1.39-.49,2.61-1.08,3.65-1.77,1.08-.73,1.98-1.51,2.71-2.35.73-.87,1.29-1.7,1.67-2.5.07-1.32.1-2.78.1-4.38v-15.7Z"/><path class="cls-1" d="M72.56,29.16l-.65,1.66h.01s.63-1.66.63-1.66ZM85.34,37.15l-1.23,1.28h0s1.23-1.28,1.23-1.28ZM92.23,84.21l-1.58-.83v.02s1.58.81,1.58.81ZM86.8,92.14l1.32,1.19h0s-1.33-1.19-1.33-1.19ZM79.4,98.4l.95,1.5h0s-.96-1.5-.96-1.5ZM70.27,102.47l-.5-1.71h-.02s.52,1.71.52,1.71ZM43.34,101.21l-.64,1.66h.01s.62-1.66.62-1.66ZM22.22,81.02l-1.64.69h0s1.64-.69,1.64-.69ZM23.68,46.17l-1.58-.82v.02s1.58.8,1.58.8ZM29.1,38.24l-1.33-1.18h0s1.33,1.18,1.33,1.18ZM36.46,31.93l-.96-1.5h0s.97,1.5.97,1.5ZM45.64,27.81l.5,1.71h.01s-.51-1.71-.51-1.71ZM78.3,91.14l-1.34-1.18h0s1.34,1.18,1.34,1.18ZM83.73,81.49l1.69.57h0s-1.69-.57-1.69-.57ZM83.78,53.63l-1.72.46v.02s1.72-.47,1.72-.47ZM78.3,41.74l-1.44,1.04h0s1.44-1.04,1.44-1.04ZM69.17,33.86l-.83,1.57h.02s.81-1.57.81-1.57ZM45.9,33.08l.7,1.64h.01s-.71-1.64-.71-1.64ZM37.61,39.02l-1.33-1.19h0s1.34,1.19,1.34,1.19ZM32.13,76.48l-1.72.45h0s1.72-.45,1.72-.45ZM46.74,96.41l-.84,1.57h.01s.83-1.57.83-1.57ZM56.49,28.08c5.61,0,10.74.92,15.42,2.75l1.29-3.32c-5.13-2-10.71-2.99-16.72-2.99v3.56ZM71.93,30.83c4.73,1.8,8.78,4.33,12.18,7.6l2.47-2.57c-3.77-3.62-8.23-6.41-13.38-8.36l-1.27,3.33ZM84.12,38.44c3.4,3.23,6.06,7.13,7.99,11.71l3.28-1.38c-2.11-5.01-5.04-9.33-8.81-12.91l-2.45,2.58ZM92.1,50.15c1.92,4.56,2.89,9.62,2.89,15.22h3.56c0-6.02-1.05-11.56-3.17-16.6l-3.28,1.38ZM94.99,65.37c0,3.17-.37,6.28-1.1,9.34l3.46.83c.8-3.34,1.2-6.73,1.2-10.17h-3.56ZM93.89,74.71c-.73,3.06-1.81,5.95-3.24,8.67l3.15,1.65c1.57-2.99,2.75-6.15,3.55-9.49l-3.46-.83ZM90.64,83.39c-1.39,2.72-3.12,5.24-5.17,7.56l2.67,2.36c2.25-2.54,4.15-5.31,5.68-8.3l-3.17-1.62ZM85.48,90.95c-2.05,2.28-4.39,4.26-7.04,5.95l1.91,3c2.92-1.86,5.51-4.05,7.78-6.57l-2.65-2.38ZM78.44,96.89c-2.6,1.64-5.49,2.93-8.68,3.86l1,3.42c3.49-1.02,6.69-2.44,9.58-4.27l-1.9-3.01ZM69.75,100.76c-3.16.95-6.58,1.44-10.28,1.44v3.56c4.02,0,7.79-.52,11.31-1.59l-1.03-3.41ZM59.47,102.2c-5.62,0-10.78-.89-15.5-2.65l-1.25,3.34c5.16,1.92,10.74,2.88,16.74,2.88v-3.56ZM43.98,99.55c-4.7-1.8-8.74-4.32-12.14-7.56l-2.45,2.58c3.76,3.58,8.21,6.35,13.32,8.3l1.27-3.33ZM31.84,91.99c-3.4-3.23-6.06-7.11-7.99-11.66l-3.28,1.39c2.11,4.98,5.04,9.27,8.81,12.86l2.45-2.58ZM23.86,80.33c-1.91-4.56-2.89-9.64-2.89-15.27h-3.56c0,6.05,1.05,11.61,3.17,16.65l3.28-1.38ZM20.97,65.06c0-3.17.37-6.28,1.1-9.34l-3.46-.83c-.8,3.34-1.2,6.73-1.2,10.17h3.56ZM22.07,55.72c.73-3.07,1.8-5.98,3.2-8.74l-3.18-1.61c-1.52,3.01-2.69,6.19-3.48,9.52l3.46.83ZM25.26,46.99c1.43-2.76,3.16-5.28,5.18-7.57l-2.67-2.36c-2.22,2.51-4.11,5.28-5.67,8.29l3.16,1.64ZM30.44,39.42c2.05-2.31,4.38-4.31,6.99-6l-1.93-2.99c-2.88,1.86-5.46,4.07-7.72,6.63l2.67,2.36ZM37.42,33.43c2.63-1.68,5.54-2.98,8.72-3.91l-1-3.42c-3.49,1.02-6.71,2.46-9.64,4.33l1.91,3ZM46.15,29.51c3.19-.95,6.64-1.44,10.34-1.44v-3.56c-4.02,0-7.81.52-11.36,1.59l1.02,3.41ZM59.47,101.06c4.08,0,7.85-.74,11.3-2.23l-1.42-3.27c-2.95,1.28-6.24,1.94-9.88,1.94v3.56ZM70.77,98.83c3.44-1.5,6.41-3.67,8.88-6.52l-2.69-2.34c-2.12,2.44-4.65,4.3-7.61,5.59l1.42,3.27ZM79.64,92.32c2.51-2.84,4.42-6.27,5.78-10.26l-3.37-1.14c-1.22,3.6-2.92,6.6-5.08,9.05l2.67,2.36ZM85.41,82.06c1.36-4.04,2.02-8.57,2.02-13.56h-3.56c0,4.68-.62,8.81-1.84,12.42l3.38,1.14ZM87.44,68.5c0-5.49-.64-10.61-1.94-15.34l-3.43.94c1.2,4.38,1.81,9.18,1.81,14.4h3.56ZM85.5,53.18c-1.27-4.77-3.18-8.95-5.76-12.49l-2.88,2.1c2.29,3.14,4.03,6.89,5.2,11.3l3.44-.91ZM79.74,40.7c-2.6-3.6-5.85-6.41-9.76-8.42l-1.63,3.17c3.4,1.75,6.23,4.19,8.5,7.34l2.89-2.08ZM70,32.29c-3.92-2.07-8.44-3.08-13.51-3.08v3.56c4.6,0,8.53.91,11.85,2.66l1.67-3.15ZM56.49,29.21c-4.08,0-7.85.74-11.3,2.23l1.42,3.27c2.95-1.28,6.24-1.94,9.88-1.94v-3.56ZM45.21,31.44c-3.44,1.46-6.42,3.6-8.93,6.4l2.66,2.37c2.16-2.41,4.71-4.24,7.66-5.49l-1.39-3.28ZM36.27,37.85c-2.47,2.81-4.37,6.22-5.72,10.2l3.37,1.14c1.22-3.6,2.91-6.59,5.02-9l-2.67-2.35ZM30.55,48.05c-1.36,4.01-2.02,8.52-2.02,13.51h3.56c0-4.68.62-8.79,1.84-12.37l-3.37-1.14ZM28.52,61.56c0,5.46.62,10.58,1.88,15.37l3.44-.91c-1.17-4.46-1.77-9.28-1.77-14.47h-3.56ZM30.41,76.94c1.27,4.77,3.18,8.96,5.76,12.53l2.89-2.08c-2.29-3.17-4.03-6.95-5.2-11.36l-3.44.91ZM36.16,89.47c2.59,3.59,5.84,6.44,9.74,8.51l1.68-3.14c-3.41-1.82-6.25-4.3-8.52-7.45l-2.89,2.08ZM45.91,97.99c3.95,2.07,8.48,3.07,13.56,3.07v-3.56c-4.6,0-8.55-.91-11.9-2.67l-1.65,3.16ZM113.25,61.62l-1.78.06v.03s1.78-.08,1.78-.08ZM112.94,55.88l-1.78.12v.04s1.78-.15,1.78-.15ZM112.47,51.86l-1.76.28v.05s1.76-.34,1.76-.34ZM111.89,49.15h-1.78v.25l.07.24,1.71-.49ZM111.89,48.94v-1.78h-1.78v1.78h1.78ZM123.95,48.94h1.78v-1.78h-1.78v1.78ZM123.95,49.15l1.68.58.1-.28v-.3h-1.78ZM123.22,52.07l-1.75-.32v.05s1.75.27,1.75.27ZM122.8,56.5l-1.78-.1-.24,4.11,3.16-2.65-1.14-1.36ZM135.53,48.62l-.54-1.7h-.01s.55,1.7.55,1.7ZM142.57,48.05l-.26,1.76h.09s.18-1.76.18-1.76ZM144.45,48.42l-.53,1.7.1.03.43-1.73ZM145.96,48.94l-.75,1.62.11.04.64-1.66ZM147.27,49.46l1.72.44.38-1.49-1.42-.59-.68,1.64ZM144.71,59.42l-.41,1.73,1.7.4.43-1.69-1.72-.44ZM143.82,59.22l-1.72.47.28,1.02,1.03.24.41-1.73ZM141.48,55.56l-1.13,1.38.03.02,1.1-1.4ZM129.79,56.35l.85,1.57.03-.02-.88-1.55ZM126.14,58.69l1.04,1.45.03-.02-1.06-1.43ZM122.59,61.46l-1.15-1.36-.57.49-.05.75,1.78.12ZM122.59,89.74l-1.78.06h0s1.78-.06,1.78-.06ZM123.95,102.15h1.78v-.25l-.07-.24-1.71.49ZM123.95,102.36v1.78h1.78v-1.78h-1.78ZM111.89,102.36h-1.78v1.78h1.78v-1.78ZM111.89,102.15l-1.71-.49-.07.24v.25h1.78ZM112.47,99.44l-1.75-.34v.06s1.75.28,1.75.28ZM112.94,95.42l-1.77-.15v.04s1.77.12,1.77.12ZM113.25,89.74l-1.78-.08v.03l1.78.06ZM115.19,69.34c0-2.98-.05-5.58-.16-7.81l-3.56.17c.1,2.16.15,4.7.15,7.64h3.56ZM115.03,61.56c-.07-2.25-.18-4.19-.32-5.84l-3.55.31c.14,1.56.24,3.44.31,5.64l3.56-.11ZM114.71,55.76c-.11-1.64-.27-3.06-.5-4.24l-3.5.68c.19.98.34,2.24.44,3.79l3.55-.23ZM114.23,51.58c-.18-1.12-.39-2.1-.62-2.92l-3.42.98c.18.64.36,1.47.53,2.51l3.52-.57ZM113.67,49.15v-.21h-3.56v.21h3.56ZM111.89,50.72h12.05v-3.56h-12.05v3.56ZM122.16,48.94v.21h3.56v-.21h-3.56ZM122.26,48.56c-.32.91-.58,1.98-.8,3.19l3.5.64c.2-1.09.42-1.97.66-2.66l-3.36-1.17ZM121.45,51.8c-.19,1.22-.33,2.76-.43,4.6l3.56.21c.1-1.78.24-3.2.4-4.27l-3.52-.53ZM123.94,57.87c1.26-1.06,2.58-2.1,3.94-3.12l-2.14-2.85c-1.42,1.06-2.78,2.14-4.09,3.24l2.29,2.73ZM127.88,54.74c1.33-.99,2.68-1.87,4.06-2.63l-1.71-3.12c-1.54.84-3.04,1.81-4.49,2.9l2.14,2.85ZM131.95,52.12c1.37-.75,2.75-1.35,4.13-1.8l-1.1-3.39c-1.61.52-3.19,1.21-4.74,2.06l1.71,3.12ZM136.07,50.32c1.36-.43,2.71-.65,4.05-.65v-3.56c-1.72,0-3.43.27-5.13.81l1.08,3.39ZM140.12,49.67c.88,0,1.6.05,2.19.14l.53-3.52c-.81-.12-1.72-.18-2.72-.18v3.56ZM142.39,49.82c.6.06,1.1.16,1.52.29l1.06-3.4c-.69-.22-1.44-.36-2.23-.44l-.35,3.54ZM144.02,50.14c.46.12.86.26,1.2.41l1.49-3.23c-.57-.26-1.18-.47-1.83-.63l-.86,3.46ZM145.32,50.6c.44.17.86.34,1.26.5l1.37-3.29c-.43-.18-.88-.36-1.35-.54l-1.28,3.32ZM145.54,49.02l-2.56,9.96,3.45.89,2.56-9.96-3.45-.89ZM145.12,57.69l-.89-.21-.82,3.47.89.21.82-3.47ZM145.54,58.75c-.51-1.87-1.49-3.42-2.96-4.58l-2.2,2.8c.82.65,1.41,1.53,1.73,2.72l3.44-.94ZM142.6,54.18c-1.56-1.28-3.57-1.81-5.82-1.81v3.56c1.71,0,2.83.4,3.57,1.01l2.26-2.76ZM136.78,52.37c-1.29,0-2.61.23-3.94.66l1.1,3.39c1.03-.33,1.98-.49,2.84-.49v-3.56ZM132.84,53.03c-1.31.42-2.62,1.02-3.94,1.77l1.77,3.09c1.12-.64,2.21-1.13,3.26-1.47l-1.1-3.39ZM128.94,54.78c-1.3.7-2.59,1.53-3.86,2.48l2.12,2.86c1.16-.86,2.3-1.59,3.44-2.21l-1.7-3.13ZM125.1,57.24c-1.26.9-2.48,1.85-3.66,2.86l2.3,2.72c1.11-.94,2.25-1.83,3.43-2.67l-2.07-2.9ZM120.81,61.34c-.07,1.06-.11,2.19-.11,3.41h3.56c0-1.15.03-2.2.1-3.16l-3.55-.25ZM120.7,64.75h0v.02h0v.02h0v.02h0v.02h0v.02h0v.02h0v.02h0v.02h0v.02h0v.02h0v.02h0v.02h0v.02h0v.02h0v.02h0v.02h0v.02h0v.02h0v.02h0v.02h0v.02h0v.02h0v.02h0v.02h0v.02h0v.02h0v.02h0v.02h0v.02h0v.02h0v.02h0v.02h0v.02h0v.02h0v.02h0v.02h0v.02h0v.02h0v.02h0v.02h0v.02h0v.02h0v.02h0v.02h0v.02h0v.02h0v.02h0v.02h0v.02h0v.02h0v.02h0v.02h0v.02h0v.02h0v.02h0v.02h0v.02h0v.02h0v.02h0v.02h0v.02h0v.02h0v.02h0v.02h0v.02h0v.02h0v.02h0v.02h0v.02h0v.02h0v.02h0v.02h0v.02h0v.02h0v.02h0v.02h0v.02h0v.02h0v.02h0v.02h0v.02h0v.02h0v.02h0v.02h0v.02h0v.02h0v.02h0v.02h0v.02h0v.02h0v.02h0v.02h0v.02h0v.02h0v.02h0v.02h0v.02h0v.02h0v.02h0v.02h0v.02h0v.02h0v.02h0v.02h0v.02h0v.02h0v.02h0v.02h0v.02h0v.02h0v.02h0v.02h0v.02h0v.02h0v.02h0v.02h0v.02h0v.02h0v.02h0v.02h0v.02h0v.02h0v.02h0v.02h0v.02h0v.02h0v.02h0v.02h0v.02h0v.02h0v.02h0v.02h0v.02h0v.02h0v.02h0v.02h0v.02h0v.02h0v.02h0v.02h0v.02h0v.02h0v.02h0v.02h0v.02h0v.02h0v.02h0v.02h0v.02h0v.02h0v.02h0v.02h0v.02h0v.02h0v.02h0v.02h0v.02h0v.02h0v.02h0v.02h0v.02h0v.02h0v.02h0v.02h0v.02h0v.02h0v.02h0v.02h0v.02h0v.02h0v.02h0v.02h0v.02h0v.02h0v.02h0v.02h0v.02h0v.02h0v.02h0v.02h0v.02h0v.02h0v.02h0v.02h0v.02h0v.02h0v.02h0v.02h0v.02h0v.02h0v.02h0v.02h0v.02h0v.02h0v.02h0s3.56,0,3.56,0h0v-.02h0v-.02h0v-.02h0v-.02h0v-.02h0v-.02h0v-.02h0v-.02h0v-.02h0v-.02h0v-.02h0v-.02h0v-.02h0v-.02h0v-.02h0v-.02h0v-.02h0v-.02h0v-.02h0v-.02h0v-.02h0v-.02h0v-.02h0v-.02h0v-.02h0v-.02h0v-.02h0v-.02h0v-.02h0v-.02h0v-.02h0v-.02h0v-.02h0v-.02h0v-.02h0v-.02h0v-.02h0v-.02h0v-.02h0v-.02h0v-.02h0v-.02h0v-.02h0v-.02h0v-.02h0v-.02h0v-.02h0v-.02h0v-.02h0v-.02h0v-.02h0v-.02h0v-.02h0v-.02h0v-.02h0v-.02h0v-.02h0v-.02h0v-.02h0v-.02h0v-.02h0v-.02h0v-.02h0v-.02h0v-.02h0v-.02h0v-.02h0v-.02h0v-.02h0v-.02h0v-.02h0v-.02h0v-.02h0v-.02h0v-.02h0v-.02h0v-.02h0v-.02h0v-.02h0v-.02h0v-.02h0v-.02h0v-.02h0v-.02h0v-.02h0v-.02h0v-.02h0v-.02h0v-.02h0v-.02h0v-.02h0v-.02h0v-.02h0v-.02h0v-.02h0v-.02h0v-.02h0v-.02h0v-.02h0v-.02h0v-.02h0v-.02h0v-.02h0v-.02h0v-.02h0v-.02h0v-.02h0v-.02h0v-.02h0v-.02h0v-.02h0v-.02h0v-.02h0v-.02h0v-.02h0v-.02h0v-.02h0v-.02h0v-.02h0v-.02h0v-.02h0v-.02h0v-.02h0v-.02h0v-.02h0v-.02h0v-.02h0v-.02h0v-.02h0v-.02h0v-.02h0v-.02h0v-.02h0v-.02h0v-.02h0v-.02h0v-.02h0v-.02h0v-.02h0v-.02h0v-.02h0v-.02h0v-.02h0v-.02h0v-.02h0v-.02h0v-.02h0v-.02h0v-.02h0v-.02h0v-.02h0v-.02h0v-.02h0v-.02h0v-.02h0v-.02h0v-.02h0v-.02h0v-.02h0v-.02h0v-.02h0v-.02h0v-.02h0v-.02h0v-.02h0v-.02h0v-.02h0v-.02h0v-.02h0v-.02h0v-.02h0v-.02h0v-.02h0v-.02h0v-.02h0v-.02h0v-.02h0v-.02h0v-.02h0v-.02h0v-.02h0v-.02h0v-.02h0v-.02h0v-.02h0v-.02h0v-.02h0v-.02h0v-.02h0v-.02h0v-.02h0v-.02h0v-.02h0v-.02h0v-.02h0s-3.56,0-3.56,0ZM120.7,68.5v13.46h3.56v-13.46h-3.56ZM120.7,81.96c0,2.97.03,5.58.11,7.83l3.56-.11c-.07-2.2-.1-4.77-.1-7.72h-3.56ZM120.81,89.79c.07,2.21.18,4.14.32,5.78l3.55-.31c-.14-1.56-.24-3.42-.31-5.59l-3.56.11ZM121.13,95.58c.14,1.63.3,3.01.49,4.15l3.52-.57c-.16-1.02-.32-2.31-.45-3.89l-3.55.31ZM121.61,99.72c.18,1.12.39,2.1.62,2.92l3.42-.98c-.18-.64-.36-1.47-.53-2.51l-3.52.57ZM122.16,102.15v.21h3.56v-.21h-3.56ZM123.95,100.58h-12.05v3.56h12.05v-3.56ZM113.67,102.36v-.21h-3.56v.21h3.56ZM113.61,102.64c.23-.82.44-1.8.62-2.92l-3.52-.57c-.17,1.04-.34,1.87-.53,2.51l3.42.98ZM114.22,99.78c.23-1.18.39-2.6.5-4.24l-3.55-.23c-.1,1.56-.25,2.81-.44,3.79l3.5.68ZM114.71,95.58c.14-1.64.25-3.57.32-5.78l-3.56-.11c-.07,2.17-.17,4.03-.31,5.59l3.55.31ZM115.03,89.82c.11-2.26.16-4.88.16-7.86h-3.56c0,2.94-.05,5.5-.15,7.69l3.56.17ZM115.19,81.96v-12.63h-3.56v12.63h3.56ZM202.98,91.25l1.64.68.64-1.53-1.49-.74-.8,1.59ZM199.12,100.53l.72,1.63.65-.29.27-.66-1.64-.68ZM192.08,102.57l-.32-1.75h0s.33,1.75.33,1.75ZM188.16,103.09l-.14-1.78h-.05s.19,1.78.19,1.78ZM172.72,101.47l-.59,1.68h.02s.57-1.68.57-1.68ZM163.49,96.05l-1.21,1.31h0s1.2-1.31,1.2-1.31ZM157.49,64.64l-1.62-.74h0s1.62.74,1.62.74ZM163.8,55.88l-1.2-1.32h0s1.21,1.32,1.21,1.32ZM191.5,48.52l-.27,1.76h.03s.25-1.76.25-1.76ZM197.45,49.77l1.64-.69-.33-.78-.81-.24-.51,1.71ZM201.15,58.64l.9,1.54,1.35-.79-.6-1.44-1.64.69ZM200.53,59.01l-1.39,1.12.96,1.19,1.32-.77-.9-1.54ZM197.4,56.08l-1.08,1.42.05.03,1.04-1.45ZM193.43,53.79l-.72,1.63h.02s.7-1.63.7-1.63ZM176.58,53.27l.69,1.64h.02s-.71-1.64-.71-1.64ZM167.09,64.07l-1.69-.58h0s1.69.58,1.69.58ZM167.03,83.47l-1.72.44v.02s1.72-.46,1.72-.46ZM170.84,91.93l-1.46,1.02.02.02,1.44-1.04ZM177.21,97.51l-.84,1.57h.03s.81-1.57.81-1.57ZM190.98,98.92l.42,1.73h.03s-.45-1.73-.45-1.73ZM195.47,97.2l.83,1.58h.01s-.84-1.58-.84-1.58ZM202.35,90.94l.8-1.59-1.47-.73-.85,1.41,1.52.92ZM201.34,90.56l-3.86,9.29,3.29,1.37,3.86-9.29-3.29-1.37ZM198.4,98.91c-.85.38-1.85.73-3,1.06l.98,3.42c1.28-.37,2.44-.77,3.47-1.23l-1.45-3.25ZM195.4,99.97c-1.16.33-2.37.61-3.64.85l.64,3.5c1.37-.25,2.7-.56,3.98-.93l-.98-3.42ZM191.75,100.82c-1.22.23-2.46.4-3.72.5l.28,3.55c1.38-.11,2.75-.29,4.1-.55l-.66-3.5ZM187.98,101.32c-1.27.13-2.46.2-3.57.2v3.56c1.25,0,2.57-.07,3.94-.22l-.37-3.54ZM184.41,101.52c-4.04,0-7.73-.58-11.11-1.73l-1.15,3.37c3.79,1.29,7.88,1.92,12.26,1.92v-3.56ZM173.31,99.79c-3.34-1.18-6.21-2.87-8.63-5.07l-2.39,2.64c2.8,2.53,6.08,4.46,9.84,5.79l1.19-3.36ZM164.69,94.74c-2.37-2.18-4.25-4.87-5.62-8.1l-3.28,1.39c1.55,3.66,3.71,6.78,6.49,9.33l2.41-2.62ZM159.07,86.64c-1.35-3.19-2.05-6.87-2.05-11.1h-3.56c0,4.61.76,8.79,2.33,12.49l3.28-1.39ZM157.03,75.54c0-3.7.7-7.08,2.09-10.18l-3.25-1.46c-1.61,3.58-2.4,7.47-2.4,11.63h3.56ZM159.11,65.38c1.43-3.16,3.4-5.89,5.9-8.19l-2.41-2.62c-2.86,2.63-5.1,5.75-6.73,9.34l3.24,1.47ZM165,57.19c2.54-2.31,5.53-4.13,8.98-5.44l-1.27-3.33c-3.85,1.47-7.22,3.51-10.11,6.14l2.4,2.63ZM173.98,51.75c3.43-1.31,7.18-1.97,11.26-1.97v-3.56c-4.47,0-8.66.73-12.53,2.2l1.27,3.33ZM185.24,49.78c1.84,0,3.84.16,5.99.5l.55-3.52c-2.3-.36-4.48-.54-6.54-.54v3.56ZM191.26,50.28c2.16.3,4.05.7,5.68,1.19l1.02-3.41c-1.84-.55-3.92-.99-6.21-1.31l-.5,3.53ZM195.81,50.46l3.7,8.87,3.29-1.37-3.7-8.87-3.29,1.37ZM200.26,57.1l-.63.37,1.8,3.08.63-.37-1.79-3.08ZM201.92,57.89c-.98-1.21-2.14-2.3-3.48-3.25l-2.07,2.9c1.1.78,2.02,1.65,2.78,2.59l2.77-2.24ZM198.48,54.67c-1.31-1-2.76-1.84-4.35-2.52l-1.4,3.27c1.33.57,2.53,1.26,3.58,2.07l2.16-2.83ZM194.15,52.16c-1.54-.68-3.17-1.2-4.88-1.57l-.76,3.48c1.49.32,2.89.78,4.2,1.35l1.43-3.26ZM189.27,50.59c-1.73-.38-3.49-.56-5.28-.56v3.56c1.54,0,3.05.16,4.53.48l.76-3.48ZM183.99,50.03c-2.93,0-5.65.53-8.12,1.61l1.43,3.26c1.98-.86,4.2-1.31,6.69-1.31v-3.56ZM175.89,51.63c-2.47,1.04-4.6,2.57-6.38,4.58l2.67,2.36c1.42-1.61,3.12-2.83,5.1-3.66l-1.38-3.28ZM169.51,56.21c-1.78,2.01-3.14,4.45-4.11,7.28l3.37,1.15c.84-2.46,1.98-4.47,3.4-6.07l-2.67-2.36ZM165.4,63.5c-.94,2.82-1.4,5.99-1.4,9.48h3.56c0-3.19.41-5.97,1.21-8.36l-3.38-1.13ZM164,72.99c0,3.89.43,7.53,1.31,10.93l3.45-.89c-.79-3.07-1.2-6.42-1.2-10.04h-3.56ZM165.32,83.94c.91,3.4,2.26,6.42,4.07,9.01l2.92-2.03c-1.54-2.21-2.73-4.83-3.55-7.9l-3.44.92ZM169.4,92.97c1.86,2.58,4.19,4.63,6.97,6.11l1.68-3.14c-2.3-1.23-4.21-2.91-5.76-5.05l-2.89,2.08ZM176.39,99.09c2.87,1.47,6.17,2.18,9.84,2.18v-3.56c-3.21,0-5.93-.62-8.21-1.79l-1.63,3.17ZM186.23,101.27c1.74,0,3.47-.21,5.17-.62l-.84-3.46c-1.43.35-2.87.52-4.32.52v3.56ZM191.43,100.64c1.72-.45,3.35-1.07,4.87-1.87l-1.66-3.15c-1.27.66-2.63,1.19-4.11,1.58l.9,3.45ZM196.31,98.77c1.54-.83,2.96-1.81,4.25-2.95l-2.36-2.67c-1.08.95-2.27,1.78-3.58,2.48l1.68,3.14ZM200.56,95.82c1.32-1.16,2.42-2.48,3.32-3.96l-3.05-1.84c-.7,1.16-1.58,2.21-2.63,3.13l2.36,2.67ZM201.56,92.53l.63.31,1.59-3.19-.63-.31-1.59,3.19ZM215.34,79.82l-1.55-.88v.02s1.55.86,1.55.86ZM226.3,71.21l.61,1.67h.02s-.63-1.67-.63-1.67ZM233.76,69.13l.33,1.75h.02s-.35-1.75-.35-1.75ZM241.37,68.08l.12,1.78h.02s-.15-1.78-.15-1.78ZM248.26,67.72l.03,1.78,1.75-.03v-1.75h-1.78ZM244.87,54.99l-1.28,1.24.02.02,1.26-1.26ZM240.96,52.54l-.62,1.67.05.02.58-1.69ZM228.49,53.06l-.62-1.67h-.01s.63,1.67.63,1.67ZM224.37,55.04l-.88-1.55h-.02s.9,1.55.9,1.55ZM219.72,58.22l-.92,1.53,1.04.62.96-.74-1.09-1.41ZM219.2,57.91l-1.6-.77-.71,1.46,1.39.84.92-1.53ZM222.75,50.55l-.74-1.62-.59.27-.28.58,1.6.77ZM226.14,49.3l.48,1.71.05-.02-.53-1.7ZM233.03,48.05l.11,1.78h.05s-.15-1.78-.15-1.78ZM246.17,49.25l-.59,1.68h.03s.56-1.68.56-1.68ZM252.54,52.9l-1.23,1.29.03.03,1.2-1.31ZM256.19,58.33l-1.67.61h0s1.67-.61,1.67-.61ZM257.44,89.74l-1.78.06v.03s1.78-.08,1.78-.08ZM257.76,95.42l-1.78.12v.04s1.78-.15,1.78-.15ZM258.23,99.44l-1.76.28v.05s1.76-.34,1.76-.34ZM258.85,102.15h1.78v-.25l-.07-.24-1.71.49ZM258.85,102.36v1.78h1.78v-1.78h-1.78ZM247.32,102.36h-1.78v1.78h1.78v-1.78ZM247.32,102.15l-1.7-.53-.08.26v.27h1.78ZM247.69,100.27l-1.76-.26v.09s1.76.18,1.76.18ZM247.95,97.77l1.78.13.3-4.26-3.24,2.78,1.16,1.35ZM245.34,99.7l-.98-1.49-.02.02,1,1.47ZM241.95,101.53l.68,1.64h.02s-.71-1.64-.71-1.64ZM237.72,102.78l-.35-1.75h-.04s.39,1.75.39,1.75ZM218.63,99.07l-1.16,1.35h0s1.16-1.35,1.16-1.35ZM248.26,71.79h1.78v-1.8l-1.8.02.02,1.78ZM239.13,72.36l.19,1.77h.02s-.21-1.77-.21-1.77ZM231.36,74.4l-.75-1.62h0s.76,1.62.76,1.62ZM225.98,78.88l-1.46-1.02h0s1.46,1.02,1.46,1.02ZM240.12,98.5l.56,1.69h.02s-.59-1.69-.59-1.69ZM243.77,96.73l.99,1.48h.01s-1-1.48-1-1.48ZM246.49,94.38l1.34,1.17.02-.03-1.36-1.15ZM248.16,91.87l1.61.77.15-.32.02-.35-1.78-.09ZM215.45,86.97c0-2.5.51-4.58,1.45-6.29l-3.12-1.72c-1.28,2.33-1.89,5.02-1.89,8.01h3.56ZM216.89,80.7c1.03-1.8,2.38-3.34,4.07-4.63l-2.15-2.84c-2.07,1.57-3.74,3.47-5.01,5.7l3.09,1.76ZM220.96,76.08c1.72-1.31,3.7-2.37,5.95-3.19l-1.21-3.35c-2.56.93-4.86,2.16-6.89,3.7l2.15,2.84ZM226.93,72.88c2.3-.87,4.69-1.54,7.16-2l-.66-3.5c-2.67.51-5.26,1.23-7.76,2.17l1.26,3.33ZM234.11,70.87c2.5-.51,4.96-.84,7.39-1.01l-.25-3.55c-2.58.18-5.2.54-7.85,1.07l.71,3.49ZM241.52,69.86c2.47-.21,4.73-.33,6.77-.36l-.06-3.56c-2.13.04-4.47.16-7,.37l.3,3.55ZM250.04,67.72v-2.66h-3.56v2.66h3.56ZM250.04,65.06c0-2.44-.31-4.63-.99-6.54l-3.36,1.19c.51,1.43.79,3.2.79,5.35h3.56ZM249.05,58.52c-.67-1.88-1.63-3.49-2.92-4.79l-2.52,2.52c.86.86,1.57,2,2.08,3.46l3.36-1.19ZM246.15,53.75c-1.28-1.32-2.83-2.29-4.62-2.9l-1.15,3.37c1.28.43,2.34,1.1,3.21,2.01l2.56-2.48ZM241.58,50.87c-1.72-.64-3.58-.95-5.58-.95v3.56c1.62,0,3.06.25,4.34.72l1.24-3.34ZM236,49.92c-1.35,0-2.69.11-4,.34l.6,3.51c1.12-.19,2.25-.29,3.4-.29v-3.56ZM232,50.26c-1.34.23-2.71.61-4.12,1.13l1.23,3.34c1.23-.45,2.4-.77,3.49-.96l-.6-3.51ZM227.86,51.39c-1.39.53-2.85,1.23-4.37,2.1l1.77,3.09c1.4-.8,2.69-1.42,3.87-1.86l-1.26-3.33ZM223.47,53.5c-1.51.88-3.12,1.99-4.83,3.31l2.17,2.82c1.62-1.25,3.11-2.27,4.46-3.06l-1.8-3.07ZM220.64,56.7l-.52-.31-1.83,3.05.52.31,1.83-3.05ZM220.81,58.68l3.55-7.36-3.21-1.55-3.55,7.36,3.21,1.55ZM223.49,52.18c1.07-.49,2.12-.87,3.14-1.16l-.96-3.43c-1.21.34-2.42.79-3.65,1.35l1.47,3.24ZM226.67,51c1.04-.33,2.1-.59,3.18-.78l-.64-3.5c-1.22.22-2.42.52-3.6.89l1.06,3.4ZM229.85,50.22c1.08-.2,2.17-.33,3.28-.39l-.21-3.56c-1.25.07-2.49.22-3.71.44l.64,3.5ZM233.18,49.82c1.16-.1,2.38-.15,3.66-.15v-3.56c-1.37,0-2.69.05-3.96.16l.3,3.55ZM236.84,49.67c3.51,0,6.42.44,8.75,1.26l1.18-3.36c-2.82-.99-6.14-1.46-9.93-1.46v3.56ZM245.61,50.94c2.41.8,4.29,1.9,5.7,3.25l2.46-2.57c-1.86-1.78-4.23-3.12-7.03-4.06l-1.13,3.38ZM251.34,54.22c1.46,1.34,2.52,2.91,3.18,4.73l3.34-1.23c-.87-2.36-2.25-4.41-4.12-6.13l-2.41,2.63ZM254.52,58.95c.69,1.84,1.04,3.83,1.04,6h3.56c0-2.56-.41-4.98-1.26-7.25l-3.34,1.24ZM255.56,64.95v17.01h3.56v-17.01h-3.56ZM255.56,81.96c0,2.97.03,5.58.11,7.83l3.56-.11c-.07-2.2-.1-4.77-.1-7.72h-3.56ZM255.67,89.82c.1,2.2.21,4.1.31,5.72l3.55-.23c-.1-1.59-.21-3.47-.31-5.66l-3.56.17ZM255.98,95.58c.14,1.63.3,3.01.49,4.15l3.52-.57c-.16-1.02-.32-2.31-.45-3.89l-3.55.31ZM256.48,99.78c.21,1.11.43,2.07.66,2.86l3.42-.98c-.19-.66-.39-1.51-.59-2.56l-3.5.68ZM257.07,102.15v.21h3.56v-.21h-3.56ZM258.85,100.58h-11.53v3.56h11.53v-3.56ZM249.1,102.36v-.21h-3.56v.21h3.56ZM249.02,102.68c.22-.69.36-1.44.44-2.23l-3.54-.35c-.06.6-.16,1.1-.29,1.52l3.4,1.06ZM249.45,100.54c.11-.75.2-1.64.28-2.64l-3.55-.25c-.07.94-.15,1.73-.25,2.37l3.52.53ZM246.79,96.42c-.66.57-1.47,1.16-2.43,1.79l1.95,2.98c1.06-.69,1.99-1.38,2.79-2.07l-2.32-2.7ZM244.34,98.23c-.87.59-1.9,1.14-3.1,1.67l1.41,3.27c1.37-.59,2.6-1.25,3.68-1.99l-2-2.95ZM241.26,99.88c-1.13.47-2.42.86-3.89,1.15l.7,3.49c1.66-.33,3.18-.78,4.56-1.35l-1.37-3.29ZM237.33,101.04c-1.38.31-2.93.48-4.67.48v3.56c1.95,0,3.78-.18,5.46-.57l-.79-3.47ZM232.66,101.52c-5.79,0-10-1.35-12.88-3.8l-2.31,2.71c3.73,3.18,8.88,4.65,15.19,4.65v-3.56ZM219.79,97.73c-2.84-2.45-4.34-5.95-4.34-10.76h-3.56c0,5.62,1.8,10.2,5.57,13.45l2.33-2.7ZM248.24,70.01c-3.22.04-6.33.23-9.32.59l.42,3.54c2.85-.34,5.83-.53,8.94-.56l-.04-3.56ZM238.94,70.59c-3.08.33-5.87,1.05-8.33,2.19l1.49,3.23c2.06-.95,4.45-1.58,7.22-1.88l-.38-3.54ZM230.6,72.78c-2.5,1.17-4.54,2.87-6.08,5.08l2.92,2.04c1.17-1.68,2.72-2.98,4.67-3.89l-1.51-3.22ZM224.52,77.87c-1.59,2.3-2.3,5.25-2.3,8.68h3.56c0-2.97.61-5.13,1.67-6.66l-2.93-2.02ZM222.22,86.55c0,4.39,1.1,8.02,3.57,10.62l2.58-2.46c-1.63-1.72-2.59-4.34-2.59-8.16h-3.56ZM225.79,97.17c2.46,2.58,5.8,3.79,9.79,3.79v-3.56c-3.24,0-5.57-.95-7.21-2.68l-2.58,2.46ZM235.58,100.96c1.83,0,3.54-.25,5.1-.77l-1.13-3.38c-1.15.38-2.47.59-3.98.59v3.56ZM240.71,100.18c1.51-.53,2.86-1.18,4.05-1.97l-1.98-2.96c-.9.6-1.98,1.13-3.25,1.57l1.18,3.36ZM244.77,98.2c1.18-.8,2.21-1.68,3.05-2.65l-2.68-2.35c-.61.7-1.4,1.39-2.37,2.05l2,2.95ZM247.85,95.52c.8-.95,1.45-1.91,1.91-2.88l-3.21-1.54c-.3.63-.77,1.34-1.43,2.13l2.73,2.29ZM249.94,91.97c.07-1.36.11-2.85.11-4.48h-3.56c0,1.57-.03,3-.1,4.29l3.56.19ZM250.04,87.49h0v-.02h0v-.02h0v-.02h0v-.02h0v-.02h0v-.02h0v-.02h0v-.02h0v-.02h0v-.02h0v-.02h0v-.02h0v-.02h0v-.02h0v-.02h0v-.02h0v-.02h0v-.02h0v-.02h0v-.02h0v-.02h0v-.02h0v-.02h0v-.02h0v-.02h0v-.02h0v-.02h0v-.02h0v-.02h0v-.02h0v-.02h0v-.02h0v-.02h0v-.02h0v-.02h0v-.02h0v-.02h0v-.02h0v-.02h0v-.02h0v-.02h0v-.02h0v-.02h0v-.02h0v-.02h0v-.02h0v-.02h0v-.02h0v-.02h0v-.02h0v-.02h0v-.02h0v-.02h0v-.02h0v-.02h0v-.02h0v-.02h0v-.02h0v-.02h0v-.02h0v-.02h0v-.02h0v-.02h0v-.02h0v-.02h0v-.02h0v-.02h0v-.02h0v-.02h0v-.02h0v-.02h0v-.02h0v-.02h0v-.02h0v-.02h0v-.02h0v-.02h0v-.02h0v-.02h0v-.02h0v-.02h0v-.02h0v-.02h0v-.02h0v-.02h0v-.02h0v-.02h0v-.02h0v-.02h0v-.02h0v-.02h0v-.02h0v-.02h0v-.02h0v-.02h0v-.02h0v-.02h0v-.02h0v-.02h0v-.02h0v-.02h0v-.02h0v-.02h0v-.02h0v-.02h0v-.02h0v-.02h0v-.02h0v-.02h0v-.02h0v-.02h0v-.02h0v-.02h0v-.02h0v-.02h0v-.02h0v-.02h0v-.02h0v-.02h0v-.02h0v-.02h0v-.02h0v-.02h0v-.02h0v-.02h0v-.02h0v-.02h0v-.02h0v-.02h0v-.02h0v-.02h0v-.02h0v-.02h0v-.02h0v-.02h0v-.02h0v-.02h0v-.02h0v-.02h0v-.02h0v-.02h0v-.02h0v-.02h0v-.02h0v-.02h0v-.02h0v-.02h0v-.02h0v-.02h0v-.02h0v-.02h0v-.02h0v-.02h0v-.02h0v-.02h0v-.02h0v-.02h0v-.02h0v-.02h0v-.02h0v-.02h0v-.02h0v-.02h0v-.02h0v-.02h0v-.02h0v-.02h0v-.02h0v-.02h0v-.02h0v-.02h0v-.02h0v-.02h0v-.02h0v-.02h0v-.02h0v-.02h0v-.02h0v-.02h0v-.02h0v-.02h0v-.02h0v-.02h0v-.02h0v-.02h0v-.02h0v-.02h0v-.02h0v-.02h0v-.02h0v-.02h0v-.02h0v-.02h0v-.02h0v-.02h0v-.02h0v-.02h0v-.02h0v-.02h0v-.02h0v-.02h0v-.02h0v-.02h0v-.02h0v-.02h0v-.02h0v-.02h0v-.02h0v-.02h0v-.02h0v-.02h0v-.02h0v-.02h0v-.02h0v-.02h0v-.02h0v-.02h0v-.02h0v-.02h0v-.02h0v-.02h0v-.02h0v-.02h0v-.02h0v-.02h0v-.02h0v-.02h0v-.02h0v-.02h0v-.02h0v-.02h0v-.02h0v-.02h0v-.02h0v-.02h0v-.02h0v-.02h0v-.02h0v-.02h0v-.02h0v-.02h0v-.02h0v-.02h0v-.02h0v-.02h0v-.02h0v-.02h0v-.02h0v-.02h0v-.02h0v-.02h0v-.02h0v-.02h0v-.02h0v-.02h0v-.02h-3.56v.02h0v.02h0v.02h0v.02h0v.02h0v.02h0v.02h0v.02h0v.02h0v.02h0v.02h0v.02h0v.02h0v.02h0v.02h0v.02h0v.02h0v.02h0v.02h0v.02h0v.02h0v.02h0v.02h0v.02h0v.02h0v.02h0v.02h0v.02h0v.02h0v.02h0v.02h0v.02h0v.02h0v.02h0v.02h0v.02h0v.02h0v.02h0v.02h0v.02h0v.02h0v.02h0v.02h0v.02h0v.02h0v.02h0v.02h0v.02h0v.02h0v.02h0v.02h0v.02h0v.02h0v.02h0v.02h0v.02h0v.02h0v.02h0v.02h0v.02h0v.02h0v.02h0v.02h0v.02h0v.02h0v.02h0v.02h0v.02h0v.02h0v.02h0v.02h0v.02h0v.02h0v.02h0v.02h0v.02h0v.02h0v.02h0v.02h0v.02h0v.02h0v.02h0v.02h0v.02h0v.02h0v.02h0v.02h0v.02h0v.02h0v.02h0v.02h0v.02h0v.02h0v.02h0v.02h0v.02h0v.02h0v.02h0v.02h0v.02h0v.02h0v.02h0v.02h0v.02h0v.02h0v.02h0v.02h0v.02h0v.02h0v.02h0v.02h0v.02h0v.02h0v.02h0v.02h0v.02h0v.02h0v.02h0v.02h0v.02h0v.02h0v.02h0v.02h0v.02h0v.02h0v.02h0v.02h0v.02h0v.02h0v.02h0v.02h0v.02h0v.02h0v.02h0v.02h0v.02h0v.02h0v.02h0v.02h0v.02h0v.02h0v.02h0v.02h0v.02h0v.02h0v.02h0v.02h0v.02h0v.02h0v.02h0v.02h0v.02h0v.02h0v.02h0v.02h0v.02h0v.02h0v.02h0v.02h0v.02h0v.02h0v.02h0v.02h0v.02h0v.02h0v.02h0v.02h0v.02h0v.02h0v.02h0v.02h0v.02h0v.02h0v.02h0v.02h0v.02h0v.02h0v.02h0v.02h0v.02h0v.02h0v.02h0v.02h0v.02h0v.02h0v.02h0v.02h0v.02h0v.02h0v.02h0v.02h0v.02h0v.02h0v.02h0v.02h0v.02h0v.02h0v.02h0v.02h0v.02h0v.02h0v.02h0v.02h0v.02h0v.02h0v.02h0v.02h0v.02h0v.02h0v.02h0v.02h0v.02h0v.02h0v.02h0v.02h0v.02h0v.02h0v.02h0v.02h0v.02h0v.02h0v.02h0v.02h0v.02h0v.02h0v.02h0v.02h0v.02h0v.02h0v.02h0v.02h0v.02h0v.02h0v.02h0v.02h0v.02h0v.02h0v.02h0v.02h0v.02h0v.02h0v.02h0v.02h0v.02h0v.02h0v.02h0v.02h0v.02h0v.02h0v.02h0v.02h0v.02h0v.02h0v.02h0v.02h0v.02h3.56ZM250.04,81.96v-10.17h-3.56v10.17h3.56Z"/></svg>