<?xml version="1.0" encoding="UTF-8"?>
<svg id="_图层_1" xmlns="http://www.w3.org/2000/svg" version="1.1" viewBox="0 0 874.1 292">
  <!-- Generator: Adobe Illustrator 29.7.1, SVG Export Plug-In . SVG Version: 2.1.1 Build 8)  -->
  <defs>
    <style>
      .st0 {
        fill: #fff;
      }
    </style>
  </defs>
  <path class="st0" d="M140.5,6.4c20.9,0,40.1,3.4,57.7,10.3,17.7,6.7,33.1,16.3,45.9,28.7,12.9,12.2,22.9,27,30.2,44.2,7.2,17.2,10.9,36.3,10.9,57.2s-1.4,23.6-4.1,35.1c-2.7,11.5-6.8,22.4-12.2,32.6-5.2,10.2-11.7,19.7-19.5,28.5-7.7,8.6-16.6,16.1-26.6,22.5-9.9,6.2-20.8,11.1-32.8,14.6-12,3.6-24.9,5.4-38.8,5.4-20.9,0-40.2-3.3-57.9-9.9-17.6-6.7-32.9-16.2-45.7-28.5-12.9-12.2-22.9-26.9-30.2-44.1-7.2-17.2-10.9-36.4-10.9-57.4s1.4-23.6,4.1-35.1c2.7-11.5,6.7-22.4,12-32.8,5.4-10.4,11.9-19.9,19.5-28.5,7.7-8.7,16.6-16.3,26.4-22.7,10-6.4,21-11.3,33-14.8,12.1-3.6,25.1-5.4,39-5.4ZM151.1,268.7c13.9,0,26.6-2.5,38.1-7.5,11.5-5,21.4-12.2,29.6-21.7,8.4-9.5,14.9-21.1,19.5-34.7,4.6-13.7,6.9-29.3,6.9-46.7s-2.2-37.1-6.7-53.4c-4.4-16.5-10.9-30.7-19.7-42.7-8.7-12.1-19.7-21.6-32.8-28.3-13-6.9-28.2-10.3-45.6-10.3s-26.6,2.5-38.1,7.5c-11.5,4.9-21.4,12-29.8,21.4-8.2,9.4-14.7,20.9-19.3,34.5-4.6,13.6-6.9,29.1-6.9,46.5s2.2,37,6.6,53.6c4.4,16.5,10.9,30.8,19.7,42.9,8.7,12.1,19.7,21.7,32.8,28.7,13.1,6.9,28.4,10.3,45.7,10.3ZM345,161.1c0-10.6-.2-19.9-.6-27.7-.3-8-.6-14.9-1.1-20.6-.4-5.7-.9-10.6-1.7-14.4-.6-3.9-1.3-7.1-2.1-9.7v-.8h43.3v.8c-1,2.9-1.9,6.4-2.6,10.5-.6,4.1-1.1,9.4-1.5,15.9,4.6-3.9,9.4-7.7,14.4-11.4,5-3.7,10.1-7.1,15.4-9.9,5.2-2.9,10.6-5.2,15.9-6.9,5.5-1.7,11-2.6,16.5-2.6s6.3.2,8.8.6c2.5.2,4.8.7,6.8,1.3,2,.5,3.8,1.1,5.4,1.9,1.6.6,3.2,1.2,4.7,1.9l-9.2,35.8-3.2-.7c-1.5-5.5-4.3-9.9-8.4-13.1-4.1-3.4-9.7-5.1-16.9-5.1s-7.9.7-12.2,2.1c-4.2,1.4-8.6,3.3-12.9,5.8-4.4,2.4-8.8,5.2-13.1,8.4-4.4,3.1-8.6,6.4-12.7,9.9-.2,3.6-.4,7.6-.4,11.8v61.9c0,10.6.1,19.9.4,27.9.2,7.9.6,14.7,1.1,20.4.5,5.7,1.1,10.6,1.7,14.4.6,3.9,1.3,7.1,2.1,9.7v.8h-43.3v-.8c.7-2.6,1.4-5.9,2.1-9.7.7-3.9,1.3-8.7,1.7-14.4.5-5.7.9-12.6,1.1-20.4.4-8,.6-17.3.6-27.9v-45.4ZM666.9,239.8l-13.9,33.4c-3.4,1.5-7.2,2.9-11.6,4.1-4.4,1.2-8.9,2.3-13.7,3.2-4.6.9-9.3,1.5-14.1,1.9-4.7.5-9.2.8-13.5.8-15.1,0-29.1-2.2-42-6.6-12.8-4.5-23.8-11-33.2-19.5-9.3-8.5-16.5-18.9-21.7-31.3-5.3-12.4-7.9-26.5-7.9-42.4s2.7-27.2,8.1-39.2c5.5-12.1,13.1-22.6,22.7-31.5,9.7-8.9,21.2-15.8,34.3-20.8,13.1-5,27.4-7.5,42.7-7.5s14.5.6,22.5,1.9c8,1.1,15.1,2.6,21.4,4.5l13.3,31.9-2.2,1.3c-3.1-3.9-6.9-7.4-11.2-10.5-4.3-3.2-9-6-14.3-8.2-5.1-2.2-10.6-4-16.3-5.2-5.8-1.2-11.6-1.9-17.6-1.9-9.7,0-18.6,1.7-26.6,5.2-8,3.4-14.9,8.3-20.6,14.8-5.7,6.5-10.2,14.5-13.5,24-3.1,9.4-4.7,20.1-4.7,32.1s1.5,26.1,4.5,37.7c3.1,11.6,7.7,21.7,13.7,30.4,6.1,8.5,13.7,15.2,22.9,20.1,9.2,4.7,20.1,7.1,32.4,7.1s11.4-.7,17.1-2.1c5.7-1.5,11.1-3.6,16.1-6.2,5.1-2.7,9.8-6,14.1-9.7,4.2-3.7,7.8-8,10.7-12.7l2.2,1.1ZM705.3,224.4c0-9.9,2-18.4,6-25.7,4.1-7.2,9.6-13.4,16.3-18.6,6.7-5.1,14.4-9.2,23.1-12.4,8.6-3.2,17.6-5.7,26.8-7.5,9.2-1.9,18.4-3.1,27.4-3.7,9-.8,17.3-1.2,24.8-1.3v-9.6c0-8.2-1.1-15.4-3.2-21.4-2.1-6-5.1-10.9-9-14.8-3.9-4-8.6-6.9-14.1-8.8-5.4-2-11.3-3-17.8-3s-8.9.4-13.3,1.1c-4.4.8-8.9,2-13.7,3.7-4.6,1.7-9.6,4.1-14.8,7.1-5.1,3-10.7,6.8-16.7,11.4l-1.9-1.1,12.7-26.4c4.1-1.9,8.2-3.4,12.2-4.5,4-1.3,8.1-2.3,12.2-3,4.1-.8,8.3-1.3,12.6-1.5,4.4-.4,8.9-.6,13.7-.6,13.1,0,24.3,1.6,33.6,4.9,9.4,3.1,17,7.5,22.9,13.1,6,5.5,10.4,12,13.1,19.5,2.7,7.4,4.1,15.3,4.1,23.8v61.1c0,10.6.1,19.9.4,27.9.4,7.9.8,14.7,1.1,20.4.5,5.7,1.1,10.6,1.7,14.4.8,3.9,1.5,7.1,2.2,9.7v.8h-41.4v-.8c.6-2,1.1-4.2,1.3-6.7.4-2.5.7-5.5.9-9-2.6,2.2-5.7,4.6-9.4,6.9-3.5,2.4-7.6,4.6-12.2,6.6-4.5,1.9-9.6,3.4-15.2,4.5-5.5,1.2-11.6,1.9-18.2,1.9-21.7,0-38.6-5.1-50.4-15.2-11.9-10.2-17.8-24.7-17.8-43.5ZM829.6,169.9c-11.4.1-22.3.8-32.8,2.1-10.5,1.1-19.8,3.6-27.9,7.3-8,3.7-14.4,9.1-19.3,16.1-4.7,6.9-7.1,16.1-7.1,27.6s3.7,26,11.1,33.7c7.4,7.7,17.6,11.6,30.6,11.6s11.4-.8,16.3-2.4c5-1.7,9.4-3.9,13.1-6.4,3.9-2.6,7.1-5.4,9.7-8.4,2.6-3.1,4.6-6.1,6-9,.2-4.7.4-10,.4-15.7v-56.4Z"/>
  <path class="st0" d="M198.2,16.7l-2.3,6h0s2.3-6,2.3-6ZM244.1,45.4l-4.4,4.6h0s4.4-4.6,4.4-4.6ZM268.9,214.5l-5.7-3h0c0,0,5.7,3,5.7,3ZM249.4,243l4.8,4.3h0s-4.8-4.3-4.8-4.3ZM222.8,265.5l3.4,5.4h0s-3.4-5.4-3.4-5.4ZM189.9,280.1l-1.8-6.1h0s1.9,6.1,1.9,6.1ZM93.2,275.6l-2.3,6h0s2.2-6,2.2-6ZM17.3,203.1l-5.9,2.5h0s5.9-2.5,5.9-2.5ZM22.5,77.8l-5.7-2.9h0c0,0,5.7,2.9,5.7,2.9ZM42,49.3l-4.8-4.2h0s4.8,4.2,4.8,4.2ZM68.5,26.6l-3.4-5.4h0s3.5,5.4,3.5,5.4ZM101.5,11.8l1.8,6.1h0s-1.8-6.1-1.8-6.1ZM218.8,239.4l-4.8-4.2h0s4.8,4.2,4.8,4.2ZM238.3,204.8l6.1,2.1h0s-6.1-2.1-6.1-2.1ZM238.5,104.6l-6.2,1.6h0c0,0,6.2-1.6,6.2-1.6ZM218.8,61.9l-5.2,3.7h0s5.2-3.7,5.2-3.7ZM186,33.6l-3,5.7h0s2.9-5.7,2.9-5.7ZM102.4,30.8l2.5,5.9h0s-2.6-5.9-2.6-5.9ZM72.6,52.1l-4.8-4.3h0s4.8,4.3,4.8,4.3ZM52.9,186.8l-6.2,1.6h0s6.2-1.6,6.2-1.6ZM105.4,258.4l-3,5.6h0s3-5.6,3-5.6ZM140.5,12.8c20.2,0,38.6,3.3,55.4,9.9l4.7-11.9C182.1,3.6,162,0,140.5,0v12.8ZM195.9,22.7c17,6.5,31.6,15.6,43.8,27.3l8.9-9.2c-13.5-13-29.6-23-48.1-30.1l-4.5,12ZM239.7,50c12.2,11.6,21.8,25.6,28.7,42.1l11.8-5c-7.6-18-18.1-33.5-31.7-46.4l-8.8,9.3ZM268.4,92.1c6.9,16.4,10.4,34.6,10.4,54.7h12.8c0-21.6-3.8-41.5-11.4-59.7l-11.8,5ZM278.8,146.8c0,11.4-1.3,22.6-3.9,33.6l12.4,3c2.9-12,4.3-24.2,4.3-36.5h-12.8ZM274.8,180.4c-2.6,11-6.5,21.4-11.6,31.1l11.3,5.9c5.6-10.7,9.9-22.1,12.7-34.1l-12.4-3ZM263.2,211.6c-5,9.8-11.2,18.8-18.6,27.2l9.6,8.5c8.1-9.1,14.9-19.1,20.4-29.8l-11.4-5.8ZM244.6,238.7c-7.4,8.2-15.8,15.3-25.3,21.4l6.9,10.8c10.5-6.7,19.8-14.6,27.9-23.6l-9.5-8.6ZM219.3,260.1c-9.3,5.9-19.7,10.5-31.2,13.9l3.6,12.3c12.5-3.7,24-8.8,34.4-15.4l-6.8-10.8ZM188.1,274c-11.3,3.4-23.6,5.2-37,5.2v12.8c14.4,0,28-1.9,40.7-5.7l-3.7-12.3ZM151.1,279.2c-20.2,0-38.7-3.2-55.7-9.5l-4.5,12c18.5,6.9,38.6,10.3,60.2,10.3v-12.8ZM95.5,269.7c-16.9-6.5-31.4-15.5-43.6-27.2l-8.8,9.3c13.5,12.9,29.5,22.8,47.9,29.8l4.6-12ZM51.9,242.5c-12.2-11.6-21.8-25.6-28.7-41.9l-11.8,5c7.6,17.9,18.1,33.3,31.7,46.2l8.8-9.3ZM23.2,200.6c-6.9-16.4-10.4-34.6-10.4-54.9H0C0,167.4,3.8,187.4,11.4,205.6l11.8-5ZM12.8,145.7c0-11.4,1.3-22.6,3.9-33.6l-12.4-3C1.4,121.1,0,133.3,0,145.7h12.8ZM16.7,112.1c2.6-11,6.5-21.5,11.5-31.4l-11.4-5.8c-5.5,10.8-9.6,22.2-12.5,34.2l12.4,3ZM28.2,80.8c5.1-9.9,11.3-19,18.6-27.2l-9.6-8.5c-8,9-14.8,19-20.4,29.8l11.4,5.9ZM46.8,53.6c7.4-8.3,15.7-15.5,25.1-21.6l-6.9-10.8c-10.4,6.7-19.6,14.6-27.8,23.8l9.6,8.5ZM71.9,32c9.5-6,19.9-10.7,31.3-14.1l-3.6-12.3c-12.5,3.7-24.1,8.8-34.6,15.6l6.9,10.8ZM103.3,18c11.5-3.4,23.9-5.2,37.2-5.2V0c-14.4,0-28.1,1.9-40.8,5.7l3.7,12.3ZM151.1,275.1c14.7,0,28.2-2.6,40.6-8l-5.1-11.7c-10.6,4.6-22.4,7-35.5,7v12.8ZM191.8,267.1c12.4-5.4,23-13.2,31.9-23.4l-9.7-8.4c-7.6,8.8-16.7,15.5-27.3,20.1l5.1,11.7ZM223.6,243.7c9-10.2,15.9-22.5,20.8-36.9l-12.1-4.1c-4.4,12.9-10.5,23.7-18.2,32.5l9.6,8.5ZM244.4,206.8c4.9-14.5,7.3-30.8,7.3-48.7h-12.8c0,16.8-2.2,31.7-6.6,44.6l12.1,4.1ZM251.7,158.1c0-19.7-2.3-38.1-7-55.1l-12.3,3.4c4.3,15.8,6.5,33,6.5,51.7h12.8ZM244.7,103c-4.5-17.2-11.4-32.1-20.7-44.9l-10.3,7.5c8.2,11.3,14.5,24.8,18.7,40.6l12.4-3.3ZM224,58.2c-9.3-12.9-21-23-35.1-30.3l-5.9,11.4c12.2,6.3,22.4,15,30.5,26.4l10.4-7.5ZM189,27.9c-14.1-7.4-30.3-11.1-48.6-11.1v12.8c16.5,0,30.6,3.3,42.6,9.6l6-11.3ZM140.5,16.9c-14.7,0-28.2,2.6-40.6,8l5.1,11.7c10.6-4.6,22.4-7,35.5-7v-12.8ZM99.9,24.9c-12.4,5.2-23.1,12.9-32.1,23l9.5,8.5c7.7-8.7,16.9-15.2,27.5-19.7l-5-11.8ZM67.8,47.9c-8.9,10.1-15.7,22.4-20.6,36.7l12.1,4.1c4.4-12.9,10.4-23.7,18.1-32.3l-9.6-8.5ZM47.2,84.6c-4.9,14.4-7.3,30.6-7.3,48.6h12.8c0-16.8,2.2-31.6,6.6-44.4l-12.1-4.1ZM39.9,133.1c0,19.6,2.2,38,6.8,55.3l12.4-3.3c-4.2-16-6.4-33.4-6.4-52h-12.8ZM46.7,188.4c4.5,17.1,11.4,32.2,20.7,45l10.4-7.5c-8.2-11.4-14.5-25-18.7-40.8l-12.4,3.3ZM67.4,233.4c9.3,12.9,21,23.1,35,30.6l6-11.3c-12.3-6.5-22.5-15.4-30.6-26.8l-10.4,7.5ZM102.4,264.1c14.2,7.4,30.5,11,48.7,11v-12.8c-16.5,0-30.7-3.3-42.8-9.6l-5.9,11.3ZM344.4,133.3l-6.4.2h0c0,.1,6.4-.2,6.4-.2ZM343.3,112.7l-6.4.4h0c0,.1,6.4-.4,6.4-.4ZM341.6,98.3l-6.3,1v.2s6.3-1.2,6.3-1.2ZM339.5,88.5h-6.4v.9l.2.9,6.2-1.8ZM339.5,87.8v-6.4h-6.4v6.4h6.4ZM382.9,87.8h6.4v-6.4h-6.4v6.4ZM382.9,88.5l6,2.1.4-1v-1.1h-6.4ZM380.2,99l-6.3-1.1v.2s6.3,1,6.3,1ZM378.7,115l-6.4-.4-.9,14.8,11.4-9.5-4.1-4.9ZM424.5,86.6l-1.9-6.1h0s2,6.1,2,6.1ZM449.8,84.6l-1,6.3h.3s.6-6.3.6-6.3ZM456.5,85.9l-1.9,6.1h.4c0,0,1.6-6.1,1.6-6.1ZM462,87.8l-2.7,5.8.4.2,2.3-6ZM466.7,89.6l6.2,1.6,1.4-5.4-5.1-2.1-2.5,5.9ZM457.5,125.5l-1.5,6.2,6.1,1.4,1.6-6.1-6.2-1.6ZM454.3,124.7l-6.2,1.7,1,3.7,3.7.9,1.5-6.2ZM445.9,111.6l-4.1,5h0c0,0,4-5,4-5ZM403.9,114.4l3.1,5.6h.1c0,0-3.2-5.6-3.2-5.6ZM390.7,122.8l3.7,5.2h0c0,0-3.8-5.2-3.8-5.2ZM378,132.8l-4.1-4.9-2.1,1.7-.2,2.7,6.4.4ZM378,234.4l-6.4.2h0s6.4-.2,6.4-.2ZM382.9,279h6.4v-.9l-.2-.9-6.2,1.8ZM382.9,279.8v6.4h6.4v-6.4h-6.4ZM339.5,279.8h-6.4v6.4h6.4v-6.4ZM339.5,279l-6.2-1.8-.2.9v.9h6.4ZM341.6,269.3l-6.3-1.2v.2s6.3,1,6.3,1ZM343.3,254.8l-6.4-.6h0c0,.1,6.4.6,6.4.6ZM344.4,234.4l-6.4-.3h0c0,0,6.4.3,6.4.3ZM351.4,161.1c0-10.7-.2-20-.6-28.1l-12.8.6c.4,7.7.6,16.9.6,27.4h12.8ZM350.8,133.1c-.3-8.1-.6-15.1-1.1-21l-12.8,1.1c.5,5.6.9,12.3,1.1,20.3l12.8-.4ZM349.7,112.3c-.4-5.9-1-11-1.8-15.2l-12.6,2.4c.7,3.5,1.2,8,1.6,13.6l12.8-.8ZM347.9,97.2c-.6-4-1.4-7.5-2.2-10.5l-12.3,3.5c.7,2.3,1.3,5.3,1.9,9l12.6-2ZM345.9,88.5v-.8h-12.8v.8h12.8ZM339.5,94.2h43.3v-12.8h-43.3v12.8ZM376.5,87.8v.8h12.8v-.8h-12.8ZM376.8,86.4c-1.1,3.3-2.1,7.1-2.9,11.5l12.6,2.3c.7-3.9,1.5-7.1,2.4-9.5l-12.1-4.2ZM373.9,98.1c-.7,4.4-1.2,9.9-1.6,16.5l12.8.7c.4-6.4.9-11.5,1.4-15.3l-12.7-1.9ZM382.8,119.9c4.5-3.8,9.3-7.5,14.2-11.2l-7.7-10.2c-5.1,3.8-10,7.7-14.7,11.7l8.2,9.8ZM397,108.6c4.8-3.6,9.6-6.7,14.6-9.4l-6.1-11.2c-5.5,3-10.9,6.5-16.1,10.4l7.7,10.2ZM411.6,99.2c4.9-2.7,9.9-4.8,14.8-6.5l-4-12.2c-5.8,1.9-11.5,4.4-17,7.4l6.1,11.2ZM426.4,92.7c4.9-1.6,9.7-2.3,14.6-2.3v-12.8c-6.2,0-12.3,1-18.4,2.9l3.9,12.2ZM441,90.4c3.2,0,5.8.2,7.9.5l1.9-12.7c-2.9-.4-6.2-.6-9.8-.6v12.8ZM449.2,90.9c2.2.2,4,.6,5.5,1.1l3.8-12.2c-2.5-.8-5.2-1.3-8-1.6l-1.3,12.7ZM455,92.1c1.7.4,3.1.9,4.3,1.5l5.4-11.6c-2-.9-4.2-1.7-6.6-2.3l-3.1,12.4ZM459.7,93.7c1.6.6,3.1,1.2,4.5,1.8l4.9-11.8c-1.6-.6-3.2-1.3-4.9-1.9l-4.6,11.9ZM460.5,88.1l-9.2,35.8,12.4,3.2,9.2-35.8-12.4-3.2ZM458.9,119.2l-3.2-.8-2.9,12.5,3.2.8,2.9-12.5ZM460.5,123c-1.8-6.7-5.4-12.3-10.7-16.5l-7.9,10.1c3,2.3,5.1,5.5,6.2,9.8l12.3-3.4ZM449.9,106.6c-5.6-4.6-12.8-6.5-20.9-6.5v12.8c6.1,0,10.2,1.4,12.8,3.6l8.1-9.9ZM429,100.1c-4.6,0-9.4.8-14.2,2.4l3.9,12.2c3.7-1.2,7.1-1.8,10.2-1.8v-12.8ZM414.8,102.5c-4.7,1.5-9.4,3.7-14.1,6.3l6.4,11.1c4-2.3,8-4.1,11.7-5.3l-3.9-12.2ZM400.8,108.8c-4.7,2.5-9.3,5.5-13.9,8.9l7.6,10.3c4.2-3.1,8.3-5.7,12.4-7.9l-6.1-11.2ZM387,117.6c-4.5,3.2-8.9,6.7-13.2,10.3l8.3,9.8c4-3.4,8.1-6.6,12.3-9.6l-7.4-10.4ZM371.6,132.3c-.3,3.8-.4,7.9-.4,12.3h12.8c0-4.1.1-7.9.4-11.4l-12.8-.9ZM371.2,144.6h0v.2h0v.2h0v.2h0v.2h0v.2h0v.2h0v.2h0v.2h0v.2h0v.2h0v.2h0v.2h0v.2h0v.2h0v.2h0v.2h0v.2h0v.2h0v.2h0v.2h0v.2h0v.2h0v.2h0v.2h0v.2h0v.2h0v.2h0v.2h0v.2h0v.2h0v.2h0v.2h0v.2h0v.2h0v.2h0v.2h0v.2h0v.2h0v.2h0v.2h0v.2h0v.2h0v.2h0v.2h0v.2h0v.2h0v.2h0v.2h0v.2h0v.2h0v.2h0v.2h0v.2h0v.2h0v.2h0v.2h0v.2h0v.2h0v.2h0v.2h0v.2h0v.2h0v.2h0v.2h0v.2h0v.2h0v.2h0v.2h0v.2h0v.2h0v.2h0v.2h0v.2h0v.2h0v.2h0v.2h0v.2h0v.2h0v.2h0v.2h0v.2h0v.2h0v.2h0v.2h0v.2h12.8v-.2h0v-.2h0v-.2h0v-.2h0v-.2h0v-.2h0v-.2h0v-.2h0v-.2h0v-.2h0v-.2h0v-.2h0v-.2h0v-.2h0v-.2h0v-.2h0v-.2h0v-.2h0v-.2h0v-.2h0v-.2h0v-.2h0v-.2h0v-.2h0v-.2h0v-.2h0v-.2h0v-.2h0v-.2h0v-.2h0v-.2h0v-.2h0v-.2h0v-.2h0v-.2h0v-.2h0v-.2h0v-.2h0v-.2h0v-.2h0v-.2h0v-.2h0v-.2h0v-.2h0v-.2h0v-.2h0v-.2h0v-.2h0v-.2h0v-.2h0v-.2h0v-.2h0v-.2h0v-.2h0v-.2h0v-.2h0v-.2h0v-.2h0v-.2h0v-.2h0v-.2h0v-.2h0v-.2h0v-.2h0v-.2h0v-.2h0v-.2h0v-.2h0v-.2h0v-.2h0v-.2h0v-.2h0v-.2h0v-.2h0v-.2h0v-.2h0v-.2h0v-.2h0v-.2h0v-.2h0v-.2h0v-.2h0v-.2h0v-.2h0v-.2h-12.8ZM371.2,158.1v48.4h12.8v-48.4h-12.8ZM371.2,206.4c0,10.7.1,20.1.4,28.1l12.8-.4c-.2-7.9-.4-17.2-.4-27.7h-12.8ZM371.6,234.6c.3,8,.6,14.9,1.1,20.8l12.8-1.1c-.5-5.6-.9-12.3-1.1-20.1l-12.8.4ZM372.7,255.4c.5,5.8,1.1,10.8,1.7,14.9l12.6-2c-.6-3.7-1.1-8.3-1.6-14l-12.8,1.1ZM374.5,270.3c.6,4,1.4,7.5,2.2,10.5l12.3-3.5c-.7-2.3-1.3-5.3-1.9-9l-12.6,2ZM376.5,279v.8h12.8v-.8h-12.8ZM382.9,273.4h-43.3v12.8h43.3v-12.8ZM345.9,279.8v-.8h-12.8v.8h12.8ZM345.7,280.8c.8-2.9,1.6-6.5,2.2-10.5l-12.6-2c-.6,3.7-1.2,6.7-1.9,9l12.3,3.5ZM347.9,270.5c.8-4.2,1.4-9.3,1.8-15.2l-12.8-.8c-.4,5.6-.9,10.1-1.6,13.6l12.6,2.4ZM349.7,255.4c.5-5.9.9-12.8,1.1-20.8l-12.8-.4c-.2,7.8-.6,14.5-1.1,20.1l12.8,1.1ZM350.8,234.7c.4-8.1.6-17.5.6-28.2h-12.8c0,10.6-.2,19.8-.6,27.6l12.8.6ZM351.4,206.4v-45.4h-12.8v45.4h12.8ZM666.9,239.8l5.9,2.5,2.3-5.5-5.3-2.7-2.9,5.7ZM653,273.2l2.6,5.8,2.3-1,1-2.4-5.9-2.5ZM627.7,280.5l-1.2-6.3h0s1.2,6.3,1.2,6.3ZM613.6,282.4l-.5-6.4h-.2s.7,6.4.7,6.4ZM558.1,276.6l-2.1,6h0s2.1-6,2.1-6ZM525,257.1l-4.3,4.7h0s4.3-4.7,4.3-4.7ZM503.4,144.2l-5.8-2.6h0s5.8,2.6,5.8,2.6ZM526.1,112.7l-4.3-4.7h0s4.3,4.7,4.3,4.7ZM625.6,86.3l-1,6.3h0s.9-6.3.9-6.3ZM647,90.8l5.9-2.5-1.2-2.8-2.9-.9-1.8,6.1ZM660.3,122.6l3.2,5.5,4.8-2.8-2.2-5.2-5.9,2.5ZM658.1,124l-5,4,3.5,4.3,4.8-2.8-3.2-5.5ZM646.8,113.5l-3.9,5.1h.2c0,.1,3.7-5.1,3.7-5.1ZM632.6,105.2l-2.6,5.9h0s2.5-5.9,2.5-5.9ZM572,103.3l2.5,5.9h0s-2.6-5.9-2.6-5.9ZM537.9,142.1l-6.1-2.1h0s6.1,2.1,6.1,2.1ZM537.7,211.9l-6.2,1.6h0c0,0,6.2-1.6,6.2-1.6ZM551.4,242.3l-5.3,3.7h0c0,0,5.2-3.7,5.2-3.7ZM574.3,262.3l-3,5.6h0s2.9-5.6,2.9-5.6ZM623.8,267.4l1.5,6.2h0s-1.6-6.2-1.6-6.2ZM639.9,261.2l3,5.7h0s-3-5.7-3-5.7ZM664.6,238.7l2.9-5.7-5.3-2.6-3.1,5.1,5.5,3.3ZM661,237.4l-13.9,33.4,11.8,4.9,13.9-33.4-11.8-4.9ZM650.4,267.3c-3,1.4-6.6,2.6-10.8,3.8l3.5,12.3c4.6-1.3,8.8-2.8,12.5-4.4l-5.2-11.7ZM639.6,271.2c-4.2,1.2-8.5,2.2-13.1,3l2.3,12.6c4.9-.9,9.7-2,14.3-3.3l-3.5-12.3ZM626.5,274.2c-4.4.8-8.9,1.4-13.4,1.8l1,12.8c5-.4,9.9-1,14.7-2l-2.4-12.6ZM613,276c-4.6.5-8.8.7-12.8.7v12.8c4.5,0,9.2-.3,14.2-.8l-1.3-12.7ZM600.1,276.7c-14.5,0-27.8-2.1-39.9-6.2l-4.1,12.1c13.6,4.6,28.3,6.9,44.1,6.9v-12.8ZM560.3,270.5c-12-4.2-22.3-10.3-31-18.2l-8.6,9.5c10,9.1,21.9,16,35.4,20.8l4.3-12.1ZM529.3,252.4c-8.5-7.8-15.3-17.5-20.2-29.1l-11.8,5c5.6,13.2,13.3,24.4,23.3,33.5l8.7-9.4ZM509.1,223.3c-4.9-11.5-7.4-24.7-7.4-39.9h-12.8c0,16.6,2.7,31.6,8.4,44.9l11.8-5ZM501.7,183.4c0-13.3,2.5-25.5,7.5-36.6l-11.7-5.2c-5.8,12.9-8.6,26.8-8.6,41.8h12.8ZM509.2,146.8c5.2-11.4,12.2-21.2,21.2-29.4l-8.7-9.4c-10.3,9.5-18.3,20.7-24.2,33.6l11.7,5.3ZM530.4,117.4c9.1-8.3,19.9-14.8,32.3-19.6l-4.6-12c-13.8,5.3-26,12.6-36.3,22.1l8.6,9.5ZM562.7,97.9c12.3-4.7,25.8-7.1,40.5-7.1v-12.8c-16.1,0-31.1,2.6-45,7.9l4.6,12ZM603.1,90.8c6.6,0,13.8.6,21.5,1.8l2-12.6c-8.3-1.3-16.1-2-23.5-2v12.8ZM624.8,92.6c7.7,1.1,14.5,2.5,20.4,4.3l3.7-12.3c-6.6-2-14.1-3.5-22.3-4.7l-1.8,12.7ZM641.1,93.2l13.3,31.9,11.8-4.9-13.3-31.9-11.8,4.9ZM657.1,117.1l-2.3,1.3,6.5,11.1,2.2-1.3-6.4-11.1ZM663.1,119.9c-3.5-4.4-7.7-8.3-12.5-11.7l-7.4,10.4c3.9,2.8,7.3,5.9,10,9.3l10-8ZM650.7,108.4c-4.7-3.6-9.9-6.6-15.6-9l-5,11.8c4.8,2.1,9.1,4.5,12.9,7.5l7.8-10.2ZM635.1,99.3c-5.5-2.4-11.4-4.3-17.5-5.6l-2.7,12.5c5.4,1.2,10.4,2.8,15.1,4.9l5.1-11.7ZM617.6,93.7c-6.2-1.3-12.5-2-19-2v12.8c5.6,0,11,.6,16.3,1.7l2.7-12.5ZM598.6,91.7c-10.5,0-20.3,1.9-29.2,5.8l5.1,11.7c7.1-3.1,15.1-4.7,24.1-4.7v-12.8ZM569.5,97.4c-8.9,3.7-16.5,9.2-22.9,16.5l9.6,8.5c5.1-5.8,11.2-10.2,18.3-13.2l-5-11.8ZM546.6,113.9c-6.4,7.2-11.3,16-14.8,26.2l12.1,4.1c3-8.8,7.1-16.1,12.2-21.8l-9.6-8.5ZM531.8,140.1c-3.4,10.1-5,21.5-5,34.1h12.8c0-11.5,1.5-21.4,4.4-30l-12.1-4ZM526.8,174.2c0,14,1.6,27.1,4.7,39.3l12.4-3.2c-2.9-11-4.3-23.1-4.3-36.1h-12.8ZM531.5,213.5c3.3,12.2,8.1,23.1,14.6,32.4l10.5-7.3c-5.5-7.9-9.8-17.4-12.8-28.4l-12.4,3.3ZM546.2,246c6.7,9.3,15.1,16.6,25,22l6-11.3c-8.3-4.4-15.1-10.4-20.7-18.2l-10.4,7.5ZM571.3,268c10.3,5.3,22.2,7.8,35.4,7.8v-12.8c-11.6,0-21.3-2.2-29.5-6.4l-5.8,11.4ZM606.7,275.8c6.3,0,12.5-.7,18.6-2.2l-3-12.4c-5.1,1.3-10.3,1.9-15.5,1.9v12.8ZM625.4,273.6c6.2-1.6,12-3.9,17.5-6.7l-5.9-11.3c-4.5,2.4-9.5,4.3-14.8,5.7l3.2,12.4ZM642.9,266.8c5.5-3,10.6-6.5,15.3-10.6l-8.5-9.6c-3.9,3.4-8.1,6.4-12.9,8.9l6.1,11.3ZM658.2,256.2c4.7-4.2,8.7-8.9,11.9-14.2l-10.9-6.6c-2.5,4.2-5.7,7.9-9.4,11.3l8.5,9.6ZM661.8,244.4l2.2,1.1,5.7-11.4-2.3-1.1-5.7,11.4ZM711.3,198.8l-5.6-3.2h0c0,0,5.6,3.2,5.6,3.2ZM750.7,167.8l2.2,6h0s-2.3-6-2.3-6ZM777.5,160.3l1.2,6.3h0s-1.3-6.3-1.3-6.3ZM804.9,156.6l.4,6.4h0s-.5-6.4-.5-6.4ZM829.6,155.3v6.4c.1,0,6.4-.1,6.4-.1v-6.3h-6.4ZM817.4,109.5l-4.6,4.5h0c0,0,4.5-4.5,4.5-4.5ZM803.4,100.7l-2.2,6h.2c0,0,2.1-6,2.1-6ZM758.6,102.6l-2.2-6h0s2.3,6,2.3,6ZM743.7,109.7l-3.2-5.6h0s3.2,5.6,3.2,5.6ZM727.1,121.1l-3.3,5.5,3.7,2.2,3.5-2.7-3.9-5.1ZM725.2,120l-5.8-2.8-2.5,5.3,5,3,3.3-5.5ZM737.9,93.6l-2.6-5.8-2.1,1-1,2.1,5.8,2.8ZM750.1,89.1l1.7,6.2h.2c0,0-1.9-6.2-1.9-6.2ZM774.9,84.6l.4,6.4h.2s-.5-6.4-.5-6.4ZM822.1,88.9l-2.1,6h0s2-6,2-6ZM845,102l-4.4,4.6h.1c0,0,4.3-4.6,4.3-4.6ZM858.1,121.5l-6,2.2h0s6-2.2,6-2.2ZM862.6,234.4l-6.4.2h0c0,.1,6.4-.2,6.4-.2ZM863.7,254.8l-6.4.4h0c0,.1,6.4-.4,6.4-.4ZM865.4,269.3l-6.3,1v.2s6.3-1.2,6.3-1.2ZM867.7,279h6.4v-.9l-.2-.9-6.2,1.8ZM867.7,279.8v6.4h6.4v-6.4h-6.4ZM826.2,279.8h-6.4v6.4h6.4v-6.4ZM826.2,279l-6.1-1.9-.3.9v1h6.4ZM827.6,272.3l-6.3-1v.3s6.3.6,6.3.6ZM828.5,263.3l6.4.5,1.1-15.3-11.6,10,4.2,4.9ZM819.1,270.2l-3.5-5.4h0c0,0,3.6,5.4,3.6,5.4ZM806.9,276.8l2.5,5.9h0s-2.5-5.9-2.5-5.9ZM791.7,281.3l-1.3-6.3h-.2s1.4,6.3,1.4,6.3ZM723.1,267.9l-4.2,4.8h0s4.2-4.8,4.2-4.8ZM829.6,169.9h6.4v-6.5h-6.5c0,0,0,6.5,0,6.5ZM796.8,172l.7,6.4h0s-.8-6.4-.8-6.4ZM768.9,179.3l-2.7-5.8h0s2.7,5.8,2.7,5.8ZM749.6,195.4l-5.3-3.7h0s5.3,3.7,5.3,3.7ZM800.4,265.9l2,6.1h0s-2.1-6.1-2.1-6.1ZM813.5,259.5l3.5,5.3h0s-3.6-5.3-3.6-5.3ZM823.2,251.1l4.8,4.2h0c0,0-4.9-4.2-4.9-4.2ZM829.2,242.1l5.8,2.8.6-1.2v-1.3c0,0-6.3-.3-6.3-.3ZM711.7,224.4c0-9,1.8-16.5,5.2-22.6l-11.2-6.2c-4.6,8.4-6.8,18-6.8,28.8h12.8ZM716.9,201.9c3.7-6.5,8.5-12,14.6-16.6l-7.7-10.2c-7.4,5.6-13.4,12.5-18,20.5l11.1,6.3ZM731.5,185.3c6.2-4.7,13.3-8.5,21.4-11.5l-4.4-12c-9.2,3.3-17.4,7.7-24.8,13.3l7.7,10.2ZM752.9,173.8c8.3-3.1,16.9-5.5,25.7-7.2l-2.4-12.6c-9.6,1.8-18.9,4.4-27.9,7.8l4.5,12ZM778.8,166.6c9-1.8,17.8-3,26.5-3.6l-.9-12.8c-9.3.6-18.7,1.9-28.2,3.9l2.5,12.5ZM805.4,163c8.9-.7,17-1.2,24.3-1.3l-.2-12.8c-7.7.1-16.1.6-25.2,1.3l1.1,12.8ZM836,155.3v-9.6h-12.8v9.6h12.8ZM836,145.7c0-8.8-1.1-16.7-3.6-23.5l-12.1,4.3c1.8,5.1,2.8,11.5,2.8,19.2h12.8ZM832.5,122.2c-2.4-6.8-5.9-12.6-10.5-17.2l-9,9.1c3.1,3.1,5.6,7.2,7.5,12.4l12.1-4.3ZM822,105.1c-4.6-4.8-10.2-8.2-16.6-10.4l-4.1,12.1c4.6,1.6,8.4,4,11.5,7.2l9.2-8.9ZM805.6,94.7c-6.2-2.3-12.9-3.4-20-3.4v12.8c5.8,0,11,.9,15.6,2.6l4.5-12ZM785.6,91.3c-4.9,0-9.7.4-14.4,1.2l2.2,12.6c4-.7,8.1-1,12.2-1v-12.8ZM771.2,92.5c-4.8.8-9.7,2.2-14.8,4.1l4.4,12c4.4-1.6,8.6-2.8,12.6-3.4l-2.2-12.6ZM756.3,96.6c-5,1.9-10.2,4.4-15.7,7.6l6.3,11.1c5-2.9,9.7-5.1,13.9-6.7l-4.5-12ZM740.5,104.2c-5.4,3.2-11.2,7.1-17.4,11.9l7.8,10.1c5.8-4.5,11.2-8.2,16-11l-6.5-11ZM730.3,115.7l-1.9-1.1-6.6,11,1.9,1.1,6.6-11ZM730.9,122.8l12.7-26.4-11.5-5.6-12.7,26.4,11.5,5.6ZM740.6,99.4c3.9-1.8,7.6-3.1,11.3-4.2l-3.5-12.3c-4.3,1.2-8.7,2.8-13.1,4.8l5.3,11.7ZM752,95.2c3.7-1.2,7.6-2.1,11.4-2.8l-2.3-12.6c-4.4.8-8.7,1.9-13,3.2l3.8,12.2ZM763.4,92.4c3.9-.7,7.8-1.2,11.8-1.4l-.8-12.8c-4.5.3-8.9.8-13.3,1.6l2.3,12.6ZM775.4,91c4.2-.4,8.6-.5,13.1-.5v-12.8c-4.9,0-9.7.2-14.2.6l1.1,12.8ZM788.6,90.4c12.6,0,23.1,1.6,31.4,4.5l4.2-12.1c-10.1-3.6-22.1-5.2-35.7-5.2v12.8ZM820.1,95c8.7,2.9,15.4,6.8,20.5,11.7l8.9-9.2c-6.7-6.4-15.2-11.2-25.3-14.6l-4,12.1ZM840.7,106.7c5.3,4.8,9,10.5,11.4,17l12-4.4c-3.1-8.5-8.1-15.8-14.8-22l-8.6,9.4ZM852.1,123.8c2.5,6.6,3.7,13.8,3.7,21.6h12.8c0-9.2-1.5-17.9-4.5-26l-12,4.5ZM855.8,145.3v61.1h12.8v-61.1h-12.8ZM855.8,206.4c0,10.7.1,20.1.4,28.1l12.8-.4c-.2-7.9-.4-17.2-.4-27.7h-12.8ZM856.2,234.7c.4,7.9.8,14.8,1.1,20.5l12.8-.8c-.4-5.7-.7-12.5-1.1-20.3l-12.8.6ZM857.4,255.4c.5,5.8,1.1,10.8,1.7,14.9l12.6-2c-.6-3.7-1.1-8.3-1.6-14l-12.8,1.1ZM859.1,270.5c.8,4,1.6,7.4,2.4,10.3l12.3-3.5c-.7-2.4-1.4-5.4-2.1-9.2l-12.6,2.4ZM861.3,279v.8h12.8v-.8h-12.8ZM867.7,273.4h-41.4v12.8h41.4v-12.8ZM832.6,279.8v-.8h-12.8v.8h12.8ZM832.3,280.9c.8-2.5,1.3-5.2,1.6-8l-12.7-1.3c-.2,2.2-.6,4-1.1,5.5l12.2,3.8ZM833.9,273.2c.4-2.7.7-5.9,1-9.5l-12.8-.9c-.2,3.4-.5,6.2-.9,8.5l12.7,1.9ZM824.3,258.4c-2.4,2-5.3,4.2-8.7,6.4l7,10.7c3.8-2.5,7.2-5,10-7.4l-8.3-9.7ZM815.5,264.9c-3.1,2.1-6.8,4.1-11.1,6l5.1,11.7c4.9-2.1,9.4-4.5,13.2-7.1l-7.2-10.6ZM804.5,270.8c-4.1,1.7-8.7,3.1-14,4.1l2.5,12.6c6-1.2,11.4-2.8,16.4-4.9l-4.9-11.8ZM790.3,275c-5,1.1-10.5,1.7-16.8,1.7v12.8c7,0,13.6-.7,19.6-2l-2.8-12.5ZM773.6,276.7c-20.8,0-35.9-4.8-46.3-13.7l-8.3,9.7c13.4,11.4,31.9,16.7,54.6,16.7v-12.8ZM727.3,263.1c-10.2-8.8-15.6-21.4-15.6-38.7h-12.8c0,20.2,6.5,36.6,20,48.3l8.4-9.7ZM829.5,163.5c-11.6.1-22.8.8-33.5,2.1l1.5,12.7c10.3-1.2,21-1.9,32.1-2v-12.8ZM796.1,165.6c-11.1,1.2-21.1,3.8-29.9,7.9l5.4,11.6c7.4-3.4,16-5.7,25.9-6.8l-1.4-12.7ZM766.2,173.5c-9,4.2-16.3,10.3-21.8,18.3l10.5,7.3c4.2-6,9.8-10.7,16.8-14l-5.4-11.6ZM744.3,191.7c-5.7,8.3-8.3,18.9-8.3,31.2h12.8c0-10.7,2.2-18.5,6-23.9l-10.5-7.3ZM736,222.9c0,15.8,3.9,28.8,12.8,38.2l9.3-8.8c-5.9-6.2-9.3-15.6-9.3-29.3h-12.8ZM748.9,261.1c8.8,9.3,20.8,13.6,35.2,13.6v-12.8c-11.7,0-20-3.4-25.9-9.6l-9.3,8.8ZM784.1,274.7c6.6,0,12.7-.9,18.3-2.8l-4-12.1c-4.1,1.4-8.9,2.1-14.3,2.1v12.8ZM802.5,271.9c5.4-1.9,10.3-4.2,14.6-7.1l-7.1-10.6c-3.2,2.2-7.1,4.1-11.7,5.7l4.2,12.1ZM817.1,264.8c4.3-2.9,7.9-6,11-9.5l-9.6-8.4c-2.2,2.5-5,5-8.5,7.4l7.2,10.6ZM828.1,255.2c2.9-3.4,5.2-6.9,6.9-10.4l-11.5-5.5c-1.1,2.3-2.8,4.8-5.1,7.6l9.8,8.2ZM835.6,242.4c.3-4.9.4-10.2.4-16.1h-12.8c0,5.7-.1,10.8-.4,15.4l12.8.7ZM836,226.3h0v-.2h0v-.2h0v-.2h0v-.2h0v-.2h0v-.2h0v-.2h0v-.2h0v-.2h0v-.2h0v-.2h0v-.2h0v-.2h0v-.2h0v-.2h0v-.2h0v-.2h0v-.2h0v-.2h0v-.2h0v-.2h0v-.2h0v-.2h0v-.2h0v-.2h0v-.2h0v-.2h0v-.2h0v-.2h0v-.2h0v-.2h0v-.2h0v-.2h0v-.2h0v-.2h0v-.2h0v-.2h0v-.2h0v-.2h0v-.2h0v-.2h0v-.2h0v-.2h0v-.2h0v-.2h0v-.2h0v-.2h0v-.2h0v-.2h0v-.2h0v-.2h0v-.2h0v-.2h0v-.2h0v-.2h0v-.2h0v-.2h0v-.2h0v-.2h0v-.2h0v-.2h0v-.2h0v-.2h0v-.2h0v-.2h0v-.2h0v-.2h0v-.2h0v-.2h0v-.2h0v-.2h0v-.2h0v-.2h0v-.2h0v-.2h0v-.2h0v-.2h0v-.2h0v-.2h0v-.2h0v-.2h0v-.2h0v-.2h0v-.2h0v-.2h0v-.2h0v-.2h0v-.2h0v-.2h0v-.2h0v-.2h0v-.2h0v-.2h0v-.2h0v-.2h0v-.2h0v-.2h0v-.2h0v-.2h0v-.2h0v-.2h0v-.2h0v-.2h0v-.2h0v-.2h0v-.2h0v-.2h0v-.2h0v-.2h0v-.2h0v-.2h0v-.2h0v-.2h0v-.2h0v-.2h0v-.2h0v-.2h0v-.2h0v-.2h-12.8v.2h0v.2h0v.2h0v.2h0v.2h0v.2h0v.2h0v.2h0v.2h0v.2h0v.2h0v.2h0v.2h0v.2h0v.2h0v.2h0v.2h0v.2h0v.2h0v.2h0v.2h0v.2h0v.2h0v.2h0v.2h0v.2h0v.2h0v.2h0v.2h0v.2h0v.2h0v.2h0v.2h0v.2h0v.2h0v.2h0v.2h0v.2h0v.2h0v.2h0v.2h0v.2h0v.2h0v.2h0v.2h0v.2h0v.2h0v.2h0v.2h0v.2h0v.2h0v.2h0v.2h0v.2h0v.2h0v.2h0v.2h0v.2h0v.2h0v.2h0v.2h0v.2h0v.2h0v.2h0v.2h0v.2h0v.2h0v.2h0v.2h0v.2h0v.2h0v.2h0v.2h0v.2h0v.2h0v.2h0v.2h0v.2h0v.2h0v.2h0v.2h0v.2h0v.2h0v.2h0v.2h0v.2h0v.2h0v.2h0v.2h0v.2h0v.2h0v.2h0v.2h0v.2h0v.2h0v.2h0v.2h0v.2h0v.2h0v.2h0v.2h0v.2h0v.2h0v.2h0v.2h0v.2h0v.2h0v.2h0v.2h0v.2h0v.2h0v.2h0v.2h0v.2h0v.2h0v.2h0v.2h0v.2h0v.2h0s12.8,0,12.8,0ZM836,206.4v-36.6h-12.8v36.6h12.8Z"/>
</svg>