<?xml version="1.0" encoding="UTF-8"?>
<svg id="_图层_1" data-name="图层 1" xmlns="http://www.w3.org/2000/svg" viewBox="0 0 1107 291.97">
  <defs>
    <style>
      .cls-1 {
        fill: #fff;
      }
    </style>
  </defs>
  <path class="cls-1" d="M100.7,291.19C44.18,291.19.52,261.56-.26,210.11h58.47c1.56,21.83,15.98,36.25,41.32,36.25s40.93-13.64,40.93-33.13C140.46,154.37.13,189.84.52,91.22.52,42.1,40.28,12.47,96.42,12.47s93.94,28.46,97.45,77.57h-60.03c-1.17-17.93-15.59-31.96-38.98-32.35-21.44-.78-37.42,9.75-37.42,31.96,0,54.57,139.55,24.17,139.55,120.06,0,42.88-34.3,81.47-96.28,81.47Z"/>
  <path class="cls-1" d="M240.25,0h54.57v99.4c14.03-18.32,38.2-30.02,67.05-30.02,48.73,0,84.2,32.74,84.2,92.38v126.69h-54.57v-119.28c0-34.69-19.1-53.4-47.95-53.4s-48.73,18.71-48.73,53.4v119.28h-54.57V0Z"/>
  <path class="cls-1" d="M578.6,69c34.69,0,58.47,16.37,71.33,34.3v-30.8h54.96v215.96h-54.96v-31.57c-12.86,18.71-37.42,35.08-71.72,35.08-54.57,0-98.23-44.83-98.23-112.27s43.66-110.71,98.62-110.71ZM592.64,116.94c-29.24,0-56.91,21.83-56.91,62.76s27.68,64.32,56.91,64.32,57.3-22.61,57.3-63.54-27.29-63.54-57.3-63.54Z"/>
  <path class="cls-1" d="M808.98,288.46h-54.57V72.5h54.57v33.52c13.64-22.22,36.25-36.64,66.27-36.64v57.3h-14.42c-32.35,0-51.84,12.47-51.84,54.18v107.59Z"/>
  <path class="cls-1" d="M907.99,0h54.57v164.11l72.51-91.61h70.95l-95.11,108.37,95.89,107.59h-70.95l-73.28-92v92h-54.57V0Z"/>
</svg>