<?xml version="1.0" encoding="UTF-8"?>
<svg id="_图层_1" data-name="图层 1" xmlns="http://www.w3.org/2000/svg" viewBox="0 0 932 247">
  <defs>
    <style>
      .cls-1 {
        fill: #fff;
      }
    </style>
  </defs>
  <path class="cls-1" d="M165.92,223.8c-38.74,0-68.66-20.3-69.2-55.57h40.07c1.07,14.96,10.96,24.85,28.32,24.85s28.05-9.35,28.05-22.71c0-40.34-96.18-16.03-95.91-83.62,0-33.66,27.25-53.97,65.72-53.97s64.39,19.5,66.79,53.17h-41.14c-.8-12.29-10.69-21.91-26.71-22.17-14.7-.53-25.65,6.68-25.65,21.91,0,37.4,95.64,16.56,95.64,82.29,0,29.39-23.51,55.84-65.99,55.84Z"/>
  <path class="cls-1" d="M261.57,24.23h37.4v68.13c9.62-12.56,26.18-20.57,45.95-20.57,33.4,0,57.71,22.44,57.71,63.32v86.83h-37.4v-81.75c0-23.78-13.09-36.6-32.86-36.6s-33.4,12.82-33.4,36.6v81.75h-37.4V24.23Z"/>
  <path class="cls-1" d="M493.47,71.52c23.78,0,40.07,11.22,48.89,23.51v-21.11h37.67v148.01h-37.67v-21.64c-8.82,12.82-25.65,24.04-49.16,24.04-37.4,0-67.33-30.72-67.33-76.94s29.92-75.88,67.59-75.88ZM503.08,104.38c-20.04,0-39.01,14.96-39.01,43.01s18.97,44.08,39.01,44.08,39.27-15.5,39.27-43.55-18.7-43.55-39.27-43.55Z"/>
  <path class="cls-1" d="M651.36,221.93h-37.4V73.92h37.4v22.98c9.35-15.23,24.85-25.11,45.42-25.11v39.27h-9.88c-22.17,0-35.53,8.55-35.53,37.14v73.74Z"/>
  <path class="cls-1" d="M719.22,24.23h37.4v112.48l49.69-62.78h48.62l-65.19,74.27,65.72,73.74h-48.62l-50.23-63.05v63.05h-37.4V24.23Z"/>
</svg>