<?xml version="1.0" encoding="UTF-8"?><svg id="_图层_1" xmlns="http://www.w3.org/2000/svg" viewBox="0 0 283.46 141.73"><defs><style>.cls-1{fill:#fff;}</style></defs><path class="cls-1" d="M247.09,84.24v-28.06c.29,0,.56,0,.83,0,2.82,0,5.64-.04,8.46.02,1.55.03,3.11.14,4.64.39,1.64.26,3.23.84,4.39,2.09,1.6,1.73,2.02,3.78,1.46,6.1-.38,1.56-1.14,2.78-2.39,3.73-.26.2-.58.34-.92.54.17.63.85.56,1.31.81,1.3.72,2.37,1.61,2.95,3.06.45,1.14.71,2.27.63,3.48-.17,2.68-1.42,4.71-3.66,6.13-1.24.79-2.65,1.16-4.09,1.45-2.68.52-5.38.17-8.06.26-1.81.06-3.63.01-5.54.01ZM253.74,72.27c0,2.16,0,4.29.02,6.43,0,.14.32.39.49.39.76.01,1.53-.04,2.29-.09,1.1-.07,2.2,0,3.28-.42,1.7-.67,2.28-2.84,1.72-4.29-.53-1.36-1.66-1.84-2.87-1.98-1.61-.18-3.25-.04-4.95-.04ZM253.79,67.34c1.51-.14,2.98-.24,4.43-.44,1.44-.2,2.39-1.57,2.16-3.3-.13-1-1.08-2.09-2.65-2.11-1.29-.02-2.58-.12-3.94-.18v6.03Z"/><path class="cls-1" d="M219.3,84.24v-28.02c.26-.02.49-.04.72-.04,2.73,0,5.46-.07,8.18.03,1.3.05,2.59.39,3.88.62,2.67.48,4.78,1.89,6.36,4.04.66.89,1.14,1.94,1.56,2.97.98,2.47,1.17,5.09,1,7.71-.08,1.16-.42,2.3-.6,3.46-.27,1.7-1.04,3.18-2.02,4.55-1.04,1.44-2.35,2.62-4.01,3.29-1.19.48-2.45.83-3.71,1.1-2.8.62-5.66.17-8.48.28-.93.04-1.86,0-2.86,0ZM225.96,70.18c0,2.65.01,5.3,0,7.95,0,.54.16.78.72.71.78-.1,1.56-.18,2.34-.29,1.18-.17,2.19-.68,3.05-1.51,1.23-1.19,1.72-2.7,2.03-4.33.51-2.68.27-5.26-.75-7.79-.51-1.26-1.49-2.15-2.64-2.6-1.23-.49-2.64-.52-3.98-.74-.6-.1-.79.17-.79.78.03,2.6.01,5.21.02,7.81Z"/><path class="cls-1" d="M44.22,62.91h6.52c1.02,5.16,2.24,10.31,2.7,15.6.07.01.13.02.2.03.57-2.58,1.13-5.16,1.7-7.74.58-2.62,1.17-5.24,1.78-7.93,1.49,0,2.95,0,4.41,0,1.36,0,1.3.01,1.58,1.34.34,1.61.82,3.19,1.22,4.79.14.55.26,1.11.38,1.67.38,1.84.75,3.69,1.12,5.53.1.51.18,1.04.31,1.54.06.25.22.47.38.8.11-.2.18-.27.19-.35.13-1.15.22-2.3.39-3.44.15-1.02.4-2.02.6-3.03.12-.61.23-1.21.33-1.82.15-.89.28-1.78.43-2.67.23-1.29.46-2.58.74-3.86.04-.2.35-.48.55-.48,1.88-.04,3.77-.02,5.7-.02-1.67,7.16-3.33,14.25-4.98,21.34h-7.79c-.96-4.64-1.92-9.28-2.89-14.01-.13.27-.33.5-.37.76-.15,1.05-.2,2.12-.38,3.16-.25,1.44-.6,2.86-.9,4.29-.16.74-.28,1.49-.43,2.24-.23,1.1-.46,2.2-.71,3.29-.03.12-.25.28-.39.28-2.39.02-4.79.01-7.2.01-1.73-7.12-3.45-14.19-5.18-21.33Z"/><path class="cls-1" d="M134.38,63.98c-.02-3.01-.01-6.07-.07-9.12-.01-.67.22-.83.84-.82,1.68.01,3.35,0,5.03-.05.63-.02.84.2.84.85-.02,9.58-.01,19.17-.01,28.75,0,.2-.03.41-.04.66-1.7,0-3.35,0-5,0-.53,0-.58-.41-.65-.81-.07-.4-.19-.79-.27-1.14-1.11.72-2.04,1.43-3.06,1.98-1.39.75-2.85.84-4.42.4-1.43-.4-2.72-.97-3.65-2.09-.76-.93-1.51-1.95-1.94-3.06-.9-2.27-1.21-4.67-1.05-7.12.12-1.9.6-3.71,1.47-5.41.85-1.66,2.04-3.01,3.75-3.86,1.94-.98,3.91-1.41,5.97-.35.8.41,1.59.85,2.27,1.2ZM134.33,73.23c0-1.26.03-2.51-.02-3.77-.01-.32-.18-.77-.43-.93-.58-.38-1.23-.68-1.89-.91-1.03-.36-2.52.11-3.07,1.03-.44.75-.77,1.58-1.02,2.41-.56,1.89-.33,3.79.13,5.66.13.55.49,1.08.86,1.51.99,1.15,2.7,1.33,3.95.61.82-.48,1.61-1.13,1.51-2.34-.09-1.09-.02-2.18-.02-3.28Z"/><path class="cls-1" d="M212.94,84.21h-6.67c-.01-.19-.03-.37-.03-.55,0-4.19,0-8.38,0-12.57,0-.88-.12-1.76-.7-2.43-.3-.35-.78-.65-1.22-.73-1.62-.28-2.8.61-3.85,1.69-.19.19-.23.58-.23.88-.01,4.24,0,8.47,0,12.71,0,.32,0,.64,0,1h-6.71c0-.25,0-.5,0-.74,0-9.54,0-19.08-.01-28.63,0-.69.21-.88.87-.86,1.75.04,3.49.04,5.24.02.47,0,.61.15.61.6-.02,2.51,0,5.03-.04,7.54,0,.64-.18,1.28-.26,1.93-.03.24,0,.49,0,.74.99-.6,1.89-1.22,2.86-1.73,2.03-1.06,4.08-1.24,6.27-.29,1.79.77,2.71,2.09,3.25,3.86.48,1.55.65,3.1.64,4.71-.03,4.05,0,8.1,0,12.15v.71Z"/><path class="cls-1" d="M20.45,81.1c.98-1.21,1.83-2.26,2.68-3.31.26-.32.53-.63.76-.97.29-.43.57-.38.97-.13,1.21.75,2.37,1.66,3.68,2.11,1.16.4,2.52.48,3.75.33,1.43-.17,2.43-.99,2.33-2.62-.04-.73-.41-1.3-1-1.61-1.35-.71-2.75-1.31-4.12-1.98-1.59-.78-3.23-1.47-4.71-2.41-1.14-.72-1.95-1.86-2.51-3.13-.59-1.32-.79-2.7-.67-4.12.11-1.25.55-2.4,1.23-3.48,1.07-1.69,2.61-2.8,4.41-3.5,1.89-.74,3.92-1.03,5.93-.7,2.45.4,4.73,1.28,6.65,2.93.46.39.7.66.2,1.25-.87,1.04-1.61,2.19-2.46,3.25-.12.15-.61.19-.77.07-1.14-.86-2.4-1.5-3.77-1.78-1.43-.28-2.96-.37-4.13.75-1.04,1-.92,2.63.6,3.41,2.05,1.04,4.21,1.85,6.32,2.75,1.99.85,3.73,2.07,4.67,4.05.85,1.79,1.07,3.7.6,5.71-.74,3.12-2.79,5.07-5.61,6.15-2.27.87-4.68,1.11-7.15.57-1.52-.33-3.01-.7-4.37-1.43-1.17-.63-2.27-1.38-3.54-2.16Z"/><path class="cls-1" d="M99.63,73.53c-.11,2.91-.87,5.55-2.75,7.8-1.18,1.41-2.62,2.38-4.39,2.99-1.38.47-2.74.73-4.15.58-1.76-.19-3.41-.73-4.9-1.76-1.57-1.08-2.74-2.48-3.51-4.18-.38-.84-.62-1.75-.81-2.66-.18-.85-.26-1.73-.29-2.6-.05-1.73.28-3.36.9-5.01.7-1.83,1.82-3.27,3.3-4.42,2.09-1.62,4.54-2.34,7.17-2.02,3.22.38,5.83,1.94,7.57,4.71.79,1.25,1.35,2.63,1.5,4.14.08.82.24,1.63.36,2.45ZM92.93,73.64c-.14-.96-.21-1.93-.42-2.86-.29-1.28-.73-2.45-2.18-2.97-1.4-.5-2.64-.2-3.6.93-.83.97-1.09,2.13-1.15,3.28-.07,1.37.08,2.76.23,4.14.16,1.42.75,2.57,2.22,3.15,1.28.51,2.76.21,3.57-.89,1.04-1.43,1.28-3.06,1.34-4.78Z"/><path class="cls-1" d="M159.24,59.19c-.26-.03-.57-.02-.82-.12-.98-.39-1.91-.33-2.8.22-.68.42-.73,1.2-.86,1.88-.1.52-.02,1.06-.02,1.67h3.62v5.34h-3.61v16.02h-6.7v-16.01c-.76,0-1.43-.04-2.1.01-.57.04-.76-.21-.76-.72,0-1.3-.02-2.6.02-3.91,0-.16.28-.4.47-.44.75-.15,1.5-.23,2.35-.36,0-.31,0-.67,0-1.03,0-2.22.54-4.25,2.03-5.96.86-.99,2-1.6,3.24-1.9,1.02-.25,2.11-.38,3.15-.33,1.3.05,2.58.34,4,.54-.42,1.78-.8,3.36-1.22,5.1Z"/><path class="cls-1" d="M189.18,65c-.82,1.14-1.61,2.19-2.35,3.26-.52.75-.58.78-1.34.26-1.34-.91-2.78-1.52-4.44-1.29-.41.06-.87.23-1.17.5-.68.63-.54,1.69.31,2.14,1,.53,2.06.94,3.11,1.35,2.24.88,4.41,1.88,5.43,4.25.7,1.63.55,3.27-.11,4.95-.7,1.8-2.02,2.89-3.65,3.65-.92.43-1.97.65-2.98.77-1.55.19-3.11.1-4.62-.34-1.6-.47-3.08-1.2-4.47-2.1-.47-.3-.64-.62-.21-1.18.75-.98,1.42-2.03,2.08-3.08.27-.43.59-.45.91-.19,1.06.89,2.32,1.37,3.58,1.85,1.24.47,3.15-.04,3.72-.95.28-.44.28-.87-.06-1.33-.69-.95-1.76-1.26-2.76-1.64-2.45-.92-4.85-1.86-6.16-4.37-.63-1.22-.71-2.53-.43-3.82.31-1.4.89-2.72,2.14-3.57.73-.5,1.54-.92,2.34-1.29,1.42-.66,2.95-.78,4.49-.65,1.92.16,3.68.81,5.29,1.85.45.29.88.61,1.35.94Z"/><path class="cls-1" d="M104.28,62.88c1.7,0,3.33-.01,4.95.02.16,0,.42.22.44.38.11.64.13,1.29.23,1.93.06.4.21.79.37,1.37.88-1.56,1.83-2.71,3.16-3.49,1.56-.92,3.21-1.23,4.93-.48.18.08.37.42.34.61-.24,1.61-.53,3.22-.8,4.82-.08.49-.41.55-.78.42-1.36-.46-2.69-.34-3.84.46-.68.47-1.22,1.17-1.74,1.83-.62.78-.71,1.72-.69,2.71.05,3.33.02,6.66.02,9.99v.78h-6.61v-21.33Z"/><path class="cls-1" d="M162.08,84.19v-21.26h6.65v21.26h-6.65Z"/><path class="cls-1" d="M161.75,56.35c-.14-2.04,1.63-3.56,3.72-3.52,1.81.03,3.71,1.4,3.63,3.57-.08,2.02-1.57,3.5-3.69,3.47-2.1-.03-3.77-1.32-3.66-3.52Z"/></svg>