<?xml version="1.0" encoding="UTF-8"?>
<svg xmlns="http://www.w3.org/2000/svg" version="1.1" viewBox="0 0 2252.8 292">
  <defs>
    <style>
      .cls-1 {
        fill: #fff;
      }
    </style>
  </defs>
  <!-- Generator: Adobe Illustrator 28.7.1, SVG Export Plug-In . SVG Version: 1.2.0 Build 142)  -->
  <g>
    <g id="_图层_1" data-name="图层_1">
      <g id="_图层_1-2" data-name="_图层_1">
        <path class="cls-1" d="M2058.7,285.3V30.4h7.5c25.6,0,51.2-.4,76.8.2,14.1.3,28.2,1.3,42.1,3.5,14.9,2.4,29.3,7.6,39.9,19,14.5,15.7,18.3,34.3,13.3,55.4-3.5,14.2-10.4,25.2-21.7,33.9-2.4,1.8-5.3,3.1-8.4,4.9,1.5,5.7,7.7,5.1,11.9,7.4,11.8,6.5,21.5,14.6,26.8,27.8,4.1,10.4,6.4,20.6,5.7,31.6-1.5,24.3-12.9,42.8-33.2,55.7-11.3,7.2-24.1,10.5-37.1,13.2-24.3,4.7-48.9,1.5-73.2,2.4-16.4.5-33,0-50.3,0h-.1ZM2119.1,176.6c0,19.6,0,39,.2,58.4,0,1.3,2.9,3.5,4.5,3.5,6.9,0,13.9-.4,20.8-.8,10-.6,20,0,29.8-3.8,15.4-6.1,20.7-25.8,15.6-39-4.8-12.4-15.1-16.7-26.1-18-14.6-1.6-29.5-.4-45-.4h.2ZM2119.5,131.8c13.7-1.3,27.1-2.2,40.2-4,13.1-1.8,21.7-14.3,19.6-30-1.2-9.1-9.8-19-24.1-19.2-11.7-.2-23.4-1.1-35.8-1.6v54.8h.1Z"/>
        <path class="cls-1" d="M1806.3,285.3V30.8c2.4-.2,4.5-.4,6.5-.4,24.8,0,49.6-.6,74.3.3,11.8.5,23.5,3.5,35.2,5.6,24.2,4.4,43.4,17.2,57.8,36.7,6,8.1,10.4,17.6,14.2,27,8.9,22.4,10.6,46.2,9.1,70-.7,10.5-3.8,20.9-5.4,31.4-2.5,15.4-9.4,28.9-18.3,41.3-9.4,13.1-21.3,23.8-36.4,29.9-10.8,4.4-22.3,7.5-33.7,10-25.4,5.6-51.4,1.5-77,2.5-8.4.4-16.9,0-26,0h-.2v.2h0ZM1866.8,157.6v72.2c0,4.9,1.5,7.1,6.5,6.4,7.1-.9,14.2-1.6,21.3-2.6,10.7-1.5,19.9-6.2,27.7-13.7,11.2-10.8,15.6-24.5,18.4-39.3,4.6-24.3,2.5-47.8-6.8-70.7-4.6-11.4-13.5-19.5-24-23.6-11.2-4.5-24-4.7-36.1-6.7-5.4-.9-7.2,1.5-7.2,7.1.3,23.6,0,47.3.2,70.9h0Z"/>
        <path class="cls-1" d="M216.2,91.6h59.2c9.3,46.9,20.3,93.6,24.5,141.7.6,0,1.2.2,1.8.3,5.2-23.4,10.3-46.9,15.4-70.3,5.3-23.8,10.6-47.6,16.2-72h40.1c12.4,0,11.8,0,14.3,12.2,3.1,14.6,7.4,29,11.1,43.5,1.3,5,2.4,10.1,3.5,15.2,3.5,16.7,6.8,33.5,10.2,50.2.9,4.6,1.6,9.4,2.8,14,.5,2.3,2,4.3,3.5,7.3,1-1.8,1.6-2.5,1.7-3.2,1.2-10.4,2-20.9,3.5-31.2,1.4-9.3,3.6-18.3,5.4-27.5,1.1-5.5,2.1-11,3-16.5,1.4-8.1,2.5-16.2,3.9-24.2,2.1-11.7,4.2-23.4,6.7-35.1.4-1.8,3.2-4.4,5-4.4,17.1-.4,34.2-.2,51.8-.2-15.2,65-30.2,129.4-45.2,193.8h-70.7c-8.7-42.1-17.4-84.3-26.2-127.2-1.2,2.5-3,4.5-3.4,6.9-1.4,9.5-1.8,19.3-3.5,28.7-2.3,13.1-5.4,26-8.2,39-1.5,6.7-2.5,13.5-3.9,20.3-2.1,10-4.2,20-6.4,29.9-.3,1.1-2.3,2.5-3.5,2.5-21.7.2-43.5,0-65.4,0-15.7-64.7-31.3-128.9-47-193.7h-.2,0Z"/>
        <path class="cls-1" d="M1094.9,285.4h.4v-6c0-87-.2-174.1,0-261.1,0-5.9-1.9-7.9-7.6-7.7-15.3.5-30.4.5-45.7.5s-7.6,1.3-7.6,7.4c.6,27.6.4,55.3.6,82.5-6.1-3.2-13.1-7.1-20.3-10.7-18.7-9.6-36.6-5.7-54.2,3.2-15.6,7.8-26.4,20-34.1,35.1-8,15.4-12.3,31.8-13.4,49.1-1.5,22.3,1.3,44.1,9.5,64.7,3.9,10.1,10.7,19.4,17.6,27.8,8.4,10.2,20.1,15.4,33.1,19,14.2,4,27.5,3.2,40.1-3.6,9.3-5,17.7-11.5,27.8-18,.8,3.2,1.9,6.8,2.5,10.4.6,3.7,1.1,7.4,5.9,7.4h45.4,0ZM1021,236.3c-11.4,6.6-26.9,4.9-35.9-5.5-3.3-3.9-6.6-8.7-7.8-13.7-4.2-17-6.3-34.2-1.2-51.4,2.3-7.6,5.3-15.1,9.3-21.9,5-8.4,18.5-12.7,27.9-9.4,6,2.1,11.9,4.8,17.2,8.3,2.3,1.4,3.9,5.5,3.9,8.4.5,11.4.2,22.8.2,34.2h0c0,9.9-.6,19.8.2,29.7.9,11-6.3,16.9-13.7,21.3h0Z"/>
        <path class="cls-1" d="M1748.5,285h-60.6c0-1.7-.3-3.4-.3-5v-114.2c0-8-1.1-16-6.4-22.1-2.7-3.2-7.1-5.9-11.1-6.6-14.7-2.5-25.4,5.5-35,15.3-1.7,1.7-2.1,5.3-2.1,8v124.5h-60.9V18.2c0-6.3,1.9-8,7.9-7.8,15.9.4,31.7.4,47.6.2,4.3,0,5.5,1.4,5.5,5.4-.2,22.8,0,45.7-.4,68.5,0,5.8-1.6,11.6-2.4,17.5-.3,2.2,0,4.5,0,6.7,9-5.4,17.2-11.1,26-15.7,18.4-9.6,37.1-11.3,56.9-2.6,16.3,7,24.6,19,29.5,35.1,4.4,14.1,5.9,28.2,5.8,42.8-.3,36.8,0,73.6,0,110.3v6.4h-.2.2Z"/>
        <path class="cls-1" d="M.3,256.8c8.9-11,16.6-20.5,24.3-30.1,2.4-2.9,4.8-5.7,6.9-8.8,2.6-3.9,5.2-3.5,8.8-1.2,11,6.8,21.5,15.1,33.4,19.2,10.5,3.6,22.9,4.4,34.1,3,13-1.5,22.1-9,21.2-23.8-.4-6.6-3.7-11.8-9.1-14.6-12.3-6.4-25-11.9-37.4-18-14.4-7.1-29.3-13.4-42.8-21.9-10.4-6.5-17.7-16.9-22.8-28.4-5.4-12-7.2-24.5-6.1-37.4,1-11.4,5-21.8,11.2-31.6,9.7-15.3,23.7-25.4,40.1-31.8,17.2-6.7,35.6-9.4,53.9-6.4,22.3,3.6,43,11.6,60.4,26.6,4.2,3.5,6.4,6,1.8,11.4-7.9,9.4-14.6,19.9-22.3,29.5-1.1,1.4-5.5,1.7-7,.6-10.4-7.8-21.8-13.6-34.2-16.2-13-2.5-26.9-3.4-37.5,6.8-9.4,9.1-8.4,23.9,5.4,31,18.6,9.4,38.2,16.8,57.4,25,18.1,7.7,33.9,18.8,42.4,36.8,7.7,16.3,9.7,33.6,5.4,51.9-6.7,28.3-25.3,46-51,55.9-20.6,7.9-42.5,10.1-64.9,5.2-13.8-3-27.3-6.4-39.7-13-10.6-5.7-20.6-12.5-32.2-19.6h.3Z"/>
        <path class="cls-1" d="M719.4,188c-1,26.4-7.9,50.4-25,70.8-10.7,12.8-23.8,21.6-39.9,27.2-12.5,4.3-24.9,6.6-37.7,5.3-16-1.7-31-6.6-44.5-16-14.3-9.8-24.9-22.5-31.9-38-3.5-7.6-5.6-15.9-7.4-24.2-1.6-7.7-2.4-15.7-2.6-23.6-.5-15.7,2.5-30.5,8.2-45.5,6.4-16.6,16.5-29.7,30-40.1,19-14.7,41.2-21.3,65.1-18.3,29.2,3.5,52.9,17.6,68.8,42.8,7.2,11.4,12.3,23.9,13.6,37.6.7,7.4,2.2,14.8,3.3,22.3v-.2h0ZM658.6,189c-1.3-8.7-1.9-17.5-3.8-26-2.6-11.6-6.6-22.3-19.8-27-12.7-4.5-24-1.8-32.7,8.4-7.5,8.8-9.9,19.3-10.4,29.8-.6,12.4.7,25.1,2.1,37.6,1.5,12.9,6.8,23.3,20.2,28.6,11.6,4.6,25.1,1.9,32.4-8.1,9.4-13,11.6-27.8,12.2-43.4h-.2Z"/>
        <path class="cls-1" d="M1260.8,57.8c-2.4-.3-5.2-.2-7.4-1.1-8.9-3.5-17.3-3-25.4,2-6.2,3.8-6.6,10.9-7.8,17.1-.9,4.7-.2,9.6-.2,15.2h32.9v48.5h-32.8v145.5h-60.8v-145.4c-6.9,0-13-.4-19.1,0-5.2.4-6.9-1.9-6.9-6.5,0-11.8-.2-23.6.2-35.5,0-1.5,2.5-3.6,4.3-4,6.8-1.4,13.6-2.1,21.3-3.3v-9.4c0-20.2,4.9-38.6,18.4-54.1,7.8-9,18.2-14.5,29.4-17.3,9.3-2.3,19.2-3.5,28.6-3,11.8.5,23.4,3.1,36.3,4.9-3.8,16.2-7.3,30.5-11.1,46.3h0Z"/>
        <path class="cls-1" d="M1532.7,110.6c-7.4,10.4-14.6,19.9-21.3,29.6-4.7,6.8-5.3,7.1-12.2,2.4-12.2-8.3-25.2-13.8-40.3-11.7-3.7.5-7.9,2.1-10.6,4.5-6.2,5.7-4.9,15.3,2.8,19.4,9.1,4.8,18.7,8.5,28.2,12.3,20.3,8,40.1,17.1,49.3,38.6,6.4,14.8,5,29.7-1,45-6.4,16.3-18.3,26.2-33.1,33.1-8.4,3.9-17.9,5.9-27.1,7-14.1,1.7-28.2.9-42-3.1-14.5-4.3-28-10.9-40.6-19.1-4.3-2.7-5.8-5.6-1.9-10.7,6.8-8.9,12.9-18.4,18.9-28,2.5-3.9,5.4-4.1,8.3-1.7,9.6,8.1,21.1,12.4,32.5,16.8,11.3,4.3,28.6-.4,33.8-8.6,2.5-4,2.5-7.9-.5-12.1-6.3-8.6-16-11.4-25.1-14.9-22.3-8.4-44-16.9-55.9-39.7-5.7-11.1-6.4-23-3.9-34.7,2.8-12.7,8.1-24.7,19.4-32.4,6.6-4.5,14-8.4,21.3-11.7,12.9-6,26.8-7.1,40.8-5.9,17.4,1.5,33.4,7.4,48,16.8,4.1,2.6,8,5.5,12.3,8.5v.3h-.1Z"/>
        <path class="cls-1" d="M761.6,91.3c15.4,0,30.2,0,45,.2,1.5,0,3.8,2,4,3.5,1,5.8,1.2,11.7,2.1,17.5.5,3.6,1.9,7.2,3.4,12.4,8-14.2,16.6-24.6,28.7-31.7,14.2-8.4,29.2-11.2,44.8-4.4,1.6.7,3.4,3.8,3.1,5.5-2.2,14.6-4.8,29.2-7.3,43.8-.7,4.5-3.7,5-7.1,3.8-12.4-4.2-24.4-3.1-34.9,4.2-6.2,4.3-11.1,10.6-15.8,16.6-5.6,7.1-6.4,15.6-6.3,24.6.5,30.2.2,60.5.2,90.7v7.1h-60V91.5l.2-.2h-.1Z"/>
        <path class="cls-1" d="M1286.6,284.8V91.8h60.4v193.1h-60.4Z"/>
        <path class="cls-1" d="M1283.6,32C1282.3,13.5,1298.4-.3,1317.4,0c16.4.3,33.7,12.7,33,32.4-.7,18.3-14.3,31.8-33.5,31.5-19.1-.3-34.2-12-33.2-32h-.1Z"/>
      </g>
    </g>
  </g>
</svg>