<svg xml:space="preserve" viewBox="0 0 850.39 368.5" height="200px" width="300px" y="0px" x="0px" xmlns:xlink="http://www.w3.org/1999/xlink" xmlns="http://www.w3.org/2000/svg" id="图层_1" version="1.1">
<g>
	<g>
		<path d="M122.4,325.65c-0.499-0.235-0.84-0.61-1.025-1.125
			c-0.187-0.518-0.162-1.026,0.075-1.525c0.234-0.498,0.609-0.84,1.125-1.025c4.224-1.508,8.582-2.983,13.075-4.425
			c0.515-0.169,1.015-0.127,1.5,0.125c0.494,0.248,0.827,0.632,1,1.15c0.17,0.524,0.128,1.032-0.125,1.524
			c-0.256,0.494-0.647,0.827-1.176,1c-4.44,1.426-8.749,2.884-12.925,4.375C123.407,325.912,122.898,325.887,122.4,325.65z
			 M105.025,328.475c2.141-0.833,4.316-1.666,6.524-2.5c0.515-0.195,1.023-0.179,1.525,0.051c0.504,0.231,0.854,0.606,1.05,1.125
			c0.195,0.514,0.179,1.021-0.05,1.524c-0.233,0.504-0.608,0.854-1.125,1.05c-2.192,0.834-4.351,1.667-6.476,2.5
			c-0.511,0.195-1.019,0.179-1.524-0.05c-0.503-0.222-0.853-0.588-1.05-1.1c-0.204-0.512-0.195-1.02,0.024-1.525
			C104.146,329.04,104.513,328.682,105.025,328.475z M140.625,283.65c0.385-0.394,0.852-0.594,1.4-0.601
			c0.551-0.005,1.026,0.187,1.425,0.575c0.394,0.385,0.594,0.851,0.6,1.4c0.005,0.551-0.187,1.025-0.575,1.425l-3.35,3.35
			c-0.385,0.394-0.852,0.594-1.4,0.601c-0.551,0.005-1.026-0.187-1.425-0.575c-0.394-0.385-0.594-0.851-0.6-1.4
			c-0.005-0.551,0.187-1.025,0.575-1.425L140.625,283.65z M138.25,271.5c0.556-0.004,1.031,0.188,1.425,0.575l2.601,2.6
			c0.387,0.395,0.578,0.869,0.574,1.425c0.004,0.557-0.188,1.031-0.574,1.426c-0.395,0.387-0.869,0.578-1.426,0.574
			c-0.556,0.004-1.03-0.188-1.425-0.574l-2.6-2.601c-0.388-0.394-0.579-0.869-0.575-1.425c-0.004-0.556,0.188-1.031,0.575-1.425
			C137.219,271.688,137.694,271.496,138.25,271.5z M205.6,328.725c0.531-0.151,1.039-0.094,1.525,0.176l4.55,2.55
			c0.481,0.271,0.798,0.671,0.95,1.2c0.152,0.532,0.094,1.041-0.175,1.524c-0.271,0.483-0.671,0.8-1.2,0.95
			c-0.531,0.152-1.039,0.094-1.525-0.175l-4.55-2.55c-0.481-0.271-0.798-0.672-0.95-1.2c-0.152-0.532-0.094-1.041,0.176-1.525
			C204.671,329.192,205.071,328.875,205.6,328.725z M196.575,316.15c0.545,0.046,0.995,0.279,1.35,0.699l3.25,3.801
			c0.359,0.43,0.518,0.921,0.476,1.475c-0.055,0.546-0.296,0.996-0.726,1.35c-0.421,0.36-0.903,0.52-1.45,0.476
			c-0.545-0.046-0.994-0.279-1.35-0.7l-3.25-3.8c-0.359-0.43-0.518-0.922-0.475-1.476c0.054-0.545,0.295-0.995,0.725-1.35
			C195.546,316.265,196.029,316.106,196.575,316.15z M211.425,319.55c0.36,0.419,0.519,0.902,0.476,1.45
			c-0.046,0.552-0.279,1.01-0.7,1.375l-3.45,3c-0.42,0.359-0.903,0.518-1.45,0.475c-0.552-0.044-1.011-0.277-1.375-0.699
			c-0.359-0.42-0.518-0.902-0.475-1.45c0.045-0.552,0.278-1.01,0.7-1.375l3.449-3c0.42-0.359,0.903-0.518,1.45-0.476
			C210.603,318.895,211.061,319.128,211.425,319.55z M191.2,334.025c-0.27-0.485-0.327-0.994-0.175-1.525
			c0.152-0.529,0.469-0.93,0.949-1.2l5.25-2.85c0.486-0.269,0.995-0.327,1.525-0.175c0.529,0.15,0.93,0.467,1.2,0.949
			c0.269,0.485,0.327,0.994,0.175,1.525c-0.152,0.529-0.469,0.93-0.95,1.2l-5.25,2.85c-0.486,0.269-0.994,0.327-1.524,0.175
			C191.87,334.824,191.471,334.508,191.2,334.025z M155.8,289.05c0.004,0.556-0.188,1.031-0.575,1.425
			c-0.394,0.387-0.869,0.579-1.425,0.575c-0.556,0.004-1.03-0.188-1.425-0.575l-3.3-3.3c-0.388-0.394-0.579-0.869-0.575-1.425
			c-0.004-0.556,0.188-1.031,0.575-1.425c0.394-0.388,0.869-0.579,1.425-0.575c0.556-0.004,1.031,0.188,1.425,0.575l3.3,3.3
			C155.611,288.02,155.804,288.494,155.8,289.05z M153.775,273.25c0.402,0.383,0.61,0.85,0.625,1.4
			c0.013,0.55-0.171,1.024-0.551,1.425l-2.5,2.55c-0.384,0.401-0.851,0.609-1.399,0.625c-0.551,0.014-1.026-0.17-1.425-0.55
			c-0.402-0.384-0.611-0.851-0.625-1.4s0.17-1.024,0.55-1.425l2.5-2.55c0.384-0.401,0.851-0.61,1.399-0.625
			C152.9,272.687,153.376,272.869,153.775,273.25z M287.55,314.15c0.441-0.33,0.933-0.455,1.476-0.375
			c0.547,0.075,0.988,0.334,1.324,0.774c0.33,0.439,0.455,0.932,0.375,1.476c-0.077,0.547-0.335,0.988-0.774,1.324l-7.9,6
			c-0.441,0.33-0.933,0.455-1.475,0.375c-0.547-0.075-0.989-0.334-1.325-0.774c-0.33-0.439-0.455-0.932-0.375-1.476
			c0.077-0.547,0.336-0.988,0.775-1.324L287.55,314.15z M293.725,316.125c0.232-0.504,0.607-0.854,1.125-1.05
			c0.515-0.195,1.022-0.179,1.525,0.05c0.504,0.232,0.854,0.607,1.05,1.125l2.5,6.55c0.195,0.515,0.179,1.023-0.05,1.525
			c-0.231,0.504-0.606,0.854-1.125,1.05c-0.514,0.195-1.022,0.179-1.525-0.05c-0.504-0.233-0.854-0.608-1.05-1.125l-2.5-6.55
			C293.479,317.135,293.496,316.627,293.725,316.125z M279.55,303.75c0.519-0.178,1.027-0.145,1.525,0.1l6.8,3.301
			c0.498,0.244,0.84,0.628,1.025,1.149c0.178,0.52,0.145,1.028-0.101,1.525c-0.244,0.499-0.628,0.841-1.149,1.024
			c-0.519,0.179-1.027,0.145-1.525-0.1l-6.8-3.3c-0.499-0.245-0.841-0.628-1.025-1.15c-0.179-0.52-0.145-1.027,0.101-1.524
			C278.645,304.275,279.027,303.934,279.55,303.75z M291.1,299.35c-0.003-0.556,0.188-1.03,0.575-1.425
			c0.395-0.387,0.869-0.578,1.425-0.575c0.557-0.003,1.031,0.188,1.426,0.575c0.387,0.395,0.578,0.869,0.574,1.425v4.95
			c0.004,0.556-0.188,1.031-0.574,1.425c-0.395,0.387-0.869,0.579-1.426,0.575c-0.556,0.004-1.03-0.188-1.425-0.575
			c-0.387-0.394-0.578-0.869-0.575-1.425V299.35z M297.475,311.425c-0.229-0.503-0.245-1.011-0.05-1.524
			c0.197-0.518,0.547-0.893,1.05-1.125l6.351-2.95c0.503-0.229,1.012-0.245,1.524-0.05c0.519,0.195,0.894,0.546,1.125,1.05
			c0.229,0.503,0.246,1.011,0.051,1.524c-0.197,0.518-0.548,0.893-1.051,1.125l-6.35,2.95c-0.504,0.229-1.012,0.245-1.525,0.05
			C298.082,312.279,297.707,311.929,297.475,311.425z M274.325,254.025c-1.806-1.813-3.98-2.721-6.525-2.726
			c-2.529,0.003-4.729,0.911-6.6,2.726h0.024c-1.813,1.805-2.721,3.979-2.725,6.524c0.002,2.576,0.91,4.768,2.725,6.575H261.2
			c1.87,1.814,4.07,2.723,6.6,2.725c2.545-0.004,4.72-0.912,6.525-2.725c1.814-1.808,2.723-3.999,2.725-6.575
			C277.046,258.005,276.138,255.83,274.325,254.025z M277.175,251.175c2.588,2.595,3.88,5.72,3.875,9.375
			c0.002,3.69-1.289,6.833-3.875,9.425c-2.595,2.588-5.72,3.88-9.375,3.875c-3.604,0.003-6.737-1.289-9.399-3.875h-0.025
			c-2.586-2.592-3.877-5.734-3.875-9.425c-0.004-3.655,1.287-6.78,3.875-9.375h0.025c2.662-2.585,5.796-3.877,9.399-3.875
			C271.455,247.296,274.58,248.587,277.175,251.175z M318.025,284.075c0.43,0.354,0.671,0.804,0.725,1.35
			c0.043,0.546-0.115,1.029-0.475,1.45c-0.354,0.429-0.804,0.671-1.351,0.725c-61.983,5.155-117.684,15.08-167.1,29.775
			c-0.528,0.152-1.036,0.094-1.525-0.175c-0.489-0.26-0.813-0.651-0.975-1.175c-0.153-0.529-0.095-1.037,0.175-1.525
			c0.259-0.488,0.65-0.813,1.175-0.975c49.651-14.771,105.618-24.746,167.9-29.926C317.12,283.557,317.604,283.715,318.025,284.075z
			 M262.65,181.4c-0.004-0.557,0.188-1.031,0.574-1.426c0.395-0.387,0.869-0.578,1.426-0.574c0.556-0.004,1.03,0.188,1.425,0.574
			c0.387,0.395,0.578,0.869,0.575,1.426v6.8h6.8c0.556-0.004,1.03,0.188,1.425,0.575c0.387,0.394,0.578,0.869,0.575,1.425
			c0.003,0.556-0.188,1.03-0.575,1.425c-0.395,0.387-0.869,0.578-1.425,0.575h-6.8v6.8c0.003,0.556-0.188,1.031-0.575,1.425
			c-0.395,0.387-0.869,0.579-1.425,0.575c-0.557,0.004-1.031-0.188-1.426-0.575c-0.387-0.394-0.578-0.869-0.574-1.425v-6.8h-6.801
			c-0.556,0.003-1.03-0.188-1.425-0.575c-0.387-0.395-0.578-0.869-0.575-1.425c-0.003-0.556,0.188-1.031,0.575-1.425
			c0.395-0.388,0.869-0.579,1.425-0.575h6.801V181.4z M244.725,117.925c0.395-0.387,0.869-0.578,1.426-0.575
			c0.556-0.003,1.03,0.188,1.425,0.575c0.387,0.395,0.578,0.869,0.575,1.425v1.351c0.003,0.556-0.188,1.03-0.575,1.425
			c-0.395,0.387-0.869,0.578-1.425,0.575c-0.557,0.003-1.031-0.188-1.426-0.575c-0.387-0.395-0.578-0.869-0.574-1.425v-1.351
			C244.146,118.794,244.338,118.319,244.725,117.925z M251.95,97.375l0.024,0.025c1.656,1.622,2.48,3.571,2.476,5.85
			c-0.003,2.306-0.819,4.248-2.45,5.825c-0.024,0.025-0.05,0.051-0.075,0.075c-0.996,1.019-2.121,1.719-3.375,2.1l-0.024,0.025
			c-0.124,0.035-0.249,0.069-0.375,0.1v2.575c0.003,0.556-0.188,1.03-0.575,1.425c-0.395,0.387-0.869,0.578-1.425,0.575
			c-0.557,0.003-1.031-0.188-1.426-0.575c-0.387-0.395-0.578-0.869-0.574-1.425V109.6c-0.004-0.556,0.188-1.03,0.574-1.425
			c0.395-0.387,0.869-0.578,1.426-0.575c0.431,0,0.839-0.058,1.225-0.175l-0.025,0.025c0.649-0.21,1.232-0.585,1.75-1.125
			c0.025-0.023,0.051-0.049,0.075-0.075c0.853-0.809,1.278-1.809,1.275-3c-0.006-1.177-0.439-2.186-1.3-3.025l-0.025-0.024
			c-0.812-0.833-1.804-1.25-2.975-1.25c-1.183,0.001-2.207,0.418-3.075,1.25l-0.025,0.024c-0.804,0.841-1.204,1.849-1.2,3.025
			c0,0.3,0,0.583,0,0.85c0.004,0.557-0.188,1.031-0.574,1.426c-0.395,0.387-0.869,0.578-1.426,0.574
			c-0.556,0.004-1.03-0.188-1.425-0.574c-0.387-0.395-0.578-0.869-0.575-1.426c0-0.267,0-0.55,0-0.85
			c0.005-2.278,0.796-4.229,2.375-5.85l0.025-0.025c1.66-1.618,3.627-2.426,5.9-2.425C248.434,94.949,250.366,95.758,251.95,97.375z
			 M218.85,233.55c0.557-0.003,1.031,0.188,1.426,0.575c0.387,0.395,0.578,0.869,0.574,1.425v9h9
			c0.557-0.003,1.031,0.188,1.426,0.575c0.387,0.395,0.578,0.869,0.574,1.425c0.004,0.556-0.188,1.031-0.574,1.425
			c-0.395,0.387-0.869,0.579-1.426,0.575h-9v9c0.004,0.556-0.188,1.031-0.574,1.425c-0.395,0.387-0.869,0.579-1.426,0.575
			c-0.556,0.004-1.03-0.188-1.425-0.575c-0.387-0.394-0.578-0.869-0.575-1.425v-9h-9c-0.556,0.004-1.03-0.188-1.425-0.575
			c-0.387-0.394-0.578-0.869-0.575-1.425c-0.003-0.556,0.188-1.03,0.575-1.425c0.395-0.387,0.869-0.578,1.425-0.575h9v-9
			c-0.003-0.556,0.188-1.03,0.575-1.425C217.819,233.738,218.294,233.547,218.85,233.55z M222.375,95.825
			c-6.046,3.554-9.121,7.812-9.225,12.774c0.098,4.961,3.164,9.202,9.199,12.726h0.025c6.52,3.816,14.395,5.725,23.625,5.725
			c1.921-0.001,5.571-0.326,10.95-0.975c0.512-0.063,0.979,0.053,1.399,0.35l7.65,5.45V124.5c0.003-0.367,0.103-0.709,0.3-1.025
			c0.19-0.322,0.448-0.572,0.775-0.75c0.874-0.45,1.732-0.917,2.575-1.399c6.035-3.523,9.102-7.765,9.199-12.726
			c-0.104-4.963-3.179-9.221-9.225-12.774h0.025c-6.527-3.784-14.411-5.676-23.65-5.675c-9.239-0.001-17.123,1.891-23.65,5.675
			H222.375z M209.15,108.6c-0.105-6.369,3.619-11.777,11.175-16.225h0.024c7.073-4.149,15.623-6.225,25.65-6.225
			s18.577,2.075,25.65,6.225h0.024c7.556,4.447,11.28,9.855,11.175,16.225c0.1,6.373-3.634,11.765-11.199,16.176
			c-0.544,0.315-1.094,0.623-1.65,0.925v10.05c0.003,0.505-0.163,0.946-0.5,1.325c-0.342,0.378-0.767,0.595-1.275,0.649
			c-0.503,0.061-0.961-0.057-1.375-0.35l-10.175-7.25c-5.198,0.618-8.757,0.926-10.675,0.925
			c-10.036,0.001-18.594-2.091-25.675-6.274h0.024C212.784,120.364,209.051,114.973,209.15,108.6z M728.525,327.125
			c-0.517-0.186-0.892-0.527-1.125-1.025c-0.237-0.498-0.262-1.007-0.075-1.524c0.185-0.516,0.526-0.891,1.024-1.125
			c0.5-0.236,1.009-0.262,1.525-0.075c4.726,1.675,9.268,3.383,13.625,5.125c0.514,0.208,0.881,0.566,1.1,1.075
			c0.213,0.507,0.213,1.016,0,1.524c-0.207,0.514-0.565,0.88-1.074,1.101c-0.508,0.211-1.017,0.211-1.525,0
			C737.69,330.475,733.199,328.783,728.525,327.125z M627.25,331.475c-0.27-0.484-0.327-0.993-0.175-1.524
			c0.152-0.529,0.469-0.93,0.95-1.2l5.25-2.85c0.486-0.27,0.994-0.327,1.524-0.176s0.93,0.468,1.2,0.95
			c0.27,0.485,0.327,0.993,0.175,1.525c-0.152,0.529-0.469,0.929-0.95,1.2l-5.25,2.85c-0.486,0.269-0.994,0.327-1.524,0.175
			C627.92,332.273,627.521,331.957,627.25,331.475z M632.625,313.6c0.545,0.047,0.995,0.279,1.35,0.7l3.25,3.8
			c0.359,0.43,0.518,0.922,0.476,1.476c-0.054,0.546-0.296,0.995-0.726,1.35c-0.42,0.36-0.903,0.519-1.449,0.476
			c-0.545-0.047-0.995-0.279-1.351-0.7l-3.25-3.8c-0.359-0.43-0.518-0.922-0.475-1.476c0.054-0.546,0.295-0.995,0.725-1.35
			C631.596,313.715,632.079,313.557,632.625,313.6z M573.025,318.25l-3.351,3.35c-0.385,0.394-0.852,0.594-1.399,0.601
			c-0.552,0.005-1.027-0.187-1.426-0.575c-0.394-0.385-0.594-0.851-0.6-1.4c-0.005-0.551,0.188-1.025,0.575-1.425l3.35-3.35
			c0.385-0.394,0.852-0.594,1.4-0.601c0.552-0.005,1.026,0.187,1.425,0.575c0.395,0.385,0.594,0.851,0.6,1.4
			C573.604,317.376,573.413,317.851,573.025,318.25z M578.625,318.975c-0.387-0.394-0.578-0.869-0.575-1.425
			c-0.003-0.556,0.188-1.03,0.575-1.425c0.395-0.387,0.869-0.578,1.425-0.575c0.556-0.003,1.031,0.188,1.425,0.575l3.301,3.3
			c0.387,0.395,0.578,0.869,0.574,1.425c0.004,0.557-0.188,1.031-0.574,1.426c-0.395,0.387-0.869,0.578-1.426,0.574
			c-0.556,0.004-1.03-0.188-1.425-0.574L578.625,318.975z M566.375,303.875c0.395-0.387,0.869-0.578,1.425-0.575
			c0.556-0.003,1.031,0.188,1.425,0.575l2.601,2.6c0.387,0.395,0.578,0.869,0.575,1.426c0.003,0.556-0.188,1.03-0.575,1.425
			c-0.395,0.387-0.869,0.578-1.425,0.575c-0.557,0.003-1.031-0.188-1.426-0.575l-2.6-2.601c-0.387-0.394-0.578-0.869-0.575-1.425
			C565.797,304.744,565.988,304.27,566.375,303.875z M581.9,304.5c0.551-0.014,1.025,0.17,1.425,0.55
			c0.402,0.384,0.61,0.851,0.625,1.4c0.013,0.55-0.171,1.024-0.55,1.425l-2.5,2.55c-0.385,0.401-0.852,0.61-1.4,0.625
			c-0.551,0.014-1.025-0.169-1.425-0.55c-0.402-0.384-0.61-0.85-0.625-1.4c-0.014-0.55,0.17-1.024,0.55-1.425l2.5-2.55
			C580.884,304.724,581.351,304.516,581.9,304.5z M619.775,253.175c0.387,0.395,0.578,0.869,0.574,1.425
			c0.004,0.557-0.188,1.031-0.574,1.426c-0.395,0.387-0.869,0.578-1.426,0.574h-6.8v6.801c0.004,0.556-0.188,1.03-0.575,1.425
			c-0.394,0.387-0.869,0.578-1.425,0.575c-0.556,0.003-1.03-0.188-1.425-0.575c-0.387-0.395-0.578-0.869-0.575-1.425V256.6h-6.8
			c-0.556,0.004-1.031-0.188-1.425-0.574c-0.388-0.395-0.579-0.869-0.575-1.426c-0.004-0.556,0.188-1.03,0.575-1.425
			c0.394-0.387,0.869-0.578,1.425-0.575h6.8v-6.8c-0.003-0.556,0.188-1.03,0.575-1.425c0.395-0.387,0.869-0.578,1.425-0.575
			c0.556-0.003,1.031,0.188,1.425,0.575c0.387,0.395,0.579,0.869,0.575,1.425v6.8h6.8
			C618.906,252.597,619.381,252.788,619.775,253.175z M686.275,311.775c0.149-0.529,0.466-0.929,0.949-1.2
			c0.476-0.276,0.976-0.344,1.5-0.2c4.75,1.3,9.467,2.65,14.15,4.05l0.025,0.025c1.833,0.566,3.666,1.133,5.5,1.7
			c3.908,1.232,7.717,2.467,11.425,3.699c0.52,0.174,0.903,0.508,1.149,1c0.254,0.495,0.295,1.003,0.125,1.525
			c-0.174,0.521-0.507,0.903-1,1.15c-0.494,0.252-1.002,0.294-1.524,0.125c-3.692-1.233-7.483-2.467-11.375-3.7
			c-1.833-0.567-3.667-1.134-5.5-1.7l0.024,0.025c-4.649-1.4-9.333-2.75-14.05-4.051c-0.528-0.15-0.929-0.467-1.2-0.949
			C686.198,312.8,686.131,312.3,686.275,311.775z M682.125,310.625c-0.141,0.527-0.449,0.927-0.925,1.2
			c-0.474,0.276-0.974,0.343-1.5,0.2c-41.668-11.001-87.526-18.842-137.575-23.525c-0.556-0.055-1.015-0.297-1.375-0.725
			c-0.353-0.423-0.502-0.906-0.45-1.45c0.055-0.556,0.297-1.015,0.726-1.375c0.422-0.353,0.905-0.502,1.449-0.45
			c50.285,4.717,96.36,12.608,138.226,23.675c0.536,0.142,0.944,0.449,1.225,0.925C682.202,309.582,682.269,310.09,682.125,310.625z
			 M647.725,328.9c0.481,0.271,0.798,0.671,0.95,1.199c0.152,0.533,0.094,1.041-0.175,1.525c-0.271,0.482-0.671,0.8-1.2,0.95
			c-0.53,0.151-1.039,0.094-1.524-0.175l-4.551-2.551c-0.48-0.271-0.798-0.671-0.949-1.199c-0.152-0.533-0.094-1.041,0.175-1.525
			c0.271-0.482,0.671-0.8,1.2-0.95c0.53-0.151,1.039-0.094,1.524,0.175L647.725,328.9z M646.1,316.3
			c0.553,0.045,1.012,0.278,1.375,0.7c0.36,0.419,0.519,0.902,0.476,1.45c-0.046,0.552-0.278,1.01-0.7,1.375l-3.45,3
			c-0.419,0.358-0.903,0.517-1.45,0.475c-0.552-0.044-1.011-0.278-1.375-0.7c-0.359-0.419-0.518-0.902-0.475-1.449
			c0.045-0.552,0.278-1.01,0.7-1.375l3.45-3C645.069,316.416,645.553,316.258,646.1,316.3z M650.675,279.05
			c-0.358-0.419-0.517-0.903-0.475-1.45c0.044-0.552,0.278-1.011,0.7-1.375c0.419-0.359,0.902-0.518,1.449-0.475
			c0.552,0.045,1.01,0.278,1.375,0.7l2.95,3.5c0.359,0.419,0.518,0.903,0.476,1.45c-0.045,0.552-0.278,1.011-0.7,1.375
			c-0.419,0.359-0.902,0.518-1.45,0.475c-0.552-0.045-1.01-0.278-1.375-0.7L650.675,279.05z M646.3,274.8
			c0.44-0.329,0.933-0.454,1.476-0.375c0.547,0.076,0.988,0.335,1.324,0.775c0.33,0.439,0.455,0.931,0.375,1.475
			c-0.076,0.547-0.335,0.988-0.774,1.325l-3.75,2.75c-0.44,0.329-0.933,0.454-1.476,0.375c-0.547-0.076-0.988-0.334-1.324-0.775
			c-0.33-0.439-0.455-0.931-0.375-1.475c0.076-0.547,0.335-0.988,0.774-1.325L646.3,274.8z M641.7,265.875
			c0.545-0.07,1.036,0.063,1.475,0.4l5.2,4c0.433,0.338,0.683,0.78,0.75,1.324c0.071,0.546-0.063,1.037-0.4,1.476
			c-0.338,0.434-0.779,0.684-1.324,0.75c-0.545,0.07-1.037-0.063-1.476-0.4l-5.2-4c-0.433-0.339-0.683-0.78-0.75-1.325
			c-0.07-0.545,0.063-1.037,0.4-1.475C640.713,266.191,641.154,265.941,641.7,265.875z M653.425,271.675
			c0.292-0.478,0.708-0.785,1.25-0.925l3.15-0.85c0.528-0.135,1.028-0.06,1.5,0.225c0.478,0.284,0.786,0.692,0.925,1.225
			c0.135,0.538,0.06,1.047-0.225,1.525c-0.292,0.478-0.708,0.785-1.25,0.925l-3.15,0.851c-0.529,0.134-1.029,0.059-1.5-0.226
			c-0.479-0.283-0.786-0.692-0.925-1.225C653.065,272.662,653.141,272.154,653.425,271.675z M650.925,263.05
			c0.448-0.315,0.94-0.424,1.476-0.325c0.546,0.106,0.979,0.39,1.3,0.851c0.315,0.448,0.423,0.94,0.325,1.475l-0.9,4.9
			c-0.106,0.546-0.39,0.979-0.85,1.3c-0.449,0.315-0.94,0.424-1.476,0.325c-0.547-0.106-0.979-0.39-1.3-0.851
			c-0.315-0.448-0.424-0.939-0.325-1.475l0.9-4.9C650.182,263.804,650.465,263.37,650.925,263.05z M625.5,201.65
			c3.655-0.005,6.78,1.287,9.375,3.875c2.588,2.595,3.879,5.72,3.875,9.375c0.002,3.69-1.289,6.832-3.875,9.425
			c-2.595,2.587-5.72,3.879-9.375,3.875c-3.604,0.002-6.737-1.29-9.4-3.875h-0.024c-2.586-2.593-3.878-5.734-3.875-9.425
			c-0.005-3.655,1.287-6.78,3.875-9.375h0.024C618.763,202.939,621.896,201.647,625.5,201.65z M632.025,208.375
			c-1.806-1.813-3.98-2.721-6.525-2.725c-2.529,0.002-4.729,0.91-6.6,2.725h0.024c-1.813,1.805-2.721,3.98-2.725,6.525
			c0.002,2.576,0.91,4.768,2.725,6.574H618.9c1.87,1.814,4.07,2.723,6.6,2.726c2.545-0.005,4.72-0.913,6.525-2.726
			c1.814-1.807,2.723-3.998,2.725-6.574C634.746,212.355,633.837,210.18,632.025,208.375z M564.675,233.875h0.025
			c1.629-1.587,3.546-2.378,5.75-2.375c2.256-0.003,4.181,0.788,5.774,2.375c1.587,1.594,2.379,3.519,2.375,5.775
			c0.004,2.256-0.788,4.181-2.375,5.774c-1.594,1.587-3.519,2.378-5.774,2.375c-2.204,0.003-4.121-0.788-5.75-2.375h-0.025
			c-1.587-1.594-2.378-3.519-2.375-5.774C562.297,237.394,563.088,235.469,564.675,233.875z M570.45,235.5
			c-1.13,0.003-2.113,0.411-2.95,1.225h0.025c-0.813,0.807-1.223,1.781-1.226,2.926c0.003,1.144,0.412,2.118,1.226,2.925H567.5
			c0.837,0.813,1.82,1.222,2.95,1.225c1.144-0.003,2.118-0.411,2.925-1.225c0.813-0.807,1.222-1.781,1.225-2.925
			c-0.003-1.145-0.411-2.119-1.225-2.926C572.568,235.912,571.594,235.503,570.45,235.5z M585.4,186.1
			c0.556-0.003,1.03,0.188,1.425,0.575c0.387,0.395,0.578,0.869,0.575,1.425v6.801h6.8c0.556-0.004,1.03,0.188,1.425,0.574
			c0.387,0.395,0.578,0.869,0.575,1.426c0.003,0.556-0.188,1.03-0.575,1.425c-0.395,0.387-0.869,0.578-1.425,0.575h-6.8v6.8
			c0.003,0.556-0.188,1.03-0.575,1.425c-0.395,0.387-0.869,0.578-1.425,0.575c-0.557,0.003-1.031-0.188-1.426-0.575
			c-0.387-0.395-0.578-0.869-0.574-1.425v-6.8H576.6c-0.556,0.003-1.03-0.188-1.425-0.575c-0.387-0.395-0.578-0.869-0.575-1.425
			c-0.003-0.557,0.188-1.031,0.575-1.426c0.395-0.387,0.869-0.578,1.425-0.574h6.801V188.1c-0.004-0.556,0.188-1.03,0.574-1.425
			C584.369,186.288,584.844,186.097,585.4,186.1z M574.9,134.3c0.206-0.798,0.664-1.406,1.375-1.825
			c0.717-0.423,1.475-0.531,2.274-0.324c0.798,0.205,1.406,0.664,1.825,1.375c0.423,0.717,0.531,1.476,0.325,2.274l-1.3,4.95
			c-0.207,0.799-0.665,1.406-1.375,1.825c-0.717,0.423-1.476,0.531-2.275,0.325c-0.797-0.206-1.406-0.664-1.825-1.375
			c-0.423-0.718-0.53-1.477-0.325-2.275L574.9,134.3z M583.85,100.875c0.216-0.797,0.683-1.405,1.4-1.825
			c0.719-0.415,1.477-0.515,2.275-0.3s1.406,0.682,1.824,1.4c0.416,0.717,0.516,1.475,0.301,2.274l-6,22.4
			c-0.216,0.797-0.683,1.405-1.4,1.825c-0.719,0.415-1.477,0.515-2.275,0.3s-1.406-0.682-1.824-1.4
			c-0.416-0.717-0.516-1.475-0.301-2.274L583.85,100.875z M556.5,75.85c-0.688-0.457-1.112-1.091-1.275-1.899
			c-0.17-0.808-0.028-1.558,0.426-2.25c0.458-0.695,1.091-1.129,1.899-1.3L578.3,66.1c0.809-0.161,1.559-0.012,2.25,0.45
			c0.688,0.458,1.112,1.091,1.275,1.9c0.171,0.808,0.028,1.558-0.425,2.25c-0.459,0.695-1.092,1.129-1.9,1.3l-20.75,4.3
			C557.941,76.462,557.191,76.312,556.5,75.85z M551.175,63.175c-0.423-0.717-0.531-1.475-0.325-2.274
			c0.209-0.798,0.667-1.406,1.375-1.825l24.301-14.351c0.719-0.423,1.478-0.531,2.274-0.324c0.798,0.205,1.406,0.663,1.825,1.375
			c0.424,0.717,0.531,1.475,0.325,2.274c-0.208,0.798-0.667,1.406-1.375,1.825l-24.3,14.35c-0.72,0.424-1.479,0.532-2.275,0.325
			C552.203,64.345,551.594,63.886,551.175,63.175z M556.85,33.85c0.684,0.474,1.101,1.115,1.25,1.926
			c0.151,0.814-0.007,1.564-0.475,2.25l-11.2,16.149c-0.482,0.675-1.132,1.083-1.95,1.226c-0.807,0.144-1.549-0.023-2.225-0.5
			c-0.684-0.473-1.101-1.115-1.25-1.926c-0.15-0.814,0.008-1.564,0.475-2.25l11.2-16.149c0.482-0.675,1.133-1.083,1.95-1.226
			C555.433,33.206,556.174,33.373,556.85,33.85z" fill="#9BA8D5" clip-rule="evenodd" fill-rule="evenodd"></path>
	</g>
	<g>
		<g>
			<linearGradient y2="42.7505" x2="424.2505" y1="317.4004" x1="424.2505" gradientUnits="userSpaceOnUse" id="SVGID_1_">
				<stop style="stop-color:#478CCB" offset="0"></stop>
				<stop style="stop-color:#6AABDE" offset="1"></stop>
			</linearGradient>
			<path d="M497.975,52.425c3.801,3.808,6.492,8.083,8.075,12.825
				h6.101c9.095-0.002,16.87,3.223,23.324,9.675c6.453,6.455,9.678,14.229,9.676,23.325V284.4c0.002,9.095-3.223,16.87-9.676,23.324
				c-6.454,6.453-14.229,9.678-23.324,9.676H373.85c-9.095,0.002-16.87-3.223-23.324-9.676c-3.811-3.807-6.494-8.082-8.051-12.824
				h-6.125c-9.095,0.002-16.87-3.223-23.324-9.676c-6.453-6.454-9.678-14.229-9.676-23.324V75.75
				c-0.002-9.096,3.223-16.87,9.676-23.325c6.454-6.452,14.229-9.677,23.324-9.675H474.65
				C483.745,42.748,491.521,45.973,497.975,52.425z M499.625,65.25c-1.334-3.124-3.301-5.982-5.9-8.575
				c-5.278-5.281-11.637-7.923-19.074-7.925H336.35c-7.438,0.002-13.796,2.644-19.074,7.925c-5.281,5.278-7.923,11.637-7.926,19.075
				V261.9c0.003,7.438,2.645,13.796,7.926,19.074c5.278,5.281,11.637,7.923,19.074,7.926h4.801c-0.197-1.459-0.298-2.959-0.301-4.5
				V98.25c-0.002-9.096,3.223-16.87,9.676-23.325c6.454-6.452,14.229-9.677,23.324-9.675H499.625z M539.15,98.25
				c-0.003-7.438-2.645-13.797-7.926-19.075c-5.278-5.281-11.637-7.923-19.074-7.925H373.85c-7.438,0.002-13.796,2.644-19.074,7.925
				c-5.281,5.278-7.923,11.637-7.926,19.075V284.4c-0.005,2.23,0.229,4.355,0.7,6.375c0.049,0.129,0.091,0.262,0.125,0.399
				c1.144,4.606,3.511,8.706,7.101,12.3c5.278,5.281,11.637,7.923,19.074,7.926H512.15c7.438-0.003,13.796-2.645,19.074-7.926
				c5.281-5.278,7.923-11.637,7.926-19.074V98.25z" fill="url(#SVGID_1_)" clip-rule="evenodd" fill-rule="evenodd"></path>
			<linearGradient y2="42.7756" x2="443" y1="317.4248" x1="443" gradientUnits="userSpaceOnUse" id="SVGID_2_">
				<stop style="stop-color:#478CCB;stop-opacity:0.702" offset="0"></stop>
				<stop style="stop-color:#6AABDE;stop-opacity:0.702" offset="1"></stop>
			</linearGradient>
			<path d="M489.95,135.85h-9.9V191.7h9.9V135.85z M492.95,129.85
				c0.829-0.001,1.538,0.291,2.125,0.875c0.584,0.588,0.876,1.296,0.875,2.125V191.7h12.899c0.83-0.001,1.538,0.29,2.125,0.875
				c0.585,0.587,0.877,1.295,0.875,2.125c0.002,0.829-0.29,1.538-0.875,2.125c-0.587,0.584-1.295,0.876-2.125,0.875H377.15
				c-0.83,0.001-1.538-0.291-2.125-0.875c-0.585-0.587-0.877-1.296-0.875-2.125c-0.002-0.83,0.29-1.538,0.875-2.125
				c0.587-0.585,1.295-0.876,2.125-0.875h12.899V125.85c-0.001-0.829,0.291-1.537,0.875-2.125c0.587-0.584,1.296-0.876,2.125-0.875
				h15.9c0.829-0.001,1.538,0.291,2.125,0.875c0.584,0.588,0.876,1.296,0.875,2.125V191.7h20.1V111.85
				c-0.001-0.829,0.291-1.537,0.875-2.125c0.587-0.584,1.296-0.876,2.125-0.875h15.9c0.829-0.001,1.538,0.291,2.125,0.875
				c0.584,0.588,0.876,1.296,0.875,2.125V191.7h20.1V132.85c-0.001-0.829,0.291-1.537,0.875-2.125
				c0.587-0.584,1.296-0.876,2.125-0.875H492.95z M511.85,250c0.002,0.83-0.29,1.538-0.875,2.125
				c-0.587,0.584-1.295,0.876-2.125,0.875H377.15c-0.83,0.001-1.538-0.291-2.125-0.875c-0.585-0.587-0.877-1.295-0.875-2.125
				c-0.002-0.83,0.29-1.538,0.875-2.125c0.587-0.584,1.295-0.876,2.125-0.875H508.85c0.83-0.001,1.538,0.291,2.125,0.875
				C511.56,248.462,511.852,249.17,511.85,250z M511.85,271c0.002,0.83-0.29,1.538-0.875,2.125
				c-0.587,0.584-1.295,0.876-2.125,0.875H377.15c-0.83,0.001-1.538-0.291-2.125-0.875c-0.585-0.587-0.877-1.295-0.875-2.125
				c-0.002-0.83,0.29-1.538,0.875-2.125c0.587-0.584,1.295-0.876,2.125-0.875H508.85c0.83-0.001,1.538,0.291,2.125,0.875
				C511.56,269.462,511.852,270.17,511.85,271z M405.95,191.7V128.85h-9.9V191.7H405.95z M510.975,231.125
				c-0.587,0.584-1.295,0.876-2.125,0.875H377.15c-0.83,0.001-1.538-0.291-2.125-0.875c-0.585-0.587-0.877-1.295-0.875-2.125
				c-0.002-0.83,0.29-1.538,0.875-2.125c0.587-0.584,1.295-0.876,2.125-0.875H508.85c0.83-0.001,1.538,0.291,2.125,0.875
				c0.585,0.587,0.877,1.295,0.875,2.125C511.852,229.83,511.56,230.538,510.975,231.125z M447.95,114.85h-9.9V191.7h9.9V114.85z" fill="url(#SVGID_2_)" clip-rule="evenodd" fill-rule="evenodd"></path>
		</g>
	</g>
</g>
</svg>
