<?xml version="1.0" standalone="no"?><!DOCTYPE svg PUBLIC "-//W3C//DTD SVG 1.1//EN" "http://www.w3.org/Graphics/SVG/1.1/DTD/svg11.dtd"><svg t="1706868041034" class="icon" viewBox="0 0 1024 1024" version="1.1" xmlns="http://www.w3.org/2000/svg" p-id="16100" xmlns:xlink="http://www.w3.org/1999/xlink" width="16" height="16"><path d="M1023 854.4L114 853.2V57.6H1.2v512.8c-0.8 4.6-0.8 9.4 0 14v381.2h1021.8v-111.2z m0 0" p-id="16101"></path><path d="M320.4 342.6l80 80.2L80 743.2 0 663l320.4-320.4z m526.4-184.8l80.2 80.2-433.8 433.8-80.2-80.2L846.8 157.8z m0 0" p-id="16102"></path><path d="M530.4 549.2l-80.2 80.2-207.4-207.2 80.2-80.2 207.4 207.2z m0 0" p-id="16103"></path><path d="M345 173V118.2c0-7.8-6.4-14.2-14.2-14.2-7.8 0-14.2 6.4-14.2 14.2v71.2l61.8 35.6c6.8 3.8 15.6 1.6 19.4-5.4 3.8-6.8 1.6-15.4-5.2-19.4l-47.6-27.2z m-15 112c-63 0-114-51-114-114s51-114 114-114 114 51 114 114-51 114-114 114z m0 0" p-id="16104"></path></svg>