<svg width="19" height="21" viewBox="0 0 19 21" fill="none" xmlns="http://www.w3.org/2000/svg">
<path d="M6.142 4.27083C5.76075 4.27083 5.39512 4.42228 5.12554 4.69187C4.85595 4.96145 4.7045 5.32709 4.7045 5.70833V19.125C4.7045 19.5062 4.85595 19.8719 5.12554 20.1415C5.39512 20.4111 5.76075 20.5625 6.142 20.5625H16.6837C16.8724 20.5625 17.0594 20.5253 17.2338 20.4531C17.4082 20.3808 17.5667 20.275 17.7001 20.1415C17.8336 20.008 17.9395 19.8495 18.0117 19.6751C18.084 19.5007 18.1212 19.3138 18.1212 19.125V5.70833C18.1212 5.32709 17.9697 4.96145 17.7001 4.69187C17.4306 4.42228 17.0649 4.27083 16.6837 4.27083H6.142ZM6.62117 6.1875H16.2045V18.6458H6.62117V6.1875ZM2.3125 0.4375C1.95499 0.437279 1.61023 0.570286 1.3455 0.810563C1.08077 1.05084 0.915073 1.38114 0.880753 1.737L0.875002 1.875V14.8058C0.875273 15.0501 0.968801 15.285 1.13648 15.4626C1.30416 15.6402 1.53333 15.7471 1.77717 15.7614C2.02101 15.7757 2.26112 15.6964 2.44842 15.5396C2.63573 15.3828 2.75611 15.1605 2.78496 14.9179L2.79167 14.8058V2.35417H12.3712C12.6059 2.35414 12.8325 2.26796 13.0079 2.11198C13.1833 1.956 13.2953 1.74107 13.3228 1.50796L13.3295 1.39583C13.3295 1.16111 13.2433 0.934552 13.0873 0.759144C12.9313 0.583735 12.7164 0.471672 12.4833 0.444209L12.3712 0.4375H2.3125Z" fill="#A6A6A6"/>
</svg>
