<?xml version="1.0" encoding="utf-8"?>
<!-- Generator: Adobe Illustrator 26.0.3, SVG Export Plug-In . SVG Version: 6.00 Build 0)  -->
<svg version="1.1" id="图层_1" xmlns="http://www.w3.org/2000/svg" xmlns:xlink="http://www.w3.org/1999/xlink" x="0px" y="0px"
	 viewBox="0 0 19 19" style="enable-background:new 0 0 19 19;" xml:space="preserve">
<style type="text/css">
	.st0{clip-path:url(#SVGID_00000166677274124198807120000001534231377834327208_);}
	.st1{fill-rule:evenodd;clip-rule:evenodd;fill:#FFFFFF;filter:url(#Adobe_OpacityMaskFilter);}
	.st2{mask:url(#mask0_796_8983_00000070833450227544371340000002917513203865788552_);}
	.st3{fill-rule:evenodd;clip-rule:evenodd;}
	.st4{fill:none;stroke:currentColor;stroke-width:1.5;stroke-linecap:round;}
</style>
<g>
	<defs>
		<rect id="SVGID_1_" x="0" width="19" height="19"/>
	</defs>
	<clipPath id="SVGID_00000052783436110482733530000008416262150932912823_">
		<use xlink:href="#SVGID_1_"  style="overflow:visible;"/>
	</clipPath>
	<g style="clip-path:url(#SVGID_00000052783436110482733530000008416262150932912823_);">
		<defs>
			<filter id="Adobe_OpacityMaskFilter" filterUnits="userSpaceOnUse" x="0" y="0" width="19" height="18.9">
				<feColorMatrix  type="matrix" values="1 0 0 0 0  0 1 0 0 0  0 0 1 0 0  0 0 0 1 0"/>
			</filter>
		</defs>
		
			<mask maskUnits="userSpaceOnUse" x="0" y="0" width="19" height="18.9" id="mask0_796_8983_00000070833450227544371340000002917513203865788552_">
			<path class="st1" d="M0,0h19v19H0V0z"/>
		</mask>
		<g class="st2">
			<path class="st3" d="M5.5,15.6H0.9c-0.2,0-0.4-0.1-0.6-0.3C0.1,15.1,0,14.9,0,14.7V2.6c0-0.5,0.4-0.9,0.9-0.9h7.8V0.9
				C8.6,0.4,9,0,9.5,0c0.5,0,0.9,0.4,0.9,0.9v0.9h7.8c0.5,0,0.9,0.4,0.9,0.9v12.1c0,0.2-0.1,0.4-0.3,0.6c-0.2,0.2-0.4,0.3-0.6,0.3
				h-4.6l1.1,2.2c0.2,0.4,0,1-0.4,1.1c-0.3,0.1-0.7,0.1-0.9-0.4l-1.5-3H7.3l-1.5,3c-0.2,0.4-0.5,0.5-1,0.4c-0.4-0.2-0.6-0.7-0.4-1.1
				L5.5,15.6L5.5,15.6z M6.9,14.3C6.9,14.3,6.9,14.3,6.9,14.3l5.2,0c0,0,0,0,0,0h5.6l0-11.2H1.3l0,11.2H6.9L6.9,14.3z"/>
		</g>
		<path class="st4" d="M13.5,7.5v4"/>
		<path class="st4" d="M5.5,8.5v3"/>
		<path class="st4" d="M9.5,5.5v6"/>
	</g>
</g>
</svg>
