<svg id="图层_1" data-name="图层 1" xmlns="http://www.w3.org/2000/svg" viewBox="0 0 11.56 16"><line x1="0.5" y1="5.5" x2="7.5" y2="5.5" fill="none" stroke="#444" stroke-linecap="round"/><line x1="0.5" y1="10.5" x2="6.5" y2="10.5" fill="none" stroke="#444" stroke-linecap="round"/><path d="M11.56,12.78A3.28,3.28,0,1,1,8.28,9.5,3.28,3.28,0,0,1,11.56,12.78Zm-5.62,0a.47.47,0,0,1,.47-.47h1.4v-1.4a.47.47,0,0,1,.94,0v1.4h1.41a.47.47,0,0,1,0,.94H8.75v1.41a.47.47,0,0,1-.94,0V13.25H6.41A.47.47,0,0,1,5.94,12.78Z" transform="translate(0 -0.5)" fill-rule="evenodd"/><path d="M7.5,9.5V2a1,1,0,0,0-1-1h-5a1,1,0,0,0-1,1V15a1,1,0,0,0,1,1h6" transform="translate(0 -0.5)" fill="none" stroke="#444" stroke-linecap="round"/></svg>