<svg id="图层_1" data-name="图层 1" xmlns="http://www.w3.org/2000/svg" xmlns:xlink="http://www.w3.org/1999/xlink"
    viewBox="0 0 691.2 665.6">
    <defs>
        <style>
            .cls-1 {
                fill: none;
            }

            .cls-2 {
                clip-path: url(#clip-path);
            }

            .cls-3 {
                fill: none;
            }

            .cls-4 {
                fill: #3760f0;
            }

            .cls-5 {
                fill: #acb4c0;
            }
        </style>
        <clipPath id="clip-path" transform="translate(-103.88 -117.4)">
            <rect class="cls-1" x="104" y="117" width="691.88" height="666.96" />
        </clipPath>
    </defs>
    <title>添加列</title>
    <g class="cls-2">
        <path class="cls-3"
            d="M487.88,117.4V783H142.28a38.4,38.4,0,0,1-38.4-38.4V155.8a38.4,38.4,0,0,1,38.4-38.4Zm25.6,0h192a38.4,38.4,0,0,1,38.4,38.4V744.6a38.4,38.4,0,0,1-38.4,38.4h-192Zm0,0"
            transform="translate(-103.88 -117.4)" />
        <path class="cls-4"
            d="M118.47,117.4H473.29A14.59,14.59,0,0,1,487.88,132V768.41A14.59,14.59,0,0,1,473.29,783H118.47a14.59,14.59,0,0,1-14.59-14.59V132A14.59,14.59,0,0,1,118.47,117.4Zm190.21,40.19V742.81a14.59,14.59,0,0,0,14.59,14.59H447.69a14.59,14.59,0,0,0,14.59-14.59V157.59A14.59,14.59,0,0,0,447.69,143H323.27A14.59,14.59,0,0,0,308.68,157.59ZM268.49,143H144.07a14.59,14.59,0,0,0-14.59,14.59V742.81a14.59,14.59,0,0,0,14.59,14.59H268.49a14.59,14.59,0,0,0,14.59-14.59V157.59A14.59,14.59,0,0,0,268.49,143Zm14.59,0"
            transform="translate(-103.88 -117.4)" />
    </g>
    <rect class="cls-4" x="486.4" y="512" width="204.8" height="25.6" rx="12.8" />
    <rect class="cls-4" x="581" y="427.6" width="25.6" height="204.8" rx="12.8" />
    <path class="cls-5"
        d="M564.68,143h-38.4a12.8,12.8,0,0,1-12.8-12.8h0a12.8,12.8,0,0,1,12.8-12.8h25.6a12.8,12.8,0,0,1,12.8,12.8h0a12.8,12.8,0,0,1-12.8,12.8h12.8Zm102.4,0h-38.4a12.8,12.8,0,0,1-12.8-12.8h0a12.8,12.8,0,0,1,12.8-12.8h25.6a12.8,12.8,0,0,1,12.8,12.8h0a12.8,12.8,0,0,1-12.8,12.8h12.8Zm51.2,25.6V130.2a12.8,12.8,0,0,1,12.8-12.8h0a12.8,12.8,0,0,1,12.8,12.8v25.6a12.8,12.8,0,0,1-12.8,12.8h0a12.8,12.8,0,0,1-12.8-12.8v12.8Zm0,102.4V232.6a12.8,12.8,0,0,1,12.8-12.8h0a12.8,12.8,0,0,1,12.8,12.8v25.6a12.8,12.8,0,0,1-12.8,12.8h0a12.8,12.8,0,0,1-12.8-12.8V271Zm0,102.4V335a12.8,12.8,0,0,1,12.8-12.8h0a12.8,12.8,0,0,1,12.8,12.8v25.6a12.8,12.8,0,0,1-12.8,12.8h0a12.8,12.8,0,0,1-12.8-12.8v12.8Zm0,102.4V437.4a12.8,12.8,0,0,1,12.8-12.8h0a12.8,12.8,0,0,1,12.8,12.8V463a12.8,12.8,0,0,1-12.8,12.8h0a12.8,12.8,0,0,1-12.8-12.8v12.8Zm0,102.4V539.8a12.8,12.8,0,0,1,12.8-12.8h0a12.8,12.8,0,0,1,12.8,12.8v25.6a12.8,12.8,0,0,1-12.8,12.8h0a12.8,12.8,0,0,1-12.8-12.8v12.8Zm0,192V719a12.8,12.8,0,0,1,12.8-12.8h0a12.8,12.8,0,0,1,12.8,12.8v51.2a12.8,12.8,0,0,1-12.8,12.8h0A12.8,12.8,0,0,1,718.28,770.2Zm-102.4-12.8h38.4a12.8,12.8,0,0,1,12.8,12.8h0a12.8,12.8,0,0,1-12.8,12.8h-25.6a12.8,12.8,0,0,1-12.8-12.8h0a12.8,12.8,0,0,1,12.8-12.8h-12.8Zm-64,0h0a12.8,12.8,0,0,1,12.8,12.8h0a12.8,12.8,0,0,1-12.8,12.8h-25.6a12.8,12.8,0,0,1-12.8-12.8V719a12.8,12.8,0,0,1,12.8-12.8h0a12.8,12.8,0,0,1,12.8,12.8v25.6A12.8,12.8,0,0,0,551.88,757.4ZM526.28,655h0a12.8,12.8,0,0,1-12.8-12.8V616.6a12.8,12.8,0,0,1,12.8-12.8h0a12.8,12.8,0,0,1,12.8,12.8v25.6A12.8,12.8,0,0,1,526.28,655Zm0-102.4h0a12.8,12.8,0,0,1-12.8-12.8V514.2a12.8,12.8,0,0,1,12.8-12.8h0a12.8,12.8,0,0,1,12.8,12.8v25.6A12.8,12.8,0,0,1,526.28,552.6Zm0-102.4h0a12.8,12.8,0,0,1-12.8-12.8V411.8a12.8,12.8,0,0,1,12.8-12.8h0a12.8,12.8,0,0,1,12.8,12.8v25.6A12.8,12.8,0,0,1,526.28,450.2Zm0-102.4h0a12.8,12.8,0,0,1-12.8-12.8V309.4a12.8,12.8,0,0,1,12.8-12.8h0a12.8,12.8,0,0,1,12.8,12.8V335A12.8,12.8,0,0,1,526.28,347.8Zm12.8-102.4V232.6a12.8,12.8,0,0,1-12.8,12.8h0a12.8,12.8,0,0,1-12.8-12.8V207a12.8,12.8,0,0,1,12.8-12.8h0a12.8,12.8,0,0,1,12.8,12.8Zm0,0"
        transform="translate(-103.88 -117.4)" />
</svg>