<svg width="16" height="16" viewBox="0 0 16 16" fill="none" xmlns="http://www.w3.org/2000/svg">
<path d="M2 6C2 6.55228 2.44772 7 3 7H7C7.55228 7 8 6.55228 8 6V2C8 1.44772 7.55228 1 7 1H3C2.44772 1 2 1.44772 2 2V6ZM3 2H7V6H3V2ZM10 1C9.44772 1 9 1.44772 9 2V6C9 6.55228 9.44772 7 10 7H14C14.5523 7 15 6.55228 15 6V2C15 1.44772 14.5523 1 14 1H10ZM14 6H10V2H14V6ZM3 8.5C3 8.22386 3.22386 8 3.5 8V8C3.77614 8 4 8.22386 4 8.5V13.5C4 13.7761 3.77614 14 3.5 14V14C3.22386 14 3 13.7761 3 13.5V8.5ZM6 8.5C6 8.22386 6.22386 8 6.5 8V8C6.77614 8 7 8.22386 7 8.5V13.5C7 13.7761 6.77614 14 6.5 14V14C6.22386 14 6 13.7761 6 13.5V8.5ZM10 8.5C10 8.22386 10.2239 8 10.5 8V8C10.7761 8 11 8.22386 11 8.5V13.5C11 13.7761 10.7761 14 10.5 14V14C10.2239 14 10 13.7761 10 13.5V8.5ZM13 8.5C13 8.22386 13.2239 8 13.5 8V8C13.7761 8 14 8.22386 14 8.5V13.5C14 13.7761 13.7761 14 13.5 14V14C13.2239 14 13 13.7761 13 13.5V8.5Z" fill="#3760F0"/>
</svg>
