<?xml version="1.0" encoding="UTF-8"?>
<svg width="12px" height="13px" viewBox="0 0 12 13" version="1.1" xmlns="http://www.w3.org/2000/svg" xmlns:xlink="http://www.w3.org/1999/xlink">
    <title>database-alt</title>
    <g id="页面-1" stroke="none" stroke-width="1" fill="none" fill-rule="evenodd">
        <g id="树状列表" transform="translate(-80.000000, -685.000000)" fill="#3760F0">
            <path d="M83.3833714,694.533333 C83.0244099,694.533333 82.7333333,694.824351 82.7333333,695.183333 C82.7333333,695.542335 83.0244099,695.833333 83.3833714,695.833333 C83.7422758,695.833333 84.0333333,695.542335 84.0333333,695.183333 C84.0333333,694.824351 83.7422758,694.533333 83.3833714,694.533333 Z M83.3833714,691.066667 C83.0244099,691.066667 82.7333333,691.357669 82.7333333,691.716657 C82.7333333,692.075664 83.0244099,692.366667 83.3833714,692.366667 C83.7422758,692.366667 84.0333333,692.075664 84.0333333,691.716657 C84.0333333,691.357669 83.7422758,691.066667 83.3833714,691.066667 Z M89.0000494,685 L83.0000385,685 C81.3431673,685 80,686.164075 80,687.600027 L80,695.399973 C80,696.835925 81.3431673,698 83.0000385,698 L89.0000494,698 C90.6568327,698 92,696.835925 92,695.399973 L92,687.600027 C92,686.164075 90.6568327,685 89.0000494,685 Z M90.5,695.369578 C90.5,695.722442 90.341995,696.060826 90.0606358,696.31038 C89.7793646,696.559837 89.3978543,696.7 89.0000403,696.7 L83.0000476,696.7 C82.6022336,696.7 82.2206135,696.559837 81.9393642,696.31038 C81.6580929,696.060826 81.5,695.722442 81.5,695.369578 L81.5,693.666667 C81.9530091,693.908445 82.471255,694.037188 83.0000476,694.039175 L89.0000403,694.039175 C89.528745,694.037188 90.0469909,693.908445 90.5,693.666667 L90.5,695.369578 Z M90.5,691.469534 C90.5,691.822389 90.341995,692.160764 90.0606358,692.410312 C89.7793646,692.659782 89.3978543,692.8 89.0000403,692.8 L83.0000476,692.8 C82.6022336,692.8 82.2206135,692.659782 81.9393642,692.410312 C81.6580929,692.160764 81.5,691.822389 81.5,691.469534 L81.5,689.766667 C81.9530091,690.008458 82.471255,690.137178 83.0000476,690.139166 L89.0000403,690.139166 C89.528745,690.137178 90.0469909,690.008458 90.5,689.766667 L90.5,691.469534 Z M89.0000403,688.9 L83.0000476,688.9 C82.1716146,688.9 81.5,688.31794 81.5,687.600029 C81.5,686.88206 82.1716146,686.3 83.0000476,686.3 L89.0000403,686.3 C89.8283854,686.3 90.5,686.88206 90.5,687.600029 C90.5,688.31794 89.8283854,688.9 89.0000403,688.9 Z" id="database-alt"></path>
        </g>
    </g>
</svg>