<svg width="15" height="15" viewBox="0 0 15 15" fill="none" xmlns="http://www.w3.org/2000/svg">
<path d="M5.625 1.3125H2.50313V2.4375H5.625V1.3125ZM2.50313 1.3125C2.18735 1.3125 1.88451 1.43794 1.66123 1.66123C1.43794 1.88451 1.3125 2.18735 1.3125 2.50313H2.4375C2.4375 2.48572 2.44441 2.46903 2.45672 2.45672C2.46903 2.44441 2.48572 2.4375 2.50313 2.4375V1.3125ZM1.3125 2.50313V5.625H2.4375V2.50313H1.3125ZM1.3125 5.625C1.3125 5.94077 1.43794 6.24361 1.66123 6.4669C1.88451 6.69018 2.18735 6.81562 2.50313 6.81562V5.69062C2.48572 5.69062 2.46903 5.68371 2.45672 5.6714C2.44441 5.6591 2.4375 5.6424 2.4375 5.625H1.3125ZM2.50313 6.81562H5.625V5.69062H2.50313V6.81562ZM5.625 6.81562C5.94077 6.81562 6.24361 6.69018 6.4669 6.4669C6.69018 6.24361 6.81562 5.94077 6.81562 5.625H5.69062C5.69062 5.6424 5.68371 5.6591 5.6714 5.6714C5.6591 5.68371 5.6424 5.69062 5.625 5.69062V6.81562ZM6.81562 5.625V2.50313H5.69062V5.625H6.81562ZM6.81562 2.50313C6.81562 2.18735 6.69018 1.88451 6.4669 1.66123C6.24361 1.43794 5.94077 1.3125 5.625 1.3125V2.4375C5.6424 2.4375 5.6591 2.44441 5.6714 2.45672C5.68371 2.46903 5.69062 2.48572 5.69062 2.50313H6.81562ZM5.625 8.18437H2.50313V9.30938H5.625V8.18437ZM2.50313 8.18437C2.18735 8.18437 1.88451 8.30982 1.66123 8.5331C1.43794 8.75639 1.3125 9.05923 1.3125 9.375H2.4375C2.4375 9.3576 2.44441 9.3409 2.45672 9.3286C2.46903 9.31629 2.48572 9.30938 2.50313 9.30938V8.18437ZM1.3125 9.375V12.4969H2.4375V9.375H1.3125ZM1.3125 12.4969C1.3125 12.8126 1.43794 13.1155 1.66123 13.3388C1.88451 13.5621 2.18735 13.6875 2.50313 13.6875V12.5625C2.48572 12.5625 2.46903 12.5556 2.45672 12.5433C2.44441 12.531 2.4375 12.5143 2.4375 12.4969H1.3125ZM2.50313 13.6875H5.625V12.5625H2.50313V13.6875ZM5.625 13.6875C5.94077 13.6875 6.24361 13.5621 6.4669 13.3388C6.69018 13.1155 6.81562 12.8126 6.81562 12.4969H5.69062C5.69062 12.5143 5.68371 12.531 5.6714 12.5433C5.6591 12.5556 5.6424 12.5625 5.625 12.5625V13.6875ZM6.81562 12.4969V9.375H5.69062V12.4969H6.81562ZM6.81562 9.375C6.81562 9.05923 6.69018 8.75639 6.4669 8.5331C6.24361 8.30982 5.94077 8.18437 5.625 8.18437V9.30938C5.6424 9.30938 5.6591 9.31629 5.6714 9.3286C5.68371 9.3409 5.69062 9.3576 5.69062 9.375H6.81562ZM12.4969 1.3125H9.375V2.4375H12.4969V1.3125ZM9.375 1.3125C9.05923 1.3125 8.75639 1.43794 8.5331 1.66123C8.30982 1.88451 8.18437 2.18735 8.18437 2.50313H9.30938C9.30938 2.48572 9.31629 2.46903 9.3286 2.45672C9.3409 2.44441 9.3576 2.4375 9.375 2.4375V1.3125ZM8.18437 2.50313V5.625H9.30938V2.50313H8.18437ZM8.18437 5.625C8.18437 5.94077 8.30982 6.24361 8.5331 6.4669C8.75639 6.69018 9.05923 6.81562 9.375 6.81562V5.69062C9.3576 5.69062 9.3409 5.68371 9.3286 5.6714C9.31629 5.6591 9.30938 5.6424 9.30938 5.625H8.18437ZM9.375 6.81562H12.4969V5.69062H9.375V6.81562ZM12.4969 6.81562C12.8126 6.81562 13.1155 6.69018 13.3388 6.4669C13.5621 6.24361 13.6875 5.94077 13.6875 5.625H12.5625C12.5625 5.6424 12.5556 5.6591 12.5433 5.6714C12.531 5.68371 12.5143 5.69062 12.4969 5.69062V6.81562ZM13.6875 5.625V2.50313H12.5625V5.625H13.6875ZM13.6875 2.50313C13.6875 2.18735 13.5621 1.88451 13.3388 1.66123C13.1155 1.43794 12.8126 1.3125 12.4969 1.3125V2.4375C12.5143 2.4375 12.531 2.44441 12.5433 2.45672C12.5556 2.46903 12.5625 2.48572 12.5625 2.50313H13.6875Z" fill="#3760F0"/>
<path d="M9.2812 12.1029H8.61558C8.4936 12.131 8.38474 12.1996 8.30679 12.2975C8.22883 12.3954 8.18638 12.5168 8.18638 12.642C8.18638 12.7671 8.22883 12.8886 8.30679 12.9865C8.38474 13.0844 8.4936 13.153 8.61558 13.1811H9.2812C9.40318 13.153 9.51204 13.0844 9.58999 12.9865C9.66795 12.8886 9.7104 12.7671 9.7104 12.642C9.7104 12.5168 9.66795 12.3954 9.58999 12.2975C9.51204 12.1996 9.40318 12.131 9.2812 12.1029ZM9.2812 8.64355H8.61558C8.4936 8.6716 8.38474 8.74018 8.30679 8.83809C8.22883 8.936 8.18638 9.05746 8.18638 9.18262C8.18638 9.30777 8.22883 9.42923 8.30679 9.52714C8.38474 9.62506 8.4936 9.69364 8.61558 9.72168H9.2812C9.40318 9.69364 9.51204 9.62506 9.58999 9.52714C9.66795 9.42923 9.7104 9.30777 9.7104 9.18262C9.7104 9.05746 9.66795 8.936 9.58999 8.83809C9.51204 8.74018 9.40318 8.6716 9.2812 8.64355ZM13.2281 12.1029H10.8562C10.7255 12.1202 10.6055 12.1844 10.5185 12.2836C10.4316 12.3827 10.3837 12.5101 10.3837 12.642C10.3837 12.7739 10.4316 12.9012 10.5185 13.0004C10.6055 13.0996 10.7255 13.1638 10.8562 13.1811H13.2281C13.3588 13.1638 13.4788 13.0996 13.5657 13.0004C13.6527 12.9012 13.7006 12.7739 13.7006 12.642C13.7006 12.5101 13.6527 12.3827 13.5657 12.2836C13.4788 12.1844 13.3588 12.1202 13.2281 12.1029ZM13.2281 8.64355H10.8562C10.7255 8.66083 10.6055 8.72503 10.5185 8.8242C10.4316 8.92337 10.3837 9.05075 10.3837 9.18262C10.3837 9.31449 10.4316 9.44187 10.5185 9.54103C10.6055 9.6402 10.7255 9.7044 10.8562 9.72168H13.2281C13.3588 9.7044 13.4788 9.6402 13.5657 9.54103C13.6527 9.44187 13.7006 9.31449 13.7006 9.18262C13.7006 9.05075 13.6527 8.92337 13.5657 8.8242C13.4788 8.72503 13.3588 8.66083 13.2281 8.64355ZM9.2812 10.3779H8.61558C8.49099 10.4014 8.37852 10.4676 8.29759 10.5652C8.21666 10.6627 8.17236 10.7855 8.17236 10.9123C8.17236 11.0391 8.21666 11.1619 8.29759 11.2594C8.37852 11.357 8.49099 11.4232 8.61558 11.4467H9.2812C9.40579 11.4232 9.51826 11.357 9.59919 11.2594C9.68012 11.1619 9.72442 11.0391 9.72442 10.9123C9.72442 10.7855 9.68012 10.6627 9.59919 10.5652C9.51826 10.4676 9.40579 10.4014 9.2812 10.3779ZM13.2281 10.3779H10.8562C10.7316 10.4014 10.6191 10.4676 10.5382 10.5652C10.4573 10.6627 10.413 10.7855 10.413 10.9123C10.413 11.0391 10.4573 11.1619 10.5382 11.2594C10.6191 11.357 10.7316 11.4232 10.8562 11.4467H13.2281C13.3527 11.4232 13.4651 11.357 13.5461 11.2594C13.627 11.1619 13.6713 11.0391 13.6713 10.9123C13.6713 10.7855 13.627 10.6627 13.5461 10.5652C13.4651 10.4676 13.3527 10.4014 13.2281 10.3779Z" fill="#3760F0"/>
</svg>
