<?xml version="1.0" standalone="no"?>
<!DOCTYPE svg PUBLIC "-//W3C//DTD SVG 1.1//EN" "http://www.w3.org/Graphics/SVG/1.1/DTD/svg11.dtd"><svg t="1668567589345"
    class="icon" viewBox="0 0 1024 1024" version="1.1" xmlns="http://www.w3.org/2000/svg" p-id="2705"
    xmlns:xlink="http://www.w3.org/1999/xlink" width="200" height="200">
    <path
        d="M992 504.96a32 32 0 0 0-32 32V960H64V64h416a32 32 0 0 0 0-64H64a64 64 0 0 0-64 64v896a64 64 0 0 0 64 64h896a64 64 0 0 0 64-64V536.96a32 32 0 0 0-32-32z"
        fill="#3760f0" p-id="2706"></path>
    <path
        d="M344 674.88a32 32 0 0 0 45.12 0L1011.52 55.68A32 32 0 1 0 966.08 10.24L344.32 629.44a32 32 0 0 0-0.32 45.44z"
        fill="#3760f0" p-id="2707"></path>
</svg>