<svg width="16" height="16" viewBox="0 0 16 16" fill="none" xmlns="http://www.w3.org/2000/svg">
<path d="M9.76272 0.999949H11.7626V3.00066H9.76272V0.999949ZM9.76272 7.00127H11.7626V9.00198H9.76272V6.99883M9.76272 13.0002H11.7626V15.0001H9.76272V12.9969M3.76546 7.4984V8.49835L3.76546 13.4997C3.76546 14.052 4.21317 14.4997 4.76546 14.4997H8.76439V15C8.76439 15.5523 9.21211 16 9.76439 16H11.7634C12.3157 16 12.7634 15.5523 12.7634 15V12.9978C12.7634 12.4455 12.3157 11.9978 11.7634 11.9978H9.76358C9.2113 11.9978 8.76358 12.4455 8.76358 12.9978V13.4973H4.76379V8.49835H8.76358V8.99787C8.76358 9.55016 9.2113 9.99787 9.76358 9.99787H11.7626C12.3149 9.99787 12.7626 9.55016 12.7626 8.99787V7.00132C12.7626 6.44903 12.3149 6.00132 11.7626 6.00132H9.76358C9.2113 6.00132 8.76358 6.44903 8.76358 7.00132V7.4984H4.76379V2.49947H8.76358V2.99899C8.76358 3.55127 9.2113 3.99899 9.76358 3.99899H11.7626C12.3149 3.99899 12.7626 3.55127 12.7626 2.99899V1C12.7626 0.447715 12.3149 0 11.7626 0H9.76358C9.2113 0 8.76358 0.447715 8.76358 1V1.49952H4.76465C4.21236 1.49952 3.76465 1.94723 3.76465 2.49952V7.50084L3.76546 7.4984Z" fill="#3760F0"/>
</svg>
