<svg width="14" height="14" viewBox="0 0 14 14" fill="none" xmlns="http://www.w3.org/2000/svg">
<path fill-rule="evenodd" clip-rule="evenodd" d="M6.81128 1.94735C6.93797 1.94727 7.05249 2.02251 7.1024 2.13875L7.64047 3.39241C7.83996 3.85686 8.29768 4.15799 8.80417 4.15791H12.3933C12.4773 4.15791 12.5578 4.19116 12.6172 4.25035C12.6765 4.30962 12.7098 4.38992 12.7098 4.47369V11.7368C12.7098 11.8206 12.6765 11.9009 12.6172 11.9601C12.5578 12.0193 12.4773 12.0526 12.3933 12.0526H2.26592C2.18203 12.0526 2.10147 12.0193 2.04215 11.9601C1.98283 11.9009 1.94943 11.8206 1.94943 11.7368V2.26312C1.94943 2.17943 1.98283 2.09906 2.04215 2.03986C2.10147 1.98067 2.18203 1.94735 2.26592 1.94735H6.81128V1.94735ZM6.81128 1H2.26592C1.93016 1 1.60818 1.13306 1.3708 1.36999C1.13335 1.60685 1 1.92812 1 2.26312V11.7368C1 12.0718 1.13335 12.3931 1.3708 12.63C1.60818 12.8669 1.93016 13 2.26592 13H12.3933C12.7291 13 13.0512 12.8669 13.2885 12.63C13.5259 12.3931 13.6593 12.0718 13.6593 11.7368V4.47369C13.6593 4.13869 13.5259 3.8174 13.2885 3.58048C13.0512 3.34362 12.7291 3.21049 12.3933 3.21049H8.80417C8.67755 3.21049 8.56317 3.13524 8.51333 3.01917L7.97526 1.7655C7.77571 1.30088 7.31782 0.999778 6.81128 1Z" fill="#3760F0"/>
<path d="M7.1024 2.13875L7.14834 2.11902L7.14834 2.11902L7.1024 2.13875ZM7.64047 3.39241L7.59452 3.41213L7.59453 3.41215L7.64047 3.39241ZM8.80417 4.15791L8.80417 4.10791L8.80416 4.10791L8.80417 4.15791ZM12.6172 4.25035L12.6525 4.21498L12.6525 4.21494L12.6172 4.25035ZM12.6172 11.9601L12.6525 11.9956L12.6525 11.9955L12.6172 11.9601ZM2.04215 11.9601L2.00681 11.9955L2.00683 11.9955L2.04215 11.9601ZM6.81128 1L6.81128 1.05L6.8113 1.05L6.81128 1ZM1.3708 1.36999L1.40612 1.40539L1.40613 1.40538L1.3708 1.36999ZM1.3708 12.63L1.40612 12.5946L1.3708 12.63ZM13.2885 12.63L13.3239 12.6654L13.3239 12.6654L13.2885 12.63ZM13.2885 3.58048L13.3239 3.54509L13.3239 3.54509L13.2885 3.58048ZM8.51333 3.01917L8.46738 3.03889L8.46739 3.0389L8.51333 3.01917ZM7.97526 1.7655L8.02121 1.74578L8.0212 1.74577L7.97526 1.7655ZM6.8113 1.99735C6.91806 1.99729 7.01447 2.06067 7.05645 2.15847L7.14834 2.11902C7.09052 1.98434 6.95787 1.89726 6.81125 1.89735L6.8113 1.99735ZM7.05645 2.15847L7.59452 3.41213L7.68641 3.37269L7.14834 2.11902L7.05645 2.15847ZM7.59453 3.41215C7.80193 3.89501 8.27775 4.20799 8.80418 4.20791L8.80416 4.10791C8.31761 4.10798 7.87799 3.81872 7.68641 3.37268L7.59453 3.41215ZM8.80417 4.20791H12.3933V4.10791H8.80417V4.20791ZM12.3933 4.20791C12.4641 4.20791 12.5319 4.23593 12.5819 4.28577L12.6525 4.21494C12.5837 4.1464 12.4905 4.10791 12.3933 4.10791V4.20791ZM12.5819 4.28573C12.6318 4.33563 12.6598 4.40322 12.6598 4.47369H12.7598C12.7598 4.37663 12.7212 4.28361 12.6525 4.21498L12.5819 4.28573ZM12.6598 4.47369V11.7368H12.7598V4.47369H12.6598ZM12.6598 11.7368C12.6598 11.8073 12.6318 11.8748 12.5818 11.9248L12.6525 11.9955C12.7212 11.9269 12.7598 11.8339 12.7598 11.7368H12.6598ZM12.5819 11.9247C12.5319 11.9746 12.4641 12.0026 12.3933 12.0026V12.1026C12.4905 12.1026 12.5837 12.0641 12.6525 11.9956L12.5819 11.9247ZM12.3933 12.0026H2.26592V12.1026H12.3933V12.0026ZM2.26592 12.0026C2.19523 12.0026 2.12739 11.9746 2.07747 11.9247L2.00683 11.9955C2.07555 12.0641 2.16882 12.1026 2.26592 12.1026V12.0026ZM2.07749 11.9248C2.02751 11.8748 1.99943 11.8072 1.99943 11.7368H1.89943C1.89943 11.8339 1.93814 11.9269 2.00681 11.9955L2.07749 11.9248ZM1.99943 11.7368V2.26312H1.89943V11.7368H1.99943ZM1.99943 2.26312C1.99943 2.19274 2.02752 2.12509 2.07747 2.07526L2.00683 2.00447C1.93813 2.07302 1.89943 2.16612 1.89943 2.26312H1.99943ZM2.07747 2.07526C2.12741 2.02542 2.19526 1.99735 2.26592 1.99735V1.89735C2.16879 1.89735 2.07553 1.93592 2.00683 2.00447L2.07747 2.07526ZM2.26592 1.99735H6.81128V1.89735H2.26592V1.99735ZM6.81128 0.95H2.26592V1.05H6.81128V0.95ZM2.26592 0.95C1.91694 0.95 1.58225 1.0883 1.33548 1.3346L1.40613 1.40538C1.63412 1.17782 1.94339 1.05 2.26592 1.05V0.95ZM1.33549 1.33459C1.08864 1.58082 0.95 1.91483 0.95 2.26312H1.05C1.05 1.94142 1.17806 1.63288 1.40612 1.40539L1.33549 1.33459ZM0.95 2.26312V11.7368H1.05V2.26312H0.95ZM0.95 11.7368C0.95 12.0851 1.08864 12.4191 1.33549 12.6654L1.40612 12.5946C1.17806 12.367 1.05 12.0585 1.05 11.7368H0.95ZM1.33549 12.6654C1.58225 12.9116 1.91693 13.05 2.26592 13.05V12.95C1.94339 12.95 1.63412 12.8221 1.40612 12.5946L1.33549 12.6654ZM2.26592 13.05H12.3933V12.95H2.26592V13.05ZM12.3933 13.05C12.7423 13.05 13.0771 12.9116 13.3239 12.6654L13.2532 12.5946C13.0252 12.8221 12.7159 12.95 12.3933 12.95V13.05ZM13.3239 12.6654C13.5706 12.4191 13.7093 12.0851 13.7093 11.7368H13.6093C13.6093 12.0585 13.4812 12.367 13.2532 12.5946L13.3239 12.6654ZM13.7093 11.7368V4.47369H13.6093V11.7368H13.7093ZM13.7093 4.47369C13.7093 4.12538 13.5706 3.79137 13.3239 3.54509L13.2532 3.61587C13.4812 3.84342 13.6093 4.15199 13.6093 4.47369H13.7093ZM13.3239 3.54509C13.0771 3.29886 12.7423 3.16049 12.3933 3.16049V3.26049C12.7159 3.26049 13.0252 3.38838 13.2532 3.61587L13.3239 3.54509ZM12.3933 3.16049H8.80417V3.26049H12.3933V3.16049ZM8.80417 3.16049C8.69749 3.16049 8.60121 3.09709 8.55927 2.99944L8.46739 3.0389C8.52514 3.17338 8.65762 3.26049 8.80417 3.26049V3.16049ZM8.55928 2.99945L8.02121 1.74578L7.92931 1.78522L8.46738 3.03889L8.55928 2.99945ZM8.0212 1.74577C7.81374 1.26273 7.33774 0.949769 6.81125 0.95L6.8113 1.05C7.2979 1.04979 7.73768 1.33903 7.92932 1.78523L8.0212 1.74577Z" fill="#3760F0"/>
<path fill-rule="evenodd" clip-rule="evenodd" d="M3.71644 3.76904H5.93185C6.24834 3.76904 6.40653 3.92285 6.40653 4.23055C6.40653 4.53824 6.24834 4.69212 5.93185 4.69212H3.71644C3.39997 4.69212 3.2417 4.53824 3.2417 4.23055C3.2417 3.92285 3.39997 3.76904 3.71644 3.76904Z" fill="#3760F0"/>
</svg>
