<?xml version="1.0" standalone="no"?>
<!DOCTYPE svg PUBLIC "-//W3C//DTD SVG 1.1//EN" "http://www.w3.org/Graphics/SVG/1.1/DTD/svg11.dtd"><svg t="1668568344122"
    class="icon" viewBox="50 90 1024 1024" version="1.1" xmlns="http://www.w3.org/2000/svg" p-id="14929"
    xmlns:xlink="http://www.w3.org/1999/xlink" width="200" height="200">
    <path
        d="M848 864H176c-17.6 0-32 14.4-32 32s14.4 32 32 32h672c17.6 0 32-14.4 32-32s-14.4-32-32-32zM608 276.8l-192 112c-14.4 9.6-20.8 28.8-11.2 43.2 8 16 28.8 20.8 43.2 11.2l192-112c14.4-9.6 20.8-28.8 11.2-43.2-8-16-27.2-20.8-43.2-11.2zM896 96H128c-35.2 0-64 28.8-64 64v576c0 35.2 28.8 64 64 64h768c35.2 0 64-28.8 64-64V160c0-35.2-28.8-64-64-64z m0 624c0 9.6-6.4 16-16 16H144c-9.6 0-16-6.4-16-16V176c0-9.6 6.4-16 16-16h736c9.6 0 16 6.4 16 16v544zM560 452.8l-192 112c-14.4 9.6-20.8 28.8-11.2 43.2 8 16 28.8 20.8 43.2 11.2l192-112c14.4-9.6 20.8-28.8 11.2-43.2-8-16-27.2-20.8-43.2-11.2z"
        p-id="14930" fill="#3760f0"></path>
</svg>