<?xml version="1.0" encoding="UTF-8"?>
<svg width="17px" height="11px" viewBox="0 0 17 11" version="1.1" xmlns="http://www.w3.org/2000/svg" xmlns:xlink="http://www.w3.org/1999/xlink">
    <title>variable.icon</title>
    <g id="页面-1" stroke="none" stroke-width="1" fill="none" fill-rule="evenodd">
        <g id="树状列表" transform="translate(-329.000000, -620.000000)" fill="#3760F0" fill-rule="nonzero">
            <g id="variable.icon" transform="translate(329.000000, 620.000000)">
                <path d="M1.21428571,1.22222222 L3.64285714,1.22222222 L3.64285714,0 L0.607142857,0 L0,0.611111111 L0,10.3888889 L0.607142857,11 L3.64285714,11 L3.64285714,9.77777778 L1.21428571,9.77777778 L1.21428571,1.22222222 Z M16.3928571,0 L13.3571429,0 L13.3571429,1.22222222 L15.7857143,1.22222222 L15.7857143,9.77777778 L13.3571429,9.77777778 L13.3571429,11 L16.3928571,11 L17,10.3888889 L17,0.611111111 L16.3928571,0 Z M13.0657143,3.14111111 L13.3571429,3.66666667 L13.3571429,6.73444444 L12.9928571,7.28444444 L7.52857143,9.72888889 L6.97,9.72888889 L3.93428571,7.89555556 L3.64285714,7.37 L3.64285714,4.31444444 L4.00714286,3.75222222 L9.47142857,1.30777778 L10.03,1.30777778 L13.0657143,3.14111111 Z M4.85714286,6.97888889 L6.67857143,8.07888889 L6.67857143,6.45333333 L4.85714286,5.35333333 L4.85714286,6.97888889 Z M5.56142857,4.35111111 L7.32214286,5.41444444 L11.4385714,3.58111111 L9.67785714,2.51777778 L5.56142857,4.35111111 L5.56142857,4.35111111 Z M7.92928571,8.22555556 L12.1792857,6.31888889 L12.1792857,4.60777778 L7.92928571,6.50222222 L7.92928571,8.22555556 L7.92928571,8.22555556 Z" id="形状"></path>
            </g>
        </g>
    </g>
</svg>