<svg t="1733195806891" class="icon" viewBox="0 0 1024 1024" version="1.1" xmlns="http://www.w3.org/2000/svg" p-id="4637" width="200" height="200"><path d="M433.9 545.2h152.9c41.2 0 74.7 33.5 74.7 74.7s-33.5 74.7-74.7 74.7H416.4a66.94 66.94 0 0 0-53.8-27c-36.7 0-66.4 29.2-66.4 65.1s29.7 65.1 66.4 65.1c26.4 0 49.1-15 59.8-36.8h164.3c77.8 0 141.1-63.3 141.1-141.1s-63.3-141.1-141.1-141.1H433.8c-39.7 0-72-33.5-72-74.7s32.3-74.7 72-74.7h172.1c11.9 17.5 32.3 29 55.5 29 36.7 0 66.4-28.8 66.4-64.3s-29.7-64.3-66.4-64.3c-25 0-46.8 13.4-58.1 33.2H433.9c-76.3 0-138.5 63.3-138.5 141.1s62.1 141.1 138.5 141.1z" fill="#707070" p-id="4638"></path><path d="M893.8 97H130.2C111.9 97 97 111.9 97 130.2v763.6c0 18.3 14.9 33.2 33.2 33.2h763.6c18.3 0 33.2-14.9 33.2-33.2V130.2c0-18.3-14.9-33.2-33.2-33.2z m-33.2 763.6H163.4V163.4h697.2v697.2z" fill="#707070" p-id="4639"></path></svg>