<?xml version="1.0" encoding="UTF-8" standalone="no"?>
<svg
   id="_图层_1"
   viewBox="0 0 453.54 240.94"
   version="1.1"
   sodipodi:docname="ddb.svg"
   inkscape:version="1.4 (86a8ad7, 2024-10-11)"
   xmlns:inkscape="http://www.inkscape.org/namespaces/inkscape"
   xmlns:sodipodi="http://sodipodi.sourceforge.net/DTD/sodipodi-0.dtd"
   xmlns="http://www.w3.org/2000/svg"
   xmlns:svg="http://www.w3.org/2000/svg">
  <sodipodi:namedview
     id="namedview9"
     pagecolor="#505050"
     bordercolor="#ffffff"
     borderopacity="1"
     inkscape:showpageshadow="0"
     inkscape:pageopacity="0"
     inkscape:pagecheckerboard="1"
     inkscape:deskcolor="#505050"
     inkscape:zoom="5.561415"
     inkscape:cx="218.73929"
     inkscape:cy="103.30105"
     inkscape:window-width="3840"
     inkscape:window-height="2126"
     inkscape:window-x="2869"
     inkscape:window-y="-11"
     inkscape:window-maximized="1"
     inkscape:current-layer="_图层_1" />
  <defs
     id="defs1">
    <style
       id="style1">.cls-1{fill:#fff;}</style>
  </defs>
  <path
     class="cls-1"
     d="m 70.129575,67.39 h -32.37 l -3.630855,82.3 h 32.37 c 5.39,0 10.445256,-1.83 14.589213,-4.92 2.156292,-2.21 3.196778,-4.51 3.565551,-5.7 2.059022,-6.49 -2.723327,-14.31 -4.895636,-16.55 -3.2592,-3.38 -7.752448,-6.53 -13.918806,-8.54 -0.07574,-0.02 -0.2,0 -0.152723,0.13 0.343806,0.92 1.757703,4.7 2.765315,6.54 0.147421,0.27 0.310649,0.63 0.111975,0.53 -1.16918,-0.59 -5.594646,-3.12 -8.7496,-9.31 -3.674566,-7.2 -13.516587,-9.16 -14.019527,-9.24 -0.50294,-0.08 -5.066601,-0.86 -4.989009,-1.81 0,0 -0.04894,-1.74 3.406942,-1.58 3.498747,0.17 1.722343,-3.27 6.816391,-3.5 5.094049,-0.23 16.426477,3.51 22.974134,6.78 6.557657,3.27 11.958458,-0.11 15.575394,2.46 3.626935,2.57 -5.67193,0.9 -4.633839,4.59 1.03809,3.69 4.934035,8.07 6.428602,15.27 0.06316,0.29 0.116312,0.58 0.169468,0.87 0.01545,-0.26 0.03089,-0.52 0.04634,-0.78 L 93.036523,92.14 C 93.636713,78.47 83.369575,67.39 70.099575,67.39 Z"
     id="path1" />
  <path
     class="cls-1"
     d="m 118.54333,97.36 1.15875,0.17 1.23125,-0.17 c 7.55,0 13.03605,3.09 16.46813,9.27 0.5955,1.17 1.14576,2.81 1.65792,4.91 0.4254,2.46 0.25488,10.27 -0.50868,23.44 -0.6036,3.44 -2.21455,6.68 -4.83997,9.73 -3.4822,3.41 -7.66187,5.12 -12.52187,5.12 h -4.78 c -5.45,0 -9.99811,-2.33 -13.63721,-7 -1.58386,-2.35 -2.61072,-4.85 -3.073461,-7.51 -0.333419,-1.93 -0.171142,-9.42 0.513961,-22.48 1.08401,-5.81 3.59115,-9.97 7.55002,-12.45 3.42364,-2.01 7.01403,-3.02 10.79403,-3.02 z m -8.73263,37.62 c 0.57625,3.3 2.94938,4.95 7.10938,4.95 h 2.68 c 5.98,0 9.00073,-3.45 9.04932,-10.36 0.50983,-9.87 0.64545,-15.5 0.39401,-16.9 l -0.16528,-0.96 c -0.49722,-2.85 -3.09727,-4.28 -7.79727,-4.28 h -1.09 c -4.7,0 -7.66841,1.54 -8.9181,4.61 -0.84393,1.73 -1.32274,8.43 -1.42929,20.09 -0.22,0 -0.16759,0.95 0.16723,2.85 z"
     id="path2" />
  <path
     class="cls-1"
     d="m 150.12099,74.3 c 3.63,0 6.22151,1.47 7.77167,4.4 l 0.50342,1.93 0.0287,0.17 -1.69673,51.66 0.17342,1.93 c 0.46847,2.68 1.95741,4.42 4.47107,5.2 5.28,0 8.43101,0.98 9.44303,2.94 0.79087,0.84 1.32643,2.08 1.61956,3.73 0.11246,2.38 -0.009,3.56 -0.33918,3.56 h -6.67 c -8.86,0 -14.73802,-3.62 -17.62406,-10.86 l -0.88891,-3.1 c 0,0 -0.33489,-1.97 -0.33489,-1.97 -0.24144,-1.4 -0.0806,-8.86 0.48977,-22.39 l 1.44182,-37.03 0.14126,-0.17 z"
     id="path3" />
  <path
     class="cls-1"
     d="m 179.5748,97.4 c 2.88,0 5.0708,0.77 6.57239,2.31 h 0.13 c 2.32841,-1.54 5.22761,-2.31 8.69761,-2.31 h 0.46 c 6.63,0 10.87234,0.88 12.74701,2.64 3.98289,2.8 6.39679,6.58 7.22743,11.36 0.3679,2.12 0.14996,9.66 -0.65956,22.6 -2.11179,9.34 -8.27269,14.01 -18.47269,14.01 h -9.98 l -0.82656,19.96 h -2.14 c -3.05,0 -5.25012,-1.5 -6.61749,-4.49 l -0.39571,-1.38 c 0,0 -0.14506,-0.75 -0.14506,-0.75 -0.12539,-2.46 0.6512,-23.78 2.31263,-63.95 z m 7.16649,40.93 h 0.17 l 4.80728,0.13 h 4.74 c 5.17,0 8.11424,-2.81 8.84274,-8.43 0.41165,-9.48 0.56419,-15.33 0.45188,-17.57 l -0.11065,-0.63 c -0.40525,-2.32 -1.6911,-3.84 -3.86043,-4.57 -0.90308,-0.22 -2.05749,-0.34 -3.45749,-0.34 h -0.29 c -5.7,0 -9.06518,1.9 -10.07555,5.7 -0.40461,2.46 -0.8072,11.03 -1.21065,25.7 z"
     id="path4" />
  <path
     class="cls-1"
     d="m 226.48099,74.3 c 3.27,0 5.64151,1.47 7.10167,4.4 l 0.70217,2.1 -0.57526,17.07 0.18728,0.13 c 2.17759,-0.95 4.90995,-1.43 8.17995,-1.43 h 0.17 c 9.14,0 15.2873,2.92 18.43189,8.76 0.87342,1.93 1.43949,3.66 1.71108,5.2 l 0.1394,0.8 c 0.37216,2.1 0.24622,8.81 -0.37782,20.13 l -0.68249,18.37 h -2.77 c -3.44,0 -5.73782,-2.05 -6.90635,-6.16 l -0.23277,-1.3 c 0.72998,-18.03 1.01812,-28.15 0.85441,-30.36 -0.62654,-3.58 -3.26982,-5.37 -7.93982,-5.37 -5.37,0 -8.56877,1.19 -9.60919,3.56 -1.42436,1.31 -2.17432,6.89 -2.27275,16.73 l -0.88227,22.73 -0.14126,0.17 h -2.6 c -3.41,0 -5.70782,-2.05 -6.90635,-6.16 l -0.16527,-0.96 2.49948,-68.39 h 2.1 z"
     id="path5" />
  <path
     class="cls-1"
     d="m 274.77039,97.28 c 2.85,0 4.99241,0.95 6.40723,2.85 0.69241,0.95 1.12768,1.91 1.29869,2.89 l 0.13506,0.75 c 0.12933,0.73 -0.38634,16.02 -1.53412,45.88 l -0.14125,0.17 h -1.09 c -4.92,0 -7.75364,-2.14 -8.49804,-6.41 -0.0243,-5.56 0.52555,-20.94 1.66243,-46.13 z m -0.57794,-22.94 h 2.43 c 4.03338,0.5 6.34827,2.47 6.94467,5.91 l 0.16528,0.96 c 0.0195,5.09 -0.12214,7.63 -0.42214,7.63 h -0.96 c -3.72,0 -6.28416,-1.27 -7.71536,-3.82 l -0.9026,-2.52 c -0.0628,-5.45 0.0944,-8.18 0.45442,-8.18 z"
     id="path6" />
  <path
     class="cls-1"
     d="m 294.91208,97.53 h 1.26 c 1.68,0 3.33785,0.69 4.96783,2.05 2.38716,-1.37 5.19217,-2.05 8.40217,-2.05 h 4.95 c 6.18,0 11.06708,2.71 14.67411,8.14 0.98202,1.96 1.63537,3.82 1.94004,5.58 0.41245,2.38 0.18446,12.64 -0.69398,30.78 -0.0521,4.84 -0.23661,7.44 -0.56339,7.8 h -1.09 c -3.44,0 -5.96137,-1.33 -7.57124,-3.98 l -0.54005,-1.43 -0.22277,-1.3 0.8274,-28.85 -0.21658,-2.22 c -0.33481,-1.9 -1.29898,-3.17 -2.89536,-3.82 -1.56352,-0.64 -3.68528,-0.96 -6.37528,-0.96 -5.42,0 -8.57292,2.71 -9.43589,8.14 l -1.34611,34.26 -0.14125,0.17 h -1.26 c -3.47,0 -5.98137,-1.33 -7.53125,-3.98 l -0.59004,-1.43 -0.1394,-0.8 c -0.10048,-1.85 0.41666,-17.1 1.5614,-45.75 0.43692,-0.22 1.11251,-0.34 2.03251,-0.34 z"
     id="path7" />
  <path
     class="cls-1"
     d="m 391.25643,74.04 h 21.09 c 8.95,0 14.95383,3.71 18.01148,11.13 0.7204,1.78 1.05346,3.36 0.99917,4.74 l -0.45937,13.08 c -0.1,2.79 -1.82688,5.8 -5.16642,9.01 3.12722,2.85 4.64459,5.84 4.5321,8.97 l -0.41913,11.93 c -0.21511,6.12 -3.57565,11.14 -10.05874,15.07 -2.87569,1.41 -5.9821,2.12 -9.3021,2.12 h -21.91 l -0.3375,-0.34 2.668,-75.37 0.36251,-0.34 z m 8.63343,43.5 -0.78978,22.39 h 11.39 c 4.42,0 7.33078,-2.02 8.7452,-6.05 l 0.34688,-9.95 c 0.11653,-3.36 -2.31703,-5.43 -7.31356,-6.22 l -2.15874,-0.17 z m 1.1799,-33.34 -0.82037,23.19 h 9.4 c 5.98831,-0.25 9.55658,-1.93 10.7048,-5.04 l 0.23687,-1.65 c 0.29693,-8.52 0.1254,-12.78 -0.5446,-12.78 -1.35113,-2.48 -4.1567,-3.72 -8.3967,-3.72 h -10.57 z"
     id="path8" />
  <path
     class="cls-1"
     d="m 349.65643,74.04 h 12.91 c 9.41,0 15.53228,3.6 18.36398,10.79 0.91569,2.74 1.30739,5.78 1.19086,9.14 l -1.23119,34.87 c -0.35542,9.99 -3.87164,16.42 -10.55582,19.3 -2.93723,1.3 -6.14084,1.95 -9.64084,1.95 h -21.39 l -0.3375,-0.34 2.66675,-75.2 0.18125,-0.17 0.001,-0.17 z m 2.15333,10.16 -1.97968,55.73 h 11.22 c 4.27,0 7.00974,-1.64 8.23208,-4.91 0.59584,-1.27 0.94102,-3.17 1.02269,-5.71 l 1.17704,-33.35 c 0.1957,-5.56 -0.79218,-9.04 -2.96649,-10.45 -1.49947,-0.87 -4.55564,-1.31 -9.17564,-1.31 h -7.54 z"
     id="path9" />
</svg>
