<?xml version="1.0" encoding="UTF-8"?><svg id="_图层_1" xmlns="http://www.w3.org/2000/svg" viewBox="0 0 453.54 240.94"><defs><style>.cls-1{fill:#fff;}</style></defs><path class="cls-1" d="M84.55,67.39h-32.37l-27.23,82.3h32.37c5.39,0,10.97-1.83,16-4.92,2.79-2.21,4.49-4.51,5.2-5.7,3.92-6.49,1.38-14.31-.15-16.55-2.29-3.38-5.88-6.53-11.47-8.54-.07-.02-.2,0-.19.13.08.92.41,4.7.89,6.54.07.27.13.63-.04.53-1-.59-4.7-3.12-6.08-9.31-1.61-7.2-10.89-9.16-11.37-9.24-.48-.08-4.82-.86-4.47-1.81,0,0,.45-1.74,3.86-1.58,3.45.17,2.66-3.27,7.82-3.5,5.16-.23,15.42,3.51,21.03,6.78,5.62,3.27,11.99-.11,14.87,2.46,2.89,2.57-5.93.9-5.95,4.59-.02,3.69,2.62,8.07,2.05,15.27-.02.29-.05.58-.08.87.09-.26.18-.52.27-.78l10.85-32.79c4.52-13.67-2.57-24.75-15.84-24.75Z"/><path class="cls-1" d="M124.37,97.36l1.11.17,1.28-.17c7.55,0,12.15,3.09,13.81,9.27.26,1.17.34,2.81.25,4.91-.28,2.46-2.69,10.27-7.23,23.44-1.59,3.44-4.13,6.68-7.63,9.73-4.46,3.41-9.13,5.12-13.99,5.12h-4.78c-5.45,0-9.33-2.33-11.63-7-.91-2.35-1.22-4.85-.92-7.51.22-1.93,2.53-9.42,6.96-22.48,2.75-5.81,6.45-9.97,11.12-12.45,4-2.01,7.88-3.02,11.66-3.02ZM104.85,134.98c-.37,3.3,1.53,4.95,5.69,4.95h2.68c5.98,0,9.99-3.45,12.02-10.36,3.34-9.87,5.09-15.5,5.24-16.9l.11-.96c.32-2.85-1.87-4.28-6.57-4.28h-1.09c-4.7,0-8.11,1.54-10.24,4.61-1.34,1.73-3.74,8.43-7.19,20.09-.22,0-.44.95-.65,2.85Z"/><path class="cls-1" d="M162.56,74.3c3.63,0,5.8,1.47,6.51,4.4l-.05,1.93-.02.17-16.51,51.66-.38,1.93c-.3,2.68.69,4.42,2.98,5.2,5.28,0,8.15.98,8.6,2.94.55.84.73,2.08.55,3.73-.57,2.38-1.03,3.56-1.36,3.56h-6.67c-8.86,0-13.7-3.62-14.51-10.86v-3.1s.23-1.97.23-1.97c.16-1.4,2.46-8.86,6.91-22.39l12.06-37.03.19-.17h1.47Z"/><path class="cls-1" d="M185.39,97.4c2.88,0,4.85.77,5.91,2.31h.13c2.77-1.54,5.89-2.31,9.36-2.31h.46c6.63,0,10.62.88,11.99,2.64,3.18,2.8,4.51,6.58,3.97,11.36-.24,2.12-2.62,9.66-7.14,22.6-4.79,9.34-12.29,14.01-22.49,14.01h-9.98l-6.55,19.96h-2.14c-3.05,0-4.82-1.5-5.33-4.49v-1.38s.07-.75.07-.75c.58-2.46,7.47-23.78,20.65-63.95h1.09ZM180.82,138.33h.17l4.77.13h4.74c5.17,0,8.92-2.81,11.26-8.43,3.13-9.48,4.96-15.33,5.49-17.57l.07-.63c.26-2.32-.59-3.84-2.55-4.57-.84-.22-1.96-.34-3.36-.34h-.29c-5.7,0-9.61,1.9-11.71,5.7-1.11,2.46-3.97,11.03-8.58,25.7Z"/><path class="cls-1" d="M238.92,74.3c3.27,0,5.22,1.47,5.84,4.4l.1,2.1-5.47,17.07.15.13c2.45-.95,5.32-1.43,8.59-1.43h.17c9.14,0,14.45,2.92,15.92,8.76.32,1.93.39,3.66.22,5.2l-.09.8c-.23,2.1-2.28,8.81-6.15,20.13l-5.95,18.37h-2.77c-3.44,0-5.15-2.05-5.14-6.16l.14-1.3c5.9-18.03,9.09-28.15,9.56-30.36.4-3.58-1.73-5.37-6.4-5.37-5.37,0-8.91,1.19-10.63,3.56-1.8,1.31-4.15,6.89-7.07,16.73l-7.4,22.73-.19.17h-2.6c-3.41,0-5.12-2.05-5.14-6.16l.11-.96,22.11-68.39h2.1Z"/><path class="cls-1" d="M280.62,97.28c2.85,0,4.72.95,5.59,2.85.42.95.58,1.91.47,2.89l-.08.75c-.08.73-4.98,16.02-14.69,45.88l-.19.17h-1.09c-4.92,0-7.14-2.14-6.66-6.41,1.57-5.56,6.53-20.94,14.89-46.13h1.76ZM286.62,74.34h2.43c3.89.5,5.64,2.47,5.25,5.91l-.11.96c-1.44,5.09-2.31,7.63-2.61,7.63h-.96c-3.72,0-5.92-1.27-6.62-3.82l-.18-2.52c1.5-5.45,2.44-8.18,2.8-8.18Z"/><path class="cls-1" d="M300.69,97.53h1.26c1.68,0,3.14.69,4.38,2.05,2.78-1.37,5.78-2.05,8.99-2.05h4.95c6.18,0,10.29,2.71,12.34,8.14.42,1.96.54,3.82.34,5.58-.27,2.38-3.44,12.64-9.52,30.78-1.44,4.84-2.37,7.44-2.8,7.8h-1.09c-3.44,0-5.58-1.33-6.43-3.98l-.13-1.43.15-1.3,9.1-28.85.42-2.22c.21-1.9-.39-3.17-1.8-3.82-1.38-.64-3.41-.96-6.1-.96-5.42,0-9.35,2.71-11.77,8.14l-11.17,34.26-.19.17h-1.26c-3.47,0-5.6-1.33-6.39-3.98l-.18-1.43.09-.8c.43-1.85,5.32-17.1,14.68-45.75.5-.22,1.21-.34,2.13-.34Z"/><path class="cls-1" d="M403.77,74.04h21.09c8.95,0,13.89,3.71,14.82,11.13.21,1.78.09,3.36-.36,4.74l-4.21,13.08c-.9,2.79-3.49,5.8-7.75,9.01,2.31,2.85,2.97,5.84,1.96,8.97l-3.84,11.93c-1.97,6.12-6.77,11.14-14.38,15.07-3.28,1.41-6.59,2.12-9.91,2.12h-21.91l-.24-.34,24.28-75.37.46-.34ZM399.93,117.54l-7.21,22.39h11.39c4.42,0,7.91-2.02,10.48-6.05l3.2-9.95c1.08-3.36-.76-5.43-5.53-6.22l-2.11-.17h-10.22ZM410.67,84.2l-7.47,23.19h9.4c6.06-.25,10.11-1.93,12.15-5.04l.71-1.65c2.74-8.52,3.79-12.78,3.12-12.78-.64-2.48-3.09-3.72-7.33-3.72h-10.57Z"/><path class="cls-1" d="M362.17,74.04h12.91c9.41,0,14.5,3.6,15.27,10.79.13,2.74-.35,5.78-1.43,9.14l-11.23,34.87c-3.22,9.99-8.58,16.42-16.09,19.3-3.31,1.3-6.7,1.95-10.2,1.95h-21.39l-.24-.34,24.23-75.2.23-.17.05-.17,7.89-.17ZM361.41,84.2l-17.96,55.73h11.22c4.27,0,7.48-1.64,9.64-4.91.96-1.27,1.85-3.17,2.66-5.71l10.74-33.35c1.79-5.56,1.8-9.04.03-10.45-1.25-.87-4.18-1.31-8.8-1.31h-7.54Z"/></svg>